<svg width="73" height="73" viewBox="0 0 73 73" fill="none" xmlns="http://www.w3.org/2000/svg">
<g clip-path="url(#clip0_103_150)">
<path fill-rule="evenodd" clip-rule="evenodd" d="M36.5 0C56.6261 0 73 16.3739 73 36.5C73 56.6261 56.6261 73 36.5 73C16.3739 73 0 56.6261 0 36.5C0 16.3739 16.3739 0 36.5 0ZM59.276 54.75C56.5439 58.1664 53.0782 60.9244 49.1356 62.8197C45.193 64.715 40.8745 65.6991 36.5 65.6991C32.1255 65.6991 27.807 64.715 23.8644 62.8197C19.9218 60.9244 16.4561 58.1664 13.724 54.75C16.4561 51.3336 19.9218 48.5756 23.8644 46.6803C27.807 44.785 32.1255 43.8009 36.5 43.8009C40.8745 43.8009 45.193 44.785 49.1356 46.6803C53.0782 48.5756 56.5439 51.3336 59.276 54.75ZM36.5 36.5C37.938 36.5 39.3619 36.2168 40.6904 35.6665C42.0189 35.1162 43.226 34.3096 44.2428 33.2928C45.2596 32.276 46.0662 31.0689 46.6165 29.7404C47.1668 28.4119 47.45 26.988 47.45 25.55C47.45 24.112 47.1668 22.6881 46.6165 21.3596C46.0662 20.0311 45.2596 18.824 44.2428 17.8072C43.226 16.7904 42.0189 15.9838 40.6904 15.4335C39.3619 14.8832 37.938 14.6 36.5 14.6C33.5959 14.6 30.8107 15.7537 28.7572 17.8072C26.7037 19.8607 25.55 22.6459 25.55 25.55C25.55 28.4541 26.7037 31.2393 28.7572 33.2928C30.8107 35.3463 33.5959 36.5 36.5 36.5Z" fill="white"/>
</g>
<defs>
<clipPath id="clip0_103_150">
<rect width="73" height="73" fill="white"/>
</clipPath>
</defs>
</svg>
