<svg width="37" height="33" viewBox="0 0 37 33" fill="none" xmlns="http://www.w3.org/2000/svg">
<path fill-rule="evenodd" clip-rule="evenodd" d="M17.1163 0.436774C17.728 -0.145591 18.6887 -0.145591 19.3004 0.436774L31.967 12.5003L35.9254 16.2702C36.5585 16.8731 36.5829 17.8754 35.9798 18.5087C35.3769 19.1419 34.3746 19.1662 33.7413 18.5632L32.4583 17.3413V29.2917C32.4583 31.0406 31.0406 32.4583 29.2917 32.4583H21.375H15.0417H7.125C5.3761 32.4583 3.95834 31.0406 3.95834 29.2917V17.3413L2.6753 18.5632C2.04206 19.1662 1.03986 19.1419 0.436785 18.5087C-0.166285 17.8754 -0.141841 16.8731 0.491383 16.2702L4.44971 12.5003L17.1163 0.436774ZM7.125 14.3254V29.2917H13.4583V21.375C13.4583 18.7516 15.5849 16.625 18.2083 16.625C20.8318 16.625 22.9583 18.7516 22.9583 21.375V29.2917H29.2917V14.3254L18.2083 3.76983L7.125 14.3254ZM19.7917 29.2917V21.375C19.7917 20.5005 19.0828 19.7917 18.2083 19.7917C17.3339 19.7917 16.625 20.5005 16.625 21.375V29.2917H19.7917Z" fill="#C11A1D"/>
</svg>
