<svg width="34" height="34" viewBox="0 0 34 34" fill="none" xmlns="http://www.w3.org/2000/svg">
<path d="M17 0.5C13.7366 0.5 10.5465 1.46771 7.8331 3.28075C5.11969 5.09379 3.00484 7.67074 1.756 10.6857C0.507149 13.7007 0.180394 17.0183 0.81705 20.219C1.45371 23.4197 3.02518 26.3597 5.33275 28.6673C7.64031 30.9748 10.5803 32.5463 13.781 33.183C16.9817 33.8196 20.2993 33.4929 23.3143 32.244C26.3293 30.9952 28.9062 28.8803 30.7193 26.1669C32.5323 23.4535 33.5 20.2634 33.5 17C33.4948 12.6255 31.7548 8.43167 28.6616 5.33844C25.5683 2.24521 21.3745 0.505161 17 0.5ZM17 30.5C14.33 30.5 11.7199 29.7082 9.49981 28.2248C7.27975 26.7414 5.54942 24.633 4.52763 22.1662C3.50585 19.6994 3.23851 16.985 3.75941 14.3663C4.28031 11.7475 5.56606 9.34207 7.45407 7.45406C9.34207 5.56605 11.7475 4.2803 14.3663 3.7594C16.985 3.2385 19.6994 3.50584 22.1662 4.52763C24.633 5.54941 26.7414 7.27974 28.2248 9.4998C29.7082 11.7199 30.5 14.33 30.5 17C30.4956 20.5791 29.0719 24.0103 26.5411 26.5411C24.0103 29.0719 20.5791 30.4956 17 30.5ZM18.5 23.75V26.75H15.5V23.75H18.5ZM23 13.25C23.0016 14.1496 22.8001 15.0379 22.4105 15.8488C22.021 16.6597 21.4533 17.3721 20.75 17.933C19.6139 18.8134 18.8456 20.0848 18.5945 21.5H15.5465C15.6791 20.3435 16.042 19.2254 16.6136 18.2114C17.1853 17.1974 17.9542 16.3081 18.875 15.596C19.2445 15.3003 19.5388 14.9213 19.7339 14.49C19.9289 14.0588 20.0192 13.5875 19.9972 13.1147C19.9753 12.6419 19.8418 12.181 19.6076 11.7697C19.3735 11.3583 19.0453 11.0082 18.65 10.748C18.2094 10.46 17.7024 10.2895 17.1773 10.2528C16.6522 10.216 16.1264 10.3142 15.65 10.538C15.1418 10.7816 14.7153 11.1676 14.4224 11.649C14.1295 12.1305 13.9827 12.6867 14 13.25C14 13.6478 13.842 14.0294 13.5607 14.3107C13.2794 14.592 12.8978 14.75 12.5 14.75C12.1022 14.75 11.7207 14.592 11.4393 14.3107C11.158 14.0294 11 13.6478 11 13.25C10.9777 12.0972 11.2958 10.9633 11.9145 9.99031C12.5332 9.01729 13.425 8.2483 14.4785 7.7795C15.4123 7.36217 16.4362 7.1867 17.4557 7.26927C18.4752 7.35185 19.4575 7.68982 20.312 8.252C21.1377 8.79859 21.8152 9.54104 22.2843 10.4131C22.7533 11.2852 22.9992 12.2598 23 13.25Z" fill="#C11A1D"/>
</svg>
