<svg width="129" height="129" viewBox="0 0 129 129" fill="none" xmlns="http://www.w3.org/2000/svg">
<path d="M65.8861 22.0619L62.3008 22.014C61.0182 21.9981 59.7936 21.4765 58.8934 20.5626C57.9932 19.6487 57.4902 18.4165 57.4936 17.1337V13.1528L65.8735 13.2637V21.8301C65.8761 21.9057 65.8786 21.9838 65.8861 22.0619ZM50.7589 13.0722V16.9246C50.7596 17.5698 50.632 18.2087 50.3836 18.8042C50.1352 19.3997 49.7709 19.9398 49.3119 20.3932C48.8528 20.8466 48.3082 21.2043 47.7097 21.4453C47.1112 21.6864 46.4708 21.806 45.8256 21.7973L42.3789 21.752V12.9639L50.7589 13.0722ZM91.7113 21.9536C87.9619 22.2832 84.3494 23.5225 81.1872 25.564C78.7038 23.6441 75.7205 22.4791 72.5931 22.208C72.6083 22.0818 72.6159 21.9547 72.6158 21.8276V13.3544L82.442 13.4829C85.2689 13.5207 87.8312 14.9341 89.0482 17.1312L91.7113 21.9536Z" fill="#F6F4F9"/>
<path d="M93.7923 68.499C91.0219 68.5024 88.2732 68.0092 85.6769 67.0427L85.2864 97.0251C85.2514 99.0319 84.6929 100.995 83.6663 102.719C81.0712 107.123 75.7852 109.867 70.0331 109.792L37.0928 109.361C31.3608 109.285 26.1605 106.426 23.6763 101.973L23.6511 101.936C22.662 100.176 22.152 98.1872 22.1721 96.1685L22.9683 34.5181C23.0016 32.4942 23.5692 30.5151 24.6135 28.7811L24.6337 28.7433C26.8357 25.0371 30.9476 22.515 35.6314 21.8726V12.8753L27.2565 12.7645C24.4397 12.7267 21.8471 14.067 20.5672 16.2212L13.6057 27.9497C13.0935 28.8023 12.8146 29.7746 12.7969 30.769L11.8899 99.6354C11.8808 100.63 12.1336 101.609 12.6231 102.475L19.2822 114.387C20.5042 116.574 23.0615 117.98 25.8758 118.018L27.0071 118.03C28.6152 118.052 30.1916 118.48 31.5892 119.276C32.9868 120.072 34.1599 121.209 34.999 122.581L35.4324 123.289C35.9826 124.187 36.7543 124.93 37.6737 125.445C38.5931 125.959 39.6294 126.23 40.6831 126.229H67.5715C68.6242 126.228 69.6591 125.957 70.577 125.442C71.495 124.926 72.2655 124.184 72.8147 123.286C73.6647 121.897 74.857 120.75 76.2775 119.953C77.698 119.157 79.2991 118.739 80.9276 118.738H81.0561C83.883 118.774 86.4806 117.426 87.7555 115.261L94.664 103.553C95.1693 102.706 95.4437 101.741 95.4602 100.754L95.886 68.4133C95.1957 68.4704 94.4978 68.499 93.7923 68.499ZM59.8063 120.351H48.4483C47.7801 120.351 47.1392 120.086 46.6667 119.613C46.1942 119.14 45.9288 118.5 45.9288 117.831C45.9288 117.163 46.1942 116.522 46.6667 116.05C47.1392 115.577 47.7801 115.312 48.4483 115.312H59.8063C60.4746 115.312 61.1154 115.577 61.5879 116.05C62.0604 116.522 62.3259 117.163 62.3259 117.831C62.3259 118.5 62.0604 119.14 61.5879 119.613C61.1154 120.086 60.4746 120.351 59.8063 120.351Z" fill="#F6F4F9"/>
<path d="M57.4981 6.14262C57.4981 5.69991 57.4109 5.26155 57.2415 4.85254C57.0721 4.44354 56.8238 4.07191 56.5107 3.75887C56.1977 3.44583 55.8261 3.19751 55.4171 3.0281C55.0081 2.85868 54.5697 2.77148 54.127 2.77148C53.6843 2.77148 53.2459 2.85868 52.8369 3.0281C52.4279 3.19751 52.0563 3.44583 51.7432 3.75887C51.4302 4.07191 51.1819 4.44354 51.0125 4.85254C50.8431 5.26155 50.7559 5.69991 50.7559 6.14262C50.7559 6.14262 50.7559 9.47596 50.7559 13.0713L57.4931 13.157L57.4981 6.14262Z" fill="#E6E7E8"/>
<path d="M85.6772 67.0422L85.2867 97.0246C85.2517 99.0313 84.6933 100.994 83.6666 102.719C81.0715 107.123 75.7856 109.867 70.0335 109.791L37.0931 109.36C31.3612 109.285 26.1609 106.425 23.6766 101.973L23.6514 101.935C22.6623 100.175 22.1524 98.1866 22.1724 96.1679L22.9686 34.5175C23.002 32.4937 23.5695 30.5145 24.6139 28.7806L24.634 28.7428C26.8361 25.0365 30.948 22.5145 35.6318 21.872C35.788 21.8493 35.9467 21.8292 36.1029 21.8115L36.4431 21.7788C36.6018 21.7637 36.7631 21.7511 36.9243 21.741H37.1082C37.2266 21.741 37.3451 21.741 37.4685 21.7259C37.4887 21.7271 37.5089 21.7271 37.529 21.7259H38.242L42.3791 21.7788L45.8258 21.8241C46.471 21.8328 47.1114 21.7132 47.7099 21.4721C48.3084 21.2311 48.853 20.8734 49.312 20.42C49.7711 19.9666 50.1354 19.4265 50.3838 18.831C50.6322 18.2355 50.7598 17.5966 50.759 16.9514V13.0713L57.4963 13.1595V17.1403C57.4949 18.4218 57.9988 19.6521 58.8988 20.5644C59.7988 21.4766 61.0222 21.9972 62.3035 22.0131L65.8888 22.061L71.1799 22.129H71.8299C72.0818 22.129 72.3338 22.1592 72.5857 22.1844C75.7131 22.4555 78.6964 23.6205 81.1799 25.5405C76.0264 28.8438 72.3806 34.0433 71.0312 40.014C69.6817 45.9847 70.7371 52.2467 73.969 57.4453C69.3859 58.9268 65.133 57.2261 64.3444 56.896C65.3522 57.9719 70.8397 63.5803 78.1892 63.4468C78.5444 63.4468 78.8921 63.4166 79.2323 63.3838C81.1712 64.94 83.3471 66.1752 85.6772 67.0422Z" fill="#F16969"/>
<path d="M42.3791 12.9633V6.26135C42.3791 5.3666 42.0237 4.5085 41.391 3.87582C40.7583 3.24313 39.9002 2.8877 39.0055 2.8877C38.1107 2.8877 37.2526 3.24313 36.62 3.87582C35.9873 4.5085 35.6318 5.3666 35.6318 6.26135V12.8726L42.3791 12.9633Z" fill="#E6E7E8"/>
<path d="M42.3791 21.7519V12.9638L35.6318 12.873V21.8602C35.788 21.835 35.9468 21.8174 36.103 21.7997L36.4431 21.767C36.6019 21.7494 36.7656 21.7368 36.9244 21.7292H37.1083L37.4686 21.7116C37.4887 21.7128 37.5089 21.7128 37.529 21.7116H38.2421L42.3791 21.7519Z" fill="#F16969"/>
<path d="M72.6233 13.3538V6.26135C72.6233 5.81831 72.536 5.37962 72.3665 4.97031C72.1969 4.561 71.9484 4.18909 71.6352 3.87582C71.3219 3.56254 70.95 3.31404 70.5407 3.1445C70.1314 2.97496 69.6927 2.8877 69.2496 2.8877C68.8066 2.8877 68.3679 2.97496 67.9586 3.1445C67.5493 3.31404 67.1774 3.56254 66.8641 3.87582C66.5508 4.18909 66.3023 4.561 66.1328 4.97031C65.9632 5.37962 65.876 5.81831 65.876 6.26135V13.2682L72.6233 13.3538Z" fill="#E6E7E8"/>
<path d="M72.6233 21.827V13.3538L65.876 13.2656V22.0663L71.167 22.1344C71.3837 22.1344 71.5978 22.1344 71.817 22.1571C72.0362 22.1797 72.3209 22.1873 72.5729 22.21C72.5976 22.0835 72.6144 21.9556 72.6233 21.827Z" fill="#F16969"/>
<path d="M76.4653 63.3693V76.0426C76.4653 76.8959 76.2972 77.7409 75.9706 78.5292C75.6441 79.3176 75.1655 80.0339 74.5621 80.6373C73.9587 81.2407 73.2424 81.7193 72.454 82.0458C71.6656 82.3724 70.8207 82.5405 69.9674 82.5405H37.992C37.1387 82.5405 36.2937 82.3724 35.5054 82.0458C34.717 81.7193 34.0007 81.2407 33.3973 80.6373C32.7939 80.0339 32.3153 79.3176 31.9888 78.5292C31.6622 77.7409 31.4941 76.8959 31.4941 76.0426V55.783C31.4941 54.0597 32.1787 52.4069 33.3973 51.1883C34.6159 49.9698 36.2687 49.2852 37.992 49.2852H69.9674C70.2607 49.2849 70.5537 49.3051 70.8442 49.3456C71.3668 52.2182 72.4268 54.9664 73.9684 57.4459C69.3854 58.9274 65.1324 57.2267 64.3438 56.8967C65.2785 57.8894 69.9926 62.7168 76.4653 63.3693Z" fill="#F6F4F9"/>
<path d="M73.9684 57.4461C70.881 52.4709 69.7732 46.5182 70.864 40.7653C71.9549 35.0125 75.165 29.8786 79.8594 26.3789C84.5538 22.8793 90.3907 21.2689 96.2155 21.8661C102.04 22.4634 107.429 25.2249 111.315 29.6044C115.202 33.9839 117.303 39.6625 117.204 45.517C117.104 51.3715 114.812 56.9755 110.779 61.2206C106.746 65.4658 101.267 68.0429 95.4252 68.4422C89.5835 68.8415 83.8046 67.034 79.2317 63.3771C78.8915 63.4099 78.5438 63.4325 78.1886 63.4401C70.8391 63.5812 65.3591 57.9702 64.3438 56.8893C65.1324 57.2294 69.3853 58.9276 73.9684 57.4461Z" fill="#606161"/>
<path d="M103.356 40.1386H98.5363V35.3213C98.5363 33.9848 98.0055 32.7031 97.0604 31.7581C96.1154 30.8131 94.8337 30.2822 93.4973 30.2822C92.1608 30.2822 90.8791 30.8131 89.9341 31.7581C88.9891 32.7031 88.4582 33.9848 88.4582 35.3213V40.1386H83.6484C82.312 40.1386 81.0303 40.6695 80.0853 41.6145C79.1403 42.5595 78.6094 43.8413 78.6094 45.1777C78.6094 46.5141 79.1403 47.7958 80.0853 48.7408C81.0303 49.6859 82.312 50.2168 83.6484 50.2168H88.4658V55.0366C88.4658 56.3731 88.9967 57.6548 89.9417 58.5998C90.8867 59.5448 92.1684 60.0757 93.5048 60.0757C94.8413 60.0757 96.123 59.5448 97.068 58.5998C98.013 57.6548 98.5439 56.3731 98.5439 55.0366V50.2168H103.364C104.7 50.2168 105.982 49.6859 106.927 48.7408C107.872 47.7958 108.403 46.5141 108.403 45.1777C108.403 43.8413 107.872 42.5595 106.927 41.6145C105.982 40.6695 104.7 40.1386 103.364 40.1386H103.356Z" fill="#F16969"/>
<path d="M70.7587 125.339C69.7977 125.922 68.6953 126.229 67.5715 126.229H40.6831C39.6291 126.229 38.5927 125.958 37.6733 125.443C36.7539 124.928 35.9823 124.185 35.4324 123.286L34.999 122.578C34.1599 121.206 32.9868 120.069 31.5892 119.273C30.1916 118.477 28.6152 118.049 27.0071 118.027L25.8758 118.015C23.059 117.977 20.5042 116.571 19.2822 114.384L12.6231 102.474C12.1336 101.609 11.8808 100.629 11.8899 99.6349L12.3459 64.2783C15.1726 70.5804 18.5156 76.6378 22.3409 82.3887L22.1721 96.168C22.1541 98.1913 22.6685 100.184 23.6637 101.945L23.6889 101.983C26.1731 106.435 31.3734 109.29 37.1054 109.37L46.6594 109.496C49.0798 111.527 51.5834 113.464 54.1701 115.306H48.4483C47.7801 115.306 47.1392 115.572 46.6667 116.044C46.1942 116.517 45.9288 117.158 45.9288 117.826C45.9288 118.494 46.1942 119.135 46.6667 119.607C47.1392 120.08 47.7801 120.345 48.4483 120.345H59.8063C60.2825 120.346 60.749 120.211 61.1518 119.957C64.2659 121.891 67.4682 123.685 70.7587 125.339Z" fill="#E3E2E7"/>
<path d="M46.6473 109.496L37.0932 109.37C31.3613 109.295 26.161 106.435 23.6767 101.983L23.6515 101.945C22.6607 100.182 22.1507 98.1901 22.1725 96.168L22.3414 82.3887C29.0936 92.5495 37.2804 101.68 46.6473 109.496Z" fill="#DE5555"/>
<path d="M65.8861 23.5732H65.866L62.2807 23.5253C60.6033 23.4983 59.0036 22.8139 57.8256 21.6194C56.6477 20.425 55.9856 18.8159 55.9819 17.1383V13.16C55.9818 12.9597 56.0216 12.7615 56.0988 12.5768C56.1761 12.392 56.2892 12.2245 56.4317 12.0838C56.5743 11.9432 56.7433 11.8323 56.929 11.7575C57.1148 11.6827 57.3135 11.6456 57.5137 11.6483L65.8937 11.7591C66.2911 11.7644 66.6705 11.926 66.9496 12.209C67.2288 12.4919 67.3853 12.8734 67.3853 13.2708V21.9254C67.4057 22.1359 67.3818 22.3483 67.315 22.5489C67.2482 22.7495 67.1401 22.9339 66.9977 23.0902C66.8552 23.2464 66.6815 23.371 66.4879 23.456C66.2943 23.5409 66.085 23.5843 65.8735 23.5833L65.8861 23.5732ZM59.0078 14.6919V17.1434C59.0097 18.0257 59.3579 18.872 59.9776 19.5002C60.5972 20.1283 61.4388 20.488 62.321 20.5019L64.3669 20.5296V14.7624L59.0078 14.6919ZM45.8962 23.3087H45.8055L42.3587 23.2633C41.9613 23.258 41.582 23.0964 41.3028 22.8135C41.0237 22.5305 40.8672 22.149 40.8672 21.7516V12.9635C40.8677 12.763 40.908 12.5647 40.9859 12.38C41.0638 12.1953 41.1776 12.0279 41.3207 11.8876C41.4617 11.7445 41.6307 11.632 41.8171 11.557C42.0034 11.482 42.2033 11.4462 42.4041 11.4517L50.7841 11.5601C51.1815 11.5654 51.5608 11.727 51.84 12.0099C52.1192 12.2928 52.2757 12.6743 52.2756 13.0718V16.9242C52.2763 18.6159 51.6052 20.2387 50.41 21.4359C49.2147 22.633 47.5929 23.3066 45.9012 23.3087H45.8962ZM43.8805 20.26L45.8357 20.2852H45.8836C46.7739 20.2839 47.6272 19.9291 48.2561 19.2989C48.8849 18.6686 49.2377 17.8145 49.2371 16.9242V14.5634L43.8805 14.4953V20.26ZM81.1948 27.0753C80.8547 27.0755 80.5245 26.961 80.2575 26.7503C77.9977 25.0123 75.2873 23.9579 72.447 23.7118C72.2462 23.693 72.0512 23.6343 71.8734 23.539C71.6957 23.4437 71.5388 23.3138 71.412 23.157C71.2852 23.0001 71.1911 22.8195 71.1352 22.6258C71.0793 22.432 71.0627 22.229 71.0865 22.0287C71.0944 21.9618 71.0986 21.8945 71.099 21.8272V13.354C71.1005 13.1542 71.1416 12.9567 71.2199 12.7729C71.2982 12.5891 71.4121 12.4227 71.5551 12.2832C71.6967 12.1409 71.8658 12.0289 72.052 11.954C72.2383 11.8791 72.4378 11.8428 72.6385 11.8473L82.4646 11.9758C85.8559 12.0212 88.8844 13.7168 90.3735 16.4026L93.0442 21.22C93.1659 21.4402 93.2308 21.6873 93.2329 21.939C93.235 22.1906 93.1742 22.4388 93.0561 22.661C92.938 22.8832 92.7663 23.0725 92.5565 23.2115C92.3468 23.3506 92.1056 23.435 91.8549 23.4573C88.3508 23.7715 84.9749 24.9299 82.0162 26.8335C81.7714 26.9916 81.4862 27.0756 81.1948 27.0753ZM74.1401 20.8849C76.7004 21.3013 79.1375 22.2768 81.278 23.742C83.7708 22.2838 86.4994 21.2726 89.3405 20.7538L87.7405 17.869C86.7932 16.1557 84.7171 15.0295 82.4369 14.9992L74.1502 14.8909L74.1401 20.8849Z" fill="black"/>
<path d="M67.5715 127.741H40.6831C39.3694 127.738 38.0783 127.399 36.9319 126.758C35.7856 126.116 34.8219 125.193 34.1323 124.075L33.699 123.367C32.9965 122.21 32.0105 121.251 30.8343 120.581C29.658 119.912 28.3303 119.553 26.9768 119.54L25.8481 119.527C22.4694 119.482 19.446 117.794 17.9519 115.12L11.3028 103.21C10.6866 102.113 10.3678 100.874 10.3782 99.6151L10.7082 74.3745C10.7135 73.977 10.8751 73.5977 11.1581 73.3185C11.441 73.0394 11.8225 72.8829 12.22 72.8829H12.2401C12.4386 72.8855 12.6347 72.9272 12.8171 73.0056C12.9995 73.0841 13.1647 73.1976 13.3032 73.3399C13.4417 73.4821 13.5508 73.6503 13.6243 73.8347C13.6979 74.0191 13.7343 74.2162 13.7317 74.4148L13.4016 99.6554C13.3971 100.385 13.5839 101.102 13.9433 101.737L20.6024 113.646C21.5548 115.352 23.6259 116.473 25.8934 116.504L27.0222 116.516C28.8865 116.536 30.7149 117.031 32.3349 117.953C33.955 118.876 35.3132 120.196 36.2815 121.79L36.7148 122.497C37.1283 123.179 37.7111 123.741 38.4065 124.13C39.1019 124.519 39.8863 124.721 40.6831 124.717H67.5715C68.3671 124.72 69.1499 124.517 69.8439 124.128C70.5379 123.739 71.1195 123.178 71.5322 122.497C72.5217 120.892 73.9045 119.565 75.5499 118.642C77.1953 117.72 79.0489 117.233 80.9351 117.227H81.0636C83.3539 117.267 85.4652 116.181 86.4605 114.493L93.3615 102.775C93.7343 102.155 93.9368 101.447 93.9485 100.724L94.3541 70.0031C91.9255 70.0631 89.5013 69.7625 87.1609 69.1111L86.7981 97.0553C86.7555 99.324 86.1253 101.543 84.9689 103.495C82.1168 108.335 76.5033 111.306 70.27 111.306H70.018L37.0776 110.875C30.7788 110.792 25.1628 107.685 22.3913 102.765C22.3711 102.734 22.3535 102.704 22.3359 102.674C21.2193 100.681 20.6418 98.4321 20.6604 96.1482L21.4692 34.4852C21.5087 32.2084 22.1428 29.9814 23.3084 28.0252L23.3412 27.9672C25.5407 24.266 29.5115 21.5726 34.1273 20.5976V14.3617L27.2439 14.271H27.1507C24.9234 14.271 22.8675 15.3318 21.8748 16.9896L14.9007 28.7231C14.5215 29.3482 14.3154 30.063 14.3036 30.7941L13.8879 62.6208C13.8832 63.0187 13.7219 63.3987 13.4389 63.6784C13.1559 63.9581 12.7741 64.115 12.3762 64.1149H12.3459C12.1474 64.1123 11.9513 64.0706 11.7689 63.9922C11.5865 63.9138 11.4214 63.8002 11.2828 63.6579C11.1443 63.5157 11.0352 63.3475 10.9617 63.1631C10.8882 62.9787 10.8517 62.7816 10.8544 62.583L11.2802 30.7387C11.3008 29.4806 11.6481 28.2494 12.288 27.166L19.2671 15.4477C20.8116 12.85 23.8174 11.2501 27.1381 11.2501H27.2767L35.6516 11.361C36.049 11.3663 36.4284 11.5279 36.7075 11.8108C36.9867 12.0937 37.1432 12.4752 37.1432 12.8727V21.8599C37.1429 22.2248 37.0107 22.5774 36.7708 22.8525C36.5309 23.1276 36.1996 23.3066 35.838 23.3565C31.5851 23.936 27.894 26.2262 25.9514 29.4789C25.9514 29.4991 25.9287 29.5192 25.9161 29.5394C25.0095 31.0444 24.5143 32.7613 24.48 34.518L23.6838 96.1886C23.6681 97.9265 24.1021 99.6389 24.9436 101.16L24.9965 101.245C27.1986 105.196 31.9554 107.796 37.1129 107.859L70.0432 108.29C75.2183 108.348 80.0482 105.874 82.3536 101.961C83.2509 100.46 83.7407 98.7507 83.7746 97.0024L84.1652 67.0199C84.168 66.7773 84.2292 66.539 84.3436 66.325C84.458 66.111 84.6222 65.9277 84.8223 65.7906C85.0225 65.6535 85.2527 65.5665 85.4935 65.5371C85.7343 65.5077 85.9787 65.5367 86.206 65.6216C88.6326 66.5271 91.2023 66.9888 93.7923 66.9847C94.4398 66.9847 95.0974 66.9544 95.7475 66.894C95.9586 66.8745 96.1714 66.8997 96.3722 66.9679C96.573 67.036 96.7572 67.1457 96.9128 67.2896C97.0685 67.4336 97.1921 67.6088 97.2756 67.8036C97.3591 67.9985 97.4008 68.2088 97.3978 68.4208L96.9719 100.762C96.9504 102.011 96.603 103.233 95.9641 104.306L89.0657 116.027C87.5061 118.673 84.4373 120.285 81.046 120.25H80.9351C79.5665 120.255 78.2216 120.608 77.0278 121.278C75.8339 121.947 74.8304 122.91 74.1122 124.075C73.4235 125.191 72.4615 126.114 71.317 126.755C70.1726 127.397 68.8835 127.736 67.5715 127.741ZM59.8063 121.863H48.4483C47.3791 121.863 46.3538 121.438 45.5978 120.682C44.8418 119.926 44.417 118.9 44.417 117.831C44.417 116.762 44.8418 115.737 45.5978 114.981C46.3538 114.225 47.3791 113.8 48.4483 113.8H59.8063C60.8755 113.8 61.9009 114.225 62.6569 114.981C63.4129 115.737 63.8376 116.762 63.8376 117.831C63.8376 118.9 63.4129 119.926 62.6569 120.682C61.9009 121.438 60.8755 121.863 59.8063 121.863ZM48.4483 116.824C48.181 116.824 47.9247 116.93 47.7357 117.119C47.5467 117.308 47.4405 117.564 47.4405 117.831C47.4405 118.099 47.5467 118.355 47.7357 118.544C47.9247 118.733 48.181 118.839 48.4483 118.839H59.8063C60.0736 118.839 60.33 118.733 60.519 118.544C60.708 118.355 60.8142 118.099 60.8142 117.831C60.8142 117.564 60.708 117.308 60.519 117.119C60.33 116.93 60.0736 116.824 59.8063 116.824H48.4483ZM12.2829 71.1444H12.2628C12.0643 71.1418 11.8682 71.1001 11.6858 71.0217C11.5034 70.9433 11.3382 70.8297 11.1997 70.6874C11.0612 70.5452 10.9521 70.377 10.8785 70.1926C10.805 70.0082 10.7686 69.8111 10.7712 69.6125L10.8015 67.345C10.8068 66.944 10.9712 66.5616 11.2585 66.2819C11.5458 66.0022 11.9324 65.848 12.3333 65.8534C12.7343 65.8587 13.1167 66.0231 13.3964 66.3104C13.6761 66.5977 13.8302 66.9843 13.8249 67.3853L13.7947 69.6529C13.7894 70.0503 13.6278 70.4296 13.3448 70.7088C13.0619 70.9879 12.6804 71.1444 12.2829 71.1444ZM57.4959 14.6691H57.4783L50.7385 14.5835C50.3411 14.5782 49.9618 14.4166 49.6826 14.1336C49.4035 13.8507 49.2469 13.4692 49.247 13.0717V6.14555C49.247 4.85053 49.7614 3.60856 50.6771 2.69285C51.5928 1.77714 52.8348 1.2627 54.1298 1.2627C55.4248 1.2627 56.6668 1.77714 57.5825 2.69285C58.4982 3.60856 59.0127 4.85053 59.0127 6.14555C59.0127 6.14555 59.0127 9.52676 59.0127 13.1574C59.0127 13.5583 58.8534 13.9428 58.5699 14.2263C58.2864 14.5099 57.9019 14.6691 57.501 14.6691H57.4959ZM52.2679 11.5903L55.9842 11.6381V6.15311C55.9842 5.65996 55.7883 5.18701 55.4396 4.8383C55.0909 4.48959 54.6179 4.29369 54.1248 4.29369C53.6316 4.29369 53.1587 4.48959 52.81 4.8383C52.4613 5.18701 52.2654 5.65996 52.2654 6.15311L52.2679 11.5903Z" fill="black"/>
<path d="M70.2702 111.313H70.0183L37.0779 110.882C30.7791 110.799 25.1631 107.693 22.3916 102.772C22.3714 102.742 22.3538 102.712 22.3361 102.681C21.2183 100.687 20.6407 98.4346 20.6607 96.1481L21.4694 34.4851C21.509 32.2083 22.143 29.9813 23.3087 28.0251L23.344 27.9621C25.7501 23.9157 30.2701 21.0762 35.4377 20.3657L35.9416 20.3002H35.9769L36.317 20.2674C36.4833 20.2523 36.6597 20.2372 36.8386 20.2271H37.0351C37.1686 20.2271 37.3022 20.212 37.4433 20.2095H38.0076L45.8484 20.3103H45.8963C46.7866 20.3089 47.6399 19.9541 48.2688 19.3239C48.8976 18.6936 49.2504 17.8395 49.2498 16.9492V13.0716C49.2498 12.8714 49.2895 12.6732 49.3667 12.4884C49.444 12.3037 49.5571 12.1361 49.6997 11.9955C49.8422 11.8549 50.0112 11.7439 50.1969 11.6692C50.3827 11.5944 50.5814 11.5573 50.7817 11.5599L57.5189 11.6481C57.9163 11.6534 58.2957 11.815 58.5748 12.0979C58.854 12.3809 59.0105 12.7624 59.0104 13.1598V17.1432C59.0123 18.0255 59.3606 18.8719 59.9802 19.5C60.5999 20.1282 61.4414 20.4879 62.3236 20.5017L71.21 20.6176H71.8903C72.2178 20.6328 72.4925 20.6529 72.7545 20.6806C76.1737 20.9793 79.4329 22.2633 82.1372 24.3768C82.3259 24.5259 82.4763 24.7179 82.5758 24.9368C82.6754 25.1558 82.7213 25.3953 82.7097 25.6355C82.6981 25.8757 82.6294 26.1097 82.5092 26.318C82.3891 26.5264 82.2209 26.703 82.0188 26.8333C77.2019 29.9194 73.7927 34.7768 72.5278 40.3559C71.2629 45.935 72.2439 51.7877 75.2589 56.6495C75.3802 56.8444 75.4556 57.0645 75.4792 57.2929C75.5028 57.5213 75.474 57.7522 75.3951 57.9678C75.3162 58.1835 75.1891 58.3783 75.0236 58.5375C74.8582 58.6968 74.6586 58.8162 74.4401 58.8868C73.0271 59.3386 71.5521 59.5665 70.0687 59.562C72.2607 60.8797 75.0498 61.9808 78.174 61.9304C78.4688 61.9304 78.7711 61.9052 79.1037 61.8724C79.4962 61.8352 79.8876 61.9527 80.1947 62.2C82.006 63.6571 84.0401 64.8132 86.2189 65.624C86.5115 65.7327 86.7634 65.9294 86.9397 66.187C87.1161 66.4446 87.2084 66.7505 87.204 67.0627L86.8135 97.0451C86.7717 99.3139 86.1414 101.533 84.9843 103.485C82.1171 108.34 76.5035 111.313 70.2702 111.313ZM24.9439 101.159C24.964 101.187 24.9791 101.217 24.9968 101.245C27.1988 105.196 31.9557 107.796 37.1132 107.859L70.0435 108.29C75.2186 108.353 80.0485 105.874 82.3539 101.961C83.2512 100.46 83.741 98.7506 83.7749 97.0023L84.1528 68.0529C82.2313 67.2408 80.4205 66.1885 78.7636 64.9211L78.2193 64.9438C70.6053 65.0773 64.8331 59.6099 63.2458 57.9269C63.0069 57.6751 62.8619 57.3488 62.8352 57.0027C62.8085 56.6567 62.9016 56.312 63.099 56.0265C63.2964 55.7411 63.586 55.5322 63.9192 55.4351C64.2524 55.3379 64.6089 55.3584 64.9288 55.493C67.0555 56.3738 69.3714 56.699 71.6585 56.4378C69.0436 51.3001 68.2999 45.4121 69.5551 39.7856C70.8104 34.159 73.9862 29.1454 78.5368 25.6063C76.665 24.5604 74.5948 23.9184 72.4597 23.7217C72.238 23.699 72.0137 23.6839 71.7618 23.6713H71.1546L62.2808 23.5554C60.6034 23.5283 59.0037 22.844 57.8257 21.6495C56.6478 20.4551 55.9857 18.846 55.982 17.1684V14.6816L52.2707 14.6136V16.9341C52.2694 17.7785 52.1007 18.6142 51.7742 19.393C51.4477 20.1717 50.97 20.878 50.3687 21.4708C49.7674 22.0637 49.0545 22.5313 48.2712 22.8468C47.488 23.1622 46.6499 23.3192 45.8056 23.3085L37.995 23.2077H36.9897C36.8486 23.2077 36.7076 23.2279 36.569 23.2405L36.249 23.2707C36.1104 23.2858 35.9718 23.306 35.8333 23.3261C31.5879 23.9359 27.8942 26.2261 25.9517 29.4788L25.9139 29.5418C25.0086 31.0464 24.5142 32.7623 24.4803 34.5179L23.6841 96.1885C23.6684 97.9264 24.1023 99.6388 24.9439 101.159ZM42.379 14.475H42.3589L35.6116 14.3868C35.2141 14.3815 34.8348 14.2199 34.5556 13.937C34.2765 13.6541 34.12 13.2726 34.12 12.8751V6.26135C34.12 4.96567 34.6347 3.72305 35.5509 2.80687C36.4671 1.89068 37.7097 1.37598 39.0054 1.37598C40.301 1.37598 41.5437 1.89068 42.4598 2.80687C43.376 3.72305 43.8907 4.96567 43.8907 6.26135V12.9633C43.8907 13.3642 43.7315 13.7487 43.448 14.0322C43.1645 14.3158 42.7799 14.475 42.379 14.475ZM37.1434 11.381L40.8673 11.4314V6.26135C40.8673 6.01683 40.8191 5.77472 40.7256 5.54882C40.632 5.32292 40.4948 5.11766 40.3219 4.94476C40.1491 4.77187 39.9438 4.63472 39.7179 4.54115C39.492 4.44757 39.2499 4.39941 39.0054 4.39941C38.7608 4.39941 38.5187 4.44757 38.2928 4.54115C38.0669 4.63472 37.8617 4.77187 37.6888 4.94476C37.5159 5.11766 37.3787 5.32292 37.2852 5.54882C37.1916 5.77472 37.1434 6.01683 37.1434 6.26135V11.381Z" fill="black"/>
<path d="M35.6318 23.3715C35.2309 23.3715 34.8464 23.2122 34.5629 22.9287C34.2794 22.6452 34.1201 22.2607 34.1201 21.8598V12.8726C34.1203 12.6723 34.1602 12.4741 34.2377 12.2894C34.3151 12.1047 34.4284 11.9373 34.5711 11.7968C34.7127 11.6552 34.8814 11.5436 35.0671 11.4687C35.2529 11.3938 35.4518 11.3571 35.652 11.3609L42.3993 11.4516C42.7967 11.4569 43.1761 11.6185 43.4552 11.9014C43.7344 12.1843 43.8909 12.5658 43.8909 12.9633V21.7514C43.8907 21.9517 43.8507 22.1499 43.7733 22.3346C43.6959 22.5193 43.5826 22.6868 43.4399 22.8273C43.299 22.9698 43.1304 23.082 42.9445 23.157C42.7586 23.232 42.5594 23.2681 42.359 23.2631L38.0052 23.2052H37.0151C36.879 23.2052 36.7379 23.2228 36.5993 23.2379H36.5716L36.2617 23.2682C36.1282 23.2808 35.9946 23.2984 35.8611 23.3186C35.7863 23.3427 35.7096 23.3604 35.6318 23.3715ZM38.0052 20.1818L40.8674 20.2196V14.4549L37.1436 14.4045V20.1994H37.4963C37.6651 20.1843 37.8339 20.1818 38.0052 20.1818ZM72.6236 14.8655H72.6034L65.8561 14.7774C65.4587 14.7721 65.0794 14.6105 64.8002 14.3275C64.521 14.0446 64.3645 13.6631 64.3646 13.2656V6.26135C64.3646 4.96567 64.8793 3.72305 65.7955 2.80687C66.7116 1.89068 67.9543 1.37598 69.2499 1.37598C70.5456 1.37598 71.7882 1.89068 72.7044 2.80687C73.6206 3.72305 74.1353 4.96567 74.1353 6.26135V13.3538C74.1353 13.7548 73.976 14.1393 73.6925 14.4228C73.409 14.7063 73.0245 14.8655 72.6236 14.8655ZM67.388 11.7766L71.1119 11.8245V6.26135C71.1119 5.76753 70.9157 5.29394 70.5665 4.94476C70.2174 4.59558 69.7438 4.39941 69.2499 4.39941C68.7561 4.39941 68.2825 4.59558 67.9334 4.94476C67.5842 5.29394 67.388 5.76753 67.388 6.26135V11.7766Z" fill="black"/>
<path d="M72.6028 23.7166C72.555 23.7192 72.507 23.7192 72.4592 23.7166C72.2072 23.694 71.983 23.6763 71.7613 23.6662C71.5396 23.6562 71.3632 23.6486 71.1667 23.6461L65.8757 23.5755C65.5028 23.571 65.1447 23.4288 64.8703 23.1763C64.5959 22.9237 64.4245 22.5787 64.3891 22.2074C64.3891 22.0915 64.374 21.9555 64.374 21.832V13.2656C64.374 12.8647 64.5333 12.4802 64.8168 12.1967C65.1003 11.9132 65.4848 11.7539 65.8857 11.7539H65.9059L72.6507 11.8421C73.0486 11.8467 73.4285 12.008 73.7082 12.291C73.9879 12.574 74.1448 12.9559 74.1448 13.3538V21.827C74.144 22.0114 74.133 22.1956 74.112 22.3788C74.0692 22.7484 73.8916 23.0893 73.6131 23.3362C73.3347 23.583 72.9749 23.7185 72.6028 23.7166ZM67.3874 20.5672L71.1112 20.6176V14.8479L67.3874 14.8V20.5672ZM69.9674 84.0519H37.992C35.8683 84.0499 33.8322 83.2053 32.3306 81.7037C30.8289 80.202 29.9844 78.1659 29.9824 76.0423V55.7827C29.9844 53.6591 30.8289 51.6229 32.3306 50.1213C33.8322 48.6196 35.8683 47.7751 37.992 47.7731H69.9674C70.3306 47.7733 70.6934 47.7977 71.0533 47.8462C71.3682 47.8904 71.6612 48.0327 71.8905 48.253C72.1199 48.4733 72.2739 48.7603 72.3307 49.0732C72.8168 51.7608 73.8085 54.3317 75.2534 56.6494C75.3747 56.8444 75.45 57.0645 75.4736 57.2929C75.4972 57.5213 75.4685 57.7521 75.3895 57.9678C75.3106 58.1834 75.1836 58.3783 75.0181 58.5375C74.8526 58.6968 74.653 58.8162 74.4345 58.8868C73.0215 59.3386 71.5466 59.5664 70.0631 59.562C71.8898 60.658 74.1271 61.6129 76.6139 61.8649C76.9881 61.9025 77.3348 62.0782 77.5864 62.3577C77.838 62.6372 77.9763 63.0005 77.9745 63.3766V76.0498C77.9705 78.1717 77.1254 80.2055 75.6245 81.7055C74.1236 83.2054 72.0893 84.0492 69.9674 84.0519ZM37.992 50.794C36.6698 50.796 35.4023 51.3224 34.4676 52.2576C33.5329 53.1928 33.0072 54.4605 33.0059 55.7827V76.0423C33.0079 77.3641 33.5338 78.6311 34.4685 79.5658C35.4031 80.5005 36.6702 81.0264 37.992 81.0284H69.9674C71.2892 81.0264 72.5563 80.5005 73.4909 79.5658C74.4256 78.6311 74.9515 77.3641 74.9535 76.0423V64.6792C69.1435 63.6033 64.8754 59.6703 63.2453 57.9369C63.0064 57.6851 62.8614 57.3588 62.8347 57.0128C62.808 56.6667 62.9011 56.322 63.0985 56.0366C63.2959 55.7511 63.5855 55.5423 63.9187 55.4451C64.2519 55.348 64.6084 55.3684 64.9283 55.503C67.0556 56.3817 69.3718 56.7035 71.658 56.4378C70.7451 54.6518 70.0546 52.7607 69.6021 50.8066L37.992 50.794Z" fill="black"/>
<path d="M93.7921 70.0111C88.3616 70.0036 83.0826 68.2197 78.7606 64.9317C78.5767 64.9317 78.3953 64.9493 78.2189 64.9519H77.9065C70.6704 64.9569 65.2559 60.064 63.2403 57.9501C63.0014 57.6983 62.8564 57.372 62.8297 57.026C62.803 56.6799 62.8961 56.3352 63.0935 56.0497C63.2909 55.7643 63.5806 55.5554 63.9138 55.4583C64.247 55.3611 64.6034 55.3816 64.9233 55.5162C67.0535 56.3937 69.3729 56.7111 71.6606 56.4384C69.2109 51.6163 68.403 46.1262 69.3595 40.8028C70.316 35.4795 72.9848 30.6141 76.9599 26.9465C80.935 23.2788 85.9991 21.0096 91.3821 20.4838C96.7651 19.958 102.173 21.2045 106.782 24.0336C111.392 26.8627 114.952 31.1197 116.92 36.1573C118.889 41.195 119.158 46.7377 117.688 51.9426C116.218 57.1476 113.088 61.73 108.775 64.9932C104.462 68.2565 99.2007 70.0219 93.7921 70.0212V70.0111ZM79.2317 61.868C79.5753 61.8682 79.9086 61.9855 80.1766 62.2005C84.0271 65.3118 88.8316 67.0023 93.782 66.9876C98.6179 66.9915 103.318 65.3897 107.145 62.4335C110.972 59.4774 113.71 55.3342 114.928 50.6541C116.146 45.9741 115.775 41.0222 113.875 36.5754C111.974 32.1287 108.651 28.4389 104.426 26.085C100.202 23.7311 95.3156 22.8464 90.5341 23.5698C85.7526 24.2931 81.3466 26.5835 78.0075 30.0816C74.6685 33.5797 72.5853 38.0874 72.085 42.8973C71.5848 47.7073 72.6956 52.5472 75.2433 56.6576C75.3647 56.8525 75.44 57.0726 75.4636 57.301C75.4872 57.5295 75.4584 57.7603 75.3795 57.9759C75.3006 58.1916 75.1736 58.3864 75.0081 58.5457C74.8426 58.7049 74.643 58.8243 74.4245 58.8949C73.0066 59.3387 71.5287 59.5605 70.043 59.5525C72.24 60.8753 75.0342 61.999 78.1635 61.9309C78.4557 61.9309 78.7606 61.9058 79.0932 61.8755C79.1392 61.8707 79.1855 61.8681 79.2317 61.868Z" fill="black"/>
<path d="M93.4977 61.5874C91.7603 61.5874 90.0941 60.8972 88.8656 59.6687C87.6371 58.4402 86.9469 56.774 86.9469 55.0366V51.7285H83.6489C81.9115 51.7285 80.2453 51.0383 79.0168 49.8098C77.7882 48.5813 77.0981 46.9151 77.0981 45.1777C77.0981 43.4403 77.7882 41.7741 79.0168 40.5456C80.2453 39.3171 81.9115 38.6269 83.6489 38.6269H86.9545V35.3213C86.9545 33.5839 87.6447 31.9177 88.8732 30.6892C90.1017 29.4607 91.7679 28.7705 93.5053 28.7705C95.2426 28.7705 96.9089 29.4607 98.1374 30.6892C99.3659 31.9177 100.056 33.5839 100.056 35.3213V38.6269H103.364C105.102 38.6269 106.768 39.3171 107.996 40.5456C109.225 41.7741 109.915 43.4403 109.915 45.1777C109.915 46.9151 109.225 48.5813 107.996 49.8098C106.768 51.0383 105.102 51.7285 103.364 51.7285H100.048V55.0366C100.048 56.774 99.3583 58.4402 98.1298 59.6687C96.9013 60.8972 95.2351 61.5874 93.4977 61.5874ZM83.6489 41.6504C82.7133 41.6504 81.8162 42.022 81.1546 42.6835C80.4931 43.345 80.1215 44.2422 80.1215 45.1777C80.1215 46.1132 80.4931 47.0104 81.1546 47.6719C81.8162 48.3334 82.7133 48.705 83.6489 48.705H88.4662C88.8671 48.705 89.2516 48.8643 89.5351 49.1478C89.8187 49.4313 89.9779 49.8158 89.9779 50.2168V55.0366C89.9779 55.9721 90.3496 56.8693 91.0111 57.5308C91.6726 58.1923 92.5698 58.564 93.5053 58.564C94.4408 58.564 95.338 58.1923 95.9995 57.5308C96.661 56.8693 97.0326 55.9721 97.0326 55.0366V50.2168C97.0326 49.8158 97.1919 49.4313 97.4754 49.1478C97.7589 48.8643 98.1434 48.705 98.5443 48.705H103.364C104.3 48.705 105.197 48.3334 105.858 47.6719C106.52 47.0104 106.892 46.1132 106.892 45.1777C106.892 44.2422 106.52 43.345 105.858 42.6835C105.197 42.022 104.3 41.6504 103.364 41.6504H98.5368C98.1358 41.6504 97.7513 41.4911 97.4678 41.2076C97.1843 40.9241 97.0251 40.5396 97.0251 40.1386V35.3213C97.0251 34.3858 96.6534 33.4886 95.9919 32.8271C95.3304 32.1656 94.4332 31.7939 93.4977 31.7939C92.5622 31.7939 91.665 32.1656 91.0035 32.8271C90.342 33.4886 89.9704 34.3858 89.9704 35.3213V40.1386C89.9704 40.5396 89.8111 40.9241 89.5276 41.2076C89.2441 41.4911 88.8596 41.6504 88.4586 41.6504H83.6489ZM61.3157 77.5008C61.0043 77.4994 60.7009 77.4018 60.4469 77.2214C60.193 77.041 60.0011 76.7866 59.8972 76.493L57.612 70.2218H50.6934L48.0378 76.561C47.8835 76.9224 47.5946 77.2095 47.2323 77.3615C46.8699 77.5135 46.4626 77.5185 46.0967 77.3753C45.7308 77.2321 45.4349 76.9521 45.2719 76.5946C45.1089 76.237 45.0916 75.8301 45.2235 75.4599L52.5604 55.3037C52.6668 55.0127 52.86 54.7614 53.114 54.5839C53.3679 54.4064 53.6703 54.3112 53.9801 54.3112C54.29 54.3112 54.5923 54.4064 54.8463 54.5839C55.1002 54.7614 55.2935 55.0127 55.3999 55.3037L62.7367 75.4599C62.8739 75.8365 62.856 76.2521 62.6868 76.6154C62.5177 76.9787 62.2112 77.26 61.8348 77.3975C61.6693 77.4626 61.4935 77.4975 61.3157 77.5008ZM51.4492 67.211H56.5135L53.9814 60.2546L51.4492 67.211Z" fill="black"/>
</svg>
