<svg width="129" height="128" viewBox="0 0 129 128" fill="none" xmlns="http://www.w3.org/2000/svg">
<path d="M65.8861 21.8908L62.3008 21.8433C61.0182 21.8275 59.7936 21.3099 58.8934 20.4031C57.9932 19.4963 57.4902 18.2736 57.4936 17.0008V13.0508L65.8735 13.1608V21.6608C65.8761 21.7358 65.8786 21.8133 65.8861 21.8908ZM50.7589 12.9708V16.7933C50.7596 17.4335 50.632 18.0675 50.3836 18.6583C50.1352 19.2492 49.7709 19.7851 49.3119 20.235C48.8528 20.6849 48.3082 21.0398 47.7097 21.279C47.1112 21.5182 46.4708 21.6369 45.8256 21.6283L42.3789 21.5833V12.8633L50.7589 12.9708ZM91.7113 21.7833C87.9619 22.1104 84.3494 23.3401 81.1872 25.3658C78.7038 23.4608 75.7205 22.3048 72.5931 22.0358C72.6083 21.9105 72.6159 21.7845 72.6158 21.6583V13.2508L82.442 13.3783C85.2689 13.4158 87.8312 14.8183 89.0482 16.9983L91.7113 21.7833Z" fill="#F6F4F9"/>
<path d="M93.7923 67.9683C91.0219 67.9717 88.2732 67.4823 85.6769 66.5233L85.2864 96.2733C85.2514 98.2645 84.6929 100.212 83.6663 101.923C81.0712 106.293 75.7852 109.016 70.0331 108.941L37.0928 108.513C31.3608 108.438 26.1605 105.601 23.6763 101.183L23.6511 101.146C22.662 99.3996 22.152 97.4264 22.1721 95.4233L22.9683 34.2508C23.0016 32.2426 23.5692 30.2788 24.6135 28.5583L24.6337 28.5208C26.8357 24.8433 30.9476 22.3408 35.6314 21.7033V12.7758L27.2565 12.6658C24.4397 12.6283 21.8471 13.9583 20.5672 16.0958L13.6057 27.7333C13.0935 28.5793 12.8146 29.5441 12.7969 30.5308L11.8899 98.8633C11.8808 99.8501 12.1336 100.822 12.6231 101.681L19.2822 113.501C20.5042 115.671 23.0615 117.066 25.8758 117.103L27.0071 117.116C28.6152 117.137 30.1916 117.562 31.5892 118.352C32.9868 119.141 34.1599 120.269 34.999 121.631L35.4324 122.333C35.9826 123.225 36.7543 123.962 37.6737 124.473C38.5931 124.983 39.6294 125.251 40.6831 125.251H67.5715C68.6242 125.25 69.6591 124.981 70.577 124.47C71.495 123.958 72.2655 123.222 72.8147 122.331C73.6647 120.953 74.857 119.814 76.2775 119.024C77.698 118.234 79.2991 117.819 80.9276 117.818H81.0561C83.883 117.853 86.4806 116.516 87.7555 114.368L94.664 102.751C95.1693 101.91 95.4437 100.952 95.4602 99.9733L95.886 67.8833C95.1957 67.94 94.4978 67.9683 93.7923 67.9683ZM59.8063 119.418H48.4483C47.7801 119.418 47.1392 119.155 46.6667 118.686C46.1942 118.217 45.9288 117.581 45.9288 116.918C45.9288 116.255 46.1942 115.619 46.6667 115.151C47.1392 114.682 47.7801 114.418 48.4483 114.418H59.8063C60.4746 114.418 61.1154 114.682 61.5879 115.151C62.0604 115.619 62.3259 116.255 62.3259 116.918C62.3259 117.581 62.0604 118.217 61.5879 118.686C61.1154 119.155 60.4746 119.418 59.8063 119.418Z" fill="#F6F4F9"/>
<path d="M57.4981 6.09793C57.4981 5.65866 57.4109 5.22369 57.2415 4.81785C57.0721 4.41202 56.8238 4.04327 56.5107 3.73266C56.1977 3.42205 55.8261 3.17565 55.4171 3.00755C55.0081 2.83945 54.5697 2.75293 54.127 2.75293C53.6843 2.75293 53.2459 2.83945 52.8369 3.00755C52.4279 3.17565 52.0563 3.42205 51.7432 3.73266C51.4302 4.04327 51.1819 4.41202 51.0125 4.81785C50.8431 5.22369 50.7559 5.65866 50.7559 6.09793C50.7559 6.09793 50.7559 9.40293 50.7559 12.9704L57.4931 13.0554L57.4981 6.09793Z" fill="#E6E7E8"/>
<path d="M85.6772 66.5232L85.2867 96.2732C85.2517 98.2644 84.6933 100.212 83.6666 101.923C81.0715 106.293 75.7856 109.016 70.0335 108.941L37.0931 108.513C31.3612 108.438 26.1609 105.601 23.6766 101.183L23.6514 101.146C22.6623 99.3994 22.1524 97.4262 22.1724 95.4232L22.9686 34.2507C23.002 32.2425 23.5695 30.2787 24.6139 28.5582L24.634 28.5207C26.8361 24.8432 30.948 22.3407 35.6318 21.7032C35.788 21.6807 35.9467 21.6607 36.1029 21.6432L36.4431 21.6107C36.6018 21.5957 36.7631 21.5832 36.9243 21.5732H37.1082C37.2266 21.5732 37.3451 21.5732 37.4685 21.5582C37.4887 21.5595 37.5089 21.5595 37.529 21.5582H38.242L42.3791 21.6107L45.8258 21.6557C46.471 21.6643 47.1114 21.5456 47.7099 21.3064C48.3084 21.0672 48.853 20.7124 49.312 20.2625C49.7711 19.8126 50.1354 19.2766 50.3838 18.6857C50.6322 18.0949 50.7598 17.4609 50.759 16.8207V12.9707L57.4963 13.0582V17.0082C57.4949 18.2797 57.9988 19.5005 58.8988 20.4057C59.7988 21.3109 61.0222 21.8274 62.3035 21.8432L65.8888 21.8907L71.1799 21.9582H71.8299C72.0818 21.9582 72.3338 21.9882 72.5857 22.0132C75.7131 22.2822 78.6964 23.4382 81.1799 25.3432C76.0264 28.621 72.3806 33.7801 71.0312 39.7046C69.6817 45.629 70.7371 51.8424 73.969 57.0007C69.3859 58.4707 65.133 56.7832 64.3444 56.4557C65.3522 57.5232 70.8397 63.0882 78.1892 62.9557C78.5444 62.9557 78.8921 62.9257 79.2323 62.8932C81.1712 64.4374 83.3471 65.6629 85.6772 66.5232Z" fill="#F16969"/>
<path d="M42.3791 12.8627V6.21273C42.3791 5.32492 42.0237 4.47347 41.391 3.84569C40.7583 3.21792 39.9002 2.86523 39.0055 2.86523C38.1107 2.86523 37.2526 3.21792 36.62 3.84569C35.9873 4.47347 35.6318 5.32492 35.6318 6.21273V12.7752L42.3791 12.8627Z" fill="#E6E7E8"/>
<path d="M42.3791 21.5829V12.8629L35.6318 12.7754V21.6904C35.788 21.6679 35.9468 21.6479 36.103 21.6304L36.4431 21.5979C36.6044 21.5804 36.7656 21.5704 36.9269 21.5604H37.1083L37.4686 21.5429C37.4896 21.5441 37.5106 21.5441 37.5316 21.5429H38.2421L42.3791 21.5829Z" fill="#F16969"/>
<path d="M72.6233 13.2502V6.21273C72.6233 5.32492 72.2678 4.47347 71.6352 3.84569C71.0025 3.21792 70.1444 2.86523 69.2496 2.86523C68.3549 2.86523 67.4968 3.21792 66.8641 3.84569C66.2314 4.47347 65.876 5.32492 65.876 6.21273V13.1652L72.6233 13.2502Z" fill="#E6E7E8"/>
<path d="M72.6233 21.6581V13.2506L65.876 13.1631V21.8956L71.167 21.9631C71.3837 21.9631 71.5978 21.9631 71.817 21.9856C72.0362 22.0081 72.3209 22.0156 72.5729 22.0406C72.5975 21.9142 72.6144 21.7865 72.6233 21.6581Z" fill="#F16969"/>
<path d="M76.4653 62.8783V75.4533C76.4653 76.3 76.2972 77.1384 75.9706 77.9207C75.6441 78.7029 75.1655 79.4137 74.5621 80.0124C73.9587 80.6111 73.2424 81.086 72.454 81.41C71.6656 81.7341 70.8207 81.9008 69.9674 81.9008H37.992C37.1387 81.9008 36.2937 81.7341 35.5054 81.41C34.717 81.086 34.0007 80.6111 33.3973 80.0124C32.7939 79.4137 32.3153 78.7029 31.9888 77.9207C31.6622 77.1384 31.4941 76.3 31.4941 75.4533V55.3508C31.4941 53.6408 32.1787 52.0009 33.3973 50.7918C34.6159 49.5826 36.2687 48.9033 37.992 48.9033H69.9674C70.2607 48.903 70.5537 48.9231 70.8442 48.9633C71.3668 51.8136 72.4268 54.5405 73.9684 57.0008C69.3854 58.4708 65.1324 56.7833 64.3438 56.4558C65.2785 57.4408 69.9926 62.2308 76.4653 62.8783Z" fill="#F6F4F9"/>
<path d="M73.9684 57.0004C70.881 52.0638 69.7732 46.1572 70.864 40.4489C71.9549 34.7407 75.165 29.6466 79.8594 26.1741C84.5538 22.7016 90.3907 21.1036 96.2155 21.6962C102.04 22.2889 107.429 25.029 111.315 29.3745C115.202 33.7201 117.303 39.3546 117.204 45.1637C117.104 50.9729 114.812 56.5334 110.779 60.7457C106.746 64.9579 101.267 67.515 95.4252 67.9113C89.5835 68.3075 83.8046 66.514 79.2317 62.8854C78.8915 62.9179 78.5463 62.9404 78.1886 62.9479C70.8391 63.0879 65.3591 57.5204 64.3438 56.4479C65.1324 56.7854 69.3853 58.4704 73.9684 57.0004Z" fill="#606161"/>
<path d="M103.356 49.8281H83.6484C82.312 49.8281 81.0303 49.3013 80.0853 48.3637C79.1403 47.426 78.6094 46.1542 78.6094 44.8281C78.6094 43.502 79.1403 42.2303 80.0853 41.2926C81.0303 40.3549 82.312 39.8281 83.6484 39.8281H103.364C104.7 39.8281 105.982 40.3549 106.927 41.2926C107.872 42.2303 108.403 43.502 108.403 44.8281C108.403 46.1542 107.872 47.426 106.927 48.3637C105.982 49.3013 104.7 49.8281 103.364 49.8281H103.356Z" fill="#F16969"/>
<path d="M70.7587 124.368C69.7977 124.946 68.6953 125.251 67.5715 125.25H40.6831C39.6291 125.251 38.5927 124.982 37.6733 124.471C36.7539 123.96 35.9823 123.222 35.4324 122.33L34.999 121.628C34.1599 120.266 32.9868 119.138 31.5892 118.349C30.1916 117.559 28.6152 117.134 27.0071 117.113L25.8758 117.1C23.059 117.063 20.5042 115.668 19.2822 113.498L12.6231 101.68C12.1336 100.821 11.8808 99.8495 11.8899 98.8628L12.3459 63.7803C15.1726 70.0335 18.5156 76.044 22.3409 81.7503L22.1721 95.4228C22.1541 97.4303 22.6685 99.4073 23.6637 101.155L23.6889 101.193C26.1731 105.61 31.3734 108.443 37.1054 108.523L46.6594 108.648C49.0798 110.663 51.5834 112.584 54.1701 114.413H48.4483C47.7801 114.413 47.1392 114.676 46.6667 115.145C46.1942 115.614 45.9288 116.25 45.9288 116.913C45.9288 117.576 46.1942 118.212 46.6667 118.681C47.1392 119.149 47.7801 119.413 48.4483 119.413H59.8063C60.2825 119.413 60.749 119.28 61.1518 119.028C64.2659 120.946 67.4682 122.726 70.7587 124.368Z" fill="#E3E2E7"/>
<path d="M46.6473 108.647L37.0932 108.522C31.3613 108.447 26.161 105.61 23.6767 101.192L23.6515 101.155C22.6607 99.4058 22.1507 97.4289 22.1725 95.4225L22.3414 81.75C29.0936 91.832 37.2804 100.892 46.6473 108.647Z" fill="#DE5555"/>
<path d="M65.8861 23.3901H65.866L62.2807 23.3426C60.6033 23.3158 59.0036 22.6367 57.8256 21.4515C56.6477 20.2663 55.9856 18.6697 55.9819 17.0051V13.0576C55.9818 12.859 56.0216 12.6623 56.0988 12.479C56.1761 12.2957 56.2892 12.1294 56.4317 11.9899C56.5743 11.8503 56.7433 11.7402 56.929 11.666C57.1148 11.5918 57.3135 11.555 57.5137 11.5576L65.8937 11.6676C66.2911 11.6729 66.6705 11.8333 66.9496 12.114C67.2288 12.3947 67.3853 12.7733 67.3853 13.1676V21.7551C67.4057 21.964 67.3818 22.1747 67.315 22.3738C67.2482 22.5729 67.1401 22.7558 66.9977 22.9109C66.8552 23.0659 66.6815 23.1895 66.4879 23.2738C66.2943 23.3581 66.085 23.4011 65.8735 23.4001L65.8861 23.3901ZM59.0078 14.5776V17.0101C59.0097 17.8857 59.3579 18.7254 59.9776 19.3487C60.5972 19.972 61.4388 20.3289 62.321 20.3426L64.3669 20.3701V14.6476L59.0078 14.5776ZM45.8962 23.1276H45.8055L42.3587 23.0826C41.9613 23.0774 41.582 22.917 41.3028 22.6363C41.0237 22.3556 40.8672 21.977 40.8672 21.5826V12.8626C40.8677 12.6638 40.908 12.467 40.9859 12.2837C41.0638 12.1004 41.1776 11.9344 41.3207 11.7951C41.462 11.6542 41.6306 11.5431 41.8164 11.4688C42.0022 11.3945 42.2013 11.3583 42.4016 11.3626L50.7815 11.4701C51.179 11.4754 51.5583 11.6358 51.8375 11.9165C52.1166 12.1972 52.2731 12.5758 52.2731 12.9701V16.7926C52.2738 18.4713 51.6027 20.0815 50.4074 21.2694C49.2121 22.4573 47.5904 23.1257 45.8987 23.1276H45.8962ZM43.8805 20.1026L45.8357 20.1276C46.7323 20.1368 47.5959 19.7924 48.2368 19.1701C48.5562 18.8606 48.8098 18.4908 48.9829 18.0825C49.156 17.6742 49.245 17.2356 49.2446 16.7926V14.4501L43.8881 14.3826L43.8805 20.1026ZM81.1948 26.8651C80.8547 26.8653 80.5245 26.7517 80.2575 26.5426C77.9977 24.8181 75.2873 23.7719 72.447 23.5276C72.2462 23.509 72.0512 23.4507 71.8734 23.3562C71.6957 23.2616 71.5388 23.1328 71.412 22.9771C71.2852 22.8215 71.1911 22.6423 71.1352 22.4501C71.0793 22.2578 71.0627 22.0564 71.0865 21.8576C71.0957 21.7914 71.0999 21.7245 71.099 21.6576V13.2501C71.1005 13.0519 71.1416 12.856 71.2199 12.6736C71.2982 12.4912 71.4121 12.3261 71.5551 12.1876C71.6966 12.0446 71.8662 11.932 72.0535 11.8567C72.2407 11.7814 72.4416 11.7452 72.6435 11.7501L82.4697 11.8776C85.861 11.9226 88.892 13.6051 90.3785 16.2701L93.0492 21.0501C93.1715 21.2687 93.2369 21.5142 93.2393 21.7643C93.2416 22.0143 93.181 22.261 93.0628 22.4818C92.9446 22.7027 92.7727 22.8907 92.5626 23.0288C92.3526 23.1669 92.111 23.2508 91.86 23.2726C88.3559 23.5828 84.9798 24.7314 82.0212 26.6201C81.7756 26.7797 81.4884 26.8648 81.1948 26.8651ZM74.1401 20.7226C76.6998 21.1382 79.1363 22.1059 81.278 23.5576C83.771 22.1112 86.4995 21.1078 89.3405 20.5926L87.7405 17.7301C86.7932 16.0301 84.7171 14.9126 82.4369 14.8826L74.1502 14.7751L74.1401 20.7226Z" fill="black"/>
<path d="M67.5715 126.75H40.6831C39.3694 126.747 38.0783 126.412 36.9319 125.775C35.7856 125.139 34.8219 124.222 34.1323 123.113L33.6989 122.41C32.9965 121.262 32.0105 120.311 30.8343 119.647C29.658 118.982 28.3303 118.626 26.9768 118.613L25.8481 118.6C22.4694 118.555 19.446 116.88 17.9519 114.23L11.3028 102.413C10.6869 101.323 10.3682 100.092 10.3782 98.8429L10.7082 73.7979C10.7135 73.4036 10.8751 73.0272 11.1581 72.7502C11.441 72.4732 11.8225 72.3179 12.2199 72.3179H12.2401C12.4386 72.3205 12.6347 72.3619 12.8171 72.4397C12.9995 72.5175 13.1647 72.6302 13.3032 72.7714C13.4417 72.9125 13.5508 73.0794 13.6243 73.2624C13.6979 73.4454 13.7343 73.6409 13.7317 73.8379L13.4016 98.8829C13.3971 99.6064 13.5839 100.318 13.9433 100.948L20.6024 112.765C21.5548 114.458 23.6259 115.57 25.8934 115.6L27.0222 115.613C28.8865 115.632 30.715 116.123 32.3351 117.039C33.9552 117.954 35.3134 119.264 36.2815 120.845L36.7148 121.548C37.1277 122.224 37.7104 122.783 38.4059 123.169C39.1015 123.555 39.8861 123.755 40.6831 123.75H67.5715C68.3672 123.754 69.1503 123.553 69.8444 123.167C70.5385 122.781 71.12 122.223 71.5322 121.548C72.5217 119.954 73.9045 118.638 75.5499 117.723C77.1953 116.807 79.0488 116.324 80.9351 116.318H81.0636C83.3539 116.338 85.4652 115.28 86.4604 113.605L93.3614 101.978C93.7328 101.362 93.9352 100.66 93.9485 99.9429L94.3541 69.4604C91.9255 69.52 89.5013 69.2218 87.1609 68.5754L86.7981 96.3029C86.7583 98.5545 86.1278 100.757 84.9689 102.693C82.1193 107.495 76.5033 110.443 70.2699 110.443H70.018L37.0776 110.015C30.7788 109.933 25.1628 106.85 22.3913 101.968C22.3711 101.938 22.3535 101.908 22.3359 101.878C21.2193 99.9009 20.6418 97.6691 20.6604 95.4029L21.4691 34.2179C21.5087 31.9595 22.1427 29.7506 23.3084 27.8104L23.3437 27.7479C25.5432 24.0754 29.514 21.4029 34.1298 20.4379V14.2504L27.2464 14.1604C24.9788 14.1429 22.875 15.1879 21.8773 16.8554L14.9007 28.5004C14.5218 29.1209 14.3158 29.8301 14.3036 30.5554L13.8879 62.1379C13.8826 62.5323 13.721 62.9087 13.438 63.1857C13.1551 63.4627 12.7736 63.618 12.3761 63.6179H12.3459C12.1474 63.6153 11.9513 63.5739 11.7689 63.4961C11.5865 63.4183 11.4213 63.3056 11.2828 63.1645C11.1443 63.0233 11.0352 62.8565 10.9617 62.6735C10.8882 62.4905 10.8517 62.2949 10.8544 62.0979L11.2802 30.5004C11.3004 29.2528 11.6477 28.0319 12.288 26.9579L19.2671 15.3279C20.8317 12.7154 23.903 11.1079 27.2767 11.1654L35.6516 11.2754C36.049 11.2807 36.4284 11.441 36.7075 11.7218C36.9867 12.0025 37.1432 12.381 37.1431 12.7754V21.6904C37.1429 22.0526 37.0107 22.4024 36.7708 22.6754C36.5309 22.9483 36.1996 23.1259 35.838 23.1754C31.5876 23.7504 27.8965 26.0204 25.9514 29.2504C25.9514 29.2729 25.9287 29.2954 25.9161 29.3154C25.0105 30.8074 24.5153 32.5091 24.48 34.2504L23.6838 95.4429C23.6689 97.1673 24.1028 98.8663 24.9436 100.375C24.9637 100.405 24.9814 100.433 24.9965 100.46C27.2011 104.38 31.9554 106.96 37.1129 107.023L70.0432 107.45C75.2208 107.508 80.0482 105.053 82.3536 101.17C83.2509 99.6812 83.7407 97.9852 83.7746 96.2504L84.1651 66.5004C84.1684 66.2599 84.2299 66.0237 84.3444 65.8117C84.459 65.5997 84.6232 65.4182 84.8233 65.2824C85.0234 65.1466 85.2535 65.0605 85.4941 65.0315C85.7347 65.0024 85.9789 65.0312 86.206 65.1154C88.6331 66.0117 91.2025 66.4689 93.7923 66.4654C94.4398 66.4654 95.0974 66.4354 95.75 66.3754C95.9609 66.3565 96.1735 66.3818 96.3739 66.4496C96.5744 66.5174 96.7583 66.6262 96.9136 66.7691C97.069 66.9119 97.1924 67.0855 97.2758 67.2787C97.3592 67.4719 97.4007 67.6803 97.3977 67.8904L96.9719 99.9804C96.9504 101.22 96.603 102.432 95.9641 103.498L89.0656 115.128C87.5061 117.755 84.4373 119.365 81.046 119.318H80.9351C79.5667 119.324 78.2224 119.676 77.0288 120.339C75.8352 121.003 74.8315 121.958 74.1122 123.113C73.4235 124.221 72.4615 125.136 71.317 125.773C70.1725 126.409 68.8835 126.746 67.5715 126.75ZM59.8063 120.918H48.4483C47.3791 120.918 46.3538 120.496 45.5978 119.746C44.8417 118.996 44.417 117.979 44.417 116.918C44.417 115.857 44.8417 114.84 45.5978 114.09C46.3538 113.339 47.3791 112.918 48.4483 112.918H59.8063C60.8755 112.918 61.9008 113.339 62.6568 114.09C63.4129 114.84 63.8376 115.857 63.8376 116.918C63.8376 117.979 63.4129 118.996 62.6568 119.746C61.9008 120.496 60.8755 120.918 59.8063 120.918ZM48.4483 115.918C48.181 115.918 47.9246 116.023 47.7356 116.211C47.5466 116.398 47.4405 116.653 47.4405 116.918C47.4405 117.183 47.5466 117.437 47.7356 117.625C47.9246 117.813 48.181 117.918 48.4483 117.918H59.8063C60.0736 117.918 60.33 117.813 60.519 117.625C60.708 117.437 60.8141 117.183 60.8141 116.918C60.8141 116.653 60.708 116.398 60.519 116.211C60.33 116.023 60.0736 115.918 59.8063 115.918H48.4483ZM12.2829 70.5929H12.2628C12.0642 70.5903 11.8682 70.5489 11.6858 70.4711C11.5034 70.3933 11.3382 70.2806 11.1997 70.1395C11.0612 69.9983 10.952 69.8315 10.8785 69.6485C10.805 69.4655 10.7685 69.2699 10.7712 69.0729L10.8014 66.8229C10.8068 66.4251 10.9712 66.0457 11.2585 65.7681C11.5457 65.4906 11.9324 65.3376 12.3333 65.3429C12.7342 65.3482 13.1166 65.5114 13.3964 65.7964C13.6761 66.0815 13.8302 66.4651 13.8249 66.8629L13.7946 69.1129C13.7893 69.5073 13.6277 69.8837 13.3448 70.1607C13.0619 70.4377 12.6804 70.593 12.2829 70.5929ZM57.4959 14.5554H57.4783L50.7385 14.4704C50.3411 14.4652 49.9617 14.3048 49.6826 14.0241C49.4034 13.7433 49.2469 13.3648 49.247 12.9704V6.09793C49.247 4.81296 49.7614 3.58061 50.6771 2.672C51.5928 1.76338 52.8348 1.25293 54.1298 1.25293C55.4248 1.25293 56.6668 1.76338 57.5825 2.672C58.4982 3.58061 59.0127 4.81296 59.0127 6.09793C59.0127 6.09793 59.0127 9.45293 59.0127 13.0554C59.0127 13.4533 58.8534 13.8348 58.5699 14.1161C58.2864 14.3974 57.9019 14.5554 57.501 14.5554H57.4959ZM52.2704 11.5004L55.9867 11.5479V6.09543C55.9867 5.85314 55.9386 5.61322 55.8452 5.38938C55.7517 5.16553 55.6148 4.96214 55.4421 4.79082C55.2694 4.61949 55.0645 4.48359 54.8389 4.39087C54.6133 4.29815 54.3715 4.25043 54.1273 4.25043C53.8831 4.25043 53.6413 4.29815 53.4157 4.39087C53.1901 4.48359 52.9852 4.61949 52.8125 4.79082C52.6398 4.96214 52.5029 5.16553 52.4094 5.38938C52.316 5.61322 52.2679 5.85314 52.2679 6.09543C52.2679 6.09543 52.2679 8.53793 52.2704 11.5004Z" fill="black"/>
<path d="M70.2702 110.45H70.0183L37.0779 110.023C30.7791 109.94 25.1656 106.858 22.3916 101.975C22.3714 101.945 22.3538 101.915 22.3361 101.885C21.2183 99.906 20.6407 97.6715 20.6607 95.4027L21.4694 34.2177C21.5093 31.9594 22.1433 29.7505 23.3087 27.8102C23.3087 27.7877 23.3314 27.7677 23.344 27.7452C25.7501 23.7302 30.2701 20.9127 35.4377 20.2077C35.5964 20.1852 35.7703 20.1627 35.9416 20.1452H35.9794L36.3195 20.1127C36.4833 20.0977 36.6622 20.0827 36.8411 20.0727H37.025C37.1636 20.0727 37.3022 20.0577 37.4483 20.0552H38.0101L45.8509 20.1552C46.7475 20.1643 47.6111 19.82 48.252 19.1977C48.5714 18.8882 48.8251 18.5184 48.9981 18.1101C49.1712 17.7017 49.2602 17.2632 49.2599 16.8202V12.9702C49.2598 12.7716 49.2996 12.5749 49.3768 12.3916C49.4541 12.2082 49.5672 12.042 49.7097 11.9024C49.8522 11.7629 50.0213 11.6528 50.207 11.5786C50.3928 11.5044 50.5915 11.4676 50.7917 11.4702L57.529 11.5577C57.9264 11.563 58.3057 11.7233 58.5849 12.0041C58.8641 12.2848 59.0206 12.6634 59.0205 13.0577V17.0102C59.0224 17.8857 59.3706 18.7255 59.9903 19.3488C60.61 19.972 61.4515 20.329 62.3337 20.3427L71.2604 20.4577H71.6157L71.9306 20.4727C72.2329 20.4877 72.5076 20.5077 72.7671 20.5327C76.1806 20.8279 79.435 22.0973 82.1372 24.1877C82.3259 24.3357 82.4763 24.5262 82.5758 24.7435C82.6754 24.9607 82.7213 25.1983 82.7097 25.4367C82.6981 25.6751 82.6294 25.9072 82.5092 26.1139C82.3891 26.3207 82.2209 26.4959 82.0188 26.6252C77.2019 29.6874 73.7927 34.5071 72.5278 40.043C71.2629 45.5788 72.2439 51.3862 75.2589 56.2102C75.3802 56.4037 75.4556 56.622 75.4792 56.8487C75.5028 57.0754 75.474 57.3044 75.3951 57.5184C75.3162 57.7324 75.1891 57.9257 75.0236 58.0837C74.8582 58.2417 74.6586 58.3602 74.4401 58.4302C73.0271 58.8786 71.5521 59.1046 70.0687 59.1002C72.2607 60.4077 75.0498 61.5027 78.1765 61.4502C78.4713 61.4502 78.7762 61.4252 79.1037 61.3952C79.4958 61.3576 79.8872 61.4733 80.1947 61.7177C82.0066 63.1633 84.0405 64.3112 86.2189 65.1177C86.5111 65.2255 86.7626 65.4202 86.939 65.6753C87.1154 65.9304 87.2079 66.2334 87.204 66.5427L86.8135 96.2927C86.7737 98.5443 86.1432 100.747 84.9843 102.683C82.1196 107.5 76.5035 110.45 70.2702 110.45ZM24.9439 100.375C24.9633 100.402 24.981 100.431 24.9968 100.46C27.2014 104.38 31.9557 106.96 37.1132 107.023L70.0435 107.45C75.2211 107.508 80.0485 105.053 82.3539 101.17C83.2512 99.681 83.741 97.985 83.7749 96.2502L84.1528 67.5252C82.2313 66.7195 80.4205 65.6753 78.7636 64.4177L78.2219 64.4402H77.922C70.4567 64.4402 64.8205 59.1227 63.2458 57.4752C63.0069 57.2254 62.8619 56.9016 62.8352 56.5583C62.8085 56.2149 62.9016 55.8729 63.099 55.5896C63.2964 55.3064 63.586 55.0991 63.9192 55.0027C64.2524 54.9063 64.6089 54.9266 64.9288 55.0602C67.055 55.9364 69.3712 56.2599 71.6585 56.0002C69.0436 50.9024 68.2999 45.06 69.5551 39.4771C70.8104 33.8942 73.9862 28.9194 78.5368 25.4077C76.665 24.3699 74.5948 23.7329 72.4597 23.5377C72.243 23.5177 72.0163 23.5002 71.7618 23.4877H71.1596L62.2909 23.3727C60.6135 23.3459 59.0138 22.6668 57.8358 21.4816C56.6578 20.2964 55.9958 18.6998 55.992 17.0352V14.5677L52.2707 14.5002V16.8027C52.2694 17.6406 52.1007 18.4699 51.7742 19.2426C51.4477 20.0153 50.97 20.716 50.3687 21.3043C49.7674 21.8925 49.0545 22.3566 48.2712 22.6696C47.488 22.9826 46.6499 23.1383 45.8056 23.1277L37.995 23.0277H36.9948L36.5791 23.0602L36.254 23.0902L35.8383 23.1452C31.5879 23.7502 27.8967 26.0202 25.9517 29.2502L25.9164 29.3152C25.0107 30.8072 24.5155 32.5089 24.4803 34.2502L23.6841 95.4427C23.6692 97.1671 24.1031 98.8661 24.9439 100.375ZM42.379 14.3627H42.3589L35.6141 14.2727C35.2162 14.2681 34.8362 14.1081 34.5565 13.8273C34.2768 13.5464 34.12 13.1675 34.12 12.7727V6.21273C34.12 4.9271 34.6347 3.69412 35.5509 2.78503C36.4671 1.87595 37.7097 1.36523 39.0054 1.36523C40.301 1.36523 41.5437 1.87595 42.4598 2.78503C43.376 3.69412 43.8907 4.9271 43.8907 6.21273V12.8627C43.8907 13.2606 43.7315 13.6421 43.448 13.9234C43.1645 14.2047 42.7799 14.3627 42.379 14.3627ZM37.1434 11.2927L40.8673 11.3427V6.21273C40.8673 5.72275 40.6711 5.25283 40.3219 4.90635C39.9728 4.55988 39.4992 4.36523 39.0054 4.36523C38.5115 4.36523 38.038 4.55988 37.6888 4.90635C37.3396 5.25283 37.1434 5.72275 37.1434 6.21273V11.2927Z" fill="black"/>
<path d="M35.6318 23.1902C35.2309 23.1902 34.8464 23.0322 34.5629 22.7509C34.2794 22.4696 34.1201 22.0881 34.1201 21.6902V12.7752C34.1201 12.3774 34.2794 11.9959 34.5629 11.7146C34.8464 11.4333 35.2309 11.2752 35.6318 11.2752H35.652L42.3993 11.3627C42.7967 11.368 43.1761 11.5283 43.4552 11.8091C43.7344 12.0898 43.8909 12.4684 43.8909 12.8627V21.5827C43.8909 21.7814 43.8511 21.9781 43.7739 22.1614C43.6967 22.3447 43.5835 22.511 43.441 22.6505C43.2985 22.7901 43.1294 22.9002 42.9437 22.9743C42.7579 23.0485 42.5592 23.0854 42.359 23.0827L38.0052 23.0277H37.0025C36.8689 23.0277 36.7329 23.0452 36.5993 23.0602H36.5716L36.2642 23.0902C36.1282 23.1052 35.9946 23.1202 35.8636 23.1402C35.7879 23.1632 35.7104 23.1799 35.6318 23.1902ZM38.0052 20.0277L40.8674 20.0627V14.3427L37.1436 14.2927V20.0427H37.5064L38.0052 20.0277ZM72.6236 14.7502H72.6034L65.8561 14.6627C65.4587 14.6575 65.0794 14.4971 64.8002 14.2164C64.521 13.9356 64.3645 13.5571 64.3646 13.1627V6.21273C64.3646 4.9271 64.8793 3.69412 65.7955 2.78503C66.7116 1.87595 67.9543 1.36523 69.2499 1.36523C70.5456 1.36523 71.7882 1.87595 72.7044 2.78503C73.6206 3.69412 74.1353 4.9271 74.1353 6.21273V13.2502C74.1353 13.6481 73.976 14.0296 73.6925 14.3109C73.409 14.5922 73.0245 14.7502 72.6236 14.7502ZM67.388 11.6852L71.1119 11.7327V6.21273C71.1119 5.72275 70.9157 5.25283 70.5665 4.90635C70.2174 4.55988 69.7438 4.36523 69.2499 4.36523C68.7561 4.36523 68.2825 4.55988 67.9334 4.90635C67.5842 5.25283 67.388 5.72275 67.388 6.21273V11.6852Z" fill="black"/>
<path d="M72.6028 23.5356C72.555 23.5381 72.507 23.5381 72.4592 23.5356C72.2072 23.5131 71.9805 23.4956 71.7613 23.4856C71.5421 23.4756 71.3632 23.4681 71.1667 23.4656L65.8757 23.3981C65.5024 23.3935 65.144 23.2521 64.8695 23.001C64.5951 22.7499 64.424 22.4069 64.3891 22.0381C64.3891 21.9231 64.374 21.7881 64.374 21.6656V13.1656C64.3742 12.9669 64.4141 12.7702 64.4916 12.5869C64.569 12.4037 64.6823 12.2375 64.825 12.0981C64.9656 11.9563 65.1342 11.8447 65.3201 11.7703C65.5061 11.6959 65.7055 11.6602 65.9059 11.6656L72.6532 11.7531C73.0506 11.7583 73.43 11.9187 73.7091 12.1994C73.9883 12.4801 74.1448 12.8587 74.1448 13.2531V21.6581C74.1441 21.841 74.1332 22.0238 74.112 22.2056C74.0698 22.5728 73.8924 22.9117 73.6139 23.1571C73.3354 23.4026 72.9753 23.5373 72.6028 23.5356ZM67.3874 20.4081L71.1112 20.4581V14.7331L67.3874 14.6856V20.4081ZM69.9674 83.4006H37.992C35.8683 83.3986 33.8322 82.5606 32.3306 81.0706C30.8289 79.5806 29.9844 77.5603 29.9824 75.4531V55.3506C29.9844 53.2434 30.8289 51.223 32.3306 49.733C33.8322 48.243 35.8683 47.405 37.992 47.4031H69.9674C70.3315 47.4028 70.6952 47.4279 71.0558 47.4781C71.3703 47.5224 71.6627 47.6639 71.8915 47.8824C72.1204 48.1009 72.274 48.3855 72.3307 48.6956C72.8184 51.3611 73.81 53.911 75.2534 56.2106C75.3747 56.404 75.45 56.6224 75.4736 56.849C75.4972 57.0757 75.4685 57.3047 75.3895 57.5187C75.3106 57.7327 75.1836 57.926 75.0181 58.084C74.8526 58.242 74.653 58.3605 74.4345 58.4306C73.0215 58.8789 71.5466 59.105 70.0631 59.1006C72.0514 60.3297 74.2878 61.1098 76.6139 61.3856C76.9881 61.4229 77.3348 61.5972 77.5864 61.8746C77.838 62.152 77.9763 62.5124 77.9745 62.8856V75.4606C77.9705 77.566 77.1254 79.5841 75.6245 81.0724C74.1236 82.5607 72.0893 83.3979 69.9674 83.4006ZM37.992 50.4006C36.6698 50.4025 35.4023 50.9248 34.4676 51.8527C33.5329 52.7807 33.0072 54.0386 33.0059 55.3506V75.4531C33.0079 76.7646 33.5338 78.0219 34.4685 78.9493C35.4031 79.8767 36.6702 80.3986 37.992 80.4006H69.9674C71.2892 80.3986 72.5563 79.8767 73.4909 78.9493C74.4256 78.0219 74.9515 76.7646 74.9535 75.4531V64.1781C69.141 63.1106 64.8754 59.2081 63.2453 57.4881C63.0064 57.2382 62.8614 56.9145 62.8347 56.5711C62.808 56.2277 62.9011 55.8857 63.0985 55.6025C63.2959 55.3192 63.5855 55.112 63.9187 55.0156C64.2519 54.9192 64.6084 54.9395 64.9283 55.0731C67.0556 55.9449 69.3718 56.2642 71.658 56.0006C70.7447 54.2286 70.0542 52.3521 69.6021 50.4131L37.992 50.4006Z" fill="black"/>
<path d="M93.7921 69.468C88.3623 69.461 83.0839 67.6909 78.7631 64.428L78.2189 64.4505H77.9064C70.6703 64.453 65.2559 59.598 63.2402 57.5005C63.0029 57.2504 62.8593 56.9271 62.8333 56.5845C62.8074 56.2419 62.9008 55.9009 63.0979 55.6185C63.2949 55.336 63.5837 55.1292 63.916 55.0327C64.2482 54.9361 64.6038 54.9557 64.9233 55.088C67.0541 55.9563 69.3731 56.2704 71.6605 56.0005C69.2109 51.2158 68.4029 45.7683 69.3595 40.4862C70.316 35.2041 72.9847 30.3764 76.9598 26.7373C80.935 23.0981 85.999 20.8464 91.382 20.3247C96.765 19.803 102.172 21.0398 106.782 23.8469C111.392 26.6541 114.952 30.8781 116.92 35.8767C118.889 40.8753 119.158 46.375 117.688 51.5396C116.218 56.7042 113.088 61.2512 108.775 64.4891C104.462 67.727 99.2007 69.4788 93.7921 69.478V69.468ZM79.2317 61.388C79.5753 61.3883 79.9085 61.5047 80.1765 61.718C84.0271 64.8052 88.8316 66.4825 93.782 66.468C98.6179 66.4719 103.318 64.8825 107.145 61.9492C110.972 59.016 113.71 54.9049 114.928 50.2611C116.146 45.6174 115.775 40.7039 113.874 36.2916C111.974 31.8793 108.651 28.2181 104.426 25.8825C100.202 23.5468 95.3155 22.669 90.5341 23.3867C85.7526 24.1045 81.3466 26.3772 78.0075 29.8481C74.6684 33.319 72.5853 37.7918 72.085 42.5645C71.5847 47.3371 72.6956 52.1395 75.2433 56.218C75.3646 56.4115 75.44 56.6298 75.4636 56.8565C75.4872 57.0832 75.4584 57.3122 75.3795 57.5262C75.3005 57.7402 75.1735 57.9335 75.008 58.0915C74.8426 58.2495 74.643 58.368 74.4244 58.438C73.0065 58.8778 71.5286 59.0979 70.043 59.0905C72.24 60.403 75.0342 61.5155 78.1609 61.4505C78.4532 61.4505 78.7555 61.4255 79.0906 61.3955C79.1375 61.3906 79.1846 61.3881 79.2317 61.388Z" fill="black"/>
<path d="M103.357 51.3281H83.6489C81.9115 51.3281 80.2453 50.6433 79.0168 49.4243C77.7882 48.2053 77.0981 46.552 77.0981 44.8281C77.0981 43.1042 77.7882 41.4509 79.0168 40.2319C80.2453 39.0129 81.9115 38.3281 83.6489 38.3281H103.364C105.102 38.3281 106.768 39.0129 107.996 40.2319C109.225 41.4509 109.915 43.1042 109.915 44.8281C109.915 46.552 109.225 48.2053 107.996 49.4243C106.768 50.6433 105.102 51.3281 103.364 51.3281H103.357ZM83.6413 41.3281C82.7058 41.3281 81.8086 41.6969 81.1471 42.3533C80.4856 43.0096 80.114 43.8999 80.114 44.8281C80.114 45.7564 80.4856 46.6466 81.1471 47.303C81.8086 47.9594 82.7058 48.3281 83.6413 48.3281H103.357C104.292 48.3281 105.189 47.9594 105.851 47.303C106.512 46.6466 106.884 45.7564 106.884 44.8281C106.884 43.8999 106.512 43.0096 105.851 42.3533C105.189 41.6969 104.292 41.3281 103.357 41.3281H83.6413ZM61.3157 76.9006C61.0043 76.8992 60.7009 76.8024 60.4469 76.6234C60.193 76.4444 60.0011 76.192 59.8972 75.9006L57.612 69.6781H50.6934L48.0378 75.9681C47.8835 76.3267 47.5946 76.6116 47.2323 76.7624C46.8699 76.9133 46.4626 76.9182 46.0967 76.7761C45.7308 76.6341 45.4349 76.3562 45.2719 76.0015C45.1089 75.6467 45.0916 75.2429 45.2235 74.8756L52.5604 54.8756C52.6668 54.5869 52.86 54.3376 53.114 54.1614C53.3679 53.9853 53.6703 53.8908 53.9801 53.8908C54.29 53.8908 54.5923 53.9853 54.8463 54.1614C55.1002 54.3376 55.2935 54.5869 55.3999 54.8756L62.7367 74.8756C62.8739 75.2493 62.856 75.6616 62.6868 76.0221C62.5177 76.3827 62.2112 76.6618 61.8348 76.7981C61.6693 76.8627 61.4935 76.8974 61.3157 76.9006ZM51.4492 66.6906H56.5135L53.9814 59.7881L51.4492 66.6906Z" fill="black"/>
</svg>
