<svg width="129" height="129" viewBox="0 0 129 129" fill="none" xmlns="http://www.w3.org/2000/svg">
<path d="M65.8861 22.0619L62.3008 22.014C61.0182 21.9981 59.7936 21.4765 58.8934 20.5626C57.9932 19.6487 57.4902 18.4165 57.4936 17.1337V13.1528L65.8735 13.2637V21.8301C65.8761 21.9057 65.8786 21.9838 65.8861 22.0619ZM50.7589 13.0722V16.9246C50.7596 17.5698 50.632 18.2087 50.3836 18.8042C50.1352 19.3997 49.7709 19.9398 49.3119 20.3932C48.8528 20.8466 48.3082 21.2043 47.7097 21.4453C47.1112 21.6864 46.4708 21.806 45.8256 21.7973L42.3789 21.752V12.9639L50.7589 13.0722ZM91.7113 21.9536C87.9619 22.2832 84.3494 23.5225 81.1872 25.564C78.7038 23.6441 75.7205 22.4791 72.5931 22.208C72.6083 22.0818 72.6159 21.9547 72.6158 21.8276V13.3544L82.442 13.4829C85.2689 13.5207 87.8312 14.9341 89.0482 17.1312L91.7113 21.9536Z" fill="#F6F4F9"/>
<path d="M93.7923 68.499C91.0219 68.5024 88.2732 68.0092 85.6769 67.0427L85.2864 97.0251C85.2514 99.0319 84.6929 100.995 83.6663 102.719C81.0712 107.123 75.7852 109.867 70.0331 109.792L37.0928 109.361C31.3608 109.285 26.1605 106.426 23.6763 101.973L23.6511 101.936C22.662 100.176 22.152 98.1872 22.1721 96.1685L22.9683 34.5181C23.0016 32.4942 23.5692 30.5151 24.6135 28.7811L24.6337 28.7433C26.8357 25.0371 30.9476 22.515 35.6314 21.8726V12.8753L27.2565 12.7645C24.4397 12.7267 21.8471 14.067 20.5672 16.2212L13.6057 27.9497C13.0935 28.8023 12.8146 29.7746 12.7969 30.769L11.8899 99.6354C11.8808 100.63 12.1336 101.609 12.6231 102.475L19.2822 114.387C20.5042 116.574 23.0615 117.98 25.8758 118.018L27.0071 118.03C28.6152 118.052 30.1916 118.48 31.5892 119.276C32.9868 120.072 34.1599 121.209 34.999 122.581L35.4324 123.289C35.9826 124.187 36.7543 124.93 37.6737 125.445C38.5931 125.959 39.6294 126.23 40.6831 126.229H67.5715C68.6242 126.228 69.6591 125.957 70.577 125.442C71.495 124.926 72.2655 124.184 72.8147 123.286C73.6647 121.897 74.857 120.75 76.2775 119.953C77.698 119.157 79.2991 118.739 80.9276 118.738H81.0561C83.883 118.774 86.4806 117.426 87.7555 115.261L94.664 103.553C95.1693 102.706 95.4437 101.741 95.4602 100.754L95.886 68.4133C95.1957 68.4704 94.4978 68.499 93.7923 68.499ZM59.8063 120.351H48.4483C47.7801 120.351 47.1392 120.086 46.6667 119.613C46.1942 119.14 45.9288 118.5 45.9288 117.831C45.9288 117.163 46.1942 116.522 46.6667 116.05C47.1392 115.577 47.7801 115.312 48.4483 115.312H59.8063C60.4746 115.312 61.1154 115.577 61.5879 116.05C62.0604 116.522 62.3259 117.163 62.3259 117.831C62.3259 118.5 62.0604 119.14 61.5879 119.613C61.1154 120.086 60.4746 120.351 59.8063 120.351Z" fill="#F6F4F9"/>
<path d="M57.4981 6.14555C57.4981 5.70284 57.4109 5.26447 57.2415 4.85547C57.0721 4.44647 56.8238 4.07483 56.5107 3.7618C56.1977 3.44876 55.8261 3.20044 55.4171 3.03103C55.0081 2.86161 54.5697 2.77441 54.127 2.77441C53.6843 2.77441 53.2459 2.86161 52.8369 3.03103C52.4279 3.20044 52.0563 3.44876 51.7432 3.7618C51.4302 4.07483 51.1819 4.44647 51.0125 4.85547C50.8431 5.26447 50.7559 5.70284 50.7559 6.14555C50.7559 6.14555 50.7559 9.47637 50.7559 13.0717L57.4931 13.1574L57.4981 6.14555Z" fill="#E6E7E8"/>
<path d="M85.6772 67.0422L85.2867 97.0246C85.2517 99.0313 84.6933 100.994 83.6666 102.719C81.0715 107.123 75.7856 109.867 70.0335 109.791L37.0931 109.36C31.3612 109.285 26.1609 106.425 23.6766 101.973L23.6514 101.935C22.6623 100.175 22.1524 98.1866 22.1724 96.1679L22.9686 34.5175C23.002 32.4937 23.5695 30.5145 24.6139 28.7806L24.634 28.7428C26.8361 25.0365 30.948 22.5145 35.6318 21.872C35.788 21.8493 35.9467 21.8292 36.1029 21.8115L36.4431 21.7788C36.6018 21.7637 36.7631 21.7511 36.9243 21.741H37.1082C37.2266 21.741 37.3451 21.741 37.4685 21.7259C37.4887 21.7271 37.5089 21.7271 37.529 21.7259H38.242L42.3791 21.7788L45.8258 21.8241C46.471 21.8328 47.1114 21.7132 47.7099 21.4721C48.3084 21.2311 48.853 20.8734 49.312 20.42C49.7711 19.9666 50.1354 19.4265 50.3838 18.831C50.6322 18.2355 50.7598 17.5966 50.759 16.9514V13.0713L57.4963 13.1595V17.1403C57.4949 18.4218 57.9988 19.6521 58.8988 20.5644C59.7988 21.4766 61.0222 21.9972 62.3035 22.0131L65.8888 22.061L71.1799 22.129H71.8299C72.0818 22.129 72.3338 22.1592 72.5857 22.1844C75.7131 22.4555 78.6964 23.6205 81.1799 25.5405C76.0264 28.8438 72.3806 34.0433 71.0312 40.014C69.6817 45.9847 70.7371 52.2467 73.969 57.4453C69.3859 58.9268 65.133 57.2261 64.3444 56.896C65.3522 57.9719 70.8397 63.5803 78.1892 63.4468C78.5444 63.4468 78.8921 63.4166 79.2323 63.3838C81.1712 64.94 83.3471 66.1752 85.6772 67.0422Z" fill="#F16969"/>
<path d="M42.3791 12.9633V6.26135C42.3791 5.3666 42.0237 4.5085 41.391 3.87582C40.7583 3.24313 39.9002 2.8877 39.0055 2.8877C38.1107 2.8877 37.2526 3.24313 36.62 3.87582C35.9873 4.5085 35.6318 5.3666 35.6318 6.26135V12.8751L42.3791 12.9633Z" fill="#E6E7E8"/>
<path d="M42.3791 21.7513V12.9632L35.6318 12.875V21.8596C35.788 21.837 35.9468 21.8168 36.103 21.7992L36.4431 21.7664C36.6044 21.7488 36.7656 21.7387 36.9269 21.7286H37.1083L37.4686 21.711C37.4896 21.7123 37.5106 21.7123 37.5316 21.711H38.2421L42.3791 21.7513Z" fill="#F16969"/>
<path d="M72.6233 13.3538V6.26135C72.6233 5.3666 72.2678 4.5085 71.6352 3.87582C71.0025 3.24313 70.1444 2.8877 69.2496 2.8877C68.3549 2.8877 67.4968 3.24313 66.8641 3.87582C66.2314 4.5085 65.876 5.3666 65.876 6.26135V13.2682L72.6233 13.3538Z" fill="#E6E7E8"/>
<path d="M72.6233 21.827V13.3538L65.876 13.2656V22.0663L71.167 22.1344C71.3837 22.1344 71.5978 22.1344 71.817 22.1571C72.0362 22.1797 72.3209 22.1873 72.5729 22.2125C72.5975 22.0851 72.6144 21.9564 72.6233 21.827Z" fill="#F16969"/>
<path d="M76.4653 63.3693V76.0426C76.4653 76.8959 76.2972 77.7409 75.9706 78.5292C75.6441 79.3176 75.1655 80.0339 74.5621 80.6373C73.9587 81.2407 73.2424 81.7193 72.454 82.0458C71.6656 82.3724 70.8207 82.5405 69.9674 82.5405H37.992C37.1387 82.5405 36.2937 82.3724 35.5054 82.0458C34.717 81.7193 34.0007 81.2407 33.3973 80.6373C32.7939 80.0339 32.3153 79.3176 31.9888 78.5292C31.6622 77.7409 31.4941 76.8959 31.4941 76.0426V55.783C31.4941 54.0597 32.1787 52.4069 33.3973 51.1883C34.6159 49.9698 36.2687 49.2852 37.992 49.2852H69.9674C70.2607 49.2849 70.5537 49.3051 70.8442 49.3456C71.3668 52.2182 72.4268 54.9664 73.9684 57.4459C69.3854 58.9274 65.1324 57.2267 64.3438 56.8967C65.2785 57.8894 69.9926 62.7168 76.4653 63.3693Z" fill="#F6F4F9"/>
<path d="M73.9684 57.4461C70.881 52.4709 69.7732 46.5182 70.864 40.7653C71.9549 35.0125 75.165 29.8786 79.8594 26.3789C84.5538 22.8793 90.3907 21.2689 96.2155 21.8661C102.04 22.4634 107.429 25.2249 111.315 29.6044C115.202 33.9839 117.303 39.6625 117.204 45.517C117.104 51.3715 114.812 56.9755 110.779 61.2206C106.746 65.4658 101.267 68.0429 95.4252 68.4422C89.5835 68.8415 83.8046 67.034 79.2317 63.3771C78.8915 63.4099 78.5463 63.4325 78.1886 63.4401C70.8391 63.5812 65.3591 57.9702 64.3438 56.8893C65.1324 57.2294 69.3853 58.9276 73.9684 57.4461Z" fill="#606161"/>
<path d="M103.356 40.1386H98.5363V35.3213C98.5363 33.9848 98.0055 32.7031 97.0604 31.7581C96.1154 30.8131 94.8337 30.2822 93.4973 30.2822C92.1608 30.2822 90.8791 30.8131 89.9341 31.7581C88.9891 32.7031 88.4582 33.9848 88.4582 35.3213V40.1386H83.6484C82.312 40.1386 81.0303 40.6695 80.0853 41.6145C79.1403 42.5595 78.6094 43.8413 78.6094 45.1777C78.6094 46.5141 79.1403 47.7958 80.0853 48.7408C81.0303 49.6859 82.312 50.2168 83.6484 50.2168H88.4658V55.0366C88.4658 56.3731 88.9967 57.6548 89.9417 58.5998C90.8867 59.5448 92.1684 60.0757 93.5048 60.0757C94.8413 60.0757 96.123 59.5448 97.068 58.5998C98.013 57.6548 98.5439 56.3731 98.5439 55.0366V50.2168H103.364C104.7 50.2168 105.982 49.6859 106.927 48.7408C107.872 47.7958 108.403 46.5141 108.403 45.1777C108.403 43.8413 107.872 42.5595 106.927 41.6145C105.982 40.6695 104.7 40.1386 103.364 40.1386H103.356Z" fill="#F16969"/>
<path d="M70.7587 125.339C69.7977 125.922 68.6953 126.229 67.5715 126.229H40.6831C39.6291 126.229 38.5927 125.958 37.6733 125.443C36.7539 124.928 35.9823 124.185 35.4324 123.286L34.999 122.578C34.1599 121.206 32.9868 120.069 31.5892 119.273C30.1916 118.477 28.6152 118.049 27.0071 118.027L25.8758 118.015C23.059 117.977 20.5042 116.571 19.2822 114.384L12.6231 102.474C12.1336 101.609 11.8808 100.629 11.8899 99.6349L12.3459 64.2783C15.1726 70.5804 18.5156 76.6378 22.3409 82.3887L22.1721 96.168C22.1541 98.1913 22.6685 100.184 23.6637 101.945L23.6889 101.983C26.1731 106.435 31.3734 109.29 37.1054 109.37L46.6594 109.496C49.0798 111.527 51.5834 113.464 54.1701 115.306H48.4483C47.7801 115.306 47.1392 115.572 46.6667 116.044C46.1942 116.517 45.9288 117.158 45.9288 117.826C45.9288 118.494 46.1942 119.135 46.6667 119.607C47.1392 120.08 47.7801 120.345 48.4483 120.345H59.8063C60.2825 120.346 60.749 120.211 61.1518 119.957C64.2659 121.891 67.4682 123.685 70.7587 125.339Z" fill="#E3E2E7"/>
<path d="M46.6473 109.496L37.0932 109.37C31.3613 109.295 26.161 106.435 23.6767 101.983L23.6515 101.945C22.6607 100.182 22.1507 98.1901 22.1725 96.168L22.3414 82.3887C29.0936 92.5495 37.2804 101.68 46.6473 109.496Z" fill="#DE5555"/>
<path d="M65.8861 23.573H65.866L62.2807 23.5252C60.6033 23.4981 59.0036 22.8137 57.8256 21.6193C56.6477 20.4248 55.9856 18.8157 55.9819 17.1381V13.1598C55.9818 12.9596 56.0216 12.7613 56.0988 12.5766C56.1761 12.3919 56.2892 12.2243 56.4317 12.0837C56.5743 11.943 56.7433 11.8321 56.929 11.7573C57.1148 11.6826 57.3135 11.6454 57.5137 11.6481L65.8937 11.7589C66.2911 11.7642 66.6705 11.9259 66.9496 12.2088C67.2288 12.4917 67.3853 12.8732 67.3853 13.2707V21.9253C67.4057 22.1357 67.3818 22.3481 67.315 22.5487C67.2482 22.7494 67.1401 22.9337 66.9977 23.09C66.8552 23.2462 66.6815 23.3708 66.4879 23.4558C66.2943 23.5407 66.085 23.5841 65.8735 23.5831L65.8861 23.573ZM59.0078 14.6917V17.1432C59.0097 18.0255 59.3579 18.8719 59.9776 19.5C60.5972 20.1281 61.4388 20.4879 62.321 20.5017L64.3669 20.5294V14.7622L59.0078 14.6917ZM45.8962 23.3085H45.8055L42.3587 23.2631C41.9613 23.2578 41.582 23.0962 41.3028 22.8133C41.0237 22.5304 40.8672 22.1489 40.8672 21.7514V12.9633C40.8677 12.7628 40.908 12.5645 40.9859 12.3798C41.0638 12.1951 41.1776 12.0278 41.3207 11.8874C41.4618 11.7451 41.6304 11.6331 41.8162 11.5581C42.0021 11.4832 42.2012 11.4469 42.4016 11.4516L50.7815 11.5599C51.179 11.5652 51.5583 11.7268 51.8375 12.0097C52.1166 12.2927 52.2731 12.6742 52.2731 13.0716V16.924C52.2738 18.6157 51.6027 20.2385 50.4074 21.4357C49.2121 22.6329 47.5904 23.3065 45.8987 23.3085H45.8962ZM43.8805 20.2598L45.8357 20.285C46.7323 20.294 47.5958 19.9469 48.2368 19.3201C48.5562 19.0081 48.8098 18.6354 48.9829 18.2239C49.156 17.8124 49.245 17.3704 49.2446 16.924V14.5632L43.8881 14.4952L43.8805 20.2598ZM81.1948 27.0752C80.8547 27.0754 80.5245 26.9608 80.2575 26.7502C77.9977 25.0122 75.2873 23.9577 72.447 23.7116C72.2462 23.6928 72.0512 23.6341 71.8734 23.5388C71.6957 23.4435 71.5388 23.3136 71.412 23.1568C71.2852 23 71.1911 22.8194 71.1352 22.6256C71.0793 22.4318 71.0627 22.2288 71.0865 22.0286C71.0957 21.9618 71.0999 21.8944 71.099 21.827V13.3538C71.1005 13.154 71.1416 12.9566 71.2199 12.7728C71.2982 12.589 71.4121 12.4225 71.5551 12.283C71.6967 12.139 71.8664 12.0255 72.0536 11.9497C72.2408 11.8738 72.4416 11.8372 72.6435 11.8421L82.4697 11.9706C85.861 12.0159 88.892 13.7116 90.3785 16.3974L93.0492 21.2147C93.1715 21.4351 93.2369 21.6825 93.2393 21.9344C93.2416 22.1864 93.181 22.435 93.0628 22.6576C92.9446 22.8802 92.7727 23.0697 92.5626 23.2089C92.3526 23.3481 92.111 23.4325 91.86 23.4546C88.3559 23.7671 84.9798 24.9248 82.0212 26.8283C81.7756 26.9891 81.4884 27.0749 81.1948 27.0752ZM74.1401 20.8847C76.6998 21.3034 79.1363 22.2788 81.278 23.7418C83.771 22.2841 86.4995 21.2728 89.3405 20.7537L87.7405 17.8688C86.7932 16.1555 84.7171 15.0293 82.4369 14.9991L74.1502 14.8907L74.1401 20.8847Z" fill="black"/>
<path d="M67.5715 127.741H40.6831C39.3694 127.738 38.0783 127.399 36.9319 126.758C35.7856 126.116 34.8219 125.193 34.1323 124.075L33.6989 123.367C32.9965 122.21 32.0105 121.251 30.8343 120.581C29.658 119.912 28.3303 119.553 26.9768 119.54L25.8481 119.527C22.4694 119.482 19.446 117.794 17.9519 115.123L11.3028 103.213C10.6869 102.115 10.3682 100.874 10.3782 99.6151L10.7082 74.3745C10.7135 73.977 10.8751 73.5977 11.1581 73.3185C11.441 73.0394 11.8225 72.8829 12.2199 72.8829H12.2401C12.4386 72.8855 12.6347 72.9272 12.8171 73.0056C12.9995 73.0841 13.1647 73.1976 13.3032 73.3399C13.4417 73.4821 13.5508 73.6503 13.6243 73.8347C13.6979 74.0191 13.7343 74.2162 13.7317 74.4148L13.4016 99.6554C13.3971 100.385 13.5839 101.102 13.9433 101.737L20.6024 113.646C21.5548 115.352 23.6259 116.473 25.8934 116.504L27.0222 116.516C28.8865 116.536 30.715 117.03 32.3351 117.953C33.9552 118.876 35.3134 120.196 36.2815 121.79L36.7148 122.497C37.1277 123.179 37.7104 123.742 38.4059 124.131C39.1015 124.52 39.8861 124.722 40.6831 124.717H67.5715C68.3672 124.721 69.1503 124.518 69.8444 124.129C70.5385 123.74 71.12 123.178 71.5322 122.497C72.5217 120.892 73.9045 119.565 75.5499 118.642C77.1953 117.72 79.0488 117.233 80.9351 117.227H81.0636C83.3539 117.247 85.4652 116.181 86.4604 114.493L93.3614 102.775C93.7328 102.154 93.9352 101.447 93.9485 100.724L94.3541 70.0031C91.9255 70.0631 89.5013 69.7625 87.1609 69.1111L86.7981 97.0553C86.7583 99.3244 86.1278 101.544 84.9689 103.495C82.1193 108.335 76.5033 111.306 70.2699 111.306H70.018L37.0776 110.875C30.7788 110.792 25.1628 107.685 22.3913 102.765C22.3711 102.734 22.3535 102.704 22.3359 102.674C21.2193 100.681 20.6418 98.4321 20.6604 96.1482L21.4691 34.4852C21.5087 32.2092 22.1427 29.983 23.3084 28.0277L23.3437 27.9647C25.5432 24.2635 29.514 21.5701 34.1298 20.5976V14.3617L27.2464 14.271C24.9788 14.2534 22.875 15.3066 21.8773 16.9871L14.9007 28.7231C14.5218 29.3484 14.3158 30.0631 14.3036 30.7941L13.8879 62.6234C13.8826 63.0208 13.721 63.4001 13.438 63.6793C13.1551 63.9585 12.7736 64.115 12.3761 64.1149H12.3459C12.1474 64.1123 11.9513 64.0706 11.7689 63.9922C11.5865 63.9138 11.4213 63.8002 11.2828 63.6579C11.1443 63.5157 11.0352 63.3475 10.9617 63.1631C10.8882 62.9787 10.8517 62.7816 10.8544 62.583L11.2802 30.7387C11.3004 29.4813 11.6477 28.2509 12.288 27.1685L19.2671 15.4477C20.8317 12.8147 23.903 11.1947 27.2767 11.2526L35.6516 11.3635C36.049 11.3688 36.4284 11.5304 36.7075 11.8133C36.9867 12.0963 37.1432 12.4777 37.1431 12.8752V21.8599C37.1429 22.2248 37.0107 22.5774 36.7708 22.8525C36.5309 23.1276 36.1996 23.3066 35.838 23.3565C31.5876 23.936 27.8965 26.2237 25.9514 29.4789C25.9514 29.5016 25.9287 29.5243 25.9161 29.5444C25.0105 31.0481 24.5153 32.763 24.48 34.518L23.6838 96.1886C23.6689 97.9264 24.1028 99.6386 24.9436 101.16C24.9637 101.19 24.9814 101.218 24.9965 101.245C27.2011 105.196 31.9554 107.796 37.1129 107.859L70.0432 108.29C75.2183 108.348 80.0482 105.874 82.3536 101.961C83.2509 100.46 83.7407 98.7507 83.7746 97.0024L84.1651 67.0199C84.1684 66.7775 84.2299 66.5395 84.3444 66.3258C84.459 66.1122 84.6232 65.9292 84.8233 65.7924C85.0234 65.6555 85.2535 65.5688 85.4941 65.5395C85.7347 65.5102 85.9789 65.5393 86.206 65.6241C88.6331 66.5274 91.2025 66.9882 93.7923 66.9847C94.4398 66.9847 95.0974 66.9544 95.75 66.894C95.9609 66.8749 96.1735 66.9003 96.3739 66.9687C96.5744 67.037 96.7583 67.1467 96.9136 67.2907C97.069 67.4346 97.1924 67.6096 97.2758 67.8043C97.3592 67.999 97.4007 68.209 97.3977 68.4208L96.9719 100.762C96.9504 102.011 96.603 103.233 95.9641 104.306L89.0656 116.027C87.5061 118.675 84.4373 120.298 81.046 120.25H80.9351C79.5667 120.256 78.2224 120.61 77.0288 121.28C75.8352 121.949 74.8315 122.911 74.1122 124.075C73.4235 125.191 72.4615 126.114 71.317 126.755C70.1725 127.397 68.8835 127.736 67.5715 127.741ZM59.8063 121.863H48.4483C47.3791 121.863 46.3538 121.438 45.5978 120.682C44.8417 119.926 44.417 118.9 44.417 117.831C44.417 116.762 44.8417 115.737 45.5978 114.981C46.3538 114.225 47.3791 113.8 48.4483 113.8H59.8063C60.8755 113.8 61.9008 114.225 62.6568 114.981C63.4129 115.737 63.8376 116.762 63.8376 117.831C63.8376 118.9 63.4129 119.926 62.6568 120.682C61.9008 121.438 60.8755 121.863 59.8063 121.863ZM48.4483 116.824C48.181 116.824 47.9246 116.93 47.7356 117.119C47.5466 117.308 47.4405 117.564 47.4405 117.831C47.4405 118.099 47.5466 118.355 47.7356 118.544C47.9246 118.733 48.181 118.839 48.4483 118.839H59.8063C60.0736 118.839 60.33 118.733 60.519 118.544C60.708 118.355 60.8141 118.099 60.8141 117.831C60.8141 117.564 60.708 117.308 60.519 117.119C60.33 116.93 60.0736 116.824 59.8063 116.824H48.4483ZM12.2829 71.1444H12.2628C12.0642 71.1418 11.8682 71.1001 11.6858 71.0217C11.5034 70.9433 11.3382 70.8297 11.1997 70.6874C11.0612 70.5452 10.952 70.377 10.8785 70.1926C10.805 70.0082 10.7685 69.8111 10.7712 69.6125L10.8014 67.345C10.8068 66.944 10.9712 66.5616 11.2585 66.2819C11.5457 66.0022 11.9324 65.848 12.3333 65.8534C12.7342 65.8587 13.1166 66.0231 13.3964 66.3104C13.6761 66.5977 13.8302 66.9843 13.8249 67.3853L13.7946 69.6529C13.7893 70.0503 13.6277 70.4296 13.3448 70.7088C13.0619 70.9879 12.6804 71.1444 12.2829 71.1444ZM57.4959 14.6691H57.4783L50.7385 14.5835C50.3411 14.5782 49.9617 14.4166 49.6826 14.1336C49.4034 13.8507 49.2469 13.4692 49.247 13.0717V6.14555C49.247 4.85053 49.7614 3.60856 50.6771 2.69285C51.5928 1.77714 52.8348 1.2627 54.1298 1.2627C55.4248 1.2627 56.6668 1.77714 57.5825 2.69285C58.4982 3.60856 59.0127 4.85053 59.0127 6.14555C59.0127 6.14555 59.0127 9.52676 59.0127 13.1574C59.0127 13.5583 58.8534 13.9428 58.5699 14.2263C58.2864 14.5099 57.9019 14.6691 57.501 14.6691H57.4959ZM52.2704 11.5903L55.9867 11.6381V6.14303C55.9867 5.89885 55.9386 5.65705 55.8452 5.43146C55.7517 5.20587 55.6148 5.00089 55.4421 4.82822C55.2694 4.65556 55.0645 4.5186 54.8389 4.42515C54.6133 4.33171 54.3715 4.28361 54.1273 4.28361C53.8831 4.28361 53.6413 4.33171 53.4157 4.42515C53.1901 4.5186 52.9852 4.65556 52.8125 4.82822C52.6398 5.00089 52.5029 5.20587 52.4094 5.43146C52.316 5.65705 52.2679 5.89885 52.2679 6.14303C52.2679 6.14303 52.2679 8.60461 52.2704 11.5903Z" fill="black"/>
<path d="M70.2702 111.313H70.0183L37.0779 110.882C30.7791 110.799 25.1656 107.693 22.3916 102.772C22.3714 102.742 22.3538 102.712 22.3361 102.681C21.2183 100.687 20.6407 98.4346 20.6607 96.1481L21.4694 34.4851C21.5093 32.2091 22.1433 29.983 23.3087 28.0276C23.3087 28.0049 23.3314 27.9847 23.344 27.9621C25.7501 23.9157 30.2701 21.0762 35.4377 20.3657C35.5964 20.343 35.7703 20.3203 35.9416 20.3027H35.9794L36.3195 20.2699C36.4833 20.2548 36.6622 20.2397 36.8411 20.2296H37.025C37.1636 20.2296 37.3022 20.2145 37.4483 20.212H38.0101L45.8509 20.3128C46.7475 20.3217 47.611 19.9746 48.252 19.3478C48.5714 19.0358 48.8251 18.6631 48.9981 18.2516C49.1712 17.8401 49.2602 17.3981 49.2599 16.9517V13.0716C49.2598 12.8714 49.2996 12.6732 49.3768 12.4884C49.4541 12.3037 49.5672 12.1361 49.7097 11.9955C49.8522 11.8549 50.0213 11.7439 50.207 11.6692C50.3928 11.5944 50.5915 11.5573 50.7917 11.5599L57.529 11.6481C57.9264 11.6534 58.3057 11.815 58.5849 12.0979C58.8641 12.3809 59.0206 12.7624 59.0205 13.1598V17.1432C59.0224 18.0255 59.3706 18.8719 59.9903 19.5C60.61 20.1282 61.4515 20.4879 62.3337 20.5017L71.2604 20.6176H71.6157L71.9306 20.6328C72.2329 20.6479 72.5076 20.668 72.7671 20.6932C76.1806 20.9907 79.435 22.27 82.1372 24.3768C82.3259 24.5259 82.4763 24.7179 82.5758 24.9368C82.6754 25.1558 82.7213 25.3953 82.7097 25.6355C82.6981 25.8757 82.6294 26.1097 82.5092 26.318C82.3891 26.5264 82.2209 26.703 82.0188 26.8333C77.2019 29.9194 73.7927 34.7768 72.5278 40.3559C71.2629 45.935 72.2439 51.7877 75.2589 56.6495C75.3802 56.8444 75.4556 57.0645 75.4792 57.2929C75.5028 57.5213 75.474 57.7522 75.3951 57.9678C75.3162 58.1835 75.1891 58.3783 75.0236 58.5375C74.8582 58.6968 74.6586 58.8162 74.4401 58.8868C73.0271 59.3386 71.5521 59.5665 70.0687 59.562C72.2607 60.8797 75.0498 61.9833 78.1765 61.9304C78.4713 61.9304 78.7762 61.9052 79.1037 61.875C79.4958 61.837 79.8872 61.9536 80.1947 62.2C82.0066 63.6569 84.0405 64.8137 86.2189 65.6265C86.5111 65.7351 86.7626 65.9314 86.939 66.1885C87.1154 66.4456 87.2079 66.7509 87.204 67.0627L86.8135 97.0451C86.7737 99.3142 86.1432 101.534 84.9843 103.485C82.1196 108.34 76.5035 111.313 70.2702 111.313ZM24.9439 101.159C24.9633 101.187 24.981 101.216 24.9968 101.245C27.2014 105.196 31.9557 107.796 37.1132 107.859L70.0435 108.29C75.2186 108.348 80.0485 105.874 82.3539 101.961C83.2512 100.46 83.741 98.7506 83.7749 97.0023L84.1528 68.0529C82.2313 67.2408 80.4205 66.1885 78.7636 64.9211L78.2219 64.9438H77.922C70.4567 64.9438 64.8205 59.5847 63.2458 57.9243C63.0069 57.6726 62.8619 57.3462 62.8352 57.0002C62.8085 56.6542 62.9016 56.3095 63.099 56.024C63.2964 55.7385 63.586 55.5297 63.9192 55.4325C64.2524 55.3354 64.6089 55.3558 64.9288 55.4905C67.055 56.3734 69.3712 56.6995 71.6585 56.4378C69.0436 51.3001 68.2999 45.4121 69.5551 39.7856C70.8104 34.159 73.9862 29.1454 78.5368 25.6063C76.665 24.5604 74.5948 23.9184 72.4597 23.7217C72.243 23.7015 72.0163 23.6839 71.7618 23.6713H71.1596L62.2909 23.5554C60.6135 23.5283 59.0138 22.844 57.8358 21.6495C56.6578 20.4551 55.9958 18.846 55.992 17.1684V14.6816L52.2707 14.6136V16.9341C52.2694 17.7785 52.1007 18.6142 51.7742 19.393C51.4477 20.1717 50.97 20.878 50.3687 21.4708C49.7674 22.0637 49.0545 22.5313 48.2712 22.8468C47.488 23.1622 46.6499 23.3192 45.8056 23.3085L37.995 23.2077H36.9948L36.5791 23.2405L36.254 23.2707L35.8383 23.3261C31.5879 23.9359 27.8967 26.2236 25.9517 29.4788L25.9164 29.5443C25.0107 31.048 24.5155 32.7629 24.4803 34.5179L23.6841 96.1885C23.6692 97.9263 24.1031 99.6385 24.9439 101.159ZM42.379 14.475H42.3589L35.6141 14.3843C35.2162 14.3797 34.8362 14.2184 34.5565 13.9354C34.2768 13.6524 34.12 13.2705 34.12 12.8726V6.26135C34.12 4.96567 34.6347 3.72305 35.5509 2.80687C36.4671 1.89068 37.7097 1.37598 39.0054 1.37598C40.301 1.37598 41.5437 1.89068 42.4598 2.80687C43.376 3.72305 43.8907 4.96567 43.8907 6.26135V12.9633C43.8907 13.3642 43.7315 13.7487 43.448 14.0322C43.1645 14.3158 42.7799 14.475 42.379 14.475ZM37.1434 11.381L40.8673 11.4314V6.26135C40.8673 5.76753 40.6711 5.29394 40.3219 4.94476C39.9728 4.59558 39.4992 4.39941 39.0054 4.39941C38.5115 4.39941 38.038 4.59558 37.6888 4.94476C37.3396 5.29394 37.1434 5.76753 37.1434 6.26135V11.381Z" fill="black"/>
<path d="M35.6318 23.3715C35.2309 23.3715 34.8464 23.2122 34.5629 22.9287C34.2794 22.6452 34.1201 22.2607 34.1201 21.8598V12.8751C34.1201 12.4742 34.2794 12.0897 34.5629 11.8062C34.8464 11.5227 35.2309 11.3634 35.6318 11.3634H35.652L42.3993 11.4516C42.7967 11.4569 43.1761 11.6185 43.4552 11.9014C43.7344 12.1843 43.8909 12.5658 43.8909 12.9633V21.7514C43.8909 21.9517 43.8511 22.1499 43.7739 22.3346C43.6967 22.5194 43.5835 22.6869 43.441 22.8276C43.2985 22.9682 43.1294 23.0791 42.9437 23.1539C42.7579 23.2287 42.5592 23.2658 42.359 23.2631L38.0052 23.2077H37.0025C36.8689 23.2077 36.7329 23.2254 36.5993 23.2405H36.5716L36.2642 23.2707C36.1282 23.2858 35.9946 23.3009 35.8636 23.3211C35.7879 23.3443 35.7104 23.3611 35.6318 23.3715ZM38.0052 20.1843L40.8674 20.2196V14.4549L37.1436 14.4045V20.1994H37.5064L38.0052 20.1843ZM72.6236 14.8655H72.6034L65.8561 14.7774C65.4587 14.7721 65.0794 14.6105 64.8002 14.3275C64.521 14.0446 64.3645 13.6631 64.3646 13.2656V6.26135C64.3646 4.96567 64.8793 3.72305 65.7955 2.80687C66.7116 1.89068 67.9543 1.37598 69.2499 1.37598C70.5456 1.37598 71.7882 1.89068 72.7044 2.80687C73.6206 3.72305 74.1353 4.96567 74.1353 6.26135V13.3538C74.1353 13.7548 73.976 14.1393 73.6925 14.4228C73.409 14.7063 73.0245 14.8655 72.6236 14.8655ZM67.388 11.7766L71.1119 11.8245V6.26135C71.1119 5.76753 70.9157 5.29394 70.5665 4.94476C70.2174 4.59558 69.7438 4.39941 69.2499 4.39941C68.7561 4.39941 68.2825 4.59558 67.9334 4.94476C67.5842 5.29394 67.388 5.76753 67.388 6.26135V11.7766Z" fill="black"/>
<path d="M72.6028 23.7191C72.555 23.7216 72.507 23.7216 72.4592 23.7191C72.2072 23.6964 71.9805 23.6788 71.7613 23.6687C71.5421 23.6587 71.3632 23.6511 71.1667 23.6486L65.8757 23.5805C65.5024 23.576 65.144 23.4334 64.8695 23.1803C64.5951 22.9273 64.424 22.5816 64.3891 22.2099C64.3891 22.094 64.374 21.958 64.374 21.8345V13.2681C64.3742 13.0678 64.4141 12.8696 64.4916 12.6849C64.569 12.5002 64.6823 12.3328 64.825 12.1923C64.9656 12.0493 65.1342 11.9369 65.3201 11.8619C65.5061 11.7869 65.7055 11.751 65.9059 11.7564L72.6532 11.8446C73.0506 11.8499 73.43 12.0115 73.7091 12.2944C73.9883 12.5773 74.1448 12.9588 74.1448 13.3563V21.827C74.1441 22.0113 74.1332 22.1956 74.112 22.3787C74.0698 22.7488 73.8924 23.0903 73.6139 23.3377C73.3354 23.5851 72.9753 23.7209 72.6028 23.7191ZM67.3874 20.5672L71.1112 20.6176V14.8479L67.3874 14.8V20.5672ZM69.9674 84.0518H37.992C35.8683 84.0498 33.8322 83.2053 32.3306 81.7037C30.8289 80.202 29.9844 78.1659 29.9824 76.0422V55.7827C29.9844 53.659 30.8289 51.6229 32.3306 50.1213C33.8322 48.6196 35.8683 47.7751 37.992 47.7731H69.9674C70.3315 47.7728 70.6952 47.7981 71.0558 47.8487C71.3703 47.8933 71.6627 48.0359 71.8915 48.2562C72.1204 48.4764 72.274 48.7632 72.3307 49.0757C72.8184 51.762 73.81 54.3318 75.2534 56.6494C75.3747 56.8444 75.45 57.0644 75.4736 57.2929C75.4972 57.5213 75.4685 57.7521 75.3895 57.9678C75.3106 58.1834 75.1836 58.3783 75.0181 58.5375C74.8526 58.6967 74.653 58.8162 74.4345 58.8867C73.0215 59.3386 71.5466 59.5664 70.0631 59.562C72.0514 60.8007 74.2878 61.5869 76.6139 61.8648C76.9881 61.9024 77.3348 62.0781 77.5864 62.3577C77.838 62.6372 77.9763 63.0005 77.9745 63.3765V76.0498C77.9705 78.1717 77.1254 80.2055 75.6245 81.7054C74.1236 83.2054 72.0893 84.0492 69.9674 84.0518ZM37.992 50.794C36.6698 50.796 35.4023 51.3223 34.4676 52.2575C33.5329 53.1927 33.0072 54.4604 33.0059 55.7827V76.0422C33.0079 77.364 33.5338 78.6311 34.4685 79.5658C35.4031 80.5004 36.6702 81.0264 37.992 81.0284H69.9674C71.2892 81.0264 72.5563 80.5004 73.4909 79.5658C74.4256 78.6311 74.9515 77.364 74.9535 76.0422V64.6791C69.141 63.6033 64.8754 59.6703 63.2453 57.9369C63.0064 57.6851 62.8614 57.3588 62.8347 57.0127C62.808 56.6667 62.9011 56.322 63.0985 56.0365C63.2959 55.7511 63.5855 55.5422 63.9187 55.4451C64.2519 55.3479 64.6084 55.3684 64.9283 55.503C67.0555 56.3819 69.3718 56.7036 71.658 56.4378C70.7447 54.652 70.0542 52.7608 69.6021 50.8066L37.992 50.794Z" fill="black"/>
<path d="M93.7921 70.0111C88.3623 70.004 83.0839 68.22 78.7631 64.9317L78.2189 64.9544H77.9064C70.6703 64.9569 65.2559 60.064 63.2402 57.9501C63.0029 57.698 62.8593 57.3721 62.8333 57.0269C62.8074 56.6817 62.9008 56.338 63.0979 56.0533C63.2949 55.7687 63.5837 55.5603 63.916 55.463C64.2482 55.3657 64.6038 55.3853 64.9233 55.5187C67.0541 56.3938 69.3731 56.7103 71.6605 56.4384C69.2109 51.6163 68.4029 46.1262 69.3595 40.8028C70.316 35.4795 72.9847 30.6141 76.9598 26.9465C80.935 23.2788 85.999 21.0096 91.382 20.4838C96.765 19.958 102.172 21.2045 106.782 24.0336C111.392 26.8627 114.952 31.1197 116.92 36.1573C118.889 41.195 119.158 46.7377 117.688 51.9426C116.218 57.1476 113.088 61.73 108.775 64.9932C104.462 68.2565 99.2007 70.0219 93.7921 70.0212V70.0111ZM79.2317 61.868C79.5753 61.8682 79.9085 61.9855 80.1765 62.2005C84.0271 65.3118 88.8316 67.0023 93.782 66.9876C98.6179 66.9915 103.318 65.3897 107.145 62.4335C110.972 59.4774 113.71 55.3342 114.928 50.6541C116.146 45.9741 115.775 41.0222 113.874 36.5754C111.974 32.1287 108.651 28.4389 104.426 26.085C100.202 23.7311 95.3155 22.8464 90.5341 23.5698C85.7526 24.2931 81.3466 26.5835 78.0075 30.0816C74.6684 33.5797 72.5853 38.0874 72.085 42.8973C71.5847 47.7073 72.6956 52.5472 75.2433 56.6576C75.3646 56.8525 75.44 57.0726 75.4636 57.301C75.4872 57.5295 75.4584 57.7603 75.3795 57.9759C75.3005 58.1916 75.1735 58.3864 75.008 58.5457C74.8426 58.7049 74.643 58.8243 74.4244 58.8949C73.0065 59.3381 71.5286 59.5599 70.043 59.5525C72.24 60.8753 75.0316 61.9965 78.1609 61.9309C78.4532 61.9309 78.7555 61.9058 79.0906 61.8755C79.1375 61.8706 79.1846 61.868 79.2317 61.868Z" fill="black"/>
<path d="M93.4978 61.5874C91.7604 61.5874 90.0942 60.8972 88.8657 59.6687C87.6372 58.4402 86.947 56.774 86.947 55.0366V51.7285H83.6489C81.9116 51.7285 80.2453 51.0383 79.0168 49.8098C77.7883 48.5813 77.0981 46.9151 77.0981 45.1777C77.0981 43.4403 77.7883 41.7741 79.0168 40.5456C80.2453 39.3171 81.9116 38.6269 83.6489 38.6269H86.9546V35.3213C86.9546 33.5839 87.6447 31.9177 88.8732 30.6892C90.1017 29.4607 91.768 28.7705 93.5053 28.7705C95.2427 28.7705 96.9089 29.4607 98.1374 30.6892C99.3659 31.9177 100.056 33.5839 100.056 35.3213V38.6269H103.364C105.102 38.6269 106.768 39.3171 107.996 40.5456C109.225 41.7741 109.915 43.4403 109.915 45.1777C109.915 46.9151 109.225 48.5813 107.996 49.8098C106.768 51.0383 105.102 51.7285 103.364 51.7285H100.049V55.0366C100.049 56.774 99.3584 58.4402 98.1299 59.6687C96.9014 60.8972 95.2351 61.5874 93.4978 61.5874ZM83.6489 41.6504C82.7134 41.6504 81.8162 42.022 81.1547 42.6835C80.4932 43.345 80.1216 44.2422 80.1216 45.1777C80.1216 46.1132 80.4932 47.0104 81.1547 47.6719C81.8162 48.3334 82.7134 48.705 83.6489 48.705H88.4663C88.8672 48.705 89.2517 48.8643 89.5352 49.1478C89.8187 49.4313 89.978 49.8158 89.978 50.2168V55.0366C89.978 55.9721 90.3496 56.8693 91.0111 57.5308C91.6726 58.1923 92.5698 58.564 93.5053 58.564C94.4408 58.564 95.338 58.1923 95.9995 57.5308C96.661 56.8693 97.0327 55.9721 97.0327 55.0366V50.2168C97.0327 49.8158 97.1919 49.4313 97.4754 49.1478C97.7589 48.8643 98.1435 48.705 98.5444 48.705H103.364C104.3 48.705 105.197 48.3334 105.858 47.6719C106.52 47.0104 106.892 46.1132 106.892 45.1777C106.892 44.2422 106.52 43.345 105.858 42.6835C105.197 42.022 104.3 41.6504 103.364 41.6504H98.5368C98.1359 41.6504 97.7514 41.4911 97.4679 41.2076C97.1844 40.9241 97.0251 40.5396 97.0251 40.1386V35.3213C97.0251 34.3858 96.6535 33.4886 95.992 32.8271C95.3305 32.1656 94.4333 31.7939 93.4978 31.7939C92.5623 31.7939 91.6651 32.1656 91.0036 32.8271C90.3421 33.4886 89.9704 34.3858 89.9704 35.3213V40.1386C89.9704 40.5396 89.8112 40.9241 89.5277 41.2076C89.2442 41.4911 88.8596 41.6504 88.4587 41.6504H83.6489ZM53.4397 77.5008C53.1279 77.4999 52.8239 77.4026 52.5695 77.2221C52.3151 77.0417 52.1227 76.787 52.0187 76.493L49.736 70.2218H42.8149L40.1618 76.5736C40.0158 76.9471 39.7274 77.2473 39.36 77.4082C38.9927 77.5691 38.5764 77.5775 38.2029 77.4315C37.8293 77.2855 37.5291 76.9971 37.3682 76.6297C37.2073 76.2623 37.199 75.8461 37.345 75.4725L44.6819 55.3163C44.7878 55.0245 44.981 54.7723 45.2352 54.5941C45.4895 54.4159 45.7924 54.3203 46.1029 54.3203C46.4133 54.3203 46.7163 54.4159 46.9705 54.5941C47.2248 54.7723 47.418 55.0245 47.5239 55.3163L54.8582 75.4725C54.9954 75.8491 54.9775 76.2647 54.8083 76.628C54.6392 76.9913 54.3327 77.2726 53.9562 77.4101C53.7908 77.4706 53.6159 77.5013 53.4397 77.5008ZM43.5707 67.211H48.6274L46.1079 60.2546L43.5707 67.211ZM63.8958 66.0117H57.0754C56.6745 66.0117 56.29 65.8524 56.0065 65.5689C55.723 65.2854 55.5637 64.9009 55.5637 64.5V56.9036C55.5644 56.2193 55.8363 55.5632 56.32 55.0791C56.8036 54.595 57.4594 54.3224 58.1437 54.3211H63.8958C65.4454 54.3211 66.9315 54.9367 68.0273 56.0324C69.123 57.1281 69.7386 58.6143 69.7386 60.1639C69.7386 61.7135 69.123 63.1996 68.0273 64.2953C66.9315 65.3911 65.4454 66.0067 63.8958 66.0067V66.0117ZM58.5871 62.9883H63.8958C64.6435 62.9883 65.3607 62.6912 65.8894 62.1625C66.4181 61.6338 66.7152 60.9166 66.7152 60.1689C66.7152 59.4212 66.4181 58.7041 65.8894 58.1753C65.3607 57.6466 64.6435 57.3495 63.8958 57.3495H58.5871V62.9883Z" fill="black"/>
<path d="M63.4472 77.5008H58.1562C57.4719 77.4994 56.816 77.2269 56.3324 76.7428C55.8488 76.2587 55.5768 75.6025 55.5762 74.9183V64.5C55.5762 64.0991 55.7354 63.7146 56.0189 63.4311C56.3024 63.1476 56.687 62.9883 57.0879 62.9883H63.4598C65.3849 62.9883 67.2312 63.753 68.5925 65.1143C69.9538 66.4756 70.7186 68.3219 70.7186 70.2471C70.7186 72.1722 69.9538 74.0185 68.5925 75.3798C67.2312 76.7411 65.3849 77.5058 63.4598 77.5058L63.4472 77.5008ZM58.587 74.4773H63.4472C64.5705 74.4773 65.6477 74.0311 66.442 73.2368C67.2363 72.4426 67.6825 71.3653 67.6825 70.242C67.6825 69.1187 67.2363 68.0415 66.442 67.2472C65.6477 66.4529 64.5705 66.0067 63.4472 66.0067H58.587V74.4773Z" fill="black"/>
</svg>
