<svg width="128" height="129" viewBox="0 0 128 129" fill="none" xmlns="http://www.w3.org/2000/svg">
<path d="M65.3748 22.0619L61.8173 22.014C60.5446 21.9981 59.3295 21.4765 58.4363 20.5626C57.5431 19.6487 57.0439 18.4165 57.0473 17.1337V13.1528L65.3623 13.2637V21.8301C65.3648 21.9057 65.3673 21.9838 65.3748 22.0619ZM50.3648 13.0722V16.9246C50.3655 17.5698 50.239 18.2087 49.9925 18.8042C49.746 19.3997 49.3845 19.9398 48.929 20.3932C48.4735 20.8466 47.9331 21.2043 47.3393 21.4453C46.7454 21.6864 46.11 21.806 45.4698 21.7973L42.0498 21.752V12.9639L50.3648 13.0722ZM90.9998 21.9536C87.2794 22.2832 83.695 23.5225 80.5573 25.564C78.0931 23.6441 75.1329 22.4791 72.0298 22.208C72.0448 22.0818 72.0524 21.9547 72.0523 21.8276V13.3544L81.8023 13.4829C84.6073 13.5207 87.1498 14.9341 88.3573 17.1312L90.9998 21.9536Z" fill="#F6F4F9"/>
<path d="M93.0646 68.499C90.3157 68.5024 87.5884 68.0092 85.0121 67.0427L84.6246 97.0251C84.5899 99.0319 84.0358 100.995 83.0171 102.719C80.4421 107.123 75.1971 109.867 69.4896 109.792L36.8046 109.361C31.1171 109.285 25.9571 106.426 23.4921 101.973L23.4671 101.936C22.4857 100.176 21.9797 98.1872 21.9996 96.1685L22.7896 34.5181C22.8227 32.4942 23.3859 30.5151 24.4221 28.7811L24.4421 28.7433C26.6271 25.0371 30.7071 22.515 35.3546 21.8726V12.8753L27.0446 12.7645C24.2496 12.7267 21.6771 14.067 20.4071 16.2212L13.4996 27.9497C12.9914 28.8023 12.7147 29.7746 12.6971 30.769L11.7971 99.6354C11.7881 100.63 12.039 101.609 12.5246 102.475L19.1321 114.387C20.3446 116.574 22.8821 117.98 25.6746 118.018L26.7971 118.03C28.3927 118.052 29.957 118.48 31.3437 119.276C32.7305 120.072 33.8945 121.209 34.7271 122.581L35.1571 123.289C35.703 124.187 36.4688 124.93 37.3811 125.445C38.2934 125.959 39.3215 126.23 40.3671 126.229H67.0471C68.0916 126.228 69.1185 125.957 70.0293 125.442C70.9402 124.926 71.7047 124.184 72.2496 123.286C73.093 121.897 74.2761 120.75 75.6856 119.953C77.0951 119.157 78.6838 118.739 80.2996 118.738H80.4271C83.2321 118.774 85.8096 117.426 87.0746 115.261L93.9296 103.553C94.4309 102.706 94.7033 101.741 94.7196 100.754L95.1421 68.4133C94.4571 68.4704 93.7646 68.499 93.0646 68.499ZM59.3421 120.351H48.0721C47.4091 120.351 46.7732 120.086 46.3043 119.613C45.8355 119.14 45.5721 118.5 45.5721 117.831C45.5721 117.163 45.8355 116.522 46.3043 116.05C46.7732 115.577 47.4091 115.312 48.0721 115.312H59.3421C60.0051 115.312 60.641 115.577 61.1099 116.05C61.5787 116.522 61.8421 117.163 61.8421 117.831C61.8421 118.5 61.5787 119.14 61.1099 119.613C60.641 120.086 60.0051 120.351 59.3421 120.351Z" fill="#F6F4F9"/>
<path d="M57.0523 6.14555C57.0523 5.70284 56.9658 5.26447 56.7977 4.85547C56.6296 4.44647 56.3832 4.07483 56.0726 3.7618C55.762 3.44876 55.3932 3.20044 54.9874 3.03103C54.5815 2.86161 54.1466 2.77441 53.7073 2.77441C53.268 2.77441 52.8331 2.86161 52.4272 3.03103C52.0214 3.20044 51.6526 3.44876 51.342 3.7618C51.0314 4.07483 50.785 4.44647 50.6169 4.85547C50.4488 5.26447 50.3623 5.70284 50.3623 6.14555C50.3623 6.14555 50.3623 9.47637 50.3623 13.0717L57.0473 13.1574L57.0523 6.14555Z" fill="#E6E7E8"/>
<path d="M85.0121 67.0422L84.6246 97.0246C84.5899 99.0313 84.0358 100.994 83.0171 102.719C80.4421 107.123 75.1971 109.867 69.4896 109.791L36.8046 109.36C31.1171 109.285 25.9571 106.425 23.4921 101.973L23.4671 101.935C22.4857 100.175 21.9797 98.1866 21.9996 96.1679L22.7896 34.5175C22.8227 32.4937 23.3859 30.5145 24.4221 28.7806L24.4421 28.7428C26.6271 25.0365 30.7071 22.5145 35.3546 21.872C35.5096 21.8493 35.6671 21.8292 35.8221 21.8115L36.1596 21.7788C36.3171 21.7637 36.4771 21.7511 36.6371 21.741H36.8196C36.9371 21.741 37.0546 21.741 37.1771 21.7259C37.1971 21.7271 37.2171 21.7271 37.2371 21.7259H37.9446L42.0496 21.7788L45.4696 21.8241C46.1097 21.8328 46.7452 21.7132 47.3391 21.4721C47.9329 21.2311 48.4733 20.8734 48.9288 20.42C49.3843 19.9666 49.7458 19.4265 49.9923 18.831C50.2387 18.2355 50.3653 17.5966 50.3646 16.9514V13.0713L57.0496 13.1595V17.1403C57.0482 18.4218 57.5482 19.6521 58.4412 20.5644C59.3342 21.4766 60.5482 21.9972 61.8196 22.0131L65.3771 22.061L70.6271 22.129H71.2721C71.5221 22.129 71.7721 22.1592 72.0221 22.1844C75.1252 22.4555 78.0854 23.6205 80.5496 25.5405C75.4361 28.8438 71.8185 34.0433 70.4795 40.014C69.1406 45.9847 70.1877 52.2467 73.3946 57.4453C68.8471 58.9268 64.6271 57.2261 63.8446 56.896C64.8446 57.9719 70.2896 63.5803 77.5821 63.4468C77.9346 63.4468 78.2796 63.4166 78.6171 63.3838C80.5409 64.94 82.7 66.1752 85.0121 67.0422Z" fill="#F16969"/>
<path d="M42.0495 12.9633V6.26135C42.0495 5.3666 41.6968 4.5085 41.069 3.87582C40.4413 3.24313 39.5898 2.8877 38.702 2.8877C37.8142 2.8877 36.9627 3.24313 36.335 3.87582C35.7072 4.5085 35.3545 5.3666 35.3545 6.26135V12.8751L42.0495 12.9633Z" fill="#E6E7E8"/>
<path d="M42.0495 21.7513V12.9632L35.3545 12.875V21.8596C35.5095 21.837 35.667 21.8168 35.822 21.7992L36.1595 21.7664C36.3195 21.7488 36.4795 21.7387 36.6395 21.7286H36.8195L37.177 21.711C37.1978 21.7123 37.2187 21.7123 37.2395 21.711H37.9445L42.0495 21.7513Z" fill="#F16969"/>
<path d="M72.0593 13.3538V6.26135C72.0593 5.3666 71.7066 4.5085 71.0788 3.87582C70.451 3.24313 69.5996 2.8877 68.7118 2.8877C67.8239 2.8877 66.9725 3.24313 66.3447 3.87582C65.7169 4.5085 65.3643 5.3666 65.3643 6.26135V13.2682L72.0593 13.3538Z" fill="#E6E7E8"/>
<path d="M72.0593 21.827V13.3538L65.3643 13.2656V22.0663L70.6143 22.1344C70.8293 22.1344 71.0418 22.1344 71.2593 22.1571C71.4768 22.1797 71.7593 22.1873 72.0093 22.2125C72.0337 22.0851 72.0504 21.9564 72.0593 21.827Z" fill="#F16969"/>
<path d="M75.8725 63.3693V76.0426C75.8725 76.8959 75.7057 77.7409 75.3817 78.5292C75.0577 79.3176 74.5828 80.0339 73.9841 80.6373C73.3854 81.2407 72.6746 81.7193 71.8923 82.0458C71.1101 82.3724 70.2717 82.5405 69.425 82.5405H37.6975C36.8508 82.5405 36.0124 82.3724 35.2301 82.0458C34.4479 81.7193 33.7371 81.2407 33.1384 80.6373C32.5397 80.0339 32.0648 79.3176 31.7408 78.5292C31.4168 77.7409 31.25 76.8959 31.25 76.0426V55.783C31.25 54.0597 31.9293 52.4069 33.1384 51.1883C34.3476 49.9698 35.9875 49.2852 37.6975 49.2852H69.425C69.716 49.2849 70.0067 49.3051 70.295 49.3456C70.8136 52.2182 71.8653 54.9664 73.395 57.4459C68.8475 58.9274 64.6275 57.2267 63.845 56.8967C64.7725 57.8894 69.45 62.7168 75.8725 63.3693Z" fill="#F6F4F9"/>
<path d="M73.3947 57.4461C70.3313 52.4709 69.2321 46.5182 70.3145 40.7653C71.3969 35.0125 74.5821 29.8786 79.2401 26.3789C83.8981 22.8793 89.6897 21.2689 95.4694 21.8661C101.249 22.4634 106.596 25.2249 110.452 29.6044C114.308 33.9839 116.394 39.6625 116.295 45.517C116.196 51.3715 113.921 56.9755 109.92 61.2206C105.918 65.4658 100.482 68.0429 94.6852 68.4422C88.8888 68.8415 83.1548 67.034 78.6172 63.3771C78.2797 63.4099 77.9372 63.4325 77.5822 63.4401C70.2897 63.5812 64.8522 57.9702 63.8447 56.8893C64.6272 57.2294 68.8472 58.9276 73.3947 57.4461Z" fill="#606161"/>
<path d="M102.555 50.2168H83C81.6739 50.2168 80.4021 49.6859 79.4645 48.7409C78.5268 47.7959 78 46.5142 78 45.1777C78 43.8413 78.5268 42.5596 79.4645 41.6146C80.4021 40.6696 81.6739 40.1387 83 40.1387H102.562C103.889 40.1387 105.16 40.6696 106.098 41.6146C107.036 42.5596 107.562 43.8413 107.562 45.1777C107.562 46.5142 107.036 47.7959 106.098 48.7409C105.16 49.6859 103.889 50.2168 102.562 50.2168H102.555Z" fill="#F16969"/>
<path d="M70.2096 125.339C69.2561 125.922 68.1622 126.229 67.0471 126.229H40.3671C39.3213 126.229 38.293 125.958 37.3807 125.443C36.4684 124.928 35.7027 124.185 35.1571 123.286L34.7271 122.578C33.8945 121.206 32.7305 120.069 31.3437 119.273C29.957 118.477 28.3927 118.049 26.7971 118.027L25.6746 118.015C22.8796 117.977 20.3446 116.571 19.1321 114.384L12.5246 102.474C12.039 101.609 11.7881 100.629 11.7971 99.6349L12.2496 64.2783C15.0543 70.5804 18.3715 76.6378 22.1671 82.3887L21.9996 96.168C21.9817 98.1913 22.4921 100.184 23.4796 101.945L23.5046 101.983C25.9696 106.435 31.1296 109.29 36.8171 109.37L46.2971 109.496C48.6988 111.527 51.1829 113.464 53.7496 115.306H48.0721C47.4091 115.306 46.7732 115.572 46.3043 116.044C45.8355 116.517 45.5721 117.158 45.5721 117.826C45.5721 118.494 45.8355 119.135 46.3043 119.607C46.7732 120.08 47.4091 120.345 48.0721 120.345H59.3421C59.8145 120.346 60.2774 120.211 60.6771 119.957C63.7671 121.891 66.9446 123.685 70.2096 125.339Z" fill="#E3E2E7"/>
<path d="M46.2847 109.496L36.8047 109.37C31.1172 109.295 25.9572 106.435 23.4922 101.983L23.4672 101.945C22.4841 100.182 21.978 98.1901 21.9997 96.168L22.1672 82.3887C28.8671 92.5495 36.9904 101.68 46.2847 109.496Z" fill="#DE5555"/>
<path d="M65.3748 23.5736H65.3548L61.7973 23.5257C60.1329 23.4987 58.5456 22.8143 57.3768 21.6199C56.2079 20.4254 55.551 18.8163 55.5473 17.1387V13.1604C55.5473 12.7595 55.7053 12.3749 55.9866 12.0914C56.2679 11.8079 56.6495 11.6487 57.0473 11.6487H57.0673L65.3823 11.7595C65.7767 11.7648 66.1531 11.9264 66.4301 12.2094C66.7071 12.4923 66.8623 12.8738 66.8623 13.2712V21.9258C66.8826 22.1363 66.8588 22.3487 66.7926 22.5493C66.7263 22.7499 66.6191 22.9343 66.4777 23.0906C66.3364 23.2468 66.164 23.3714 65.9719 23.4564C65.7798 23.5413 65.5721 23.5847 65.3623 23.5837L65.3748 23.5736ZM58.5498 14.6923V17.1438C58.5517 18.0261 58.8972 18.8724 59.5121 19.5006C60.1269 20.1287 60.9619 20.4884 61.8373 20.5023L63.8673 20.53V14.7628L58.5498 14.6923ZM45.5398 23.3091H45.4498L42.0298 23.2637C41.6355 23.2584 41.259 23.0968 40.9821 22.8139C40.7051 22.5309 40.5498 22.1495 40.5498 21.752V12.9639C40.5498 12.5629 40.7078 12.1784 40.9891 11.8949C41.2704 11.6114 41.652 11.4521 42.0498 11.4521H42.0698L50.3848 11.5605C50.7792 11.5658 51.1556 11.7274 51.4326 12.0103C51.7096 12.2933 51.8648 12.6747 51.8648 13.0722V16.9246C51.8655 18.6163 51.1996 20.2391 50.0136 21.4363C48.8276 22.6334 47.2184 23.3071 45.5398 23.3091ZM43.5398 20.2604L45.4798 20.2856H45.5273C45.9649 20.2856 46.3982 20.1986 46.8024 20.0296C47.2066 19.8606 47.5738 19.6129 47.8829 19.3007C48.1919 18.9885 48.4369 18.618 48.6037 18.2102C48.7705 17.8025 48.8558 17.3656 48.8548 16.9246V14.5638L43.5398 14.4957V20.2604ZM80.5648 27.0758C80.2274 27.0759 79.8997 26.9614 79.6348 26.7507C77.3924 25.0127 74.7031 23.9583 71.8848 23.7122C71.6856 23.6934 71.4921 23.6347 71.3157 23.5394C71.1393 23.4441 70.9837 23.3142 70.8579 23.1574C70.7321 23.0006 70.6387 22.8199 70.5832 22.6262C70.5277 22.4324 70.5113 22.2294 70.5348 22.0291C70.544 21.9624 70.5481 21.895 70.5473 21.8276V13.3544C70.5473 12.9535 70.7053 12.5689 70.9866 12.2854C71.268 12.0019 71.6495 11.8427 72.0473 11.8427H72.0673L81.8173 11.9712C85.1823 12.0165 88.1898 13.7122 89.6648 16.398L92.3148 21.2153C92.4362 21.4356 92.501 21.683 92.5034 21.935C92.5057 22.187 92.4456 22.4356 92.3283 22.6582C92.211 22.8808 92.0404 23.0703 91.832 23.2095C91.6236 23.3487 91.3839 23.4331 91.1348 23.4552C87.6579 23.7677 84.308 24.9254 81.3723 26.8288C81.1321 26.9873 80.8519 27.073 80.5648 27.0758ZM73.5648 20.8853C76.1046 21.304 78.5223 22.2793 80.6473 23.7424C83.1209 22.2842 85.8283 21.273 88.6473 20.7543L87.0598 17.8694C86.1198 16.1561 84.0598 15.0299 81.7973 14.9996L73.5748 14.8913L73.5648 20.8853Z" fill="black"/>
<path d="M67.0471 127.741H40.3671C39.0636 127.738 37.7825 127.399 36.645 126.758C35.5075 126.116 34.5514 125.193 33.8671 124.075L33.4371 123.367C32.7401 122.21 31.7618 121.251 30.5946 120.581C29.4275 119.912 28.1101 119.553 26.7671 119.54L25.6471 119.527C22.2946 119.482 19.2946 117.794 17.8121 115.123L11.2146 103.213C10.6034 102.115 10.2872 100.874 10.2971 99.6151L10.6246 74.3745C10.6299 73.977 10.7902 73.5977 11.071 73.3185C11.3517 73.0394 11.7302 72.8829 12.1246 72.8829H12.1446C12.3416 72.8855 12.5361 72.9272 12.7171 73.0056C12.8981 73.0841 13.062 73.1976 13.1994 73.3399C13.3369 73.4821 13.4452 73.6503 13.5181 73.8347C13.5911 74.0191 13.6272 74.2162 13.6246 74.4148L13.2971 99.6554C13.2926 100.385 13.478 101.102 13.8346 101.737L20.4421 113.646C21.3871 115.352 23.4421 116.473 25.6921 116.504L26.8121 116.516C28.662 116.536 30.4763 117.03 32.0838 117.953C33.6914 118.876 35.039 120.196 35.9996 121.79L36.4296 122.497C36.8393 123.179 37.4174 123.742 38.1076 124.131C38.7978 124.52 39.5763 124.722 40.3671 124.717H67.0471C67.8366 124.721 68.6136 124.518 69.3024 124.129C69.9911 123.74 70.5681 123.178 70.9771 122.497C71.9589 120.892 73.331 119.565 74.9636 118.642C76.5963 117.72 78.4355 117.233 80.3071 117.227H80.5221C82.7721 117.227 84.8146 116.161 85.7896 114.493L92.6371 102.775C93.007 102.155 93.208 101.447 93.2196 100.724L93.6221 70.0031C91.2122 70.0633 88.8069 69.7627 86.4846 69.1111L86.1246 97.0553C86.0851 99.3244 85.4596 101.544 84.3096 103.495C81.4421 108.401 75.7571 111.401 69.4696 111.306L36.7846 110.875C30.5346 110.792 24.9646 107.685 22.2121 102.765C22.1921 102.734 22.1746 102.704 22.1571 102.674C21.0509 100.681 20.4796 98.4317 20.4996 96.1482L21.3021 34.4852C21.3423 32.2093 21.9713 29.9834 23.1271 28.0277C23.1271 28.0075 23.1471 27.9848 23.1596 27.9647C25.3421 24.2635 29.2821 21.5701 33.8621 20.5976V14.3617L27.0321 14.271C24.7821 14.2484 22.6946 15.3066 21.7046 16.9871L14.7846 28.7231C14.4087 29.3484 14.2042 30.0631 14.1921 30.7941L13.7796 62.6234C13.7743 63.0208 13.614 63.4001 13.3333 63.6793C13.0525 63.9585 12.674 64.115 12.2796 64.1149H12.2496C12.0526 64.1123 11.8581 64.0706 11.6771 63.9922C11.4961 63.9138 11.3322 63.8002 11.1948 63.6579C11.0573 63.5157 10.949 63.3475 10.8761 63.1631C10.8031 62.9787 10.767 62.7816 10.7696 62.583L11.1921 30.7387C11.2122 29.4813 11.5568 28.2509 12.1921 27.1685L19.1171 15.4477C20.6696 12.8147 23.7196 11.2022 27.0646 11.2526L35.3746 11.3635C35.7689 11.3688 36.1454 11.5304 36.4224 11.8133C36.6994 12.0963 36.8546 12.4777 36.8546 12.8752V21.8599C36.8544 22.2248 36.7231 22.5774 36.4851 22.8525C36.2471 23.1276 35.9184 23.3066 35.5596 23.3565C31.3421 23.936 27.6771 26.2262 25.7496 29.4789L25.7146 29.5419C24.8155 31.0463 24.3242 32.7622 24.2896 34.518L23.4996 96.1886C23.484 97.9265 23.9146 99.6389 24.7496 101.16C24.7689 101.187 24.7864 101.216 24.8021 101.245C26.9896 105.196 31.7071 107.796 36.8246 107.859L69.4996 108.29C74.6321 108.35 79.4271 105.874 81.7146 101.961C82.6049 100.46 83.091 98.7507 83.1246 97.0024L83.5121 67.0199C83.5153 66.7775 83.5763 66.5395 83.69 66.3258C83.8036 66.1122 83.9666 65.9292 84.1652 65.7924C84.3637 65.6555 84.592 65.5688 84.8308 65.5395C85.0695 65.5102 85.3118 65.5393 85.5371 65.6241C87.9454 66.5274 90.4949 66.9882 93.0646 66.9847C93.7071 66.9847 94.3596 66.9544 95.0071 66.894C95.2164 66.8749 95.4273 66.9003 95.6263 66.9687C95.8252 67.037 96.0076 67.1467 96.1618 67.2907C96.3159 67.4346 96.4383 67.6096 96.5211 67.8043C96.6038 67.999 96.6451 68.209 96.6421 68.4208L96.2196 100.762C96.1985 102.011 95.8538 103.233 95.2196 104.306L88.3746 116.027C86.8271 118.675 83.7796 120.295 80.4171 120.25H80.3071C78.9493 120.256 77.6155 120.61 76.4311 121.28C75.2467 121.949 74.2508 122.911 73.5371 124.075C72.8537 125.191 71.8991 126.114 70.7635 126.755C69.628 127.397 68.3489 127.736 67.0471 127.741ZM59.3421 121.863H48.0721C47.0112 121.863 45.9938 121.438 45.2437 120.682C44.4935 119.926 44.0721 118.9 44.0721 117.831C44.0721 116.762 44.4935 115.737 45.2437 114.981C45.9938 114.225 47.0112 113.8 48.0721 113.8H59.3421C60.403 113.8 61.4204 114.225 62.1705 114.981C62.9207 115.737 63.3421 116.762 63.3421 117.831C63.3421 118.9 62.9207 119.926 62.1705 120.682C61.4204 121.438 60.403 121.863 59.3421 121.863ZM48.0721 116.824C47.8069 116.824 47.5525 116.93 47.365 117.119C47.1775 117.308 47.0721 117.564 47.0721 117.831C47.0721 118.099 47.1775 118.355 47.365 118.544C47.5525 118.733 47.8069 118.839 48.0721 118.839H59.3421C59.6073 118.839 59.8617 118.733 60.0492 118.544C60.2367 118.355 60.3421 118.099 60.3421 117.831C60.3421 117.564 60.2367 117.308 60.0492 117.119C59.8617 116.93 59.6073 116.824 59.3421 116.824H48.0721ZM12.1871 71.1444H12.1671C11.9701 71.1418 11.7756 71.1001 11.5946 71.0217C11.4136 70.9433 11.2497 70.8297 11.1123 70.6874C10.9748 70.5452 10.8665 70.377 10.7936 70.1926C10.7206 70.0082 10.6845 69.8111 10.6871 69.6125L10.7171 67.345C10.7224 66.9475 10.8827 66.5682 11.1635 66.289C11.4442 66.0099 11.8227 65.8534 12.2171 65.8534H12.2496C12.4466 65.856 12.6411 65.8977 12.8221 65.9762C13.0031 66.0546 13.167 66.1681 13.3044 66.3104C13.4419 66.4526 13.5502 66.6208 13.6231 66.8052C13.6961 66.9896 13.7322 67.1867 13.7296 67.3853L13.6996 69.6529C13.6943 70.0525 13.5323 70.4337 13.2488 70.7132C12.9654 70.9928 12.5836 71.1478 12.1871 71.1444ZM57.0496 14.6691H57.0321L50.3446 14.5835C49.9503 14.5782 49.5738 14.4166 49.2968 14.1336C49.0199 13.8507 48.8646 13.4692 48.8646 13.0717V6.14555C48.8646 4.85053 49.3751 3.60856 50.2837 2.69285C51.1923 1.77714 52.4246 1.2627 53.7096 1.2627C54.9946 1.2627 56.2269 1.77714 57.1355 2.69285C58.0442 3.60856 58.5546 4.85053 58.5546 6.14555C58.5546 6.14555 58.5546 9.52676 58.5546 13.1574C58.5546 13.5583 58.3966 13.9428 58.1153 14.2263C57.834 14.5099 57.4524 14.6691 57.0546 14.6691H57.0496ZM51.8646 11.5903L55.5521 11.6381V6.14303C55.5521 5.89885 55.5044 5.65705 55.4117 5.43146C55.3189 5.20587 55.183 5.00089 55.0117 4.82822C54.8404 4.65556 54.637 4.5186 54.4132 4.42515C54.1893 4.33171 53.9494 4.28361 53.7071 4.28361C53.4648 4.28361 53.2249 4.33171 53.0011 4.42515C52.7772 4.5186 52.5738 4.65556 52.4025 4.82822C52.2312 5.00089 52.0953 5.20587 52.0025 5.43146C51.9098 5.65705 51.8621 5.89885 51.8621 6.14303C51.8621 6.14303 51.8621 8.60461 51.8646 11.5903Z" fill="black"/>
<path d="M69.7245 111.313H69.4745L36.7895 110.882C30.5395 110.799 24.967 107.693 22.217 102.772C22.197 102.742 22.1795 102.712 22.162 102.681C21.0528 100.687 20.4797 98.4346 20.4995 96.1481L21.302 34.4851C21.3416 32.2091 21.9707 29.983 23.127 28.0276C23.127 28.0049 23.1495 27.9847 23.162 27.9621C25.5495 23.9157 30.0345 21.0762 35.162 20.3657C35.322 20.343 35.4945 20.3203 35.662 20.3027H35.6995L36.037 20.2699C36.1995 20.2548 36.377 20.2397 36.5545 20.2296H36.737C36.8745 20.2296 37.012 20.2145 37.157 20.212H37.7145L45.4945 20.3128H45.542C45.9796 20.3128 46.4129 20.2258 46.8171 20.0568C47.2213 19.8878 47.5885 19.6401 47.8976 19.3279C48.2067 19.0157 48.4516 18.6451 48.6184 18.2374C48.7852 17.8296 48.8705 17.3927 48.8695 16.9517V13.0716C48.8697 12.8714 48.9093 12.6732 48.9862 12.4885C49.063 12.3038 49.1754 12.1363 49.317 11.9958C49.4567 11.8531 49.624 11.7408 49.8085 11.6659C49.9929 11.5909 50.1907 11.5548 50.3895 11.5599L57.0745 11.6481C57.4689 11.6534 57.8453 11.815 58.1223 12.0979C58.3993 12.3809 58.5546 12.7624 58.5545 13.1598V17.1432C58.5564 18.0255 58.9019 18.8719 59.5168 19.5C60.1316 20.1282 60.9666 20.4879 61.842 20.5017L70.6995 20.6176H71.052L71.3645 20.6328C71.6645 20.6479 71.937 20.668 72.1945 20.6932C75.5842 20.9892 78.8161 22.2687 81.4995 24.3768C81.6867 24.5259 81.8359 24.7179 81.9347 24.9368C82.0335 25.1558 82.0791 25.3953 82.0676 25.6355C82.0561 25.8757 81.9879 26.1097 81.8687 26.318C81.7494 26.5264 81.5826 26.703 81.382 26.8333C76.6025 29.9194 73.2197 34.7768 71.9646 40.3559C70.7095 45.935 71.6829 51.7877 74.6745 56.6495C74.7949 56.8444 74.8697 57.0645 74.8931 57.2929C74.9165 57.5213 74.888 57.7522 74.8096 57.9678C74.7313 58.1835 74.6053 58.3783 74.4411 58.5375C74.2769 58.6968 74.0789 58.8162 73.862 58.8868C72.46 59.3386 70.9965 59.5665 69.5245 59.562C71.6995 60.8797 74.467 61.9833 77.5695 61.9304C77.862 61.9304 78.1645 61.9052 78.4895 61.875C78.8786 61.837 79.267 61.9536 79.572 62.2C81.3699 63.6569 83.3881 64.8137 85.5495 65.6265C85.8395 65.7351 86.0891 65.9314 86.2641 66.1885C86.4391 66.4456 86.5309 66.7509 86.527 67.0627L86.1395 97.0451C86.1001 99.3142 85.4745 101.534 84.3245 103.485C81.482 108.34 75.9095 111.313 69.7245 111.313ZM24.7495 101.159C24.7688 101.187 24.7863 101.216 24.802 101.245C26.9895 105.196 31.707 107.796 36.8245 107.859L69.4995 108.29H69.7045C74.7595 108.29 79.4545 105.821 81.7045 101.961C82.5984 100.461 83.0878 98.7515 83.1245 97.0023L83.4995 68.0529C81.5926 67.2415 79.7957 66.1891 78.152 64.9211L77.6145 64.9438H77.317C69.9095 64.9438 64.317 59.5847 62.7545 57.9243C62.5175 57.6726 62.3736 57.3462 62.3471 57.0002C62.3206 56.6542 62.413 56.3095 62.6089 56.024C62.8048 55.7385 63.0922 55.5297 63.4228 55.4325C63.7534 55.3354 64.1071 55.3558 64.4245 55.4905C66.5342 56.3734 68.8325 56.6995 71.102 56.4378C68.5074 51.3001 67.7694 45.4121 69.015 39.7856C70.2605 34.159 73.4117 29.1454 77.927 25.6063C76.0698 24.5604 74.0156 23.9184 71.897 23.7217C71.682 23.7015 71.457 23.6839 71.2045 23.6713H70.607L61.807 23.5554C60.1427 23.5283 58.5553 22.844 57.3865 21.6495C56.2177 20.4551 55.5607 18.846 55.557 17.1684V14.6816L51.8645 14.6136V16.9341C51.8633 17.7785 51.6958 18.6142 51.3719 19.393C51.0479 20.1717 50.5739 20.878 49.9773 21.4708C49.3807 22.0637 48.6733 22.5313 47.8961 22.8468C47.1189 23.1622 46.2873 23.3192 45.4495 23.3085L37.6995 23.2077H36.707L36.292 23.2405L35.972 23.2707L35.5595 23.3261C31.342 23.9359 27.6795 26.2236 25.7495 29.4788L25.7145 29.5443C24.8148 31.0475 24.3234 32.7628 24.2895 34.5179L23.4995 96.1885C23.4839 97.9264 23.9145 99.6388 24.7495 101.159ZM42.0495 14.475H42.0295L35.337 14.3843C34.9422 14.3797 34.5652 14.2184 34.2877 13.9354C34.0101 13.6524 33.8545 13.2705 33.8545 12.8726V6.26135C33.8545 4.96567 34.3652 3.72305 35.2743 2.80687C36.1834 1.89068 37.4164 1.37598 38.702 1.37598C39.9877 1.37598 41.2206 1.89068 42.1297 2.80687C43.0388 3.72305 43.5495 4.96567 43.5495 6.26135V12.9633C43.5495 13.3642 43.3915 13.7487 43.1102 14.0322C42.8289 14.3158 42.4473 14.475 42.0495 14.475ZM36.8545 11.381L40.5495 11.4314V6.26135C40.5495 5.76753 40.3549 5.29394 40.0084 4.94476C39.6619 4.59558 39.192 4.39941 38.702 4.39941C38.212 4.39941 37.7421 4.59558 37.3956 4.94476C37.0492 5.29394 36.8545 5.76753 36.8545 6.26135V11.381Z" fill="black"/>
<path d="M35.3545 23.3715C34.9567 23.3715 34.5751 23.2122 34.2938 22.9287C34.0125 22.6452 33.8545 22.2607 33.8545 21.8598V12.8751C33.8547 12.6749 33.8943 12.4766 33.9711 12.2919C34.0479 12.1073 34.1604 11.9398 34.302 11.7993C34.4418 11.6567 34.6091 11.5445 34.7935 11.4696C34.978 11.3946 35.1757 11.3585 35.3745 11.3634L42.0695 11.4516C42.4638 11.4569 42.8403 11.6185 43.1172 11.9014C43.3942 12.1843 43.5495 12.5658 43.5495 12.9633V21.7514C43.5495 22.1524 43.3915 22.5369 43.1102 22.8204C42.8288 23.1039 42.4473 23.2631 42.0495 23.2631H42.0295L37.7095 23.2077H36.7145C36.582 23.2077 36.447 23.2254 36.3145 23.2405H36.287L35.982 23.2707C35.847 23.2858 35.7145 23.3009 35.582 23.3211C35.5077 23.3444 35.4316 23.3612 35.3545 23.3715ZM37.7095 20.1843L40.5495 20.2196V14.4549L36.8545 14.4045V20.1994H37.212L37.7095 20.1843ZM72.0595 14.8655H72.0395L65.3445 14.7774C64.9501 14.7721 64.5737 14.6105 64.2967 14.3275C64.0197 14.0446 63.8645 13.6631 63.8645 13.2656V6.26135C63.8645 4.96567 64.3752 3.72305 65.2843 2.80687C66.1934 1.89068 67.4264 1.37598 68.712 1.37598C69.9976 1.37598 71.2306 1.89068 72.1397 2.80687C73.0488 3.72305 73.5595 4.96567 73.5595 6.26135V13.3538C73.5595 13.7548 73.4015 14.1393 73.1202 14.4228C72.8388 14.7063 72.4573 14.8655 72.0595 14.8655ZM66.8645 11.7766L70.5595 11.8245V6.26135C70.5595 5.76753 70.3648 5.29394 70.0184 4.94476C69.6719 4.59558 69.202 4.39941 68.712 4.39941C68.222 4.39941 67.7521 4.59558 67.4056 4.94476C67.0591 5.29394 66.8645 5.76753 66.8645 6.26135V11.7766Z" fill="black"/>
<path d="M72.04 23.719C71.9925 23.7215 71.945 23.7215 71.8975 23.719C71.6475 23.6963 71.4225 23.6787 71.205 23.6686C70.9875 23.6585 70.81 23.651 70.615 23.6485L65.365 23.5804C64.9946 23.5758 64.639 23.4333 64.3667 23.1802C64.0943 22.9272 63.9245 22.5815 63.89 22.2098C63.89 22.0914 63.875 21.9579 63.875 21.8344V13.268C63.8752 13.0677 63.9148 12.8695 63.9916 12.6848C64.0685 12.5001 64.1809 12.3327 64.3225 12.1922C64.4624 12.0497 64.6297 11.9376 64.8141 11.8626C64.9985 11.7877 65.1962 11.7515 65.395 11.7563L72.09 11.8445C72.4843 11.8498 72.8608 12.0114 73.1378 12.2943C73.4147 12.5772 73.57 12.9587 73.57 13.3562V21.8268C73.5693 22.0121 73.5584 22.1971 73.5375 22.3811C73.495 22.7508 73.3188 23.0917 73.0425 23.3385C72.7662 23.5854 72.4092 23.7209 72.04 23.719ZM66.865 20.5671L70.56 20.6175V14.8477L66.865 14.7999V20.5671ZM69.425 84.0517H37.6975C35.5903 84.0497 33.57 83.2052 32.08 81.7035C30.5899 80.2019 29.752 78.1658 29.75 76.0421V55.7826C29.752 53.6589 30.5899 51.6228 32.08 50.1211C33.57 48.6195 35.5903 47.775 37.6975 47.773H69.425C69.7863 47.7728 70.1472 47.798 70.505 47.8486C70.817 47.8932 71.1072 48.0358 71.3342 48.2561C71.5613 48.4763 71.7138 48.7631 71.77 49.0756C72.2527 51.7623 73.2368 54.3323 74.67 56.6493C74.7904 56.8443 74.8652 57.0643 74.8886 57.2927C74.912 57.5212 74.8834 57.752 74.8051 57.9676C74.7268 58.1833 74.6008 58.3781 74.4366 58.5374C74.2724 58.6966 74.0743 58.8161 73.8575 58.8866C72.4555 59.3385 70.9919 59.5663 69.52 59.5619C71.3325 60.6579 73.5525 61.6128 76.02 61.8647C76.3913 61.9023 76.7353 62.078 76.985 62.3576C77.2346 62.6371 77.3719 63.0004 77.37 63.3764V76.0497C77.366 78.1716 76.5275 80.2054 75.0383 81.7053C73.549 83.2053 71.5305 84.049 69.425 84.0517ZM37.6975 50.7939C36.3855 50.7959 35.1279 51.3222 34.2004 52.2574C33.2729 53.1926 32.7513 54.4603 32.75 55.7826V76.0421C32.752 77.3639 33.2739 78.631 34.2013 79.5657C35.1287 80.5003 36.3859 81.0263 37.6975 81.0283H69.425C70.7366 81.0263 71.9938 80.5003 72.9212 79.5657C73.8486 78.631 74.3705 77.3639 74.3725 76.0421V64.679C68.605 63.6032 64.3725 59.6702 62.755 57.9368C62.518 57.685 62.3741 57.3587 62.3476 57.0126C62.3211 56.6666 62.4135 56.3219 62.6094 56.0364C62.8053 55.751 63.0926 55.5421 63.4233 55.445C63.7539 55.3478 64.1076 55.3683 64.425 55.5029C66.5357 56.3818 68.834 56.7035 71.1025 56.4376C70.1963 54.6519 69.5111 52.7607 69.0625 50.8065L37.6975 50.7939Z" fill="black"/>
<path d="M93.0648 70.0111C87.6772 70.0027 82.4402 68.2189 78.1522 64.9317L77.6123 64.9544H77.3022C70.1222 64.9569 64.7497 60.064 62.7497 57.9501C62.5142 57.698 62.3717 57.3721 62.346 57.0269C62.3203 56.6817 62.4129 56.338 62.6085 56.0533C62.804 55.7687 63.0905 55.5603 63.4202 55.463C63.7499 55.3657 64.1027 55.3853 64.4197 55.5187C66.5341 56.3938 68.8351 56.7103 71.1048 56.4384C68.6741 51.6163 67.8724 46.1262 68.8215 40.8028C69.7707 35.4795 72.4187 30.6141 76.363 26.9465C80.3073 23.2788 85.3321 21.0096 90.6734 20.4838C96.0146 19.958 101.38 21.2045 105.954 24.0336C110.528 26.8627 114.06 31.1197 116.014 36.1573C117.967 41.195 118.234 46.7377 116.776 51.9426C115.317 57.1476 112.211 61.73 107.931 64.9932C103.652 68.2565 98.4314 70.0219 93.0648 70.0212V70.0111ZM78.6172 61.868C78.9582 61.8682 79.2888 61.9855 79.5547 62.2005C83.3755 65.3118 88.1427 67.0023 93.0547 66.9876C97.8531 66.9915 102.517 65.3897 106.314 62.4335C110.112 59.4774 112.828 55.3342 114.036 50.6541C115.245 45.9741 114.877 41.0222 112.991 36.5754C111.106 32.1287 107.808 28.4389 103.616 26.085C99.4249 23.7311 94.5764 22.8464 89.832 23.5698C85.0876 24.2931 80.7157 26.5835 77.4025 30.0816C74.0893 33.5797 72.0224 38.0874 71.5259 42.8973C71.0295 47.7073 72.1318 52.5472 74.6598 56.6576C74.7802 56.8525 74.8549 57.0726 74.8783 57.301C74.9017 57.5295 74.8732 57.7603 74.7949 57.9759C74.7166 58.1916 74.5905 58.3864 74.4263 58.5457C74.2621 58.7049 74.0641 58.8243 73.8473 58.8949C72.4423 59.347 70.9745 59.569 69.4997 59.5525C71.6797 60.8753 74.4472 61.9965 77.5547 61.9309C77.8447 61.9309 78.1447 61.9058 78.4772 61.8755C78.5238 61.8706 78.5705 61.868 78.6172 61.868Z" fill="black"/>
<path d="M102.554 51.7285H82.9994C81.2755 51.7285 79.6222 51.0383 78.4032 49.8098C77.1842 48.5813 76.4994 46.9151 76.4994 45.1777C76.4994 43.4404 77.1842 41.7741 78.4032 40.5456C79.6222 39.3171 81.2755 38.627 82.9994 38.627H102.562C104.286 38.627 105.939 39.3171 107.158 40.5456C108.377 41.7741 109.062 43.4404 109.062 45.1777C109.062 46.9151 108.377 48.5813 107.158 49.8098C105.939 51.0383 104.286 51.7285 102.562 51.7285H102.554ZM82.9919 41.6504C82.0636 41.6504 81.1734 42.022 80.517 42.6835C79.8606 43.345 79.4919 44.2422 79.4919 45.1777C79.4919 46.1132 79.8606 47.0104 80.517 47.6719C81.1734 48.3334 82.0636 48.7051 82.9919 48.7051H102.554C103.483 48.7051 104.373 48.3334 105.029 47.6719C105.686 47.0104 106.054 46.1132 106.054 45.1777C106.054 44.2422 105.686 43.345 105.029 42.6835C104.373 42.022 103.483 41.6504 102.554 41.6504H82.9919ZM54.3144 66.0117H47.5469C47.1491 66.0117 46.7675 65.8525 46.4862 65.569C46.2049 65.2855 46.0469 64.901 46.0469 64.5V56.9036C46.0475 56.2189 46.3177 55.5624 46.7981 55.0783C47.2786 54.5941 47.93 54.3218 48.6094 54.3211H54.3144C55.852 54.3211 57.3266 54.9367 58.4138 56.0324C59.5011 57.1282 60.1119 58.6143 60.1119 60.1639C60.1119 61.7135 59.5011 63.1996 58.4138 64.2954C57.3266 65.3911 55.852 66.0067 54.3144 66.0067V66.0117ZM49.0469 62.9883H54.3144C55.0563 62.9883 55.7679 62.6913 56.2925 62.1625C56.8171 61.6338 57.1119 60.9167 57.1119 60.1689C57.1119 59.4212 56.8171 58.7041 56.2925 58.1754C55.7679 57.6466 55.0563 57.3496 54.3144 57.3496H49.0469V62.9883Z" fill="black"/>
<path d="M53.8719 77.5008H48.6094C47.93 77.5001 47.2786 77.2278 46.7981 76.7436C46.3177 76.2595 46.0475 75.603 46.0469 74.9183V64.5C46.0469 64.0991 46.2049 63.7146 46.4862 63.4311C46.7675 63.1476 47.1491 62.9883 47.5469 62.9883H53.8719C55.7821 62.9883 57.6141 63.753 58.9648 65.1143C60.3155 66.4756 61.0744 68.3219 61.0744 70.2471C61.0744 72.1722 60.3155 74.0185 58.9648 75.3798C57.6141 76.7411 55.7821 77.5058 53.8719 77.5058V77.5008ZM49.0469 74.4773H53.8719C54.9864 74.4773 56.0554 74.0311 56.8435 73.2368C57.6316 72.4426 58.0744 71.3653 58.0744 70.242C58.0744 69.1187 57.6316 68.0415 56.8435 67.2472C56.0554 66.4529 54.9864 66.0067 53.8719 66.0067H49.0469V74.4773Z" fill="black"/>
</svg>
