<svg width="128" height="128" viewBox="0 0 128 128" fill="none" xmlns="http://www.w3.org/2000/svg">
<path d="M65.3748 21.8908L61.8173 21.8433C60.5446 21.8275 59.3295 21.3099 58.4363 20.4031C57.5431 19.4963 57.0439 18.2736 57.0473 17.0008V13.0508L65.3623 13.1608V21.6608C65.3648 21.7358 65.3673 21.8133 65.3748 21.8908ZM50.3648 12.9708V16.7933C50.3655 17.4335 50.239 18.0675 49.9925 18.6583C49.746 19.2492 49.3845 19.7851 48.929 20.235C48.4735 20.6849 47.9331 21.0398 47.3393 21.279C46.7454 21.5182 46.11 21.6369 45.4698 21.6283L42.0498 21.5833V12.8633L50.3648 12.9708ZM90.9998 21.7833C87.2794 22.1104 83.695 23.3401 80.5573 25.3658C78.0931 23.4608 75.1329 22.3048 72.0298 22.0358C72.0448 21.9105 72.0524 21.7845 72.0523 21.6583V13.2508L81.8023 13.3783C84.6073 13.4158 87.1498 14.8183 88.3573 16.9983L90.9998 21.7833Z" fill="#F6F4F9"/>
<path d="M93.0646 67.9683C90.3157 67.9717 87.5884 67.4823 85.0121 66.5233L84.6246 96.2733C84.5899 98.2645 84.0358 100.212 83.0171 101.923C80.4421 106.293 75.1971 109.016 69.4896 108.941L36.8046 108.513C31.1171 108.438 25.9571 105.601 23.4921 101.183L23.4671 101.146C22.4857 99.3996 21.9797 97.4264 21.9996 95.4233L22.7896 34.2508C22.8227 32.2426 23.3859 30.2788 24.4221 28.5583L24.4421 28.5208C26.6271 24.8433 30.7071 22.3408 35.3546 21.7033V12.7758L27.0446 12.6658C24.2496 12.6283 21.6771 13.9583 20.4071 16.0958L13.4996 27.7333C12.9914 28.5793 12.7147 29.5441 12.6971 30.5308L11.7971 98.8633C11.7881 99.8501 12.039 100.822 12.5246 101.681L19.1321 113.501C20.3446 115.671 22.8821 117.066 25.6746 117.103L26.7971 117.116C28.3927 117.137 29.957 117.562 31.3437 118.352C32.7305 119.141 33.8945 120.269 34.7271 121.631L35.1571 122.333C35.703 123.225 36.4688 123.962 37.3811 124.473C38.2934 124.983 39.3215 125.251 40.3671 125.251H67.0471C68.0916 125.25 69.1185 124.981 70.0293 124.47C70.9402 123.958 71.7047 123.222 72.2496 122.331C73.093 120.953 74.2761 119.814 75.6856 119.024C77.0951 118.234 78.6838 117.819 80.2996 117.818H80.4271C83.2321 117.853 85.8096 116.516 87.0746 114.368L93.9296 102.751C94.4309 101.91 94.7033 100.952 94.7196 99.9733L95.1421 67.8833C94.4571 67.94 93.7646 67.9683 93.0646 67.9683ZM59.3421 119.418H48.0721C47.4091 119.418 46.7732 119.155 46.3043 118.686C45.8355 118.217 45.5721 117.581 45.5721 116.918C45.5721 116.255 45.8355 115.619 46.3043 115.151C46.7732 114.682 47.4091 114.418 48.0721 114.418H59.3421C60.0051 114.418 60.641 114.682 61.1099 115.151C61.5787 115.619 61.8421 116.255 61.8421 116.918C61.8421 117.581 61.5787 118.217 61.1099 118.686C60.641 119.155 60.0051 119.418 59.3421 119.418Z" fill="#F6F4F9"/>
<path d="M57.0523 6.09793C57.0523 5.65866 56.9658 5.22369 56.7977 4.81785C56.6296 4.41202 56.3832 4.04327 56.0726 3.73266C55.762 3.42205 55.3932 3.17565 54.9874 3.00755C54.5815 2.83945 54.1466 2.75293 53.7073 2.75293C53.268 2.75293 52.8331 2.83945 52.4272 3.00755C52.0214 3.17565 51.6526 3.42205 51.342 3.73266C51.0314 4.04327 50.785 4.41202 50.6169 4.81785C50.4488 5.22369 50.3623 5.65866 50.3623 6.09793C50.3623 6.09793 50.3623 9.40293 50.3623 12.9704L57.0473 13.0554L57.0523 6.09793Z" fill="#E6E7E8"/>
<path d="M85.0121 66.5232L84.6246 96.2732C84.5899 98.2644 84.0358 100.212 83.0171 101.923C80.4421 106.293 75.1971 109.016 69.4896 108.941L36.8046 108.513C31.1171 108.438 25.9571 105.601 23.4921 101.183L23.4671 101.146C22.4857 99.3994 21.9797 97.4262 21.9996 95.4232L22.7896 34.2507C22.8227 32.2425 23.3859 30.2787 24.4221 28.5582L24.4421 28.5207C26.6271 24.8432 30.7071 22.3407 35.3546 21.7032C35.5096 21.6807 35.6671 21.6607 35.8221 21.6432L36.1596 21.6107C36.3171 21.5957 36.4771 21.5832 36.6371 21.5732H36.8196C36.9371 21.5732 37.0546 21.5732 37.1771 21.5582C37.1971 21.5595 37.2171 21.5595 37.2371 21.5582H37.9446L42.0496 21.6107L45.4696 21.6557C46.1097 21.6643 46.7452 21.5456 47.3391 21.3064C47.9329 21.0672 48.4733 20.7124 48.9288 20.2625C49.3843 19.8126 49.7458 19.2766 49.9923 18.6857C50.2387 18.0949 50.3653 17.4609 50.3646 16.8207V12.9707L57.0496 13.0582V17.0082C57.0482 18.2797 57.5482 19.5005 58.4412 20.4057C59.3342 21.3109 60.5482 21.8274 61.8196 21.8432L65.3771 21.8907L70.6271 21.9582H71.2721C71.5221 21.9582 71.7721 21.9882 72.0221 22.0132C75.1252 22.2822 78.0854 23.4382 80.5496 25.3432C75.4361 28.621 71.8185 33.7801 70.4795 39.7046C69.1406 45.629 70.1877 51.8424 73.3946 57.0007C68.8471 58.4707 64.6271 56.7832 63.8446 56.4557C64.8446 57.5232 70.2896 63.0882 77.5821 62.9557C77.9346 62.9557 78.2796 62.9257 78.6171 62.8932C80.5409 64.4374 82.7 65.6629 85.0121 66.5232Z" fill="#F16969"/>
<path d="M42.0495 12.8627V6.21273C42.0495 5.32492 41.6968 4.47347 41.069 3.84569C40.4413 3.21792 39.5898 2.86523 38.702 2.86523C37.8142 2.86523 36.9627 3.21792 36.335 3.84569C35.7072 4.47347 35.3545 5.32492 35.3545 6.21273V12.7752L42.0495 12.8627Z" fill="#E6E7E8"/>
<path d="M42.0495 21.5829V12.8629L35.3545 12.7754V21.6904C35.5095 21.6679 35.667 21.6479 35.822 21.6304L36.1595 21.5979C36.3195 21.5804 36.4795 21.5704 36.6395 21.5604H36.8195L37.177 21.5429C37.1978 21.5441 37.2187 21.5441 37.2395 21.5429H37.9445L42.0495 21.5829Z" fill="#F16969"/>
<path d="M72.0593 13.2502V6.21273C72.0593 5.32492 71.7066 4.47347 71.0788 3.84569C70.451 3.21792 69.5996 2.86523 68.7118 2.86523C67.8239 2.86523 66.9725 3.21792 66.3447 3.84569C65.7169 4.47347 65.3643 5.32492 65.3643 6.21273V13.1652L72.0593 13.2502Z" fill="#E6E7E8"/>
<path d="M72.0593 21.6581V13.2506L65.3643 13.1631V21.8956L70.6143 21.9631C70.8293 21.9631 71.0418 21.9631 71.2593 21.9856C71.4768 22.0081 71.7593 22.0156 72.0093 22.0406C72.0337 21.9142 72.0504 21.7865 72.0593 21.6581Z" fill="#F16969"/>
<path d="M75.8725 62.8783V75.4533C75.8725 76.3 75.7057 77.1384 75.3817 77.9207C75.0577 78.7029 74.5828 79.4137 73.9841 80.0124C73.3854 80.6111 72.6746 81.086 71.8923 81.41C71.1101 81.7341 70.2717 81.9008 69.425 81.9008H37.6975C36.8508 81.9008 36.0124 81.7341 35.2301 81.41C34.4479 81.086 33.7371 80.6111 33.1384 80.0124C32.5397 79.4137 32.0648 78.7029 31.7408 77.9207C31.4168 77.1384 31.25 76.3 31.25 75.4533V55.3508C31.25 53.6408 31.9293 52.0009 33.1384 50.7918C34.3476 49.5826 35.9875 48.9033 37.6975 48.9033H69.425C69.716 48.903 70.0067 48.9231 70.295 48.9633C70.8136 51.8136 71.8653 54.5405 73.395 57.0008C68.8475 58.4708 64.6275 56.7833 63.845 56.4558C64.7725 57.4408 69.45 62.2308 75.8725 62.8783Z" fill="#F6F4F9"/>
<path d="M73.3947 57.0004C70.3313 52.0638 69.2321 46.1572 70.3145 40.4489C71.3969 34.7407 74.5821 29.6466 79.2401 26.1741C83.8981 22.7016 89.6897 21.1036 95.4694 21.6962C101.249 22.2889 106.596 25.029 110.452 29.3745C114.308 33.7201 116.394 39.3546 116.295 45.1637C116.196 50.9729 113.921 56.5334 109.92 60.7457C105.918 64.9579 100.482 67.515 94.6852 67.9113C88.8888 68.3075 83.1548 66.514 78.6172 62.8854C78.2797 62.9179 77.9372 62.9404 77.5822 62.9479C70.2897 63.0879 64.8522 57.5204 63.8447 56.4479C64.6272 56.7854 68.8472 58.4704 73.3947 57.0004Z" fill="#606161"/>
<path d="M102.555 39.8279H97.7725V35.0479C97.7725 33.7218 97.2457 32.45 96.308 31.5123C95.3704 30.5746 94.0986 30.0479 92.7725 30.0479C91.4464 30.0479 90.1747 30.5746 89.237 31.5123C88.2993 32.45 87.7725 33.7218 87.7725 35.0479V39.8279H83C81.6739 39.8279 80.4021 40.3546 79.4645 41.2923C78.5268 42.23 78 43.5018 78 44.8279C78 46.1539 78.5268 47.4257 79.4645 48.3634C80.4021 49.3011 81.6739 49.8279 83 49.8279H87.78V54.6104C87.78 55.9364 88.3068 57.2082 89.2445 58.1459C90.1822 59.0836 91.4539 59.6104 92.78 59.6104C94.1061 59.6104 95.3779 59.0836 96.3155 58.1459C97.2532 57.2082 97.78 55.9364 97.78 54.6104V49.8279H102.562C103.889 49.8279 105.16 49.3011 106.098 48.3634C107.036 47.4257 107.562 46.1539 107.562 44.8279C107.562 43.5018 107.036 42.23 106.098 41.2923C105.16 40.3546 103.889 39.8279 102.562 39.8279H102.555Z" fill="#F16969"/>
<path d="M70.2096 124.368C69.2561 124.946 68.1622 125.251 67.0471 125.25H40.3671C39.3213 125.251 38.293 124.982 37.3807 124.471C36.4684 123.96 35.7027 123.222 35.1571 122.33L34.7271 121.628C33.8945 120.266 32.7305 119.138 31.3437 118.349C29.957 117.559 28.3927 117.134 26.7971 117.113L25.6746 117.1C22.8796 117.063 20.3446 115.668 19.1321 113.498L12.5246 101.68C12.039 100.821 11.7881 99.8495 11.7971 98.8628L12.2496 63.7803C15.0543 70.0335 18.3715 76.044 22.1671 81.7503L21.9996 95.4228C21.9817 97.4303 22.4921 99.4073 23.4796 101.155L23.5046 101.193C25.9696 105.61 31.1296 108.443 36.8171 108.523L46.2971 108.648C48.6988 110.663 51.1829 112.584 53.7496 114.413H48.0721C47.4091 114.413 46.7732 114.676 46.3043 115.145C45.8355 115.614 45.5721 116.25 45.5721 116.913C45.5721 117.576 45.8355 118.212 46.3043 118.681C46.7732 119.149 47.4091 119.413 48.0721 119.413H59.3421C59.8145 119.413 60.2774 119.28 60.6771 119.028C63.7671 120.946 66.9446 122.726 70.2096 124.368Z" fill="#E3E2E7"/>
<path d="M46.2847 108.647L36.8047 108.522C31.1172 108.447 25.9572 105.61 23.4922 101.192L23.4672 101.155C22.4841 99.4058 21.978 97.4289 21.9997 95.4225L22.1672 81.75C28.8671 91.832 36.9904 100.892 46.2847 108.647Z" fill="#DE5555"/>
<path d="M65.3748 23.3908H65.3548L61.7973 23.3433C60.1329 23.3164 58.5456 22.6374 57.3768 21.4522C56.2079 20.267 55.551 18.6704 55.5473 17.0058V13.0583C55.5473 12.6605 55.7053 12.2789 55.9866 11.9976C56.2679 11.7163 56.6495 11.5583 57.0473 11.5583H57.0673L65.3823 11.6683C65.7767 11.6735 66.1531 11.8339 66.4301 12.1146C66.7071 12.3954 66.8623 12.7739 66.8623 13.1683V21.7558C66.8826 21.9646 66.8588 22.1754 66.7926 22.3744C66.7263 22.5735 66.6191 22.7565 66.4777 22.9115C66.3364 23.0665 66.164 23.1902 65.9719 23.2744C65.7798 23.3587 65.5721 23.4018 65.3623 23.4008L65.3748 23.3908ZM58.5498 14.5783V17.0108C58.5517 17.8863 58.8972 18.7261 59.5121 19.3493C60.1269 19.9726 60.9619 20.3295 61.8373 20.3433L63.8673 20.3708V14.6483L58.5498 14.5783ZM45.5398 23.1283H45.4498L42.0298 23.0833C41.6355 23.078 41.259 22.9177 40.9821 22.6369C40.7051 22.3562 40.5498 21.9777 40.5498 21.5833V12.8633C40.5498 12.4655 40.7078 12.0839 40.9891 11.8026C41.2704 11.5213 41.652 11.3633 42.0498 11.3633H42.0698L50.3848 11.4708C50.7792 11.476 51.1556 11.6364 51.4326 11.9171C51.7096 12.1979 51.8648 12.5764 51.8648 12.9708V16.7933C51.8655 18.4719 51.1996 20.0821 50.0136 21.27C48.8276 22.4579 47.2184 23.1263 45.5398 23.1283ZM43.5398 20.1033L45.4798 20.1283H45.5273C45.9649 20.1283 46.3982 20.042 46.8024 19.8743C47.2066 19.7066 47.5738 19.4608 47.8829 19.151C48.1919 18.8412 48.4369 18.4735 48.6037 18.069C48.7705 17.6644 48.8558 17.2309 48.8548 16.7933V14.4508L43.5398 14.3833V20.1033ZM80.5648 26.8658C80.2274 26.866 79.8997 26.7523 79.6348 26.5433C77.3924 24.8188 74.7031 23.7725 71.8848 23.5283C71.6856 23.5097 71.4921 23.4514 71.3157 23.3568C71.1393 23.2623 70.9837 23.1334 70.8579 22.9778C70.7321 22.8222 70.6387 22.6429 70.5832 22.4507C70.5277 22.2584 70.5113 22.057 70.5348 21.8583C70.544 21.792 70.5481 21.7252 70.5473 21.6583V13.2508C70.5473 12.853 70.7053 12.4714 70.9866 12.1901C71.268 11.9088 71.6495 11.7508 72.0473 11.7508H72.0673L81.8173 11.8783C85.1823 11.9233 88.1898 13.6058 89.6648 16.2708L92.3148 21.0508C92.4362 21.2694 92.501 21.5149 92.5034 21.7649C92.5057 22.0149 92.4456 22.2616 92.3283 22.4824C92.211 22.7033 92.0404 22.8913 91.832 23.0295C91.6236 23.1676 91.3839 23.2514 91.1348 23.2733C87.6579 23.5834 84.308 24.732 81.3723 26.6208C81.1321 26.778 80.8519 26.8631 80.5648 26.8658ZM73.5648 20.7233C76.1046 21.1388 78.5223 22.1065 80.6473 23.5583C83.1209 22.1114 85.8283 21.108 88.6473 20.5933L87.0598 17.7308C86.1198 16.0308 84.0598 14.9133 81.7973 14.8833L73.5748 14.7758L73.5648 20.7233Z" fill="black"/>
<path d="M67.0471 126.75H40.3671C39.0636 126.747 37.7825 126.412 36.645 125.775C35.5075 125.139 34.5514 124.222 33.8671 123.113L33.4371 122.41C32.7401 121.262 31.7618 120.311 30.5946 119.647C29.4275 118.982 28.1101 118.626 26.7671 118.613L25.6471 118.6C22.2946 118.555 19.2946 116.88 17.8121 114.23L11.2146 102.413C10.6034 101.323 10.2872 100.092 10.2971 98.8429L10.6246 73.7979C10.6299 73.4036 10.7902 73.0272 11.071 72.7502C11.3517 72.4732 11.7302 72.3179 12.1246 72.3179H12.1446C12.3416 72.3205 12.5361 72.3619 12.7171 72.4397C12.8981 72.5175 13.062 72.6302 13.1994 72.7714C13.3369 72.9125 13.4452 73.0794 13.5181 73.2624C13.5911 73.4454 13.6272 73.6409 13.6246 73.8379L13.2971 98.8829C13.2926 99.6064 13.478 100.318 13.8346 100.948L20.4421 112.765C21.3871 114.458 23.4421 115.57 25.6921 115.6L26.8121 115.613C28.662 115.632 30.4763 116.123 32.0838 117.039C33.6914 117.954 35.039 119.264 35.9996 120.845L36.4296 121.548C36.8393 122.224 37.4174 122.783 38.1076 123.169C38.7978 123.555 39.5763 123.755 40.3671 123.75H67.0471C67.8366 123.754 68.6136 123.553 69.3024 123.167C69.9911 122.781 70.5681 122.223 70.9771 121.548C71.9589 119.954 73.331 118.638 74.9636 117.723C76.5963 116.807 78.4355 116.324 80.3071 116.318H80.4346C82.7121 116.333 84.8021 115.28 85.7896 113.605L92.6371 101.978C93.007 101.363 93.208 100.661 93.2196 99.9429L93.6221 69.4604C91.2122 69.5202 88.8069 69.2219 86.4846 68.5754L86.1246 96.3029C86.0851 98.5545 85.4596 100.757 84.3096 102.693C81.4421 107.56 75.7546 110.538 69.4696 110.443L36.7846 110.015C30.5346 109.933 24.9646 106.85 22.2121 101.968C22.1921 101.938 22.1746 101.908 22.1571 101.878C21.0509 99.9005 20.4796 97.6687 20.4996 95.4029L21.3021 34.2179C21.3423 31.9596 21.9713 29.751 23.1271 27.8104C23.1271 27.7904 23.1471 27.7679 23.1596 27.7479C25.3421 24.0754 29.2821 21.4029 33.8621 20.4379V14.2504L27.0321 14.1604C24.7821 14.1379 22.6946 15.1879 21.7046 16.8554L14.7846 28.5004C14.4087 29.1209 14.2042 29.8301 14.1921 30.5554L13.7796 62.1379C13.7743 62.5323 13.614 62.9087 13.3333 63.1857C13.0525 63.4627 12.674 63.618 12.2796 63.6179H12.2496C12.0526 63.6153 11.8581 63.5739 11.6771 63.4961C11.4961 63.4183 11.3322 63.3056 11.1948 63.1645C11.0573 63.0233 10.949 62.8565 10.8761 62.6735C10.8031 62.4905 10.767 62.2949 10.7696 62.0979L11.1921 30.5004C11.2122 29.2528 11.5568 28.0319 12.1921 26.9579L19.1171 15.3279C20.6696 12.7154 23.7196 11.1154 27.0646 11.1654L35.3746 11.2754C35.7689 11.2807 36.1454 11.441 36.4224 11.7218C36.6994 12.0025 36.8546 12.381 36.8546 12.7754V21.6904C36.8544 22.0526 36.7231 22.4024 36.4851 22.6754C36.2471 22.9483 35.9184 23.1259 35.5596 23.1754C31.3421 23.7504 27.6771 26.0229 25.7496 29.2504L25.7146 29.3129C24.8155 30.8056 24.3242 32.5082 24.2896 34.2504L23.4996 95.4429C23.484 97.1674 23.9146 98.8665 24.7496 100.375C24.7689 100.403 24.7864 100.431 24.8021 100.46C26.9896 104.38 31.7071 106.96 36.8246 107.023L69.4996 107.45C74.6346 107.51 79.4271 105.053 81.7146 101.17C82.6049 99.6812 83.091 97.9852 83.1246 96.2504L83.5121 66.5004C83.5153 66.2599 83.5763 66.0237 83.69 65.8117C83.8036 65.5997 83.9666 65.4182 84.1652 65.2824C84.3637 65.1466 84.592 65.0605 84.8308 65.0315C85.0695 65.0024 85.3118 65.0312 85.5371 65.1154C87.9454 66.0117 90.4949 66.4689 93.0646 66.4654C93.7071 66.4654 94.3596 66.4354 95.0071 66.3754C95.2164 66.3565 95.4273 66.3818 95.6263 66.4496C95.8252 66.5174 96.0076 66.6262 96.1618 66.7691C96.3159 66.9119 96.4383 67.0855 96.5211 67.2787C96.6038 67.4719 96.6451 67.6803 96.6421 67.8904L96.2196 99.9804C96.1985 101.22 95.8538 102.433 95.2196 103.498L88.3746 115.128C86.8271 117.755 83.7846 119.363 80.4171 119.318H80.3071C78.9493 119.324 77.6155 119.676 76.4311 120.339C75.2467 121.003 74.2508 121.958 73.5371 123.113C72.8537 124.221 71.8991 125.136 70.7635 125.773C69.628 126.409 68.3489 126.746 67.0471 126.75ZM59.3421 120.918H48.0721C47.0112 120.918 45.9938 120.496 45.2437 119.746C44.4935 118.996 44.0721 117.979 44.0721 116.918C44.0721 115.857 44.4935 114.84 45.2437 114.09C45.9938 113.339 47.0112 112.918 48.0721 112.918H59.3421C60.403 112.918 61.4204 113.339 62.1705 114.09C62.9207 114.84 63.3421 115.857 63.3421 116.918C63.3421 117.979 62.9207 118.996 62.1705 119.746C61.4204 120.496 60.403 120.918 59.3421 120.918ZM48.0721 115.918C47.8069 115.918 47.5525 116.023 47.365 116.211C47.1775 116.398 47.0721 116.653 47.0721 116.918C47.0721 117.183 47.1775 117.437 47.365 117.625C47.5525 117.813 47.8069 117.918 48.0721 117.918H59.3421C59.6073 117.918 59.8617 117.813 60.0492 117.625C60.2367 117.437 60.3421 117.183 60.3421 116.918C60.3421 116.653 60.2367 116.398 60.0492 116.211C59.8617 116.023 59.6073 115.918 59.3421 115.918H48.0721ZM12.1871 70.5929H12.1671C11.9701 70.5903 11.7756 70.5489 11.5946 70.4711C11.4136 70.3933 11.2497 70.2806 11.1123 70.1395C10.9748 69.9983 10.8665 69.8315 10.7936 69.6485C10.7206 69.4655 10.6845 69.2699 10.6871 69.0729L10.7171 66.8229C10.7224 66.4286 10.8827 66.0522 11.1635 65.7752C11.4442 65.4982 11.8227 65.3429 12.2171 65.3429H12.2496C12.4466 65.3455 12.6411 65.3869 12.8221 65.4647C13.0031 65.5425 13.167 65.6552 13.3044 65.7964C13.4419 65.9375 13.5502 66.1044 13.6231 66.2874C13.6961 66.4704 13.7322 66.6659 13.7296 66.8629L13.6996 69.1129C13.6943 69.5095 13.5323 69.8878 13.2488 70.1651C12.9654 70.4424 12.5836 70.5963 12.1871 70.5929ZM57.0496 14.5554H57.0321L50.3446 14.4704C49.9503 14.4652 49.5738 14.3048 49.2968 14.0241C49.0199 13.7433 48.8646 13.3648 48.8646 12.9704V6.09793C48.8646 4.81296 49.3751 3.58061 50.2837 2.672C51.1923 1.76338 52.4246 1.25293 53.7096 1.25293C54.9946 1.25293 56.2269 1.76338 57.1355 2.672C58.0442 3.58061 58.5546 4.81296 58.5546 6.09793C58.5546 6.09793 58.5546 9.45293 58.5546 13.0554C58.5546 13.4533 58.3966 13.8348 58.1153 14.1161C57.834 14.3974 57.4524 14.5554 57.0546 14.5554H57.0496ZM51.8646 11.5004L55.5521 11.5479V6.09543C55.5521 5.85314 55.5044 5.61322 55.4117 5.38938C55.3189 5.16553 55.183 4.96214 55.0117 4.79082C54.8404 4.61949 54.637 4.48359 54.4132 4.39087C54.1893 4.29815 53.9494 4.25043 53.7071 4.25043C53.4648 4.25043 53.2249 4.29815 53.0011 4.39087C52.7772 4.48359 52.5738 4.61949 52.4025 4.79082C52.2312 4.96214 52.0953 5.16553 52.0025 5.38938C51.9098 5.61322 51.8621 5.85314 51.8621 6.09543C51.8621 6.09543 51.8621 8.53793 51.8646 11.5004Z" fill="black"/>
<path d="M69.7245 110.45H69.4745L36.7895 110.023C30.5395 109.94 24.967 106.858 22.217 101.975C22.197 101.945 22.1795 101.915 22.162 101.885C21.0528 99.906 20.4797 97.6715 20.4995 95.4027L21.302 34.2177C21.3416 31.9594 21.9707 29.7505 23.127 27.8102C23.127 27.7877 23.1495 27.7677 23.162 27.7452C25.5495 23.7302 30.0345 20.9127 35.162 20.2077C35.322 20.1852 35.4945 20.1627 35.662 20.1452H35.6995L36.037 20.1127C36.1995 20.0977 36.377 20.0827 36.5545 20.0727H36.737C36.8745 20.0727 37.012 20.0577 37.157 20.0552H37.7145L45.4945 20.1552H45.542C45.9796 20.1552 46.4129 20.0689 46.8171 19.9012C47.2213 19.7335 47.5885 19.4878 47.8976 19.178C48.2067 18.8682 48.4516 18.5005 48.6184 18.0959C48.7852 17.6913 48.8705 17.2578 48.8695 16.8202V12.9702C48.8695 12.5724 49.0276 12.1909 49.3089 11.9096C49.5902 11.6283 49.9717 11.4702 50.3695 11.4702H50.3895L57.0745 11.5577C57.4689 11.563 57.8453 11.7233 58.1223 12.0041C58.3993 12.2848 58.5546 12.6634 58.5545 13.0577V17.0102C58.5564 17.8857 58.9019 18.7255 59.5168 19.3488C60.1316 19.972 60.9666 20.329 61.842 20.3427L70.6995 20.4577H71.052L71.3645 20.4727C71.6645 20.4877 71.937 20.5077 72.1945 20.5327C75.5842 20.8265 78.8161 22.096 81.4995 24.1877C81.6867 24.3357 81.8359 24.5262 81.9347 24.7435C82.0335 24.9607 82.0791 25.1983 82.0676 25.4367C82.0561 25.6751 81.9879 25.9072 81.8687 26.1139C81.7494 26.3207 81.5826 26.4959 81.382 26.6252C76.6025 29.6874 73.2197 34.5071 71.9646 40.043C70.7095 45.5788 71.6829 51.3862 74.6745 56.2102C74.7949 56.4037 74.8697 56.622 74.8931 56.8487C74.9165 57.0754 74.888 57.3044 74.8096 57.5184C74.7313 57.7324 74.6053 57.9257 74.4411 58.0837C74.2769 58.2417 74.0789 58.3602 73.862 58.4302C72.4525 58.8831 70.98 59.1092 69.4995 59.1002C71.6745 60.4077 74.447 61.5027 77.5445 61.4502C77.837 61.4502 78.1395 61.4252 78.4645 61.3952C78.8536 61.3576 79.242 61.4733 79.547 61.7177C81.3449 63.1633 83.3631 64.3112 85.5245 65.1177C85.8145 65.2255 86.0641 65.4202 86.2391 65.6753C86.4141 65.9304 86.5059 66.2334 86.502 66.5427L86.1145 96.2927C86.0751 98.5443 85.4495 100.747 84.2995 102.683C81.482 107.5 75.9095 110.45 69.7245 110.45ZM24.7495 100.375C24.7688 100.402 24.7863 100.431 24.802 100.46C26.9895 104.38 31.707 106.96 36.8245 107.023L69.4995 107.45H69.7045C74.7595 107.45 79.4545 105 81.7045 101.17C82.5984 99.6819 83.0878 97.9859 83.1245 96.2502L83.4995 67.5252C81.5926 66.7201 79.7957 65.6759 78.152 64.4177L77.6145 64.4402H77.317C69.9095 64.4402 64.317 59.1227 62.7545 57.4752C62.5175 57.2254 62.3736 56.9016 62.3471 56.5583C62.3206 56.2149 62.413 55.8729 62.6089 55.5896C62.8048 55.3064 63.0922 55.0991 63.4228 55.0027C63.7534 54.9063 64.1071 54.9266 64.4245 55.0602C66.5341 55.9366 68.8325 56.2601 71.102 56.0002C68.5074 50.9024 67.7694 45.06 69.015 39.4771C70.2605 33.8942 73.4117 28.9194 77.927 25.4077C76.0698 24.3699 74.0156 23.7329 71.897 23.5377C71.682 23.5177 71.457 23.5002 71.2045 23.4877H70.607L61.807 23.3727C60.1427 23.3459 58.5553 22.6668 57.3865 21.4816C56.2177 20.2964 55.5607 18.6998 55.557 17.0352V14.5677L51.8645 14.5002V16.8027C51.8633 17.6406 51.6958 18.4699 51.3719 19.2426C51.0479 20.0153 50.5739 20.716 49.9773 21.3043C49.3807 21.8925 48.6733 22.3566 47.8961 22.6696C47.1189 22.9826 46.2873 23.1383 45.4495 23.1277L37.6995 23.0277H36.707L36.292 23.0602L35.972 23.0902L35.5595 23.1452C31.342 23.7502 27.6795 26.0202 25.7495 29.2502L25.7145 29.3152C24.8148 30.8067 24.3234 32.5087 24.2895 34.2502L23.4995 95.4427C23.4839 97.1672 23.9145 98.8664 24.7495 100.375ZM42.0495 14.3627H42.0295L35.337 14.2727C34.9422 14.2681 34.5652 14.1081 34.2877 13.8273C34.0101 13.5464 33.8545 13.1675 33.8545 12.7727V6.21273C33.8545 4.9271 34.3652 3.69412 35.2743 2.78503C36.1834 1.87595 37.4164 1.36523 38.702 1.36523C39.9877 1.36523 41.2206 1.87595 42.1297 2.78503C43.0388 3.69412 43.5495 4.9271 43.5495 6.21273V12.8627C43.5495 13.2606 43.3915 13.6421 43.1102 13.9234C42.8289 14.2047 42.4473 14.3627 42.0495 14.3627ZM36.8545 11.2927L40.5495 11.3427V6.21273C40.5495 5.72275 40.3549 5.25283 40.0084 4.90635C39.6619 4.55988 39.192 4.36523 38.702 4.36523C38.212 4.36523 37.7421 4.55988 37.3956 4.90635C37.0492 5.25283 36.8545 5.72275 36.8545 6.21273V11.2927Z" fill="black"/>
<path d="M35.3545 23.1902C34.9567 23.1902 34.5751 23.0322 34.2938 22.7509C34.0125 22.4696 33.8545 22.0881 33.8545 21.6902V12.7752C33.8547 12.5765 33.8943 12.3798 33.9711 12.1966C34.0479 12.0133 34.1604 11.8472 34.302 11.7077C34.4418 11.5663 34.6091 11.4549 34.7935 11.3806C34.978 11.3062 35.1757 11.2703 35.3745 11.2752L42.0695 11.3627C42.4638 11.368 42.8403 11.5283 43.1172 11.8091C43.3942 12.0898 43.5495 12.4684 43.5495 12.8627V21.5827C43.5495 21.9806 43.3915 22.3621 43.1102 22.6434C42.8288 22.9247 42.4473 23.0827 42.0495 23.0827H42.0295L37.7095 23.0277H36.7145C36.582 23.0277 36.447 23.0452 36.3145 23.0602H36.287L35.982 23.0902C35.847 23.1052 35.7145 23.1202 35.582 23.1402C35.5077 23.1633 35.4316 23.18 35.3545 23.1902ZM37.7095 20.0277L40.5495 20.0627V14.3427L36.8545 14.2927V20.0427H37.212L37.7095 20.0277ZM72.0595 14.7502H72.0395L65.3445 14.6627C64.9501 14.6575 64.5737 14.4971 64.2967 14.2164C64.0197 13.9356 63.8645 13.5571 63.8645 13.1627V6.21273C63.8645 4.9271 64.3752 3.69412 65.2843 2.78503C66.1934 1.87595 67.4264 1.36523 68.712 1.36523C69.9976 1.36523 71.2306 1.87595 72.1397 2.78503C73.0488 3.69412 73.5595 4.9271 73.5595 6.21273V13.2502C73.5595 13.6481 73.4015 14.0296 73.1202 14.3109C72.8388 14.5922 72.4573 14.7502 72.0595 14.7502ZM66.8645 11.6852L70.5595 11.7327V6.21273C70.5595 5.72275 70.3648 5.25283 70.0184 4.90635C69.6719 4.55988 69.202 4.36523 68.712 4.36523C68.222 4.36523 67.7521 4.55988 67.4056 4.90635C67.0591 5.25283 66.8645 5.72275 66.8645 6.21273V11.6852Z" fill="black"/>
<path d="M72.04 23.5353C71.9925 23.5378 71.945 23.5378 71.8975 23.5353C71.6475 23.5128 71.4225 23.4953 71.205 23.4853C70.9875 23.4753 70.81 23.4678 70.615 23.4653L65.365 23.3978C64.9946 23.3933 64.639 23.2518 64.3667 23.0007C64.0943 22.7496 63.9245 22.4067 63.89 22.0378C63.89 21.9203 63.875 21.7878 63.875 21.6653V13.1653C63.8752 12.9666 63.9148 12.7699 63.9916 12.5867C64.0685 12.4034 64.1809 12.2373 64.3225 12.0978C64.4628 11.9571 64.6302 11.8462 64.8145 11.7719C64.9988 11.6976 65.1963 11.6613 65.395 11.6653L72.09 11.7528C72.4843 11.7581 72.8608 11.9185 73.1378 12.1992C73.4147 12.4799 73.57 12.8585 73.57 13.2528V21.6578C73.5693 21.8416 73.5584 22.0252 73.5375 22.2078C73.495 22.5746 73.3188 22.9129 73.0425 23.1578C72.7662 23.4028 72.4092 23.5372 72.04 23.5353ZM66.865 20.4078L70.56 20.4578V14.7328L66.865 14.6853V20.4078ZM69.425 83.4003H37.6975C35.5903 83.3984 33.57 82.5604 32.08 81.0704C30.5899 79.5804 29.752 77.56 29.75 75.4528V55.3503C29.752 53.2431 30.5899 51.2228 32.08 49.7328C33.57 48.2428 35.5903 47.4048 37.6975 47.4028H69.425C69.7863 47.4026 70.1472 47.4277 70.505 47.4778C70.817 47.5222 71.1072 47.6636 71.3342 47.8822C71.5613 48.1007 71.7138 48.3852 71.77 48.6953C72.2527 51.3612 73.2368 53.9113 74.67 56.2103C74.7904 56.4038 74.8652 56.6222 74.8886 56.8488C74.912 57.0755 74.8834 57.3045 74.8051 57.5185C74.7268 57.7325 74.6008 57.9258 74.4366 58.0838C74.2724 58.2418 74.0743 58.3603 73.8575 58.4303C72.4555 58.8787 70.9919 59.1047 69.52 59.1003C71.3325 60.1878 73.5525 61.1353 76.02 61.3853C76.3913 61.4226 76.7353 61.597 76.985 61.8744C77.2346 62.1517 77.3719 62.5122 77.37 62.8853V75.4603C77.366 77.5658 76.5275 79.5838 75.0383 81.0722C73.549 82.5605 71.5305 83.3977 69.425 83.4003ZM37.6975 50.4003C36.3855 50.4023 35.1279 50.9246 34.2004 51.8525C33.2729 52.7805 32.7513 54.0384 32.75 55.3503V75.4528C32.752 76.7644 33.2739 78.0217 34.2013 78.9491C35.1287 79.8765 36.3859 80.3984 37.6975 80.4003H69.425C70.7366 80.3984 71.9938 79.8765 72.9212 78.9491C73.8486 78.0217 74.3705 76.7644 74.3725 75.4528V64.1778C68.605 63.1103 64.3725 59.2078 62.755 57.4878C62.518 57.238 62.3741 56.9142 62.3476 56.5709C62.3211 56.2275 62.4135 55.8855 62.6094 55.6022C62.8053 55.319 63.0926 55.1118 63.4233 55.0154C63.7539 54.9189 64.1076 54.9392 64.425 55.0728C66.5357 55.9449 68.834 56.2642 71.1025 56.0003C70.1963 54.2284 69.5111 52.3519 69.0625 50.4128L37.6975 50.4003Z" fill="black"/>
<path d="M93.0648 69.468C87.6772 69.4597 82.4402 67.6897 78.1522 64.428L77.6123 64.4505H77.3022C70.1222 64.453 64.7497 59.598 62.7497 57.5005C62.5142 57.2504 62.3717 56.9271 62.346 56.5845C62.3203 56.2419 62.4129 55.9009 62.6085 55.6185C62.804 55.336 63.0905 55.1292 63.4202 55.0327C63.7499 54.9361 64.1027 54.9557 64.4197 55.088C66.5341 55.9563 68.8351 56.2704 71.1048 56.0005C68.6741 51.2158 67.8724 45.7683 68.8215 40.4862C69.7707 35.2041 72.4187 30.3764 76.363 26.7373C80.3073 23.0981 85.3321 20.8464 90.6734 20.3247C96.0146 19.803 101.38 21.0398 105.954 23.8469C110.528 26.6541 114.06 30.8781 116.014 35.8767C117.967 40.8753 118.234 46.375 116.776 51.5396C115.317 56.7042 112.211 61.2512 107.931 64.4891C103.652 67.727 98.4314 69.4788 93.0648 69.478V69.468ZM78.6172 61.388C78.9582 61.3883 79.2888 61.5047 79.5547 61.718C83.3755 64.8052 88.1427 66.4825 93.0547 66.468C97.8531 66.4719 102.517 64.8825 106.314 61.9492C110.112 59.016 112.828 54.9049 114.036 50.2611C115.245 45.6174 114.877 40.7039 112.991 36.2916C111.106 31.8793 107.808 28.2181 103.616 25.8825C99.4249 23.5468 94.5764 22.669 89.832 23.3867C85.0876 24.1045 80.7157 26.3772 77.4025 29.8481C74.0893 33.319 72.0224 37.7918 71.5259 42.5645C71.0295 47.3371 72.1318 52.1395 74.6598 56.218C74.7802 56.4115 74.8549 56.6298 74.8783 56.8565C74.9017 57.0832 74.8732 57.3122 74.7949 57.5262C74.7166 57.7402 74.5905 57.9335 74.4263 58.0915C74.2621 58.2495 74.0641 58.368 73.8473 58.438C72.4422 58.8862 70.9745 59.1065 69.4997 59.0905C71.6772 60.403 74.4447 61.5155 77.5547 61.4505C77.8447 61.4505 78.1447 61.4255 78.4772 61.3955C78.5238 61.3906 78.5705 61.3881 78.6172 61.388Z" fill="black"/>
<path d="M92.7724 61.1104C91.0485 61.1104 89.3952 60.4255 88.1762 59.2065C86.9572 57.9876 86.2724 56.3343 86.2724 54.6104V51.3279H82.9999C81.276 51.3279 79.6227 50.643 78.4037 49.424C77.1847 48.2051 76.4999 46.5518 76.4999 44.8279C76.4999 43.1039 77.1847 41.4506 78.4037 40.2317C79.6227 39.0127 81.276 38.3279 82.9999 38.3279H86.2799V35.0479C86.2799 33.3239 86.9647 31.6706 88.1837 30.4517C89.4027 29.2327 91.056 28.5479 92.7799 28.5479C94.5038 28.5479 96.1571 29.2327 97.3761 30.4517C98.5951 31.6706 99.2799 33.3239 99.2799 35.0479V38.3279H102.562C104.286 38.3279 105.94 39.0127 107.159 40.2317C108.378 41.4506 109.062 43.1039 109.062 44.8279C109.062 46.5518 108.378 48.2051 107.159 49.424C105.94 50.643 104.286 51.3279 102.562 51.3279H99.2724V54.6104C99.2724 56.3343 98.5876 57.9876 97.3686 59.2065C96.1496 60.4255 94.4963 61.1104 92.7724 61.1104ZM82.9999 41.3279C82.0717 41.3279 81.1814 41.6966 80.525 42.353C79.8687 43.0094 79.4999 43.8996 79.4999 44.8279C79.4999 45.7561 79.8687 46.6463 80.525 47.3027C81.1814 47.9591 82.0717 48.3279 82.9999 48.3279H87.7799C88.1777 48.3279 88.5593 48.4859 88.8406 48.7672C89.1219 49.0485 89.2799 49.43 89.2799 49.8279V54.6104C89.2799 55.5386 89.6487 56.4288 90.3051 57.0852C90.9614 57.7416 91.8517 58.1104 92.7799 58.1104C93.7082 58.1104 94.5984 57.7416 95.2548 57.0852C95.9112 56.4288 96.2799 55.5386 96.2799 54.6104V49.8279C96.2799 49.43 96.438 49.0485 96.7193 48.7672C97.0006 48.4859 97.3821 48.3279 97.7799 48.3279H102.562C103.491 48.3279 104.381 47.9591 105.037 47.3027C105.694 46.6463 106.062 45.7561 106.062 44.8279C106.062 43.8996 105.694 43.0094 105.037 42.353C104.381 41.6966 103.491 41.3279 102.562 41.3279H97.7724C97.3746 41.3279 96.9931 41.1698 96.7118 40.8885C96.4305 40.6072 96.2724 40.2257 96.2724 39.8279V35.0479C96.2724 34.1196 95.9037 33.2294 95.2473 32.573C94.5909 31.9166 93.7007 31.5479 92.7724 31.5479C91.8442 31.5479 90.9539 31.9166 90.2975 32.573C89.6412 33.2294 89.2724 34.1196 89.2724 35.0479V39.8279C89.2724 40.2257 89.1144 40.6072 88.8331 40.8885C88.5518 41.1698 88.1702 41.3279 87.7724 41.3279H82.9999ZM53.5624 76.9004C47.8649 76.9004 43.2324 71.7429 43.2324 65.4004C43.2324 59.0579 47.8649 53.9004 53.5624 53.9004C59.2599 53.9004 63.8899 59.0604 63.8899 65.4004C63.8899 71.7404 59.2499 76.9004 53.5624 76.9004ZM53.5624 56.9004C49.5199 56.9004 46.2324 60.7129 46.2324 65.4004C46.2324 70.0879 49.5199 73.9004 53.5624 73.9004C57.6049 73.9004 60.8899 70.0879 60.8899 65.4004C60.8899 60.7129 57.6024 56.9004 53.5624 56.9004Z" fill="black"/>
</svg>
