<svg width="129" height="128" viewBox="0 0 129 128" fill="none" xmlns="http://www.w3.org/2000/svg">
<path d="M65.8861 21.8908L62.3008 21.8433C61.0182 21.8275 59.7936 21.3099 58.8934 20.4031C57.9932 19.4963 57.4902 18.2736 57.4936 17.0008V13.0508L65.8735 13.1608V21.6608C65.8761 21.7358 65.8786 21.8133 65.8861 21.8908ZM50.7589 12.9708V16.7933C50.7596 17.4335 50.632 18.0675 50.3836 18.6583C50.1352 19.2492 49.7709 19.7851 49.3119 20.235C48.8528 20.6849 48.3082 21.0398 47.7097 21.279C47.1112 21.5182 46.4708 21.6369 45.8256 21.6283L42.3789 21.5833V12.8633L50.7589 12.9708ZM91.7113 21.7833C87.9619 22.1104 84.3494 23.3401 81.1872 25.3658C78.7038 23.4608 75.7205 22.3048 72.5931 22.0358C72.6083 21.9105 72.6159 21.7845 72.6158 21.6583V13.2508L82.442 13.3783C85.2689 13.4158 87.8312 14.8183 89.0482 16.9983L91.7113 21.7833Z" fill="#F6F4F9"/>
<path d="M93.7923 67.9683C91.0219 67.9717 88.2732 67.4823 85.6769 66.5233L85.2864 96.2733C85.2514 98.2645 84.6929 100.212 83.6663 101.923C81.0712 106.293 75.7852 109.016 70.0331 108.941L37.0928 108.513C31.3608 108.438 26.1605 105.601 23.6763 101.183L23.6511 101.146C22.662 99.3996 22.152 97.4264 22.1721 95.4233L22.9683 34.2508C23.0016 32.2426 23.5692 30.2788 24.6135 28.5583L24.6337 28.5208C26.8357 24.8433 30.9476 22.3408 35.6314 21.7033V12.7758L27.2565 12.6658C24.4397 12.6283 21.8471 13.9583 20.5672 16.0958L13.6057 27.7333C13.0935 28.5793 12.8146 29.5441 12.7969 30.5308L11.8899 98.8633C11.8808 99.8501 12.1336 100.822 12.6231 101.681L19.2822 113.501C20.5042 115.671 23.0615 117.066 25.8758 117.103L27.0071 117.116C28.6152 117.137 30.1916 117.562 31.5892 118.352C32.9868 119.141 34.1599 120.269 34.999 121.631L35.4324 122.333C35.9826 123.225 36.7543 123.962 37.6737 124.473C38.5931 124.983 39.6294 125.251 40.6831 125.251H67.5715C68.6242 125.25 69.6591 124.981 70.577 124.47C71.495 123.958 72.2655 123.222 72.8147 122.331C73.6647 120.953 74.857 119.814 76.2775 119.024C77.698 118.234 79.2991 117.819 80.9276 117.818H81.0561C83.883 117.853 86.4806 116.516 87.7555 114.368L94.664 102.751C95.1693 101.91 95.4437 100.952 95.4602 99.9733L95.886 67.8833C95.1957 67.94 94.4978 67.9683 93.7923 67.9683ZM59.8063 119.418H48.4483C47.7801 119.418 47.1392 119.155 46.6667 118.686C46.1942 118.217 45.9288 117.581 45.9288 116.918C45.9288 116.255 46.1942 115.619 46.6667 115.151C47.1392 114.682 47.7801 114.418 48.4483 114.418H59.8063C60.4746 114.418 61.1154 114.682 61.5879 115.151C62.0604 115.619 62.3259 116.255 62.3259 116.918C62.3259 117.581 62.0604 118.217 61.5879 118.686C61.1154 119.155 60.4746 119.418 59.8063 119.418Z" fill="#F6F4F9"/>
<path d="M57.4981 6.09793C57.4981 5.65866 57.4109 5.22369 57.2415 4.81785C57.0721 4.41202 56.8238 4.04327 56.5107 3.73266C56.1977 3.42205 55.8261 3.17565 55.4171 3.00755C55.0081 2.83945 54.5697 2.75293 54.127 2.75293C53.6843 2.75293 53.2459 2.83945 52.8369 3.00755C52.4279 3.17565 52.0563 3.42205 51.7432 3.73266C51.4302 4.04327 51.1819 4.41202 51.0125 4.81785C50.8431 5.22369 50.7559 5.65866 50.7559 6.09793C50.7559 6.09793 50.7559 9.40293 50.7559 12.9704L57.4931 13.0554L57.4981 6.09793Z" fill="#E6E7E8"/>
<path d="M85.6772 66.5232L85.2867 96.2732C85.2517 98.2644 84.6933 100.212 83.6666 101.923C81.0715 106.293 75.7856 109.016 70.0335 108.941L37.0931 108.513C31.3612 108.438 26.1609 105.601 23.6766 101.183L23.6514 101.146C22.6623 99.3994 22.1524 97.4262 22.1724 95.4232L22.9686 34.2507C23.002 32.2425 23.5695 30.2787 24.6139 28.5582L24.634 28.5207C26.8361 24.8432 30.948 22.3407 35.6318 21.7032C35.788 21.6807 35.9467 21.6607 36.1029 21.6432L36.4431 21.6107C36.6018 21.5957 36.7631 21.5832 36.9243 21.5732H37.1082C37.2266 21.5732 37.3451 21.5732 37.4685 21.5582C37.4887 21.5595 37.5089 21.5595 37.529 21.5582H38.242L42.3791 21.6107L45.8258 21.6557C46.471 21.6643 47.1114 21.5456 47.7099 21.3064C48.3084 21.0672 48.853 20.7124 49.312 20.2625C49.7711 19.8126 50.1354 19.2766 50.3838 18.6857C50.6322 18.0949 50.7598 17.4609 50.759 16.8207V12.9707L57.4963 13.0582V17.0082C57.4949 18.2797 57.9988 19.5005 58.8988 20.4057C59.7988 21.3109 61.0222 21.8274 62.3035 21.8432L65.8888 21.8907L71.1799 21.9582H71.8299C72.0818 21.9582 72.3338 21.9882 72.5857 22.0132C75.7131 22.2822 78.6964 23.4382 81.1799 25.3432C76.0264 28.621 72.3806 33.7801 71.0312 39.7046C69.6817 45.629 70.7371 51.8424 73.969 57.0007C69.3859 58.4707 65.133 56.7832 64.3444 56.4557C65.3522 57.5232 70.8397 63.0882 78.1892 62.9557C78.5444 62.9557 78.8921 62.9257 79.2323 62.8932C81.1712 64.4374 83.3471 65.6629 85.6772 66.5232Z" fill="#F16969"/>
<path d="M42.3791 12.8627V6.21273C42.3791 5.32492 42.0237 4.47347 41.391 3.84569C40.7583 3.21792 39.9002 2.86523 39.0055 2.86523C38.1107 2.86523 37.2526 3.21792 36.62 3.84569C35.9873 4.47347 35.6318 5.32492 35.6318 6.21273V12.7752L42.3791 12.8627Z" fill="#E6E7E8"/>
<path d="M42.3791 21.5829V12.8629L35.6318 12.7754V21.6904C35.788 21.6679 35.9468 21.6479 36.103 21.6304L36.4431 21.5979C36.6044 21.5804 36.7656 21.5704 36.9269 21.5604H37.1083L37.4686 21.5429C37.4896 21.5441 37.5106 21.5441 37.5316 21.5429H38.2421L42.3791 21.5829Z" fill="#F16969"/>
<path d="M72.6233 13.2502V6.21273C72.6233 5.32492 72.2678 4.47347 71.6352 3.84569C71.0025 3.21792 70.1444 2.86523 69.2496 2.86523C68.3549 2.86523 67.4968 3.21792 66.8641 3.84569C66.2314 4.47347 65.876 5.32492 65.876 6.21273V13.1652L72.6233 13.2502Z" fill="#E6E7E8"/>
<path d="M72.6233 21.6581V13.2506L65.876 13.1631V21.8956L71.167 21.9631C71.3837 21.9631 71.5978 21.9631 71.817 21.9856C72.0362 22.0081 72.3209 22.0156 72.5729 22.0406C72.5975 21.9142 72.6144 21.7865 72.6233 21.6581Z" fill="#F16969"/>
<path d="M76.4653 62.8783V75.4533C76.4653 76.3 76.2972 77.1384 75.9706 77.9207C75.6441 78.7029 75.1655 79.4137 74.5621 80.0124C73.9587 80.6111 73.2424 81.086 72.454 81.41C71.6656 81.7341 70.8207 81.9008 69.9674 81.9008H37.992C37.1387 81.9008 36.2937 81.7341 35.5054 81.41C34.717 81.086 34.0007 80.6111 33.3973 80.0124C32.7939 79.4137 32.3153 78.7029 31.9888 77.9207C31.6622 77.1384 31.4941 76.3 31.4941 75.4533V55.3508C31.4941 53.6408 32.1787 52.0009 33.3973 50.7918C34.6159 49.5826 36.2687 48.9033 37.992 48.9033H69.9674C70.2607 48.903 70.5537 48.9231 70.8442 48.9633C71.3668 51.8136 72.4268 54.5405 73.9684 57.0008C69.3854 58.4708 65.1324 56.7833 64.3438 56.4558C65.2785 57.4408 69.9926 62.2308 76.4653 62.8783Z" fill="#F6F4F9"/>
<path d="M73.9684 57.0004C70.881 52.0638 69.7732 46.1572 70.864 40.4489C71.9549 34.7407 75.165 29.6466 79.8594 26.1741C84.5538 22.7016 90.3907 21.1036 96.2155 21.6962C102.04 22.2889 107.429 25.029 111.315 29.3745C115.202 33.7201 117.303 39.3546 117.204 45.1637C117.104 50.9729 114.812 56.5334 110.779 60.7457C106.746 64.9579 101.267 67.515 95.4252 67.9113C89.5835 68.3075 83.8046 66.514 79.2317 62.8854C78.8915 62.9179 78.5463 62.9404 78.1886 62.9479C70.8391 63.0879 65.3591 57.5204 64.3438 56.4479C65.1324 56.7854 69.3853 58.4704 73.9684 57.0004Z" fill="#606161"/>
<path d="M103.356 49.8281H83.6484C82.312 49.8281 81.0303 49.3013 80.0853 48.3637C79.1403 47.426 78.6094 46.1542 78.6094 44.8281C78.6094 43.502 79.1403 42.2303 80.0853 41.2926C81.0303 40.3549 82.312 39.8281 83.6484 39.8281H103.364C104.7 39.8281 105.982 40.3549 106.927 41.2926C107.872 42.2303 108.403 43.502 108.403 44.8281C108.403 46.1542 107.872 47.426 106.927 48.3637C105.982 49.3013 104.7 49.8281 103.364 49.8281H103.356Z" fill="#F16969"/>
<path d="M70.7587 124.368C69.7977 124.946 68.6953 125.251 67.5715 125.25H40.6831C39.6291 125.251 38.5927 124.982 37.6733 124.471C36.7539 123.96 35.9823 123.222 35.4324 122.33L34.999 121.628C34.1599 120.266 32.9868 119.138 31.5892 118.349C30.1916 117.559 28.6152 117.134 27.0071 117.113L25.8758 117.1C23.059 117.063 20.5042 115.668 19.2822 113.498L12.6231 101.68C12.1336 100.821 11.8808 99.8495 11.8899 98.8628L12.3459 63.7803C15.1726 70.0335 18.5156 76.044 22.3409 81.7503L22.1721 95.4228C22.1541 97.4303 22.6685 99.4073 23.6637 101.155L23.6889 101.193C26.1731 105.61 31.3734 108.443 37.1054 108.523L46.6594 108.648C49.0798 110.663 51.5834 112.584 54.1701 114.413H48.4483C47.7801 114.413 47.1392 114.676 46.6667 115.145C46.1942 115.614 45.9288 116.25 45.9288 116.913C45.9288 117.576 46.1942 118.212 46.6667 118.681C47.1392 119.149 47.7801 119.413 48.4483 119.413H59.8063C60.2825 119.413 60.749 119.28 61.1518 119.028C64.2659 120.946 67.4682 122.726 70.7587 124.368Z" fill="#E3E2E7"/>
<path d="M46.6473 108.647L37.0932 108.522C31.3613 108.447 26.161 105.61 23.6767 101.192L23.6515 101.155C22.6607 99.4058 22.1507 97.4289 22.1725 95.4225L22.3414 81.75C29.0936 91.832 37.2804 100.892 46.6473 108.647Z" fill="#DE5555"/>
<path d="M65.8861 23.3908H65.866L62.2807 23.3433C60.6033 23.3164 59.0036 22.6374 57.8256 21.4522C56.6477 20.267 55.9856 18.6704 55.9819 17.0058V13.0583C55.9819 12.6605 56.1411 12.2789 56.4246 11.9976C56.7081 11.7163 57.0926 11.5583 57.4936 11.5583H57.5137L65.8937 11.6683C66.2911 11.6735 66.6705 11.8339 66.9496 12.1146C67.2288 12.3954 67.3853 12.7739 67.3853 13.1683V21.7558C67.4057 21.9646 67.3818 22.1754 67.315 22.3744C67.2482 22.5735 67.1401 22.7565 66.9977 22.9115C66.8552 23.0665 66.6815 23.1902 66.4879 23.2744C66.2943 23.3587 66.085 23.4018 65.8735 23.4008L65.8861 23.3908ZM59.0078 14.5783V17.0108C59.0097 17.8863 59.3579 18.7261 59.9776 19.3493C60.5972 19.9726 61.4388 20.3295 62.321 20.3433L64.3669 20.3708V14.6483L59.0078 14.5783ZM45.8962 23.1283H45.8055L42.3587 23.0833C41.9613 23.078 41.582 22.9177 41.3028 22.6369C41.0237 22.3562 40.8672 21.9777 40.8672 21.5833V12.8633C40.8672 12.4655 41.0265 12.0839 41.31 11.8026C41.5935 11.5213 41.978 11.3633 42.3789 11.3633H42.3991L50.779 11.4708C51.1765 11.476 51.5558 11.6364 51.835 11.9171C52.1141 12.1979 52.2706 12.5764 52.2706 12.9708V16.7933C52.2713 18.4719 51.6002 20.0821 50.4049 21.27C49.2096 22.4579 47.5879 23.1263 45.8962 23.1283ZM43.8805 20.1033L45.8357 20.1283H45.8836C46.3246 20.1283 46.7613 20.042 47.1686 19.8743C47.576 19.7066 47.946 19.4608 48.2575 19.151C48.569 18.8412 48.8159 18.4735 48.984 18.069C49.1521 17.6644 49.2381 17.2309 49.2371 16.7933V14.4508L43.8805 14.3833V20.1033ZM81.1948 26.8658C80.8547 26.866 80.5245 26.7523 80.2575 26.5433C77.9977 24.8188 75.2873 23.7725 72.447 23.5283C72.2462 23.5097 72.0512 23.4514 71.8734 23.3568C71.6957 23.2623 71.5388 23.1334 71.412 22.9778C71.2852 22.8222 71.1911 22.6429 71.1352 22.4507C71.0793 22.2584 71.0627 22.057 71.0865 21.8583C71.0957 21.792 71.0999 21.7252 71.099 21.6583V13.2508C71.099 12.853 71.2583 12.4714 71.5418 12.1901C71.8253 11.9088 72.2098 11.7508 72.6108 11.7508H72.6309L82.4571 11.8783C85.8484 11.9233 88.8794 13.6058 90.3659 16.2708L93.0366 21.0508C93.159 21.2694 93.2243 21.5149 93.2267 21.7649C93.229 22.0149 93.1684 22.2616 93.0502 22.4824C92.932 22.7033 92.7601 22.8913 92.55 23.0295C92.34 23.1676 92.0984 23.2514 91.8474 23.2733C88.3433 23.5834 84.9672 24.732 82.0086 26.6208C81.7666 26.778 81.4841 26.8631 81.1948 26.8658ZM74.1401 20.7233C76.6998 21.1388 79.1363 22.1065 81.278 23.5583C83.7708 22.1114 86.4994 21.108 89.3405 20.5933L87.7405 17.7308C86.7932 16.0308 84.7171 14.9133 82.4369 14.8833L74.1502 14.7758L74.1401 20.7233Z" fill="black"/>
<path d="M67.5715 126.75H40.6831C39.3694 126.747 38.0783 126.412 36.9319 125.775C35.7856 125.139 34.8219 124.222 34.1323 123.113L33.6989 122.41C32.9965 121.262 32.0105 120.311 30.8343 119.647C29.658 118.982 28.3303 118.626 26.9768 118.613L25.8481 118.6C22.4694 118.555 19.446 116.88 17.9519 114.23L11.3028 102.413C10.6869 101.323 10.3682 100.092 10.3782 98.8429L10.7082 73.7979C10.7135 73.4036 10.8751 73.0272 11.1581 72.7502C11.441 72.4732 11.8225 72.3179 12.2199 72.3179H12.2401C12.4386 72.3205 12.6347 72.3619 12.8171 72.4397C12.9995 72.5175 13.1647 72.6302 13.3032 72.7714C13.4417 72.9125 13.5508 73.0794 13.6243 73.2624C13.6979 73.4454 13.7343 73.6409 13.7317 73.8379L13.4016 98.8829C13.3971 99.6064 13.5839 100.318 13.9433 100.948L20.6024 112.765C21.5548 114.458 23.6259 115.57 25.8934 115.6L27.0222 115.613C28.8865 115.632 30.715 116.123 32.3351 117.039C33.9552 117.954 35.3134 119.264 36.2815 120.845L36.7148 121.548C37.1277 122.224 37.7104 122.783 38.4059 123.169C39.1015 123.555 39.8861 123.755 40.6831 123.75H67.5715C68.3672 123.754 69.1503 123.553 69.8444 123.167C70.5385 122.781 71.12 122.223 71.5322 121.548C72.5217 119.954 73.9045 118.638 75.5499 117.723C77.1953 116.807 79.0488 116.324 80.9351 116.318H81.1518C83.4194 116.318 85.4778 115.26 86.4604 113.605L93.3614 101.978C93.7342 101.363 93.9368 100.661 93.9485 99.9429L94.3541 69.4604C91.9255 69.5202 89.5013 69.2219 87.1609 68.5754L86.7981 96.3029C86.7583 98.5545 86.1278 100.757 84.9689 102.693C82.079 107.56 76.3546 110.538 70.0129 110.443L37.0726 110.015C30.7738 109.933 25.1602 106.85 22.3862 101.968C22.3661 101.938 22.3485 101.908 22.3308 101.878C21.216 99.9005 20.6402 97.6687 20.6604 95.4029L21.4691 34.2179C21.5096 31.9596 22.1436 29.751 23.3084 27.8104C23.3084 27.7904 23.3285 27.7679 23.3411 27.7479C25.5407 24.0754 29.5115 21.4029 34.1273 20.4379V14.2504L27.2439 14.1604C24.9763 14.1379 22.8725 15.1879 21.8748 16.8554L14.9007 28.5004C14.5218 29.1209 14.3158 29.8301 14.3036 30.5554L13.8879 62.1379C13.8826 62.5323 13.721 62.9087 13.438 63.1857C13.1551 63.4627 12.7736 63.618 12.3761 63.6179H12.3459C12.1474 63.6153 11.9513 63.5739 11.7689 63.4961C11.5865 63.4183 11.4213 63.3056 11.2828 63.1645C11.1443 63.0233 11.0352 62.8565 10.9617 62.6735C10.8882 62.4905 10.8517 62.2949 10.8544 62.0979L11.2802 30.5004C11.3004 29.2528 11.6477 28.0319 12.288 26.9579L19.2671 15.3279C20.8317 12.7154 23.903 11.1154 27.2767 11.1654L35.6516 11.2754C36.049 11.2807 36.4284 11.441 36.7075 11.7218C36.9867 12.0025 37.1432 12.381 37.1431 12.7754V21.6904C37.1429 22.0526 37.0107 22.4024 36.7708 22.6754C36.5309 22.9483 36.1996 23.1259 35.838 23.1754C31.5876 23.7504 27.8939 26.0229 25.9514 29.2504L25.9161 29.3129C25.01 30.8056 24.5148 32.5082 24.48 34.2504L23.6838 95.4429C23.6681 97.1674 24.102 98.8665 24.9436 100.375C24.963 100.403 24.9807 100.431 24.9965 100.46C27.2011 104.38 31.9554 106.96 37.1129 107.023L70.0432 107.45C75.2133 107.51 80.0482 105.053 82.3536 101.17C83.2509 99.6812 83.7407 97.9852 83.7746 96.2504L84.1651 66.5004C84.1684 66.2599 84.2299 66.0237 84.3444 65.8117C84.459 65.5997 84.6232 65.4182 84.8233 65.2824C85.0234 65.1466 85.2535 65.0605 85.4941 65.0315C85.7347 65.0024 85.9789 65.0312 86.206 65.1154C88.6331 66.0117 91.2025 66.4689 93.7923 66.4654C94.4398 66.4654 95.0974 66.4354 95.75 66.3754C95.9609 66.3565 96.1735 66.3818 96.3739 66.4496C96.5744 66.5174 96.7583 66.6262 96.9136 66.7691C97.069 66.9119 97.1924 67.0855 97.2758 67.2787C97.3592 67.4719 97.4007 67.6803 97.3977 67.8904L96.9719 99.9804C96.9507 101.22 96.6033 102.433 95.9641 103.498L89.0656 115.128C87.5061 117.755 84.4347 119.363 81.046 119.318H80.9351C79.5667 119.324 78.2224 119.676 77.0288 120.339C75.8352 121.003 74.8315 121.958 74.1122 123.113C73.4235 124.221 72.4615 125.136 71.317 125.773C70.1725 126.409 68.8835 126.746 67.5715 126.75ZM59.8063 120.918H48.4483C47.3791 120.918 46.3538 120.496 45.5978 119.746C44.8417 118.996 44.417 117.979 44.417 116.918C44.417 115.857 44.8417 114.84 45.5978 114.09C46.3538 113.339 47.3791 112.918 48.4483 112.918H59.8063C60.8755 112.918 61.9008 113.339 62.6568 114.09C63.4129 114.84 63.8376 115.857 63.8376 116.918C63.8376 117.979 63.4129 118.996 62.6568 119.746C61.9008 120.496 60.8755 120.918 59.8063 120.918ZM48.4483 115.918C48.181 115.918 47.9246 116.023 47.7356 116.211C47.5466 116.398 47.4405 116.653 47.4405 116.918C47.4405 117.183 47.5466 117.437 47.7356 117.625C47.9246 117.813 48.181 117.918 48.4483 117.918H59.8063C60.0736 117.918 60.33 117.813 60.519 117.625C60.708 117.437 60.8141 117.183 60.8141 116.918C60.8141 116.653 60.708 116.398 60.519 116.211C60.33 116.023 60.0736 115.918 59.8063 115.918H48.4483ZM12.2829 70.5929H12.2628C12.0642 70.5903 11.8682 70.5489 11.6858 70.4711C11.5034 70.3933 11.3382 70.2806 11.1997 70.1395C11.0612 69.9983 10.952 69.8315 10.8785 69.6485C10.805 69.4655 10.7685 69.2699 10.7712 69.0729L10.8014 66.8229C10.8067 66.4286 10.9683 66.0522 11.2513 65.7752C11.5342 65.4982 11.9157 65.3429 12.3132 65.3429H12.3459C12.5444 65.3455 12.7405 65.3869 12.9229 65.4647C13.1053 65.5425 13.2705 65.6552 13.409 65.7964C13.5475 65.9375 13.6566 66.1044 13.7302 66.2874C13.8037 66.4704 13.8401 66.6659 13.8375 66.8629L13.8072 69.1129C13.8019 69.5095 13.6386 69.8878 13.3529 70.1651C13.0673 70.4424 12.6826 70.5963 12.2829 70.5929ZM57.4959 14.5554H57.4783L50.7385 14.4704C50.3411 14.4652 49.9617 14.3048 49.6826 14.0241C49.4034 13.7433 49.2469 13.3648 49.247 12.9704V6.09793C49.247 4.81296 49.7614 3.58061 50.6771 2.672C51.5928 1.76338 52.8348 1.25293 54.1298 1.25293C55.4248 1.25293 56.6668 1.76338 57.5825 2.672C58.4982 3.58061 59.0127 4.81296 59.0127 6.09793C59.0127 6.09793 59.0127 9.45293 59.0127 13.0554C59.0127 13.4533 58.8534 13.8348 58.5699 14.1161C58.2864 14.3974 57.9019 14.5554 57.501 14.5554H57.4959ZM52.2704 11.5004L55.9867 11.5479V6.09543C55.9867 5.85314 55.9386 5.61322 55.8452 5.38938C55.7517 5.16553 55.6148 4.96214 55.4421 4.79082C55.2694 4.61949 55.0645 4.48359 54.8389 4.39087C54.6133 4.29815 54.3715 4.25043 54.1273 4.25043C53.8831 4.25043 53.6413 4.29815 53.4157 4.39087C53.1901 4.48359 52.9852 4.61949 52.8125 4.79082C52.6398 4.96214 52.5029 5.16553 52.4094 5.38938C52.316 5.61322 52.2679 5.85314 52.2679 6.09543C52.2679 6.09543 52.2679 8.53793 52.2704 11.5004Z" fill="black"/>
<path d="M70.2702 110.45H70.0183L37.0779 110.023C30.7791 109.94 25.1631 106.858 22.3916 101.975C22.3714 101.945 22.3538 101.915 22.3361 101.885C21.2183 99.906 20.6407 97.6715 20.6607 95.4027L21.4694 34.2177C21.5093 31.9594 22.1433 29.7505 23.3087 27.8102C23.3087 27.7877 23.3314 27.7677 23.344 27.7452C25.7501 23.7302 30.2701 20.9127 35.4377 20.2077C35.599 20.1852 35.7728 20.1627 35.9416 20.1452H35.9794L36.3195 20.1127C36.4833 20.0977 36.6622 20.0827 36.8411 20.0727H37.025C37.1636 20.0727 37.3022 20.0577 37.4483 20.0552H38.0101L45.8509 20.1552H45.8988C46.3398 20.1552 46.7765 20.0689 47.1839 19.9012C47.5912 19.7335 47.9613 19.4878 48.2728 19.178C48.5843 18.8682 48.8311 18.5005 48.9992 18.0959C49.1673 17.6913 49.2533 17.2578 49.2523 16.8202V12.9702C49.2525 12.7715 49.2924 12.5748 49.3698 12.3916C49.4473 12.2083 49.5606 12.0422 49.7033 11.9027C49.844 11.761 50.0126 11.6495 50.1985 11.5751C50.3844 11.5008 50.5838 11.465 50.7842 11.4702L57.5214 11.5577C57.9188 11.563 58.2982 11.7233 58.5773 12.0041C58.8565 12.2848 59.013 12.6634 59.013 13.0577V17.0102C59.0148 17.8857 59.3631 18.7255 59.9827 19.3488C60.6024 19.972 61.4439 20.329 62.3261 20.3427L71.2528 20.4577H71.6081L71.923 20.4727C72.2254 20.4877 72.5 20.5077 72.7595 20.5327C76.1757 20.8265 79.4329 22.096 82.1372 24.1877C82.3259 24.3357 82.4763 24.5262 82.5758 24.7435C82.6754 24.9607 82.7213 25.1983 82.7097 25.4367C82.6981 25.6751 82.6294 25.9072 82.5092 26.1139C82.3891 26.3207 82.2209 26.4959 82.0188 26.6252C77.2019 29.6874 73.7927 34.5071 72.5278 40.043C71.2629 45.5788 72.2439 51.3862 75.2589 56.2102C75.3802 56.4037 75.4556 56.622 75.4792 56.8487C75.5028 57.0754 75.474 57.3044 75.3951 57.5184C75.3162 57.7324 75.1891 57.9257 75.0236 58.0837C74.8582 58.2417 74.6586 58.3602 74.4401 58.4302C73.0197 58.8838 71.5356 59.11 70.0435 59.1002C72.2355 60.4077 75.0271 61.5027 78.1513 61.4502C78.4461 61.4502 78.751 61.4252 79.0785 61.3952C79.4706 61.3576 79.8621 61.4733 80.1695 61.7177C81.9814 63.1633 84.0153 64.3112 86.1937 65.1177C86.4859 65.2255 86.7375 65.4202 86.9138 65.6753C87.0902 65.9304 87.1827 66.2334 87.1788 66.5427L86.7883 96.2927C86.7485 98.5443 86.1181 100.747 84.9591 102.683C82.1196 107.5 76.5035 110.45 70.2702 110.45ZM24.9439 100.375C24.9633 100.402 24.981 100.431 24.9968 100.46C27.2014 104.38 31.9557 106.96 37.1132 107.023L70.0435 107.45H70.2501C75.3446 107.45 80.0762 105 82.3438 101.17C83.2446 99.6819 83.738 97.9859 83.7749 96.2502L84.1528 67.5252C82.231 66.7201 80.4201 65.6759 78.7636 64.4177L78.2219 64.4402H77.922C70.4567 64.4402 64.8205 59.1227 63.2458 57.4752C63.0069 57.2254 62.8619 56.9016 62.8352 56.5583C62.8085 56.2149 62.9016 55.8729 63.099 55.5896C63.2964 55.3064 63.586 55.0991 63.9192 55.0027C64.2524 54.9063 64.6089 54.9266 64.9288 55.0602C67.0549 55.9366 69.3712 56.2601 71.6585 56.0002C69.0436 50.9024 68.2999 45.06 69.5551 39.4771C70.8104 33.8942 73.9862 28.9194 78.5368 25.4077C76.665 24.3699 74.5948 23.7329 72.4597 23.5377C72.243 23.5177 72.0163 23.5002 71.7618 23.4877H71.1596L62.2909 23.3727C60.6135 23.3459 59.0138 22.6668 57.8358 21.4816C56.6578 20.2964 55.9958 18.6998 55.992 17.0352V14.5677L52.2707 14.5002V16.8027C52.2694 17.6406 52.1007 18.4699 51.7742 19.2426C51.4477 20.0153 50.97 20.716 50.3687 21.3043C49.7674 21.8925 49.0545 22.3566 48.2712 22.6696C47.488 22.9826 46.6499 23.1383 45.8056 23.1277L37.995 23.0277H36.9948L36.5765 23.0602L36.254 23.0902L35.8383 23.1452C31.5879 23.7502 27.8967 26.0202 25.9517 29.2502L25.9164 29.3152C25.0097 30.8067 24.5144 32.5087 24.4803 34.2502L23.6841 95.4427C23.6684 97.1672 24.1023 98.8664 24.9439 100.375ZM42.379 14.3627H42.3589L35.6141 14.2727C35.2162 14.2681 34.8362 14.1081 34.5565 13.8273C34.2768 13.5464 34.12 13.1675 34.12 12.7727V6.21273C34.12 4.9271 34.6347 3.69412 35.5509 2.78503C36.4671 1.87595 37.7097 1.36523 39.0054 1.36523C40.301 1.36523 41.5437 1.87595 42.4598 2.78503C43.376 3.69412 43.8907 4.9271 43.8907 6.21273V12.8627C43.8907 13.2606 43.7315 13.6421 43.448 13.9234C43.1645 14.2047 42.7799 14.3627 42.379 14.3627ZM37.1434 11.2927L40.8673 11.3427V6.21273C40.8673 5.72275 40.6711 5.25283 40.3219 4.90635C39.9728 4.55988 39.4992 4.36523 39.0054 4.36523C38.5115 4.36523 38.038 4.55988 37.6888 4.90635C37.3396 5.25283 37.1434 5.72275 37.1434 6.21273V11.2927Z" fill="black"/>
<path d="M35.6318 23.1902C35.2309 23.1902 34.8464 23.0322 34.5629 22.7509C34.2794 22.4696 34.1201 22.0881 34.1201 21.6902V12.7752C34.1203 12.5765 34.1602 12.3798 34.2377 12.1966C34.3151 12.0133 34.4284 11.8472 34.5711 11.7077C34.712 11.5663 34.8806 11.4549 35.0665 11.3806C35.2524 11.3062 35.4516 11.2703 35.652 11.2752L42.3993 11.3627C42.7967 11.368 43.1761 11.5283 43.4552 11.8091C43.7344 12.0898 43.8909 12.4684 43.8909 12.8627V21.5827C43.8909 21.9806 43.7316 22.3621 43.4481 22.6434C43.1646 22.9247 42.7801 23.0827 42.3791 23.0827H42.359L38.0052 23.0277H37.0025C36.8689 23.0277 36.7329 23.0452 36.5993 23.0602H36.5716L36.2642 23.0902C36.1282 23.1052 35.9946 23.1202 35.8611 23.1402C35.7863 23.1633 35.7096 23.18 35.6318 23.1902ZM38.0052 20.0277L40.8674 20.0627V14.3427L37.1436 14.2927V20.0427H37.5038L38.0052 20.0277ZM72.6236 14.7502H72.6034L65.8561 14.6627C65.4587 14.6575 65.0794 14.4971 64.8002 14.2164C64.521 13.9356 64.3645 13.5571 64.3646 13.1627V6.21273C64.3646 4.9271 64.8793 3.69412 65.7955 2.78503C66.7116 1.87595 67.9543 1.36523 69.2499 1.36523C70.5456 1.36523 71.7882 1.87595 72.7044 2.78503C73.6206 3.69412 74.1353 4.9271 74.1353 6.21273V13.2502C74.1353 13.6481 73.976 14.0296 73.6925 14.3109C73.409 14.5922 73.0245 14.7502 72.6236 14.7502ZM67.388 11.6852L71.1119 11.7327V6.21273C71.1119 5.72275 70.9157 5.25283 70.5665 4.90635C70.2174 4.55988 69.7438 4.36523 69.2499 4.36523C68.7561 4.36523 68.2825 4.55988 67.9334 4.90635C67.5842 5.25283 67.388 5.72275 67.388 6.21273V11.6852Z" fill="black"/>
<path d="M72.6028 23.5354C72.555 23.5379 72.507 23.5379 72.4592 23.5354C72.2072 23.5129 71.9805 23.4954 71.7613 23.4854C71.5421 23.4754 71.3632 23.4679 71.1667 23.4654L65.8757 23.3979C65.5024 23.3933 65.144 23.2519 64.8695 23.0008C64.5951 22.7497 64.424 22.4067 64.3891 22.0379C64.3891 21.9204 64.374 21.7879 64.374 21.6654V13.1654C64.3742 12.9667 64.4141 12.77 64.4916 12.5867C64.569 12.4035 64.6823 12.2373 64.825 12.0979C64.9663 11.9569 65.1349 11.8459 65.3207 11.7715C65.5065 11.6972 65.7056 11.6611 65.9059 11.6654L72.6532 11.7529C73.0506 11.7581 73.43 11.9185 73.7091 12.1992C73.9883 12.48 74.1448 12.8585 74.1448 13.2529V21.6579C74.144 21.8417 74.1331 22.0253 74.112 22.2079C74.0692 22.5747 73.8916 22.9129 73.6131 23.1579C73.3347 23.4028 72.9749 23.5372 72.6028 23.5354ZM67.3874 20.4079L71.1112 20.4579V14.7329L67.3874 14.6854V20.4079ZM69.9674 83.4004H37.992C35.8683 83.3984 33.8322 82.5604 32.3306 81.0704C30.8289 79.5804 29.9844 77.5601 29.9824 75.4529V55.3504C29.9844 53.2432 30.8289 51.2229 32.3306 49.7328C33.8322 48.2428 35.8683 47.4049 37.992 47.4029H69.9674C70.3315 47.4027 70.6952 47.4277 71.0558 47.4779C71.3703 47.5222 71.6627 47.6637 71.8915 47.8822C72.1204 48.1008 72.274 48.3853 72.3307 48.6954C72.8172 51.3612 73.8089 53.9113 75.2534 56.2104C75.3747 56.4038 75.45 56.6222 75.4736 56.8489C75.4972 57.0755 75.4685 57.3045 75.3895 57.5185C75.3106 57.7325 75.1836 57.9258 75.0181 58.0838C74.8526 58.2418 74.653 58.3604 74.4345 58.4304C73.0215 58.8787 71.5466 59.1048 70.0631 59.1004C71.8898 60.1879 74.1271 61.1354 76.6139 61.3854C76.9881 61.4227 77.3348 61.5971 77.5864 61.8744C77.838 62.1518 77.9763 62.5122 77.9745 62.8854V75.4604C77.9705 77.5658 77.1254 79.5839 75.6245 81.0722C74.1236 82.5605 72.0893 83.3977 69.9674 83.4004ZM37.992 50.4004C36.6698 50.4024 35.4023 50.9246 34.4676 51.8526C33.5329 52.7805 33.0072 54.0384 33.0059 55.3504V75.4529C33.0079 76.7644 33.5338 78.0217 34.4685 78.9491C35.4031 79.8765 36.6702 80.3984 37.992 80.4004H69.9674C71.2892 80.3984 72.5563 79.8765 73.4909 78.9491C74.4256 78.0217 74.9515 76.7644 74.9535 75.4529V64.1779C69.141 63.1104 64.8754 59.2079 63.2453 57.4879C63.0064 57.2381 62.8614 56.9143 62.8347 56.5709C62.808 56.2276 62.9011 55.8855 63.0985 55.6023C63.2959 55.319 63.5855 55.1118 63.9187 55.0154C64.2519 54.919 64.6084 54.9393 64.9283 55.0729C67.0555 55.945 69.3718 56.2642 71.658 56.0004C70.7447 54.2285 70.0542 52.3519 69.6021 50.4129L37.992 50.4004Z" fill="black"/>
<path d="M93.7921 69.468C88.3625 69.4597 83.0846 67.6897 78.7631 64.428L78.2189 64.4505H77.9064C70.6703 64.453 65.2559 59.598 63.2402 57.5005C63.0029 57.2504 62.8593 56.9271 62.8333 56.5845C62.8074 56.2419 62.9008 55.9009 63.0979 55.6185C63.2949 55.336 63.5837 55.1292 63.916 55.0327C64.2482 54.9361 64.6038 54.9557 64.9233 55.088C67.0541 55.9565 69.3731 56.2706 71.6605 56.0005C69.2109 51.2158 68.4029 45.7683 69.3595 40.4862C70.316 35.2041 72.9847 30.3764 76.9598 26.7373C80.935 23.0981 85.999 20.8464 91.382 20.3247C96.765 19.803 102.172 21.0398 106.782 23.8469C111.392 26.6541 114.952 30.8781 116.92 35.8767C118.889 40.8753 119.158 46.375 117.688 51.5396C116.218 56.7042 113.088 61.2512 108.775 64.4891C104.462 67.727 99.2007 69.4788 93.7921 69.478V69.468ZM79.2317 61.388C79.5753 61.3883 79.9085 61.5047 80.1765 61.718C84.0271 64.8052 88.8316 66.4825 93.782 66.468C98.6179 66.4719 103.318 64.8825 107.145 61.9492C110.972 59.016 113.71 54.9049 114.928 50.2611C116.146 45.6174 115.775 40.7039 113.874 36.2916C111.974 31.8793 108.651 28.2181 104.426 25.8825C100.202 23.5468 95.3155 22.669 90.5341 23.3867C85.7526 24.1045 81.3466 26.3772 78.0075 29.8481C74.6684 33.319 72.5853 37.7918 72.085 42.5645C71.5847 47.3371 72.6956 52.1395 75.2433 56.218C75.3646 56.4115 75.44 56.6298 75.4636 56.8565C75.4872 57.0832 75.4584 57.3122 75.3795 57.5262C75.3005 57.7402 75.1735 57.9335 75.008 58.0915C74.8426 58.2495 74.643 58.368 74.4244 58.438C73.0085 58.8864 71.5292 59.1067 70.043 59.0905C72.24 60.403 75.0266 61.5155 78.1609 61.4505C78.4532 61.4505 78.7555 61.4255 79.0906 61.3955C79.1375 61.3906 79.1846 61.3881 79.2317 61.388Z" fill="black"/>
<path d="M103.356 51.3281H83.6485C81.9111 51.3281 80.2449 50.6433 79.0164 49.4243C77.7879 48.2053 77.0977 46.552 77.0977 44.8281C77.0977 43.1042 77.7879 41.4509 79.0164 40.2319C80.2449 39.0129 81.9111 38.3281 83.6485 38.3281H103.364C105.101 38.3281 106.767 39.0129 107.996 40.2319C109.224 41.4509 109.915 43.1042 109.915 44.8281C109.915 46.552 109.224 48.2053 107.996 49.4243C106.767 50.6433 105.101 51.3281 103.364 51.3281H103.356ZM83.6409 41.3281C82.7054 41.3281 81.8082 41.6969 81.1467 42.3533C80.4852 43.0096 80.1136 43.8999 80.1136 44.8281C80.1136 45.7564 80.4852 46.6466 81.1467 47.303C81.8082 47.9594 82.7054 48.3281 83.6409 48.3281H103.356C104.292 48.3281 105.189 47.9594 105.85 47.303C106.512 46.6466 106.884 45.7564 106.884 44.8281C106.884 43.8999 106.512 43.0096 105.85 42.3533C105.189 41.6969 104.292 41.3281 103.356 41.3281H83.6409ZM53.981 76.9006C48.239 76.9006 43.5703 71.7431 43.5703 65.4006C43.5703 59.0581 48.239 53.9006 53.981 53.9006C59.723 53.9006 64.3892 59.0606 64.3892 65.4006C64.3892 71.7406 59.713 76.9006 53.981 76.9006ZM53.981 56.9006C49.9069 56.9006 46.5938 60.7131 46.5938 65.4006C46.5938 70.0881 49.9069 73.9006 53.981 73.9006C58.0551 73.9006 61.3658 70.0881 61.3658 65.4006C61.3658 60.7131 58.0526 56.9006 53.981 56.9006Z" fill="black"/>
</svg>
