<svg viewBox="0 0 256 256" xmlns="http://www.w3.org/2000/svg"><path d="m112.00244 237.05762a20.01473 20.01473 0 0 1 -20.00244-20.00586v-76.41211l-64.71436-71.18555a20.00033 20.00033 0 0 1 14.79883-33.4541h171.83106a20.00008 20.00008 0 0 1 14.79931 33.45312l-64.71484 71.18653v55.0791a19.95861 19.95861 0 0 1 -8.90723 16.6416l-31.999 21.332a19.97037 19.97037 0 0 1 -11.09133 3.36527zm-60.87598-177.05762 59.67237 65.63965a19.95228 19.95228 0 0 1 5.20117 13.45312v70.48438l24-15.999v-54.48538a19.95374 19.95374 0 0 1 5.2041-13.45605l59.66944-65.63672z"/></svg>