 <svg width="40" height="38" viewBox="0 0 40 38" fill="none" xmlns="http://www.w3.org/2000/svg">
<path d="M21.4378 10.679L21.4378 10.679L21.438 10.6786L21.4381 10.6784L21.4382 10.6782L21.6931 10.2161L21.2167 9.98694C18.0502 8.46341 16.5684 6.06485 15.8711 4.04032C15.5214 3.02477 15.3698 2.10378 15.3058 1.43799C15.2842 1.21349 15.2726 1.01861 15.2667 0.85963L15.5947 0.859863C16.0921 0.860351 16.7548 0.861327 17.4165 0.863279C18.0784 0.865232 18.7383 0.868158 19.2304 0.872539C19.3621 0.873712 19.4813 0.874985 19.585 0.876362C19.7964 2.95368 20.5135 4.20477 21.2509 4.94631C21.6417 5.33937 22.0272 5.57789 22.3223 5.7194C22.4697 5.79007 22.5945 5.83655 22.6863 5.86614C22.7323 5.88095 22.77 5.89156 22.7984 5.89889C22.8125 5.90255 22.8243 5.90539 22.8336 5.90753L22.8457 5.91022L22.8503 5.9112L22.8522 5.9116L22.8531 5.91177C22.8535 5.91186 22.8539 5.91194 22.9531 5.42187L22.8539 5.91194L23.0051 5.94254L23.1473 5.88262C26.0736 4.64926 28.4286 4.32647 30.3222 4.57084C32.2093 4.81437 33.6744 5.6256 34.8218 6.7261C37.1396 8.94898 38.1702 12.3623 38.6186 14.6583L38.6189 14.6598C39.6876 20.0491 38.297 29.8258 29.9932 34.8053C23.8292 38.4946 18.5536 37.4315 14.7955 35.4521C12.9073 34.4577 11.4011 33.2297 10.366 32.248C9.8491 31.7579 9.45155 31.3309 9.18445 31.0281C9.05095 30.8767 8.95017 30.7565 8.88352 30.6751C8.85019 30.6344 8.82541 30.6035 8.80933 30.5832L8.79179 30.5608L8.78796 30.5559L8.78745 30.5552L8.78729 30.555L8.78727 30.555L8.6899 30.4279L8.53651 30.3811C6.92553 29.8896 5.69926 30.0154 4.80414 30.6077C3.92434 31.1898 3.47709 32.1499 3.25214 33.0841C3.02571 34.0244 3.00628 35.0109 3.03953 35.7488C3.05224 36.0308 3.07283 36.2801 3.09356 36.4815L0.66458 36.6784C0.544365 33.2199 1.06867 30.9878 1.87651 29.5734C2.70989 28.1144 3.86722 27.4856 5.05209 27.2755C6.26036 27.0613 7.51566 27.2815 8.49158 27.5709C8.97535 27.7144 9.38052 27.8719 9.66365 27.993C9.80502 28.0535 9.9154 28.1046 9.98933 28.1401C10.0263 28.1578 10.0541 28.1716 10.072 28.1807L10.0915 28.1905L10.0955 28.1926L10.0957 28.1927L10.096 28.1929L10.0961 28.1929L10.4153 28.3605L10.6751 28.11C12.0943 26.7418 13.5019 26.4312 14.542 26.4453C15.0681 26.4524 15.5072 26.543 15.8125 26.6309C15.9648 26.6747 16.0828 26.7176 16.1602 26.7484C16.1989 26.7637 16.2274 26.776 16.2449 26.7838L16.2627 26.792L16.2634 26.7923L16.2639 26.7925L16.2643 26.7927L16.2649 26.793L16.2653 26.7932L16.8911 27.1014L16.9803 26.4074C17.0985 25.4868 17.4 24.9295 17.7402 24.587C18.0816 24.2432 18.505 24.0727 18.943 24.0037C19.385 23.9341 19.8246 23.9713 20.1621 24.0304C20.3289 24.0595 20.466 24.0932 20.5598 24.119C20.6066 24.1319 20.6423 24.1427 20.6651 24.15L20.6895 24.1579L20.6932 24.1591L20.6936 24.1592L20.6939 24.1594L20.6941 24.1594L20.6943 24.1595L21.4642 24.4307L21.3548 23.6206C21.1196 21.8785 21.494 20.411 21.9296 19.3755C22.1473 18.8579 22.3793 18.4509 22.5552 18.1756C22.643 18.0381 22.7165 17.9338 22.7668 17.8655C22.7919 17.8314 22.8112 17.8063 22.8235 17.7906L22.8366 17.774L22.8384 17.7718L22.8386 17.7715L22.8388 17.7713L22.8389 17.7711L22.839 17.771L23.1891 17.3478L22.7335 17.0392C20.9815 15.8523 20.6618 14.2962 20.7716 13.0033C20.8273 12.3473 20.9953 11.7614 21.1513 11.3372C21.229 11.126 21.3028 10.9575 21.3562 10.8434C21.3829 10.7865 21.4045 10.7433 21.4188 10.7153C21.4259 10.7013 21.4312 10.6912 21.4345 10.6851L21.4378 10.679ZM19.5492 0.443833C19.5473 0.426989 19.5463 0.410488 19.5461 0.394354L19.5478 0.421814C19.5483 0.429163 19.5487 0.436503 19.5492 0.443833Z" fill="#C11A1D" stroke="black"/>
</svg>
