<svg width="35" height="35" viewBox="0 0 35 35" fill="none" xmlns="http://www.w3.org/2000/svg">
<path d="M2.91699 8.375C2.91699 6.48938 2.91699 5.54657 3.50278 4.96079C4.08857 4.375 5.03137 4.375 6.91699 4.375H28.0837C29.9693 4.375 30.9121 4.375 31.4979 4.96079C32.0837 5.54657 32.0837 6.48938 32.0837 8.375V11.125C32.0837 12.0678 32.0837 12.5392 31.7908 12.8321C31.4979 13.125 31.0265 13.125 30.0837 13.125H4.91699C3.97418 13.125 3.50278 13.125 3.20989 12.8321C2.91699 12.5392 2.91699 12.0678 2.91699 11.125V8.375Z" fill="#C11A1D" stroke="black"/>
<path fill-rule="evenodd" clip-rule="evenodd" d="M6.71169 29.7462C5.83301 28.8675 5.83301 27.4533 5.83301 24.6248V16.0415H29.1663V24.6248C29.1663 27.4533 29.1663 28.8675 28.2877 29.7462C27.409 30.6248 25.9948 30.6248 23.1663 30.6248H11.833C9.00458 30.6248 7.59037 30.6248 6.71169 29.7462ZM14.583 22.3332C14.0307 22.3332 13.583 22.7809 13.583 23.3332C13.583 23.8855 14.0307 24.3332 14.583 24.3332H20.4163C20.9686 24.3332 21.4163 23.8855 21.4163 23.3332C21.4163 22.7809 20.9686 22.3332 20.4163 22.3332H14.583Z" fill="#C11A1D"/>
<path d="M6.71169 29.7462L6.35813 30.0997L6.35813 30.0997L6.71169 29.7462ZM5.83301 16.0415V15.5415H5.33301V16.0415H5.83301ZM29.1663 16.0415H29.6663V15.5415H29.1663V16.0415ZM28.2877 29.7462L28.6412 30.0997V30.0997L28.2877 29.7462ZM5.33301 24.6248C5.33301 26.0249 5.33195 27.1253 5.4473 27.9833C5.56459 28.8557 5.81041 29.552 6.35813 30.0997L7.06524 29.3926C6.73429 29.0616 6.54076 28.6115 6.43838 27.85C6.33407 27.0742 6.33301 26.0532 6.33301 24.6248H5.33301ZM5.33301 16.0415V24.6248H6.33301V16.0415H5.33301ZM29.1663 15.5415H5.83301V16.5415H29.1663V15.5415ZM29.6663 24.6248V16.0415H28.6663V24.6248H29.6663ZM28.6412 30.0997C29.1889 29.552 29.4348 28.8557 29.552 27.9833C29.6674 27.1253 29.6663 26.0249 29.6663 24.6248H28.6663C28.6663 26.0532 28.6653 27.0741 28.561 27.85C28.4586 28.6115 28.2651 29.0616 27.9341 29.3926L28.6412 30.0997ZM23.1663 31.1248C24.5664 31.1248 25.6668 31.1259 26.5248 31.0105C27.3972 30.8933 28.0935 30.6474 28.6412 30.0997L27.9341 29.3926C27.6032 29.7236 27.153 29.9171 26.3915 30.0195C25.6156 30.1238 24.5947 30.1248 23.1663 30.1248V31.1248ZM11.833 31.1248H23.1663V30.1248H11.833V31.1248ZM6.35813 30.0997C6.90586 30.6474 7.60218 30.8933 8.47457 31.0105C9.33257 31.1259 10.4329 31.1248 11.833 31.1248V30.1248C10.4047 30.1248 9.3837 30.1238 8.60782 30.0195C7.84632 29.9171 7.3962 29.7236 7.06524 29.3926L6.35813 30.0997ZM14.083 23.3332C14.083 23.057 14.3069 22.8332 14.583 22.8332V21.8332C13.7546 21.8332 13.083 22.5047 13.083 23.3332H14.083ZM14.583 23.8332C14.3069 23.8332 14.083 23.6093 14.083 23.3332H13.083C13.083 24.1616 13.7546 24.8332 14.583 24.8332V23.8332ZM20.4163 23.8332H14.583V24.8332H20.4163V23.8332ZM20.9163 23.3332C20.9163 23.6093 20.6925 23.8332 20.4163 23.8332V24.8332C21.2448 24.8332 21.9163 24.1616 21.9163 23.3332H20.9163ZM20.4163 22.8332C20.6925 22.8332 20.9163 23.057 20.9163 23.3332H21.9163C21.9163 22.5047 21.2448 21.8332 20.4163 21.8332V22.8332ZM14.583 22.8332H20.4163V21.8332H14.583V22.8332Z" fill="black"/>
</svg>
