<svg width="40" height="40" viewBox="0 0 40 40" fill="none" xmlns="http://www.w3.org/2000/svg">
<path d="M14.7656 1.35938C14.7656 1.35938 14.375 8.25 21 11.4375C21 11.4375 18.5781 15.8281 22.4531 18.4531C22.4531 18.4531 20.3593 20.9844 20.8593 24.6875C20.8593 24.6875 17 23.3281 16.4843 27.3438C16.4843 27.3438 13.375 25.8125 10.3281 28.75C10.3281 28.75 -0.593789 23.0156 0.18746 38.2188L3.65621 37.9375C3.65621 37.9375 2.29684 30 8.39058 31.8594C8.39058 31.8594 17.5625 43.8281 30.25 36.2344C38.7968 31.1094 40.2031 21.0781 39.1093 15.5625C38.2031 10.9219 34.8906 1.39062 22.9531 6.42187C22.9531 6.42187 20.3281 5.89062 20.0468 1.39062C20.0781 1.35937 14.7656 1.35938 14.7656 1.35938Z" fill="#1ECBE1"/>
</svg>
