<svg width="40" height="40" viewBox="0 0 40 40" fill="none" xmlns="http://www.w3.org/2000/svg">
<g clip-path="url(#clip0_235_449)">
<path d="M21.3247 17.2677C17.4612 17.2677 14.3409 20.388 14.3654 24.2271C14.3654 28.0907 17.4857 31.211 21.3247 31.1864C25.1883 31.1864 28.3086 28.0662 28.2841 24.2271C28.2841 20.3635 25.1638 17.2432 21.3247 17.2677ZM21.3247 29.4303C18.4495 29.4303 16.1379 27.1186 16.1379 24.2434C16.1379 21.3682 18.4495 19.0566 21.3247 19.0566C24.2 19.0566 26.5116 21.3682 26.5116 24.2434C26.4871 27.1023 24.1755 29.4139 21.3247 29.4303Z" fill="#00EB96"/>
<path d="M15.2472 30.3206C11.89 26.9634 11.89 21.5152 15.2472 18.1581C17.812 15.5932 21.5939 14.9888 24.7305 16.3365C21.0793 7.93955 15.2308 0 15.2308 0C15.2308 0 2.91309 16.4182 2.91309 27.8456C2.91309 34.5763 8.43483 40 15.2308 40C19.8296 40 23.7095 37.4923 25.8332 33.7758L24.4855 32.2401C21.3897 33.4572 17.7467 32.8201 15.2472 30.3206Z" fill="#00EB96"/>
<path d="M18.4332 24.0064C18.9151 24.0227 19.2255 23.5898 19.2255 23.214C19.5114 22.9608 19.5441 22.5197 19.3562 22.2012C19.103 21.8173 18.6292 21.7274 18.2453 21.9806C17.8043 22.2665 17.5755 22.8383 17.6409 23.3447C17.7062 23.7205 18.0575 23.99 18.4332 24.0064Z" fill="#00EB96"/>
<path d="M20.8748 20.2901C20.589 20.3881 20.3031 20.478 20.0172 20.6414C19.6333 20.8619 19.5107 21.3683 19.7313 21.7522C19.9927 22.1198 20.4419 22.2505 20.8422 22.0055C20.981 21.9238 21.1281 21.8503 21.2833 21.8176C21.6998 21.6869 21.9531 21.2458 21.855 20.8374C21.7652 20.4208 21.3241 20.1921 20.8748 20.2901Z" fill="#00EB96"/>
<path d="M22.909 22.1933C22.9416 22.1933 23.007 22.2259 23.007 22.2586C23.4154 22.6588 23.9545 22.5118 24.1506 22.2913C24.4691 22.0054 24.5018 21.499 24.2159 21.1477C23.9627 20.8618 23.6114 20.674 23.2357 20.6086C22.7946 20.5106 22.378 20.7965 22.28 21.2457C22.182 21.695 22.4679 22.0952 22.909 22.1933Z" fill="#00EB96"/>
<path d="M23.8645 22.9854C23.4479 23.1732 23.2927 23.6552 23.5133 24.0636C23.5459 24.1289 23.5459 24.1943 23.5459 24.2514C23.5459 24.6925 23.9299 25.0438 24.3383 25.0438C24.7794 25.0438 25.1306 24.6599 25.1306 24.2188C25.1306 23.9329 25.0326 23.6143 24.9101 23.3611C24.7549 22.9527 24.2403 22.7975 23.8645 22.9854Z" fill="#00EB96"/>
<path d="M20.655 26.8247C20.4017 26.4735 19.9607 26.3837 19.5767 26.6042C19.1928 26.8247 19.0703 27.3312 19.2909 27.7151C19.5114 28.0663 19.9525 28.4094 20.4671 28.4094C20.851 28.4094 21.1941 28.1235 21.2594 27.7396C21.3248 27.3393 21.0715 26.9228 20.655 26.8247Z" fill="#00EB96"/>
<path d="M22.2147 25.3382C22.1493 25.0523 21.9615 24.8317 21.6756 24.701C21.4223 24.5704 21.1038 24.5704 20.8506 24.701C20.434 24.8889 20.2788 25.3708 20.434 25.7466C20.532 25.9671 20.7199 26.1305 20.9404 26.1877C21.0711 26.2857 21.3243 26.4082 21.6102 26.3184C22.084 26.2285 22.3372 25.7793 22.2147 25.3382Z" fill="#00EB96"/>
<path d="M20.875 22.512C20.4584 22.6999 20.3032 23.1818 20.4584 23.5575C20.5564 23.7781 20.7443 23.9414 20.9648 23.9986C21.0955 24.0966 21.3406 24.2191 21.6346 24.1293C22.0757 24.0313 22.3289 23.5902 22.2064 23.1491C22.1411 22.8632 21.9532 22.6427 21.6673 22.512C21.4223 22.414 21.1364 22.3813 20.875 22.512Z" fill="#00EB96"/>
<path d="M23.1617 26.2853C23.1291 26.3179 23.0637 26.3179 23.0311 26.3179C22.59 26.3179 22.2061 26.6692 22.2061 27.1103C22.2061 27.5513 22.5573 27.9353 22.9984 27.9353H23.0311C23.415 27.9353 23.7907 27.8046 24.1093 27.584C24.4605 27.3308 24.5258 26.8244 24.2645 26.4731C24.0194 26.0974 23.513 26.032 23.1617 26.2853Z" fill="#00EB96"/>
<path d="M19.1028 25.0194C18.9721 24.9214 18.8823 24.8315 18.7843 24.7335C18.4984 24.4149 17.9919 24.3823 17.6407 24.6681C17.3222 24.954 17.2895 25.4605 17.5754 25.8117C17.7306 25.9996 17.9266 26.1629 18.1471 26.3181C18.6617 26.6857 19.1273 26.3508 19.2907 26.1303C19.5439 25.779 19.4786 25.2726 19.1028 25.0194Z" fill="#00EB96"/>
<path d="M36.2072 35.5237L28.5617 28.8584C28.2432 29.3648 27.8674 29.8386 27.3855 30.2878C26.9444 30.7289 26.4625 31.1128 25.9561 31.4641L32.6214 39.1096C33.6016 40.2205 35.3169 40.2858 36.3706 39.2403C37.3835 38.2192 37.3181 36.5121 36.2072 35.5237Z" fill="#00EB96"/>
</g>
<defs>
<clipPath id="clip0_235_449">
<rect width="40" height="40" fill="white"/>
</clipPath>
</defs>
</svg>
