<svg width="40" height="40" viewBox="0 0 40 40" fill="none" xmlns="http://www.w3.org/2000/svg">
<path fill-rule="evenodd" clip-rule="evenodd" d="M7 16.6569C7 15.8394 7 15.4306 7.15224 15.0631C7.30448 14.6955 7.59351 14.4065 8.17157 13.8284L10.8284 11.1716C11.4065 10.5935 11.6955 10.3045 12.0631 10.1522C12.4306 10 12.8394 10 13.6569 10H27.0098C27.8273 10 28.2361 10 28.6036 10.1522C28.9711 10.3045 29.2602 10.5935 29.8382 11.1716L32.4951 13.8284C33.0732 14.4065 33.3622 14.6955 33.5144 15.0631C33.6667 15.4306 33.6667 15.8394 33.6667 16.6569V19H7V16.6569ZM25.8886 21H33.6667V31C33.6667 32.8856 33.6667 33.8284 33.0809 34.4142C32.4951 35 31.5523 35 29.6667 35H11C9.11438 35 8.17157 35 7.58579 34.4142C7 33.8284 7 32.8856 7 31V21H14.7775V27.7778C14.7775 29.0525 14.7775 29.6898 14.9424 30.0324C15.3103 30.7971 16.1942 31.1631 16.9951 30.8826C17.3539 30.757 17.8045 30.3063 18.7059 29.405C19.1233 28.9875 19.3321 28.7788 19.554 28.6614C20.0414 28.4037 20.6247 28.4037 21.1121 28.6614C21.3341 28.7788 21.5428 28.9875 21.9602 29.405L21.9603 29.405C22.8616 30.3063 23.3123 30.757 23.671 30.8826C24.472 31.1631 25.3558 30.7971 25.7238 30.0324C25.8886 29.6898 25.8886 29.0525 25.8886 27.7778V21Z" fill="#C11A1D"/>
</svg>
