<svg width="41" height="40" viewBox="0 0 41 40" fill="none" xmlns="http://www.w3.org/2000/svg">
<g clip-path="url(#clip0_235_540)">
<path d="M26.3541 16.7458V28.8136C26.3541 31.7966 23.9134 34.2373 20.9304 34.2373H19.5745V36.2712C19.5745 36.6102 19.3033 36.9491 18.8965 36.9491H15.5067H12.1168C11.7778 36.9491 11.4389 36.6101 11.4389 36.2712V34.2373H10.0829C7.09986 34.2373 4.65918 31.7966 4.65918 28.8136V17.2882C4.65918 17.2882 11.4388 15.9322 14.8287 17.2882C19.3033 19.1187 26.3541 16.7458 26.3541 16.7458Z" fill="#C11A1D"/>
<path d="M35.8456 1.69482V39.6609H33.1338V1.69482C33.1338 1.69482 33.1338 0.338867 34.4897 0.338867C35.8456 0.338947 35.8456 1.69482 35.8456 1.69482Z" fill="#AAB1BA"/>
<path d="M26.3541 7.11857V16.7457C26.3541 16.7457 19.3032 19.1186 14.8287 17.2881C11.4388 15.9321 4.65918 17.2881 4.65918 17.2881V7.11857C4.65918 5.62708 5.87952 4.40674 7.37102 4.40674H15.5067H23.6423C25.1338 4.40674 26.3541 5.62708 26.3541 7.11857Z" fill="#ECF4F7"/>
<mask id="path-4-inside-1_235_540" fill="white">
<path d="M35.8458 40C35.6424 40 35.5068 39.8644 35.5068 39.661V1.69489C35.5068 1.55927 35.439 0.677939 34.4898 0.677939C33.5407 0.677939 33.4729 1.55927 33.4729 1.69489V39.661C33.4729 39.8644 33.3373 40 33.1339 40C32.9305 40 32.7949 39.8644 32.7949 39.661V2.0339H15.8458V4.06779H23.6424C25.3373 4.06779 26.6933 5.42375 26.6933 7.11864V28.8136C26.6933 32 24.117 34.5762 20.9306 34.5762H19.9136V36.2711C19.9136 36.8135 19.4391 37.2881 18.8967 37.2881H15.8458V39.661C15.8458 39.8644 15.7102 40 15.5068 40C15.3034 40 15.1678 39.8644 15.1678 39.661V37.2881H12.117C11.5746 37.2881 11.1 36.8135 11.1 36.2711V34.5762H10.0831C6.89661 34.5762 4.32039 32 4.32039 28.8136V17.2881C4.32039 17.1525 4.45601 17.017 4.59155 16.9491C4.86271 16.8813 11.5068 15.5932 14.9644 16.9491C18.2187 18.2372 23.5068 16.9491 23.5746 16.9491C23.778 16.8813 23.9136 17.0169 23.9813 17.2203C24.0491 17.4237 23.9136 17.5593 23.7102 17.6271C23.5068 17.6948 18.1509 18.983 14.6933 17.6271C11.8458 16.4745 6.28652 17.3559 4.99833 17.6271V28.8135C4.99833 31.5932 7.30339 33.8982 10.0831 33.8982H11.439C11.6424 33.8982 11.778 34.0338 11.778 34.2372V36.2711C11.778 36.4745 11.9137 36.6101 12.1171 36.6101H18.8967C19.1001 36.6101 19.2357 36.4745 19.2357 36.2711V34.2372C19.2357 34.0338 19.3713 33.8982 19.5747 33.8982H20.9307C23.7103 33.8982 26.0154 31.5932 26.0154 28.8135V7.11864C26.0154 5.83053 24.9307 4.74573 23.6425 4.74573H7.37124C6.08313 4.74573 4.99833 5.83045 4.99833 7.11864V14.5763C4.99833 14.7797 4.86271 14.9153 4.65932 14.9153C4.45593 14.9153 4.32031 14.7797 4.32031 14.5763V7.11864C4.32031 5.42375 5.67627 4.06779 7.37116 4.06779H15.1677V1.69489C15.1677 1.4915 15.3034 1.35588 15.5067 1.35588H32.8626C32.9983 0.745789 33.4051 0 34.4898 0C35.8458 0 36.1848 1.08472 36.1848 1.69489V39.661C36.1848 39.8644 36.0492 40 35.8458 40ZM11.439 29.1525H7.37124C7.16785 29.1525 7.03223 29.0169 7.03223 28.8135C7.03223 28.6101 7.16785 28.4746 7.37124 28.4746H11.439C11.6424 28.4746 11.778 28.6102 11.778 28.8136C11.778 29.017 11.6424 29.1525 11.439 29.1525ZM8.7272 25.0847H7.37124C7.16785 25.0847 7.03223 24.9491 7.03223 24.7457C7.03223 24.5423 7.16785 24.4067 7.37124 24.4067H8.7272C8.93058 24.4067 9.0662 24.5423 9.0662 24.7457C9.06613 24.9492 8.93058 25.0847 8.7272 25.0847ZM8.7272 21.0169H7.37124C7.16785 21.0169 7.03223 20.8813 7.03223 20.6779C7.03223 20.4745 7.16785 20.3389 7.37124 20.3389H8.7272C8.93058 20.3389 9.0662 20.4745 9.0662 20.6779C9.06613 20.8814 8.93058 21.0169 8.7272 21.0169ZM11.439 12.8813H7.37124C7.16785 12.8813 7.03223 12.7457 7.03223 12.5423C7.03223 12.3389 7.16785 12.2033 7.37124 12.2033H11.439C11.6424 12.2033 11.778 12.3389 11.778 12.5423C11.778 12.7458 11.6424 12.8813 11.439 12.8813ZM8.7272 8.81353H7.37124C7.16785 8.81353 7.03223 8.67791 7.03223 8.47452C7.03223 8.27113 7.16785 8.13559 7.37124 8.13559H8.7272C8.93058 8.13559 9.0662 8.27121 9.0662 8.4746C9.0662 8.67799 8.93058 8.81353 8.7272 8.81353Z"/>
</mask>
<path d="M35.8458 40C35.6424 40 35.5068 39.8644 35.5068 39.661V1.69489C35.5068 1.55927 35.439 0.677939 34.4898 0.677939C33.5407 0.677939 33.4729 1.55927 33.4729 1.69489V39.661C33.4729 39.8644 33.3373 40 33.1339 40C32.9305 40 32.7949 39.8644 32.7949 39.661V2.0339H15.8458V4.06779H23.6424C25.3373 4.06779 26.6933 5.42375 26.6933 7.11864V28.8136C26.6933 32 24.117 34.5762 20.9306 34.5762H19.9136V36.2711C19.9136 36.8135 19.4391 37.2881 18.8967 37.2881H15.8458V39.661C15.8458 39.8644 15.7102 40 15.5068 40C15.3034 40 15.1678 39.8644 15.1678 39.661V37.2881H12.117C11.5746 37.2881 11.1 36.8135 11.1 36.2711V34.5762H10.0831C6.89661 34.5762 4.32039 32 4.32039 28.8136V17.2881C4.32039 17.1525 4.45601 17.017 4.59155 16.9491C4.86271 16.8813 11.5068 15.5932 14.9644 16.9491C18.2187 18.2372 23.5068 16.9491 23.5746 16.9491C23.778 16.8813 23.9136 17.0169 23.9813 17.2203C24.0491 17.4237 23.9136 17.5593 23.7102 17.6271C23.5068 17.6948 18.1509 18.983 14.6933 17.6271C11.8458 16.4745 6.28652 17.3559 4.99833 17.6271V28.8135C4.99833 31.5932 7.30339 33.8982 10.0831 33.8982H11.439C11.6424 33.8982 11.778 34.0338 11.778 34.2372V36.2711C11.778 36.4745 11.9137 36.6101 12.1171 36.6101H18.8967C19.1001 36.6101 19.2357 36.4745 19.2357 36.2711V34.2372C19.2357 34.0338 19.3713 33.8982 19.5747 33.8982H20.9307C23.7103 33.8982 26.0154 31.5932 26.0154 28.8135V7.11864C26.0154 5.83053 24.9307 4.74573 23.6425 4.74573H7.37124C6.08313 4.74573 4.99833 5.83045 4.99833 7.11864V14.5763C4.99833 14.7797 4.86271 14.9153 4.65932 14.9153C4.45593 14.9153 4.32031 14.7797 4.32031 14.5763V7.11864C4.32031 5.42375 5.67627 4.06779 7.37116 4.06779H15.1677V1.69489C15.1677 1.4915 15.3034 1.35588 15.5067 1.35588H32.8626C32.9983 0.745789 33.4051 0 34.4898 0C35.8458 0 36.1848 1.08472 36.1848 1.69489V39.661C36.1848 39.8644 36.0492 40 35.8458 40ZM11.439 29.1525H7.37124C7.16785 29.1525 7.03223 29.0169 7.03223 28.8135C7.03223 28.6101 7.16785 28.4746 7.37124 28.4746H11.439C11.6424 28.4746 11.778 28.6102 11.778 28.8136C11.778 29.017 11.6424 29.1525 11.439 29.1525ZM8.7272 25.0847H7.37124C7.16785 25.0847 7.03223 24.9491 7.03223 24.7457C7.03223 24.5423 7.16785 24.4067 7.37124 24.4067H8.7272C8.93058 24.4067 9.0662 24.5423 9.0662 24.7457C9.06613 24.9492 8.93058 25.0847 8.7272 25.0847ZM8.7272 21.0169H7.37124C7.16785 21.0169 7.03223 20.8813 7.03223 20.6779C7.03223 20.4745 7.16785 20.3389 7.37124 20.3389H8.7272C8.93058 20.3389 9.0662 20.4745 9.0662 20.6779C9.06613 20.8814 8.93058 21.0169 8.7272 21.0169ZM11.439 12.8813H7.37124C7.16785 12.8813 7.03223 12.7457 7.03223 12.5423C7.03223 12.3389 7.16785 12.2033 7.37124 12.2033H11.439C11.6424 12.2033 11.778 12.3389 11.778 12.5423C11.778 12.7458 11.6424 12.8813 11.439 12.8813ZM8.7272 8.81353H7.37124C7.16785 8.81353 7.03223 8.67791 7.03223 8.47452C7.03223 8.27113 7.16785 8.13559 7.37124 8.13559H8.7272C8.93058 8.13559 9.0662 8.27121 9.0662 8.4746C9.0662 8.67799 8.93058 8.81353 8.7272 8.81353Z" fill="#51565F"/>
<path d="M32.7949 2.0339H33.7949V1.0339H32.7949V2.0339ZM15.8458 2.0339V1.0339H14.8458V2.0339H15.8458ZM15.8458 4.06779H14.8458V5.06779H15.8458V4.06779ZM19.9136 34.5762V33.5762H18.9136V34.5762H19.9136ZM15.8458 37.2881V36.2881H14.8458V37.2881H15.8458ZM15.1678 37.2881H16.1678V36.2881H15.1678V37.2881ZM11.1 34.5762H12.1V33.5762H11.1V34.5762ZM4.59155 16.9491L4.34908 15.979L4.24232 16.0056L4.14392 16.0549L4.59155 16.9491ZM14.9644 16.9491L15.3325 16.0193L15.3295 16.0181L14.9644 16.9491ZM23.5746 16.9491V17.9491H23.7368L23.8907 17.8978L23.5746 16.9491ZM14.6933 17.6271L14.318 18.5541L14.3282 18.558L14.6933 17.6271ZM4.99833 17.6271L4.79235 16.6485L3.99833 16.8156V17.6271H4.99833ZM15.1677 4.06779V5.06779H16.1677V4.06779H15.1677ZM32.8626 1.35588V2.35588H33.6647L33.8388 1.573L32.8626 1.35588ZM9.0662 24.7457L10.0662 24.7461V24.7457H9.0662ZM9.0662 20.6779L10.0662 20.6783V20.6779H9.0662ZM35.8458 39C35.9714 39 36.1537 39.0462 36.3071 39.1997C36.4605 39.3531 36.5068 39.5354 36.5068 39.661H34.5068C34.5068 39.99 34.6208 40.3418 34.8929 40.6139C35.165 40.8859 35.5168 41 35.8458 41V39ZM36.5068 39.661V1.69489H34.5068V39.661H36.5068ZM36.5068 1.69489C36.5068 1.53541 36.4777 1.08607 36.2225 0.639422C35.9237 0.116435 35.3521 -0.322061 34.4898 -0.322061V1.67794C34.5308 1.67794 34.5496 1.68263 34.5518 1.68322C34.5532 1.68357 34.5514 1.68318 34.5472 1.68141C34.543 1.67963 34.5373 1.67689 34.5309 1.67297C34.5244 1.66906 34.5181 1.66455 34.512 1.65961C34.5061 1.6547 34.501 1.64987 34.497 1.6455C34.4889 1.63681 34.4857 1.63122 34.486 1.63169C34.4864 1.63243 34.4892 1.63747 34.4928 1.64767C34.4964 1.65782 34.4997 1.66984 34.5024 1.68271C34.505 1.69551 34.5064 1.70595 34.507 1.71173C34.5073 1.71446 34.5073 1.71515 34.5072 1.71341C34.5071 1.71221 34.5068 1.70602 34.5068 1.69489H36.5068ZM34.4898 -0.322061C33.6276 -0.322061 33.056 0.116435 32.7572 0.639419C32.502 1.08606 32.4729 1.53541 32.4729 1.69489H34.4729C34.4729 1.70602 34.4726 1.71221 34.4725 1.71341C34.4724 1.71515 34.4724 1.71447 34.4727 1.71174C34.4733 1.70595 34.4746 1.69552 34.4773 1.68271C34.48 1.66985 34.4833 1.65783 34.4869 1.64767C34.4905 1.63747 34.4932 1.63243 34.4937 1.63169C34.4939 1.63122 34.4908 1.63682 34.4827 1.64551C34.4787 1.64987 34.4736 1.6547 34.4676 1.65961C34.4616 1.66455 34.4552 1.66907 34.4488 1.67297C34.4423 1.67689 34.4367 1.67963 34.4325 1.68141C34.4283 1.68318 34.4265 1.68357 34.4278 1.68322C34.4301 1.68263 34.4489 1.67794 34.4898 1.67794V-0.322061ZM32.4729 1.69489V39.661H34.4729V1.69489H32.4729ZM32.4729 39.661C32.4729 39.5354 32.5191 39.3531 32.6725 39.1997C32.826 39.0462 33.0083 39 33.1339 39V41C33.4629 41 33.8147 40.8859 34.0868 40.6139C34.3588 40.3418 34.4729 39.99 34.4729 39.661H32.4729ZM33.1339 39C33.2595 39 33.4418 39.0462 33.5952 39.1997C33.7486 39.3531 33.7949 39.5354 33.7949 39.661H31.7949C31.7949 39.99 31.9089 40.3418 32.181 40.6139C32.4531 40.8859 32.8049 41 33.1339 41V39ZM33.7949 39.661V2.0339H31.7949V39.661H33.7949ZM32.7949 1.0339H15.8458V3.0339H32.7949V1.0339ZM14.8458 2.0339V4.06779H16.8458V2.0339H14.8458ZM15.8458 5.06779H23.6424V3.06779H15.8458V5.06779ZM23.6424 5.06779C24.785 5.06779 25.6933 5.97604 25.6933 7.11864H27.6933C27.6933 4.87147 25.8896 3.06779 23.6424 3.06779V5.06779ZM25.6933 7.11864V28.8136H27.6933V7.11864H25.6933ZM25.6933 28.8136C25.6933 31.4477 23.5647 33.5762 20.9306 33.5762V35.5762C24.6692 35.5762 27.6933 32.5523 27.6933 28.8136H25.6933ZM20.9306 33.5762H19.9136V35.5762H20.9306V33.5762ZM18.9136 34.5762V36.2711H20.9136V34.5762H18.9136ZM18.9136 36.2711C18.9136 36.2599 18.9162 36.255 18.9152 36.2572C18.9147 36.2584 18.9134 36.261 18.9109 36.2646C18.9085 36.2681 18.9053 36.272 18.9014 36.2759C18.8976 36.2798 18.8937 36.2829 18.8901 36.2854C18.8866 36.2878 18.884 36.2891 18.8828 36.2897C18.8805 36.2906 18.8855 36.2881 18.8967 36.2881V38.2881C19.9914 38.2881 20.9136 37.3658 20.9136 36.2711H18.9136ZM18.8967 36.2881H15.8458V38.2881H18.8967V36.2881ZM14.8458 37.2881V39.661H16.8458V37.2881H14.8458ZM14.8458 39.661C14.8458 39.5354 14.8921 39.3531 15.0455 39.1997C15.1989 39.0462 15.3812 39 15.5068 39V41C15.8358 41 16.1876 40.8859 16.4597 40.6139C16.7318 40.3418 16.8458 39.99 16.8458 39.661H14.8458ZM15.5068 39C15.6324 39 15.8147 39.0462 15.9682 39.1997C16.1216 39.3531 16.1678 39.5354 16.1678 39.661H14.1678C14.1678 39.99 14.2819 40.3418 14.5539 40.6139C14.826 40.8859 15.1778 41 15.5068 41V39ZM16.1678 39.661V37.2881H14.1678V39.661H16.1678ZM15.1678 36.2881H12.117V38.2881H15.1678V36.2881ZM12.117 36.2881C12.1282 36.2881 12.1331 36.2906 12.1309 36.2897C12.1297 36.2891 12.1271 36.2878 12.1235 36.2854C12.12 36.2829 12.1161 36.2798 12.1122 36.2759C12.1084 36.272 12.1052 36.2681 12.1027 36.2646C12.1003 36.261 12.099 36.2584 12.0984 36.2572C12.0975 36.255 12.1 36.2599 12.1 36.2711H10.1C10.1 37.3658 11.0223 38.2881 12.117 38.2881V36.2881ZM12.1 36.2711V34.5762H10.1V36.2711H12.1ZM11.1 33.5762H10.0831V35.5762H11.1V33.5762ZM10.0831 33.5762C7.4489 33.5762 5.32039 31.4477 5.32039 28.8136H3.32039C3.32039 32.5522 6.34431 35.5762 10.0831 35.5762V33.5762ZM5.32039 28.8136V17.2881H3.32039V28.8136H5.32039ZM5.32039 17.2881C5.32039 17.549 5.19816 17.7046 5.16438 17.744C5.12088 17.7948 5.07937 17.8232 5.03918 17.8433L4.14392 16.0549C3.96819 16.1429 3.7911 16.273 3.6459 16.4424C3.51044 16.6004 3.32039 16.8917 3.32039 17.2881H5.32039ZM4.83402 17.9193C4.83143 17.9199 4.93324 17.8978 5.15255 17.8578C5.35773 17.8205 5.64355 17.7715 5.99133 17.7184C6.68775 17.6121 7.62592 17.4905 8.65855 17.4124C10.7774 17.252 13.1003 17.2922 14.5993 17.8801L15.3295 16.0181C13.3709 15.25 10.643 15.2564 8.50758 15.4181C6.3365 15.5824 4.5503 15.9287 4.34908 15.979L4.83402 17.9193ZM14.5964 17.8789C16.4537 18.6141 18.7886 18.5918 20.5567 18.4279C21.4615 18.344 22.2602 18.2185 22.8363 18.1143C23.125 18.062 23.3586 18.015 23.522 17.981C23.6026 17.9643 23.6683 17.9503 23.7088 17.9417C23.7309 17.9371 23.7423 17.9347 23.7476 17.9337C23.751 17.933 23.7459 17.9341 23.7367 17.9356C23.7324 17.9364 23.7205 17.9384 23.7044 17.9405C23.7021 17.9409 23.6459 17.9491 23.5746 17.9491V15.9491C23.5021 15.9491 23.4443 15.9575 23.4396 15.9582C23.4213 15.9606 23.4063 15.9631 23.3985 15.9644C23.3822 15.9672 23.3674 15.9701 23.3586 15.9719C23.3398 15.9756 23.3173 15.9803 23.2961 15.9848C23.2501 15.9945 23.192 16.0069 23.1152 16.0229C22.9638 16.0543 22.7477 16.0978 22.4802 16.1462C21.9441 16.2432 21.2046 16.3593 20.3721 16.4364C18.6657 16.5946 16.7294 16.5723 15.3325 16.0193L14.5964 17.8789ZM23.8907 17.8978C23.8128 17.9238 23.6998 17.9433 23.5661 17.9232C23.4308 17.9029 23.3159 17.8483 23.2289 17.7831C23.0723 17.6656 23.0334 17.5388 23.0326 17.5364L24.9301 16.9042C24.8615 16.6984 24.721 16.4021 24.4287 16.1829C24.0841 15.9246 23.654 15.8686 23.2584 16.0004L23.8907 17.8978ZM23.0326 17.5364C23.0067 17.4585 22.9872 17.3456 23.0072 17.2118C23.0275 17.0765 23.0821 16.9617 23.1474 16.8746C23.2648 16.718 23.3917 16.6791 23.3941 16.6783L24.0263 18.5758C24.2321 18.5072 24.5284 18.3667 24.7475 18.0744C25.0059 17.7298 25.0619 17.2997 24.9301 16.9042L23.0326 17.5364ZM23.3941 16.6783C23.4167 16.6708 23.1072 16.7534 22.5183 16.8633C21.9578 16.9679 21.1932 17.0878 20.3328 17.1649C18.576 17.3224 16.5643 17.2867 15.0584 16.6961L14.3282 18.558C16.2798 19.3234 18.6749 19.3215 20.5113 19.157C22.3545 18.9918 23.8267 18.6423 24.0263 18.5758L23.3941 16.6783ZM15.0685 16.7001C13.4213 16.0334 11.1226 15.9839 9.20339 16.0948C7.24138 16.2082 5.47975 16.5038 4.79235 16.6485L5.20431 18.6056C5.8051 18.4791 7.46721 18.1985 9.31876 18.0915C11.2131 17.982 13.1178 18.0682 14.3181 18.554L15.0685 16.7001ZM3.99833 17.6271V28.8135H5.99833V17.6271H3.99833ZM3.99833 28.8135C3.99833 32.1455 6.7511 34.8982 10.0831 34.8982V32.8982C7.85567 32.8982 5.99833 31.0409 5.99833 28.8135H3.99833ZM10.0831 34.8982H11.439V32.8982H10.0831V34.8982ZM11.439 34.8982C11.3134 34.8982 11.1311 34.852 10.9777 34.6986C10.8243 34.5451 10.778 34.3628 10.778 34.2372H12.778C12.778 33.9082 12.664 33.5564 12.3919 33.2844C12.1198 33.0123 11.768 32.8982 11.439 32.8982V34.8982ZM10.778 34.2372V36.2711H12.778V34.2372H10.778ZM10.778 36.2711C10.778 36.6001 10.8921 36.9519 11.1642 37.224C11.4362 37.4961 11.7881 37.6101 12.1171 37.6101V35.6101C12.2427 35.6101 12.425 35.6564 12.5784 35.8098C12.7318 35.9632 12.778 36.1455 12.778 36.2711H10.778ZM12.1171 37.6101H18.8967V35.6101H12.1171V37.6101ZM18.8967 37.6101C19.2257 37.6101 19.5775 37.4961 19.8496 37.224C20.1216 36.9519 20.2357 36.6001 20.2357 36.2711H18.2357C18.2357 36.1455 18.2819 35.9632 18.4354 35.8098C18.5888 35.6564 18.7711 35.6101 18.8967 35.6101V37.6101ZM20.2357 36.2711V34.2372H18.2357V36.2711H20.2357ZM20.2357 34.2372C20.2357 34.3628 20.1895 34.5451 20.036 34.6986C19.8826 34.852 19.7003 34.8982 19.5747 34.8982V32.8982C19.2457 32.8982 18.8939 33.0123 18.6218 33.2844C18.3497 33.5564 18.2357 33.9082 18.2357 34.2372H20.2357ZM19.5747 34.8982H20.9307V32.8982H19.5747V34.8982ZM20.9307 34.8982C24.2626 34.8982 27.0154 32.1455 27.0154 28.8135H25.0154C25.0154 31.0409 23.1581 32.8982 20.9307 32.8982V34.8982ZM27.0154 28.8135V7.11864H25.0154V28.8135H27.0154ZM27.0154 7.11864C27.0154 5.27827 25.483 3.74573 23.6425 3.74573V5.74573C24.3784 5.74573 25.0154 6.38279 25.0154 7.11864H27.0154ZM23.6425 3.74573H7.37124V5.74573H23.6425V3.74573ZM7.37124 3.74573C5.53087 3.74573 3.99833 5.27814 3.99833 7.11864H5.99833C5.99833 6.38276 6.63539 5.74573 7.37124 5.74573V3.74573ZM3.99833 7.11864V14.5763H5.99833V7.11864H3.99833ZM3.99833 14.5763C3.99833 14.4507 4.04457 14.2684 4.19799 14.115C4.35141 13.9615 4.53372 13.9153 4.65932 13.9153V15.9153C4.98831 15.9153 5.34013 15.8012 5.6122 15.5292C5.88428 15.2571 5.99833 14.9053 5.99833 14.5763H3.99833ZM4.65932 13.9153C4.78492 13.9153 4.96723 13.9615 5.12065 14.115C5.27407 14.2684 5.32031 14.4507 5.32031 14.5763H3.32031C3.32031 14.9053 3.43436 15.2571 3.70644 15.5292C3.97852 15.8012 4.33033 15.9153 4.65932 15.9153V13.9153ZM5.32031 14.5763V7.11864H3.32031V14.5763H5.32031ZM5.32031 7.11864C5.32031 5.97604 6.22855 5.06779 7.37116 5.06779V3.06779C5.12399 3.06779 3.32031 4.87147 3.32031 7.11864H5.32031ZM7.37116 5.06779H15.1677V3.06779H7.37116V5.06779ZM16.1677 4.06779V1.69489H14.1677V4.06779H16.1677ZM16.1677 1.69489C16.1677 1.82049 16.1215 2.0028 15.9681 2.15622C15.8147 2.30964 15.6323 2.35588 15.5067 2.35588V0.355878C15.1778 0.355878 14.8259 0.469928 14.5539 0.742005C14.2818 1.01408 14.1677 1.3659 14.1677 1.69489H16.1677ZM15.5067 2.35588H32.8626V0.355878H15.5067V2.35588ZM33.8388 1.573C33.8827 1.37543 33.9565 1.2298 34.0389 1.1446C34.0949 1.08682 34.2037 1 34.4898 1V-1C33.6912 -1 33.0544 -0.713925 32.6018 -0.246285C32.1757 0.193923 31.9783 0.726234 31.8865 1.13876L33.8388 1.573ZM34.4898 1C34.6926 1 34.8119 1.03966 34.8795 1.07346C34.9468 1.10708 34.9969 1.15188 35.0388 1.20916C35.1362 1.34223 35.1848 1.54178 35.1848 1.69489H37.1848C37.1848 1.23782 37.0639 0.589934 36.6528 0.0280986C36.2051 -0.583806 35.4778 -1 34.4898 -1V1ZM35.1848 1.69489V39.661H37.1848V1.69489H35.1848ZM35.1848 39.661C35.1848 39.5354 35.231 39.3531 35.3845 39.1997C35.5379 39.0462 35.7202 39 35.8458 39V41C36.1748 41 36.5266 40.8859 36.7987 40.6139C37.0708 40.3418 37.1848 39.99 37.1848 39.661H35.1848ZM11.439 28.1525H7.37124V30.1525H11.439V28.1525ZM7.37124 28.1525C7.49685 28.1525 7.67916 28.1987 7.83257 28.3522C7.98599 28.5056 8.03223 28.6879 8.03223 28.8135H6.03223C6.03223 29.1425 6.14628 29.4943 6.41835 29.7664C6.69043 30.0384 7.04224 30.1525 7.37124 30.1525V28.1525ZM8.03223 28.8135C8.03223 28.9391 7.98597 29.1215 7.83245 29.275C7.67896 29.4284 7.49667 29.4746 7.37124 29.4746V27.4746C7.04242 27.4746 6.69062 27.5885 6.41848 27.8605C6.1463 28.1326 6.03223 28.4845 6.03223 28.8135H8.03223ZM7.37124 29.4746H11.439V27.4746H7.37124V29.4746ZM11.439 29.4746C11.3134 29.4746 11.1311 29.4283 10.9777 29.2749C10.8243 29.1215 10.778 28.9392 10.778 28.8136H12.778C12.778 28.4846 12.664 28.1328 12.3919 27.8607C12.1198 27.5886 11.768 27.4746 11.439 27.4746V29.4746ZM10.778 28.8136C10.778 28.6879 10.8243 28.5055 10.9778 28.3521C11.1313 28.1986 11.3136 28.1525 11.439 28.1525V30.1525C11.7679 30.1525 12.1197 30.0386 12.3918 29.7665C12.664 29.4944 12.778 29.1426 12.778 28.8136H10.778ZM8.7272 24.0847H7.37124V26.0847H8.7272V24.0847ZM7.37124 24.0847C7.49684 24.0847 7.67915 24.1309 7.83257 24.2844C7.98599 24.4378 8.03223 24.6201 8.03223 24.7457H6.03223C6.03223 25.0747 6.14628 25.4265 6.41835 25.6986C6.69043 25.9706 7.04224 26.0847 7.37124 26.0847V24.0847ZM8.03223 24.7457C8.03223 24.8713 7.98599 25.0536 7.83257 25.207C7.67915 25.3604 7.49684 25.4067 7.37124 25.4067V23.4067C7.04225 23.4067 6.69043 23.5207 6.41836 23.7928C6.14628 24.0649 6.03223 24.4167 6.03223 24.7457H8.03223ZM7.37124 25.4067H8.7272V23.4067H7.37124V25.4067ZM8.7272 25.4067C8.60159 25.4067 8.41929 25.3604 8.26587 25.207C8.11244 25.0536 8.0662 24.8713 8.0662 24.7457H10.0662C10.0662 24.4167 9.95215 24.0649 9.68008 23.7928C9.408 23.5207 9.05619 23.4067 8.7272 23.4067V25.4067ZM8.0662 24.7453C8.06625 24.6201 8.11236 24.4379 8.26583 24.2844C8.41934 24.1309 8.60171 24.0847 8.7272 24.0847V26.0847C9.05607 26.0847 9.40791 25.9707 9.68005 25.6986C9.95216 25.4265 10.0661 25.0748 10.0662 24.7461L8.0662 24.7453ZM8.7272 20.0169H7.37124V22.0169H8.7272V20.0169ZM7.37124 20.0169C7.49684 20.0169 7.67915 20.0631 7.83257 20.2166C7.98599 20.37 8.03223 20.5523 8.03223 20.6779H6.03223C6.03223 21.0069 6.14628 21.3587 6.41835 21.6308C6.69043 21.9029 7.04224 22.0169 7.37124 22.0169V20.0169ZM8.03223 20.6779C8.03223 20.8035 7.98599 20.9858 7.83257 21.1392C7.67915 21.2927 7.49684 21.3389 7.37124 21.3389V19.3389C7.04225 19.3389 6.69043 19.4529 6.41836 19.725C6.14628 19.9971 6.03223 20.3489 6.03223 20.6779H8.03223ZM7.37124 21.3389H8.7272V19.3389H7.37124V21.3389ZM8.7272 21.3389C8.60159 21.3389 8.41929 21.2927 8.26587 21.1392C8.11244 20.9858 8.0662 20.8035 8.0662 20.6779H10.0662C10.0662 20.3489 9.95215 19.9971 9.68008 19.725C9.408 19.4529 9.05619 19.3389 8.7272 19.3389V21.3389ZM8.0662 20.6775C8.06625 20.5523 8.11236 20.3701 8.26583 20.2166C8.41934 20.0631 8.60171 20.0169 8.7272 20.0169V22.0169C9.05607 22.0169 9.40791 21.903 9.68005 21.6308C9.95216 21.3587 10.0661 21.007 10.0662 20.6783L8.0662 20.6775ZM11.439 11.8813H7.37124V13.8813H11.439V11.8813ZM7.37124 11.8813C7.49684 11.8813 7.67915 11.9276 7.83257 12.081C7.98599 12.2344 8.03223 12.4167 8.03223 12.5423H6.03223C6.03223 12.8713 6.14628 13.2231 6.41835 13.4952C6.69043 13.7673 7.04225 13.8813 7.37124 13.8813V11.8813ZM8.03223 12.5423C8.03223 12.6679 7.98599 12.8502 7.83257 13.0036C7.67915 13.1571 7.49684 13.2033 7.37124 13.2033V11.2033C7.04225 11.2033 6.69043 11.3174 6.41835 11.5894C6.14628 11.8615 6.03223 12.2133 6.03223 12.5423H8.03223ZM7.37124 13.2033H11.439V11.2033H7.37124V13.2033ZM11.439 13.2033C11.3134 13.2033 11.1311 13.1571 10.9777 13.0036C10.8243 12.8502 10.778 12.6679 10.778 12.5423H12.778C12.778 12.2133 12.664 11.8615 12.3919 11.5894C12.1198 11.3174 11.768 11.2033 11.439 11.2033V13.2033ZM10.778 12.5423C10.778 12.4168 10.8242 12.2345 10.9778 12.081C11.1313 11.9275 11.3136 11.8813 11.439 11.8813V13.8813C11.7679 13.8813 12.1197 13.7674 12.3919 13.4953C12.664 13.2231 12.778 12.8713 12.778 12.5423H10.778ZM8.7272 7.81353H7.37124V9.81353H8.7272V7.81353ZM7.37124 7.81353C7.49684 7.81353 7.67915 7.85977 7.83257 8.01319C7.98599 8.16661 8.03223 8.34891 8.03223 8.47452H6.03223C6.03223 8.80351 6.14628 9.15532 6.41835 9.4274C6.69043 9.69948 7.04225 9.81353 7.37124 9.81353V7.81353ZM8.03223 8.47452C8.03223 8.60014 7.98597 8.78254 7.83245 8.93601C7.67896 9.08944 7.49667 9.13559 7.37124 9.13559V7.13559C7.04242 7.13559 6.69062 7.24951 6.41847 7.52155C6.1463 7.79364 6.03223 8.1455 6.03223 8.47452H8.03223ZM7.37124 9.13559H8.7272V7.13559H7.37124V9.13559ZM8.7272 9.13559C8.60159 9.13559 8.41928 9.08935 8.26586 8.93593C8.11244 8.78251 8.0662 8.6002 8.0662 8.4746H10.0662C10.0662 8.14561 9.95216 7.79379 9.68008 7.52171C9.408 7.24964 9.05619 7.13559 8.7272 7.13559V9.13559ZM8.0662 8.4746C8.0662 8.34897 8.11246 8.16658 8.26598 8.01311C8.41947 7.85967 8.60176 7.81353 8.7272 7.81353V9.81353C9.05602 9.81353 9.40782 9.69961 9.67996 9.42756C9.95214 9.15547 10.0662 8.80361 10.0662 8.4746H8.0662Z" fill="black" mask="url(#path-4-inside-1_235_540)"/>
</g>
<defs>
<clipPath id="clip0_235_540">
<rect width="40" height="40" fill="white" transform="translate(0.25293)"/>
</clipPath>
</defs>
</svg>
