<svg width="40" height="40" viewBox="0 0 40 40" fill="none" xmlns="http://www.w3.org/2000/svg">
<g clip-path="url(#clip0_235_449)">
<path d="M21.3247 17.7677L21.3279 17.7677C24.8866 17.745 27.7841 20.6379 27.7841 24.2271L27.7841 24.2303C27.8068 27.789 24.914 30.6864 21.3247 30.6864L21.3215 30.6865C17.7629 30.7092 14.8654 27.8163 14.8654 24.2271L14.8654 24.2239C14.8427 20.6652 17.7355 17.7677 21.3247 17.7677ZM21.3247 29.9303L21.3276 29.9303C24.453 29.9124 26.9847 27.3786 27.0116 24.2477L27.0116 24.2477V24.2434C27.0116 21.092 24.4761 18.5566 21.3247 18.5566C18.1734 18.5566 15.6379 21.092 15.6379 24.2434C15.6379 27.3948 18.1734 29.9303 21.3247 29.9303Z" fill="#C11A1D" stroke="black"/>
<path d="M15.2277 0.852109C15.3784 1.06454 15.5681 1.3345 15.7904 1.65611C16.3926 2.52701 17.2339 3.77608 18.1889 5.28659C19.9383 8.05362 22.0634 11.6887 23.7997 15.4785C20.7369 14.6189 17.3067 15.3914 14.8936 17.8045C11.3412 21.3569 11.3412 27.1217 14.8936 30.6742C17.4502 33.2308 21.1369 33.9451 24.3366 32.8285L25.2186 33.8334C23.143 37.2361 19.5105 39.5 15.2308 39.5C8.70399 39.5 3.41309 34.2932 3.41309 27.8456C3.41309 22.2716 6.43191 15.4092 9.50885 9.88069C11.0401 7.12948 12.5719 4.7323 13.7211 3.02286C14.2956 2.16837 14.774 1.48634 15.1083 1.01852C15.1504 0.959627 15.1902 0.904127 15.2277 0.852109Z" fill="#C11A1D" stroke="black"/>
<path d="M18.4332 24.0064C18.9151 24.0227 19.2255 23.5898 19.2255 23.214C19.5114 22.9608 19.5441 22.5197 19.3562 22.2012C19.103 21.8173 18.6292 21.7274 18.2453 21.9806C17.8043 22.2665 17.5755 22.8383 17.6409 23.3447C17.7062 23.7205 18.0575 23.99 18.4332 24.0064Z" fill="#C11A1D"/>
<path d="M20.8748 20.2901C20.589 20.3881 20.3031 20.478 20.0172 20.6414C19.6333 20.8619 19.5107 21.3683 19.7313 21.7522C19.9927 22.1198 20.4419 22.2505 20.8422 22.0055C20.981 21.9238 21.1281 21.8503 21.2833 21.8176C21.6998 21.6869 21.9531 21.2458 21.855 20.8374C21.7652 20.4208 21.3241 20.1921 20.8748 20.2901Z" fill="#C11A1D"/>
<path d="M22.909 22.1933C22.9416 22.1933 23.007 22.2259 23.007 22.2586C23.4154 22.6588 23.9545 22.5118 24.1506 22.2913C24.4691 22.0054 24.5018 21.499 24.2159 21.1477C23.9627 20.8618 23.6114 20.674 23.2357 20.6086C22.7946 20.5106 22.378 20.7965 22.28 21.2457C22.182 21.695 22.4679 22.0952 22.909 22.1933Z" fill="#C11A1D"/>
<path d="M23.8645 22.9854C23.4479 23.1732 23.2927 23.6552 23.5133 24.0636C23.5459 24.1289 23.5459 24.1943 23.5459 24.2514C23.5459 24.6925 23.9299 25.0438 24.3383 25.0438C24.7794 25.0438 25.1306 24.6599 25.1306 24.2188C25.1306 23.9329 25.0326 23.6143 24.9101 23.3611C24.7549 22.9527 24.2403 22.7975 23.8645 22.9854Z" fill="#C11A1D"/>
<path d="M20.655 26.8247C20.4017 26.4735 19.9607 26.3837 19.5767 26.6042C19.1928 26.8247 19.0703 27.3312 19.2909 27.7151C19.5114 28.0663 19.9525 28.4094 20.4671 28.4094C20.851 28.4094 21.1941 28.1235 21.2594 27.7396C21.3248 27.3393 21.0715 26.9228 20.655 26.8247Z" fill="#C11A1D"/>
<path d="M22.2147 25.3382C22.1493 25.0523 21.9615 24.8317 21.6756 24.701C21.4223 24.5704 21.1038 24.5704 20.8506 24.701C20.434 24.8889 20.2788 25.3708 20.434 25.7466C20.532 25.9671 20.7199 26.1305 20.9404 26.1877C21.0711 26.2857 21.3243 26.4082 21.6102 26.3184C22.084 26.2285 22.3372 25.7793 22.2147 25.3382Z" fill="#C11A1D"/>
<path d="M20.875 22.512C20.4584 22.6999 20.3032 23.1818 20.4584 23.5575C20.5564 23.7781 20.7443 23.9414 20.9648 23.9986C21.0955 24.0966 21.3406 24.2191 21.6346 24.1293C22.0757 24.0313 22.3289 23.5902 22.2064 23.1491C22.1411 22.8632 21.9532 22.6427 21.6673 22.512C21.4223 22.414 21.1364 22.3813 20.875 22.512Z" fill="#C11A1D"/>
<path d="M23.1617 26.2853C23.1291 26.3179 23.0637 26.3179 23.0311 26.3179C22.59 26.3179 22.2061 26.6692 22.2061 27.1103C22.2061 27.5513 22.5573 27.9353 22.9984 27.9353H23.0311C23.415 27.9353 23.7907 27.8046 24.1093 27.584C24.4605 27.3308 24.5258 26.8244 24.2645 26.4731C24.0194 26.0974 23.513 26.032 23.1617 26.2853Z" fill="#C11A1D"/>
<path d="M19.1028 25.0194C18.9721 24.9214 18.8823 24.8315 18.7843 24.7335C18.4984 24.4149 17.9919 24.3823 17.6407 24.6681C17.3222 24.954 17.2895 25.4605 17.5754 25.8117C17.7306 25.9996 17.9266 26.1629 18.1471 26.3181C18.6617 26.6857 19.1273 26.3508 19.2907 26.1303C19.5439 25.779 19.4786 25.2726 19.1028 25.0194Z" fill="#C11A1D"/>
<path d="M32.9963 38.7788L26.6924 31.5479C27.0537 31.2739 27.403 30.9768 27.7329 30.6476C28.0904 30.3135 28.3933 29.9667 28.6582 29.6058L35.8766 35.8988C36.779 36.7034 36.8185 38.0772 36.017 38.8868C35.1695 39.726 33.7886 39.6755 32.9972 38.7798C32.9969 38.7795 32.9966 38.7791 32.9963 38.7788Z" fill="#C11A1D" stroke="black"/>
</g>
<defs>
<clipPath id="clip0_235_449">
<rect width="40" height="40" fill="white"/>
</clipPath>
</defs>
</svg>
