<svg width="35" height="35" viewBox="0 0 35 35" fill="none" xmlns="http://www.w3.org/2000/svg">
<path d="M16.0417 12.3958C16.0417 14.4094 14.4094 16.0417 12.3958 16.0417C10.3823 16.0417 8.75 14.4094 8.75 12.3958C8.75 10.3823 10.3823 8.75 12.3958 8.75C14.4094 8.75 16.0417 10.3823 16.0417 12.3958Z" stroke="#E9E9E9" stroke-width="3"/>
<path d="M26.2497 8.02083C26.2497 10.0344 24.6174 11.6667 22.6038 11.6667C20.5903 11.6667 18.958 10.0344 18.958 8.02083C18.958 6.0073 20.5903 4.375 22.6038 4.375C24.6174 4.375 26.2497 6.0073 26.2497 8.02083Z" stroke="#E9E9E9" stroke-width="3"/>
<path d="M22.6045 29.1667C21.1462 30.625 4.37536 29.8958 2.91702 29.1667C1.45867 28.4375 7.89015 21.875 13.1253 21.875C18.3606 21.875 23.4445 28.3267 22.6045 29.1667Z" stroke="#E9E9E9" stroke-width="3" stroke-linecap="round" stroke-linejoin="round"/>
<path fill-rule="evenodd" clip-rule="evenodd" d="M22.3887 23.7571C23.3369 24.7786 24.1356 25.8283 24.7472 26.7089C25.4904 26.7132 26.4137 26.713 27.375 26.6985C28.5024 26.6817 29.699 26.6454 30.7245 26.573C31.2365 26.5366 31.7227 26.4903 32.1449 26.4296C32.541 26.3727 32.9766 26.2909 33.3353 26.1531C33.683 26.0195 34.0263 25.7917 34.2847 25.4376C34.5424 25.0844 34.6506 24.6946 34.6729 24.3407C34.7141 23.6885 34.4723 23.0814 34.2343 22.6322C33.7354 21.6907 32.8311 20.6679 31.7752 19.7471C29.6879 17.9266 26.4646 16.0417 23.3334 16.0417C21.6372 16.0417 20.373 16.2571 19.2384 16.9003C18.2149 17.4805 17.4063 18.3618 16.5289 19.318L16.4258 19.4303L16.2061 19.6696C17.2167 19.9241 18.1631 20.3661 19.0311 20.9082C19.7562 20.13 20.1907 19.7132 20.6769 19.4375C21.1864 19.1487 21.8721 18.9584 23.3334 18.9584C25.4373 18.9584 27.9942 20.3196 29.8581 21.9451C30.551 22.5494 31.0703 23.1241 31.3978 23.5848C31.1389 23.6143 30.8438 23.6405 30.5186 23.6634C29.5714 23.7305 28.4362 23.7657 27.3315 23.7821C26.2302 23.7986 25.176 23.7963 24.3958 23.7897C24.006 23.7864 23.6857 23.7821 23.4632 23.7786C23.3519 23.7769 23.2653 23.7753 23.2066 23.7743L23.1403 23.773L23.1237 23.7727L23.1197 23.7725L22.3887 23.7571Z" fill="#E9E9E9"/>
</svg>
