<?xml version="1.0" ?><!-- Uploaded to: SVG Repo, www.svgrepo.com, Generator: SVG Repo Mixer Tools -->
<svg width="800px" height="800px" viewBox="0 0 96 96" xmlns="http://www.w3.org/2000/svg"><title/><path d="M64,44c-2,2-4,4-8,4-8,0-8-8-16-8-4,0-6,2-8,4V22H64Z" style="fill:#eaeaea"/><path d="M56,22V48c4,0,6-2,8-4V22Z" style="fill:#c2d2d3"/><rect height="20" rx="5" ry="5" style="fill:#575072" width="48" x="24" y="2"/><path d="M67,2H59a5,5,0,0,1,5,5V17a5,5,0,0,1-5,5h8a5,5,0,0,0,5-5V7A5,5,0,0,0,67,2Z" style="fill:#363354"/><rect height="20" rx="5" ry="5" style="fill:none;stroke:#281a3b;stroke-linecap:round;stroke-linejoin:round;stroke-width:4px" width="48" x="24" y="2"/><path d="M32,44V78A16,16,0,0,0,48,94h0A16,16,0,0,0,64,78V44c-2,2-4,4-8,4-8,0-8-8-16-8-4,0-6,2-8,4" style="fill:#f47c6d"/><path d="M56,48V78A16,16,0,0,1,44,93.48,15.94,15.94,0,0,0,64,78V44C62,46,60,48,56,48Z" style="fill:#d6544d"/><path d="M32,44c2-2,4-4,8-4,8,0,8,8,16,8,4,0,6-2,8-4" style="fill:none;stroke:#281a3b;stroke-linecap:round;stroke-linejoin:round;stroke-width:4px"/><path d="M64,22V78a16,16,0,0,1-29.33,8.83c-.14-.21-.28-.43-.4-.65A15.68,15.68,0,0,1,32,78V22Z" style="fill:none;stroke:#281a3b;stroke-linecap:round;stroke-linejoin:round;stroke-width:4px"/></svg>