<?xml version="1.0" encoding="iso-8859-1"?>
<!-- Uploaded to: SVG Repo, www.svgrepo.com, Generator: SVG Repo Mixer Tools -->
<svg fill="#000000" height="800px" width="800px" version="1.1" id="Capa_1" xmlns="http://www.w3.org/2000/svg" xmlns:xlink="http://www.w3.org/1999/xlink" 
	 viewBox="0 0 489.7 489.7" xml:space="preserve">
<g>
	<g>
		<path d="M261.061,211.4c-47.3,0-85.5,38.2-85.2,85.2c0,47.3,38.2,85.5,85.2,85.2c47.3,0,85.5-38.2,85.2-85.2
			C346.261,249.3,308.061,211.1,261.061,211.4z M261.061,360.3c-35.2,0-63.5-28.3-63.5-63.5s28.3-63.5,63.5-63.5
			s63.5,28.3,63.5,63.5C324.261,331.8,295.961,360.1,261.061,360.3z"/>
		<g>
			<path d="M186.661,371.2c-41.1-41.1-41.1-107.8,0-148.9c31.4-31.4,77.7-38.8,116.1-22.3c-44.7-102.8-116.3-200-116.3-200
				s-150.8,201-150.8,340.9c0,82.4,67.6,148.8,150.8,148.8c56.3,0,103.8-30.7,129.8-76.2l-16.5-18.8
				C261.861,409.6,217.261,401.8,186.661,371.2z"/>
		</g>
		<path d="M225.661,293.9c5.9,0.2,9.7-5.1,9.7-9.7c3.5-3.1,3.9-8.5,1.6-12.4c-3.1-4.7-8.9-5.8-13.6-2.7c-5.4,3.5-8.2,10.5-7.4,16.7
			C216.761,290.4,221.061,293.7,225.661,293.9z"/>
		<path d="M255.561,248.4c-3.5,1.2-7,2.3-10.5,4.3c-4.7,2.7-6.2,8.9-3.5,13.6c3.2,4.5,8.7,6.1,13.6,3.1c1.7-1,3.5-1.9,5.4-2.3
			c5.1-1.6,8.2-7,7-12C266.461,250,261.061,247.2,255.561,248.4z"/>
		<path d="M280.461,271.7c0.4,0,1.2,0.4,1.2,0.8c5,4.9,11.6,3.1,14,0.4c3.9-3.5,4.3-9.7,0.8-14c-3.1-3.5-7.4-5.8-12-6.6
			c-5.4-1.2-10.5,2.3-11.7,7.8C271.561,265.6,275.061,270.5,280.461,271.7z"/>
		<path d="M292.161,281.4c-5.1,2.3-7,8.2-4.3,13.2c0.4,0.8,0.4,1.6,0.4,2.3c0,5.4,4.7,9.7,9.7,9.7l0,0c5.4,0,9.7-4.7,9.7-10.1
			c0-3.5-1.2-7.4-2.7-10.5C303.061,281,296.761,279.1,292.161,281.4z"/>
		<path d="M252.861,328.4c-3.1-4.3-8.5-5.4-13.2-2.7s-6.2,8.9-3.5,13.6c2.7,4.3,8.1,8.5,14.4,8.5c4.7,0,8.9-3.5,9.7-8.2
			C261.061,334.7,257.961,329.6,252.861,328.4z"/>
		<path d="M271.961,310.2c-0.8-3.5-3.1-6.2-6.6-7.8c-3.1-1.6-7-1.6-10.1,0c-5.1,2.3-7,8.2-5.1,12.8c1.2,2.7,3.5,4.7,6.2,5.4
			c1.6,1.2,4.7,2.7,8.2,1.6C270.361,321.1,273.461,315.6,271.961,310.2z"/>
		<path d="M255.561,275.6c-5.1,2.3-7,8.2-5.1,12.8c1.2,2.7,3.5,4.7,6.2,5.4c1.6,1.2,4.6,2.7,8.2,1.6c5.4-1.2,8.5-6.6,7-12
			c-0.8-3.5-3.1-6.2-6.6-7.8C262.261,274.4,258.761,274,255.561,275.6z"/>
		<path d="M283.561,321.8c-0.4,0.4-1.2,0.4-1.6,0.4c-5.4,0-10.1,4.3-10.1,9.7c0,5.4,4.3,10.1,9.7,10.1h0.4c4.7,0,9.3-1.6,13.2-4.3
			c4.3-3.1,5.1-9.3,1.9-13.6C294.061,319.5,287.861,318.7,283.561,321.8z"/>
		<path d="M233.861,306.3c-1.6-1.2-2.7-2.3-3.9-3.5c-3.5-3.9-9.7-4.3-14-0.8c-3.9,3.5-4.3,9.7-0.8,14c1.9,2.3,4.3,4.3,7,6.2
			c6.3,4.5,12,0.4,14-2.3C239.261,315.6,238.461,309.4,233.861,306.3z"/>
		<path d="M443.261,434.9l-93.6-81.6c-3.9,6.2-8.5,12-14.4,17.5c-5.4,5.4-11.3,10.1-17.5,14.4l81.6,93.6c12,13.6,33,14.4,45.9,1.6
			C457.661,467.9,456.861,447,443.261,434.9z"/>
	</g>
</g>
</svg>