<svg width="41" height="40" viewBox="0 0 41 40" fill="none" xmlns="http://www.w3.org/2000/svg">
<g clip-path="url(#clip0_235_540)">
<path d="M26.3541 16.7458V28.8136C26.3541 31.7966 23.9134 34.2373 20.9304 34.2373H19.5745V36.2712C19.5745 36.6102 19.3033 36.9491 18.8965 36.9491H15.5067H12.1168C11.7778 36.9491 11.4389 36.6101 11.4389 36.2712V34.2373H10.0829C7.09986 34.2373 4.65918 31.7966 4.65918 28.8136V17.2882C4.65918 17.2882 11.4388 15.9322 14.8287 17.2882C19.3033 19.1187 26.3541 16.7458 26.3541 16.7458Z" fill="#1ECBE1"/>
<path d="M35.8456 1.69482V39.6609H33.1338V1.69482C33.1338 1.69482 33.1338 0.338867 34.4897 0.338867C35.8456 0.338947 35.8456 1.69482 35.8456 1.69482Z" fill="#AAB1BA"/>
<path d="M26.3541 7.11857V16.7457C26.3541 16.7457 19.3032 19.1186 14.8287 17.2881C11.4388 15.9321 4.65918 17.2881 4.65918 17.2881V7.11857C4.65918 5.62708 5.87952 4.40674 7.37102 4.40674H15.5067H23.6423C25.1338 4.40674 26.3541 5.62708 26.3541 7.11857Z" fill="#ECF4F7"/>
<path d="M35.8458 40C35.6424 40 35.5068 39.8644 35.5068 39.661V1.69489C35.5068 1.55927 35.439 0.677939 34.4898 0.677939C33.5407 0.677939 33.4729 1.55927 33.4729 1.69489V39.661C33.4729 39.8644 33.3373 40 33.1339 40C32.9305 40 32.7949 39.8644 32.7949 39.661V2.0339H15.8458V4.06779H23.6424C25.3373 4.06779 26.6933 5.42375 26.6933 7.11864V28.8136C26.6933 32 24.117 34.5762 20.9306 34.5762H19.9136V36.2711C19.9136 36.8135 19.4391 37.2881 18.8967 37.2881H15.8458V39.661C15.8458 39.8644 15.7102 40 15.5068 40C15.3034 40 15.1678 39.8644 15.1678 39.661V37.2881H12.117C11.5746 37.2881 11.1 36.8135 11.1 36.2711V34.5762H10.0831C6.89661 34.5762 4.32039 31.9999 4.32039 28.8136V17.2881C4.32039 17.1525 4.45601 17.017 4.59155 16.9491C4.86271 16.8813 11.5068 15.5932 14.9644 16.9491C18.2187 18.2372 23.5068 16.9491 23.5746 16.9491C23.778 16.8813 23.9136 17.0169 23.9813 17.2203C24.0491 17.4237 23.9136 17.5593 23.7102 17.6271C23.5068 17.6948 18.1509 18.983 14.6933 17.6271C11.8458 16.4745 6.28652 17.3559 4.99833 17.6271V28.8135C4.99833 31.5932 7.30339 33.8982 10.0831 33.8982H11.439C11.6424 33.8982 11.778 34.0338 11.778 34.2372V36.2711C11.778 36.4745 11.9137 36.6101 12.1171 36.6101H18.8967C19.1001 36.6101 19.2357 36.4745 19.2357 36.2711V34.2372C19.2357 34.0338 19.3713 33.8982 19.5747 33.8982H20.9307C23.7103 33.8982 26.0154 31.5932 26.0154 28.8135V7.11864C26.0154 5.83053 24.9307 4.74573 23.6425 4.74573H7.37124C6.08313 4.74573 4.99833 5.83045 4.99833 7.11864V14.5763C4.99833 14.7797 4.86271 14.9153 4.65932 14.9153C4.45593 14.9153 4.32031 14.7797 4.32031 14.5763V7.11864C4.32031 5.42375 5.67627 4.06779 7.37116 4.06779H15.1677V1.69489C15.1677 1.4915 15.3034 1.35588 15.5067 1.35588H32.8626C32.9983 0.745789 33.4051 0 34.4898 0C35.8458 0 36.1848 1.08472 36.1848 1.69489V39.661C36.1848 39.8644 36.0492 40 35.8458 40ZM11.439 29.1525H7.37124C7.16785 29.1525 7.03223 29.0169 7.03223 28.8135C7.03223 28.6101 7.16785 28.4746 7.37124 28.4746H11.439C11.6424 28.4746 11.778 28.6102 11.778 28.8136C11.778 29.017 11.6424 29.1525 11.439 29.1525ZM8.7272 25.0847H7.37124C7.16785 25.0847 7.03223 24.9491 7.03223 24.7457C7.03223 24.5423 7.16785 24.4067 7.37124 24.4067H8.7272C8.93059 24.4067 9.0662 24.5423 9.0662 24.7457C9.06613 24.9492 8.93059 25.0847 8.7272 25.0847ZM8.7272 21.0169H7.37124C7.16785 21.0169 7.03223 20.8813 7.03223 20.6779C7.03223 20.4745 7.16785 20.3389 7.37124 20.3389H8.7272C8.93059 20.3389 9.0662 20.4745 9.0662 20.6779C9.06613 20.8814 8.93059 21.0169 8.7272 21.0169ZM11.439 12.8813H7.37124C7.16785 12.8813 7.03223 12.7457 7.03223 12.5423C7.03223 12.3389 7.16785 12.2033 7.37124 12.2033H11.439C11.6424 12.2033 11.778 12.3389 11.778 12.5423C11.778 12.7458 11.6424 12.8813 11.439 12.8813ZM8.7272 8.81353H7.37124C7.16785 8.81353 7.03223 8.67791 7.03223 8.47452C7.03223 8.27113 7.16785 8.13559 7.37124 8.13559H8.7272C8.93059 8.13559 9.0662 8.27121 9.0662 8.4746C9.0662 8.67799 8.93059 8.81353 8.7272 8.81353Z" fill="#51565F"/>
</g>
<defs>
<clipPath id="clip0_235_540">
<rect width="40" height="40" fill="white" transform="translate(0.25293)"/>
</clipPath>
</defs>
</svg>
