<svg width="40" height="40" viewBox="0 0 40 40" fill="none" xmlns="http://www.w3.org/2000/svg">
<path d="M21.4378 11.679L21.4378 11.679L21.4345 11.6851C21.4312 11.6912 21.4259 11.7013 21.4188 11.7153C21.4045 11.7433 21.3829 11.7865 21.3562 11.8434C21.3028 11.9575 21.229 12.126 21.1513 12.3372C20.9953 12.7614 20.8273 13.3473 20.7716 14.0033C20.6618 15.2962 20.9815 16.8523 22.7335 18.0392L23.1891 18.3478L22.839 18.771L22.8389 18.7711L22.8388 18.7713L22.8386 18.7715L22.8384 18.7718L22.8366 18.774L22.8235 18.7906C22.8112 18.8063 22.7919 18.8314 22.7668 18.8655C22.7165 18.9338 22.643 19.0381 22.5552 19.1756C22.3793 19.4509 22.1473 19.8579 21.9296 20.3755C21.494 21.411 21.1196 22.8785 21.3548 24.6206L21.4642 25.4307L20.6943 25.1595L20.6941 25.1594L20.6939 25.1594L20.6936 25.1592L20.6932 25.1591L20.6895 25.1579L20.6651 25.15C20.6423 25.1427 20.6066 25.1319 20.5598 25.119C20.466 25.0932 20.3289 25.0595 20.1621 25.0304C19.8246 24.9713 19.385 24.9341 18.943 25.0037C18.505 25.0727 18.0816 25.2432 17.7402 25.587C17.4 25.9295 17.0985 26.4868 16.9803 27.4074L16.8911 28.1014L16.2653 27.7932L16.2649 27.793L16.2643 27.7927L16.2639 27.7925L16.2634 27.7923L16.2627 27.792L16.2449 27.7838C16.2274 27.776 16.1989 27.7637 16.1602 27.7484C16.0828 27.7176 15.9648 27.6747 15.8125 27.6309C15.5072 27.543 15.0681 27.4524 14.542 27.4453C13.5019 27.4312 12.0943 27.7418 10.6751 29.11L10.4153 29.3605L10.0961 29.1929L10.096 29.1929L10.0957 29.1927L10.0955 29.1926L10.0915 29.1905L10.072 29.1807C10.0541 29.1716 10.0263 29.1578 9.98933 29.1401C9.9154 29.1046 9.80502 29.0535 9.66365 28.993C9.38052 28.8719 8.97535 28.7144 8.49158 28.5709C7.51566 28.2815 6.26036 28.0613 5.05209 28.2755C3.86722 28.4856 2.70989 29.1144 1.87651 30.5734C1.06867 31.9878 0.544365 34.2199 0.66458 37.6784L3.09356 37.4815C3.07283 37.2801 3.05224 37.0308 3.03953 36.7488C3.00628 36.0109 3.02571 35.0244 3.25214 34.0841C3.47709 33.1499 3.92434 32.1898 4.80414 31.6077C5.69926 31.0154 6.92553 30.8896 8.53651 31.3811L8.6899 31.4279L8.78727 31.555L8.78729 31.555L8.78745 31.5552L8.78796 31.5559L8.79179 31.5608L8.80933 31.5832C8.82541 31.6035 8.85019 31.6344 8.88352 31.6751C8.95017 31.7565 9.05095 31.8767 9.18445 32.0281C9.45155 32.3309 9.8491 32.7579 10.366 33.248C11.4011 34.2297 12.9073 35.4577 14.7955 36.4521C18.5536 38.4315 23.829 39.4946 29.9928 35.8056L21.4378 11.679ZM21.4378 11.679L21.438 11.6786M21.4378 11.679L21.438 11.6786M21.438 11.6786L21.4381 11.6784L21.4382 11.6782L21.6931 11.2161L21.2167 10.9869C18.0502 9.46341 16.5684 7.06485 15.8711 5.04032C15.5214 4.02477 15.3698 3.10378 15.3058 2.43799C15.2842 2.21349 15.2726 2.01861 15.2667 1.85963L15.5947 1.85986C16.0921 1.86035 16.7548 1.86133 17.4165 1.86328C18.0784 1.86523 18.7383 1.86816 19.2304 1.87254C19.3621 1.87371 19.4813 1.87498 19.585 1.87636C19.7964 3.95367 20.5135 5.20477 21.2509 5.94631C21.6417 6.33937 22.0272 6.57789 22.3223 6.7194C22.4697 6.79007 22.5945 6.83655 22.6863 6.86614C22.7323 6.88095 22.77 6.89156 22.7984 6.89889C22.8125 6.90255 22.8243 6.90539 22.8336 6.90753L22.8457 6.91022L22.8503 6.9112L22.8522 6.9116L22.8531 6.91177C22.8535 6.91186 22.8539 6.91194 22.9531 6.42187L22.8539 6.91194L23.0051 6.94254L23.1473 6.88262C26.0736 5.64926 28.4286 5.32647 30.3222 5.57084C32.2093 5.81437 33.6744 6.6256 34.8218 7.7261C37.1396 9.94898 38.1702 13.3623 38.6186 15.6583L38.6189 15.6598C39.6876 21.0491 38.297 30.8258 29.9932 35.8053L21.438 11.6786ZM19.5492 1.4438C19.5473 1.42698 19.5463 1.4105 19.5461 1.39439L19.5478 1.42181C19.5483 1.42915 19.5487 1.43648 19.5492 1.4438Z" fill="#C11A1D" stroke="black"/>
</svg>
