<svg width="27" height="27" viewBox="0 0 27 27" fill="none" xmlns="http://www.w3.org/2000/svg">
<path fill-rule="evenodd" clip-rule="evenodd" d="M1.49011 9.06137C1 9.99094 1 11.0485 1 13.1635V19.769C1 22.7063 1 24.175 2.04605 25.0875C3.08098 25.9903 4.73999 25.9999 8.03613 26V18.2112C8.03613 16.6747 9.41597 15.6535 10.8218 15.6535H16.179C17.5849 15.6535 18.9647 16.6747 18.9647 18.2112V26C22.2603 25.9999 23.9191 25.9902 24.954 25.0875C26 24.175 26 22.7063 26 19.769V13.1635C26 11.0485 26 9.99094 25.5099 9.06137C25.0198 8.1318 24.0993 7.44357 22.2585 6.06711L20.4728 4.7319C17.1454 2.24397 15.4817 1 13.5 1C11.5183 1 9.85459 2.24397 6.52724 4.7319L4.74152 6.06711C2.90065 7.44357 1.98022 8.1318 1.49011 9.06137ZM16.9647 26V18.2112C16.9647 18.0271 16.7456 17.6535 16.179 17.6535H10.8218C10.2553 17.6535 10.0361 18.0271 10.0361 18.2112V26H16.9647Z" fill="#C11A1D"/>
<path d="M1.49011 9.06137L1.04782 8.82817L1.04782 8.82817L1.49011 9.06137ZM2.04605 25.0875L2.37473 24.7107L2.37473 24.7107L2.04605 25.0875ZM8.03613 26L8.03612 26.5L8.53613 26.5V26H8.03613ZM18.9647 26H18.4647V26.5L18.9647 26.5L18.9647 26ZM24.954 25.0875L24.6253 24.7107L24.6253 24.7107L24.954 25.0875ZM25.5099 9.06137L25.9522 8.82817L25.9522 8.82817L25.5099 9.06137ZM22.2585 6.06711L21.9591 6.46755L21.9591 6.46755L22.2585 6.06711ZM20.4728 4.7319L20.7722 4.33146L20.4728 4.7319ZM6.52724 4.7319L6.82665 5.13233L6.82665 5.13233L6.52724 4.7319ZM4.74152 6.06711L4.44211 5.66667L4.44211 5.66667L4.74152 6.06711ZM16.9647 26V26.5H17.4647V26H16.9647ZM10.0361 26H9.53613V26.5H10.0361V26ZM1.5 13.1635C1.5 10.9982 1.51326 10.0895 1.9324 9.29456L1.04782 8.82817C0.486738 9.89236 0.5 11.0987 0.5 13.1635H1.5ZM1.5 19.769V13.1635H0.5V19.769H1.5ZM2.37473 24.7107C1.97116 24.3586 1.74504 23.8908 1.62492 23.1114C1.50139 22.3098 1.5 21.2538 1.5 19.769H0.5C0.5 21.2215 0.498613 22.3685 0.636591 23.2637C0.777984 24.1811 1.07489 24.9038 1.71736 25.4643L2.37473 24.7107ZM8.03615 25.5C6.37644 25.4999 5.17246 25.4967 4.25298 25.3859C3.34184 25.276 2.78373 25.0675 2.37473 24.7107L1.71736 25.4643C2.34331 26.0103 3.13216 26.258 4.1333 26.3787C5.12609 26.4983 6.39968 26.4999 8.03612 26.5L8.03615 25.5ZM8.53613 26V18.2112H7.53613V26H8.53613ZM8.53613 18.2112C8.53613 17.0194 9.61822 16.1535 10.8218 16.1535V15.1535C9.21373 15.1535 7.53613 16.3301 7.53613 18.2112H8.53613ZM10.8218 16.1535H16.179V15.1535H10.8218V16.1535ZM16.179 16.1535C17.3826 16.1535 18.4647 17.0194 18.4647 18.2112H19.4647C19.4647 16.3301 17.7871 15.1535 16.179 15.1535V16.1535ZM18.4647 18.2112V26H19.4647V18.2112H18.4647ZM24.6253 24.7107C24.2163 25.0675 23.6582 25.276 22.7473 25.3858C21.8279 25.4967 20.6241 25.4999 18.9647 25.5L18.9647 26.5C20.6009 26.4999 21.8743 26.4983 22.867 26.3786C23.868 26.2579 24.6567 26.0103 25.2826 25.4643L24.6253 24.7107ZM25.5 19.769C25.5 21.2538 25.4986 22.3098 25.3751 23.1114C25.255 23.8908 25.0288 24.3586 24.6253 24.7107L25.2826 25.4643C25.9251 24.9038 26.222 24.1811 26.3634 23.2637C26.5014 22.3685 26.5 21.2215 26.5 19.769H25.5ZM25.5 13.1635V19.769H26.5V13.1635H25.5ZM25.0676 9.29456C25.4867 10.0895 25.5 10.9982 25.5 13.1635H26.5C26.5 11.0987 26.5133 9.89236 25.9522 8.82817L25.0676 9.29456ZM21.9591 6.46755C22.8859 7.16059 23.5571 7.66291 24.0598 8.10668C24.5568 8.54538 24.8614 8.90347 25.0676 9.29456L25.9522 8.82817C25.6683 8.28969 25.2676 7.83889 24.7216 7.35697C24.1814 6.88011 23.4719 6.35009 22.5579 5.66668L21.9591 6.46755ZM20.1733 5.13233L21.9591 6.46755L22.5579 5.66668L20.7722 4.33146L20.1733 5.13233ZM13.5 1.5C14.3732 1.5 15.1973 1.76998 16.2322 2.36621C17.2798 2.9698 18.5 3.88116 20.1733 5.13233L20.7722 4.33146C19.1181 3.0947 17.8429 2.14011 16.7314 1.49974C15.6071 0.851998 14.6086 0.5 13.5 0.5V1.5ZM6.82665 5.13233C8.49997 3.88116 9.72021 2.9698 10.7678 2.36621C11.8027 1.76998 12.6268 1.5 13.5 1.5V0.5C12.3914 0.5 11.3929 0.851998 10.2686 1.49974C9.15713 2.14012 7.88186 3.0947 6.22782 4.33146L6.82665 5.13233ZM5.04094 6.46755L6.82665 5.13233L6.22782 4.33146L4.44211 5.66667L5.04094 6.46755ZM1.9324 9.29456C2.1386 8.90347 2.44317 8.54538 2.94016 8.10668C3.4429 7.66291 4.11407 7.16059 5.04094 6.46755L4.44211 5.66667C3.52811 6.35009 2.81862 6.88011 2.2784 7.35697C1.73243 7.83889 1.33173 8.28969 1.04782 8.82817L1.9324 9.29456ZM17.4647 26V18.2112H16.4647V26H17.4647ZM17.4647 18.2112C17.4647 17.7159 16.9853 17.1535 16.179 17.1535V18.1535C16.3451 18.1535 16.4175 18.2051 16.4444 18.23C16.4612 18.2455 16.4689 18.2587 16.4713 18.2637C16.4758 18.273 16.4647 18.2565 16.4647 18.2112H17.4647ZM16.179 17.1535H10.8218V18.1535H16.179V17.1535ZM10.8218 17.1535C10.0156 17.1535 9.53613 17.7159 9.53613 18.2112H10.5361C10.5361 18.2565 10.525 18.273 10.5295 18.2637C10.5319 18.2587 10.5397 18.2455 10.5564 18.23C10.5833 18.2051 10.6558 18.1535 10.8218 18.1535V17.1535ZM9.53613 18.2112V26H10.5361V18.2112H9.53613ZM16.9647 25.5H10.0361V26.5H16.9647V25.5Z" fill="black"/>
</svg>
