<svg width="25" height="25" viewBox="0 0 25 25" fill="none" xmlns="http://www.w3.org/2000/svg">
<path fill-rule="evenodd" clip-rule="evenodd" d="M0.490109 8.06137C0 8.99094 0 10.0485 0 12.1635V18.769C0 21.7063 0 23.175 1.04605 24.0875C2.08098 24.9903 3.73999 24.9999 7.03613 25V17.2112C7.03613 15.6747 8.41597 14.6535 9.82185 14.6535H15.179C16.5849 14.6535 17.9647 15.6747 17.9647 17.2112V25C21.2603 24.9999 22.9191 24.9902 23.954 24.0875C25 23.175 25 21.7063 25 18.769V12.1635C25 10.0485 25 8.99094 24.5099 8.06137C24.0198 7.1318 23.0993 6.44357 21.2585 5.06711L19.4728 3.7319C16.1454 1.24397 14.4817 0 12.5 0C10.5183 0 8.85459 1.24397 5.52724 3.7319L3.74152 5.06711C1.90065 6.44357 0.980219 7.1318 0.490109 8.06137ZM15.9647 25V17.2112C15.9647 17.0271 15.7456 16.6535 15.179 16.6535H9.82185C9.25528 16.6535 9.03613 17.0271 9.03613 17.2112V25H15.9647Z" fill="#1ECBE1"/>
</svg>
