<svg width="52" height="52" viewBox="0 0 52 52" fill="none" xmlns="http://www.w3.org/2000/svg">
<g clip-path="url(#clip0_192_3061)">
<path fill-rule="evenodd" clip-rule="evenodd" d="M26 52C20.8577 52 15.8309 50.4751 11.5552 47.6182C7.27952 44.7613 3.94705 40.7007 1.97917 35.9498C0.0112923 31.1989 -0.503631 25.9712 0.499585 20.9277C1.5028 15.8841 3.97909 11.2514 7.61526 7.61524C11.2514 3.97908 15.8842 1.50281 20.9277 0.499599C25.9712 -0.503617 31.1989 0.0112532 35.9498 1.97913C40.7007 3.94701 44.7613 7.2795 47.6182 11.5552C50.4752 15.8309 52 20.8577 52 26C52 32.8956 49.2607 39.5088 44.3848 44.3848C39.5089 49.2607 32.8957 52 26 52ZM11.2788 31.863C10.7197 31.2977 10.4061 30.5347 10.4061 29.7397C10.4061 28.9446 10.7197 28.1816 11.2788 27.6163L12.8094 26.0945C13.0697 25.8318 13.38 25.6242 13.7221 25.4838C14.0642 25.3434 14.4311 25.2732 14.8008 25.2773C15.1706 25.2815 15.5357 25.3598 15.8746 25.5078C16.2134 25.6557 16.5191 25.8703 16.7735 26.1387L19.4775 28.9441C19.6064 29.0801 19.7617 29.1885 19.9339 29.2625C20.1061 29.3365 20.2915 29.3747 20.4789 29.3747C20.6664 29.3747 20.8518 29.3365 21.024 29.2625C21.1962 29.1885 21.3514 29.0801 21.4803 28.9441L35.2604 14.7394C35.5166 14.4691 35.8248 14.2535 36.1665 14.1053C36.5082 13.9572 36.8763 13.8798 37.2487 13.8776C37.6211 13.8754 37.9901 13.9485 38.3335 14.0926C38.6769 14.2367 38.9876 14.4488 39.247 14.716L40.7334 16.2188C41.2788 16.7818 41.5838 17.5349 41.5838 18.3187C41.5838 19.1026 41.2788 19.8557 40.7334 20.4187L22.4389 39.0095C22.1836 39.2738 21.8781 39.4845 21.5403 39.6291C21.2025 39.7738 20.8392 39.8495 20.4718 39.8519C20.1044 39.8544 19.7401 39.7834 19.4005 39.6432C19.0608 39.503 18.7526 39.2964 18.4938 39.0355L11.2788 31.863Z" fill="#699F4C"/>
</g>
<defs>
<clipPath id="clip0_192_3061">
<rect width="52" height="52" fill="white"/>
</clipPath>
</defs>
</svg>
