<svg width="60" height="50" viewBox="0 0 60 50" fill="none" xmlns="http://www.w3.org/2000/svg">
<path d="M49.5837 42.5172H35.4774C35.1953 43.1974 34.8191 43.8777 34.3019 44.4533C33.2439 45.6307 31.8568 46.2586 30.3521 46.2586C28.8474 46.2586 27.4603 45.6307 26.4023 44.4533L16.4809 33.4122C16.0342 32.9151 16.0342 32.1825 16.4809 31.6854C16.9276 31.1883 17.5859 31.1883 18.0326 31.6854L28.0246 42.805C29.3176 44.244 31.4336 44.244 32.7737 42.805C34.0668 41.366 34.0668 39.0113 32.7737 37.5199L20.3366 23.6794C18.2677 21.377 15.5875 20.2781 12.9308 20.1996H0V35.0867H6.2538C7.71145 35.0867 9.09858 35.7146 10.2036 36.892L18.8554 46.5202C20.9714 48.875 23.9337 50 26.6609 50H49.5837C51.4175 50 52.9222 48.3255 52.9222 46.2848C52.9222 44.244 51.4175 42.5172 49.5837 42.5172ZM56.4958 19.938C60.7042 15.8303 61.2214 8.66142 57.5068 3.89964C53.8156 -0.783659 47.3737 -1.35926 43.0948 2.7746L41.6371 4.18744L40.1795 2.7746C35.9711 -1.3331 29.4587 -0.783659 25.7675 3.89964C22.0529 8.58293 22.5701 15.8303 26.7785 19.938L41.402 36.6304L56.4958 19.938Z" fill="#A54949"/>
</svg>
