<svg width="35" height="35" viewBox="0 0 35 35" fill="none" xmlns="http://www.w3.org/2000/svg">
<path d="M2.91699 8.375C2.91699 6.48938 2.91699 5.54657 3.50278 4.96079C4.08857 4.375 5.03137 4.375 6.91699 4.375H28.0837C29.9693 4.375 30.9121 4.375 31.4979 4.96079C32.0837 5.54657 32.0837 6.48938 32.0837 8.375V11.125C32.0837 12.0678 32.0837 12.5392 31.7908 12.8321C31.4979 13.125 31.0265 13.125 30.0837 13.125H4.91699C3.97418 13.125 3.50278 13.125 3.20989 12.8321C2.91699 12.5392 2.91699 12.0678 2.91699 11.125V8.375Z" fill="#1ECBE1"/>
<path fill-rule="evenodd" clip-rule="evenodd" d="M6.71169 29.7462C5.83301 28.8675 5.83301 27.4533 5.83301 24.6248V16.0415H29.1663V24.6248C29.1663 27.4533 29.1663 28.8675 28.2877 29.7462C27.409 30.6248 25.9948 30.6248 23.1663 30.6248H11.833C9.00458 30.6248 7.59037 30.6248 6.71169 29.7462ZM14.583 22.3332C14.0307 22.3332 13.583 22.7809 13.583 23.3332C13.583 23.8855 14.0307 24.3332 14.583 24.3332H20.4163C20.9686 24.3332 21.4163 23.8855 21.4163 23.3332C21.4163 22.7809 20.9686 22.3332 20.4163 22.3332H14.583Z" fill="#1ECBE1"/>
</svg>
