<?xml version="1.0" encoding="iso-8859-1"?>
<!-- Uploaded to: SVG Repo, www.svgrepo.com, Generator: SVG Repo Mixer Tools -->
<svg height="800px" width="800px" version="1.1" id="Layer_1" xmlns="http://www.w3.org/2000/svg" xmlns:xlink="http://www.w3.org/1999/xlink" 
	 viewBox="0 0 503.467 503.467" xml:space="preserve">
<g transform="translate(7 1)">
	<path style="fill:#FF7474;" d="M321.533,209.773v151.893c0,37.547-30.72,68.267-68.267,68.267H236.2v25.6
		c0,4.267-3.413,8.533-8.533,8.533H185h-42.667c-4.267,0-8.533-4.267-8.533-8.533v-25.6h-17.067
		c-37.547,0-68.267-30.72-68.267-68.267V216.6c0,0,85.333-17.067,128,0C232.787,239.64,321.533,209.773,321.533,209.773"/>
	<path style="fill:#AAB1BA;" d="M441,20.333V498.2h-34.133V20.333c0,0,0-17.067,17.067-17.067C441,3.267,441,20.333,441,20.333"/>
	<path style="fill:#ECF4F7;" d="M321.533,88.6v121.173c0,0-88.747,29.867-145.067,6.827c-42.667-17.067-128,0-128,0v-128
		c0-18.773,15.36-34.133,34.133-34.133H185h102.4C306.173,54.467,321.533,69.827,321.533,88.6"/>
</g>
<path style="fill:#51565F;" d="M448,503.467c-2.56,0-4.267-1.707-4.267-4.267V21.333c0-1.707-0.853-12.8-12.8-12.8
	c-11.947,0-12.8,11.093-12.8,12.8l0,0V499.2c0,2.56-1.707,4.267-4.267,4.267s-4.267-1.707-4.267-4.267V25.6H196.267v25.6H294.4
	c21.333,0,38.4,17.067,38.4,38.4v273.067c0,40.107-32.427,72.533-72.533,72.533h-12.8v21.333c0,6.827-5.973,12.8-12.8,12.8h-38.4
	V499.2c0,2.56-1.707,4.267-4.267,4.267s-4.267-1.707-4.267-4.267v-29.867h-38.4c-6.827,0-12.8-5.973-12.8-12.8V435.2h-12.8
	c-40.107,0-72.533-32.427-72.533-72.533V217.6c0-1.707,1.707-3.413,3.413-4.267c3.413-0.853,87.04-17.067,130.56,0
	c40.96,16.213,107.52,0,108.373,0c2.56-0.853,4.267,0.853,5.12,3.413s-0.853,4.267-3.413,5.12c-2.56,0.853-69.973,17.067-113.493,0
	c-35.84-14.507-105.813-3.413-122.027,0v140.8c0,34.987,29.013,64,64,64H140.8c2.56,0,4.267,1.707,4.267,4.267v25.6
	c0,2.56,1.707,4.267,4.267,4.267h85.333c2.56,0,4.267-1.707,4.267-4.267v-25.6c0-2.56,1.707-4.267,4.267-4.267h17.067
	c34.987,0,64-29.013,64-64V89.6c0-16.213-13.653-29.867-29.867-29.867H89.6c-16.213,0-29.867,13.653-29.867,29.867v93.867
	c0,2.56-1.707,4.267-4.267,4.267c-2.56,0-4.267-1.707-4.267-4.267V89.6c0-21.333,17.067-38.4,38.4-38.4h98.133V21.333
	c0-2.56,1.707-4.267,4.267-4.267h218.453C412.16,9.387,417.28,0,430.933,0C448,0,452.267,13.653,452.267,21.333V499.2
	C452.267,501.76,450.56,503.467,448,503.467z M140.8,366.933H89.6c-2.56,0-4.267-1.707-4.267-4.267S87.04,358.4,89.6,358.4h51.2
	c2.56,0,4.267,1.707,4.267,4.267S143.36,366.933,140.8,366.933z M106.667,315.733H89.6c-2.56,0-4.267-1.707-4.267-4.267
	c0-2.56,1.707-4.267,4.267-4.267h17.067c2.56,0,4.267,1.707,4.267,4.267C110.933,314.027,109.227,315.733,106.667,315.733z
	 M106.667,264.533H89.6c-2.56,0-4.267-1.707-4.267-4.267c0-2.56,1.707-4.267,4.267-4.267h17.067c2.56,0,4.267,1.707,4.267,4.267
	C110.933,262.827,109.227,264.533,106.667,264.533z M140.8,162.133H89.6c-2.56,0-4.267-1.707-4.267-4.267
	c0-2.56,1.707-4.267,4.267-4.267h51.2c2.56,0,4.267,1.707,4.267,4.267C145.067,160.427,143.36,162.133,140.8,162.133z
	 M106.667,110.933H89.6c-2.56,0-4.267-1.707-4.267-4.267S87.04,102.4,89.6,102.4h17.067c2.56,0,4.267,1.707,4.267,4.267
	S109.227,110.933,106.667,110.933z"/>
</svg>