<svg width="45" height="40" viewBox="0 0 45 40" fill="none" xmlns="http://www.w3.org/2000/svg">
<path d="M30 18.3332C29.0625 19.1665 28.125 19.9998 26.25 19.9998C22.5 19.9998 22.5 16.6665 18.75 16.6665C16.875 16.6665 15.9375 17.4998 15 18.3332V9.1665H30V18.3332Z" fill="#EAEAEA"/>
<path d="M26.25 9.1665V19.9998C28.125 19.9998 29.0625 19.1665 30 18.3332V9.1665H26.25Z" fill="#C2D2D3"/>
<path d="M31.4062 0.833496H13.5938C12.2993 0.833496 11.25 1.76624 11.25 2.91683V7.0835C11.25 8.23409 12.2993 9.16683 13.5938 9.16683H31.4062C32.7007 9.16683 33.75 8.23409 33.75 7.0835V2.91683C33.75 1.76624 32.7007 0.833496 31.4062 0.833496Z" fill="#575072"/>
<path d="M31.4062 0.833496H27.6562C28.2779 0.833496 28.874 1.05299 29.3135 1.44369C29.7531 1.83439 30 2.36429 30 2.91683V7.0835C30 7.63603 29.7531 8.16593 29.3135 8.55663C28.874 8.94733 28.2779 9.16683 27.6562 9.16683H31.4062C32.0279 9.16683 32.624 8.94733 33.0635 8.55663C33.5031 8.16593 33.75 7.63603 33.75 7.0835V2.91683C33.75 2.36429 33.5031 1.83439 33.0635 1.44369C32.624 1.05299 32.0279 0.833496 31.4062 0.833496Z" fill="#363354"/>
<path d="M31.4062 0.833496H13.5938C12.2993 0.833496 11.25 1.76624 11.25 2.91683V7.0835C11.25 8.23409 12.2993 9.16683 13.5938 9.16683H31.4062C32.7007 9.16683 33.75 8.23409 33.75 7.0835V2.91683C33.75 1.76624 32.7007 0.833496 31.4062 0.833496Z" stroke="#281A3B" stroke-width="1.5" stroke-linecap="round" stroke-linejoin="round"/>
<path d="M15 18.3332V32.4998C15 34.2679 15.7902 35.9636 17.1967 37.2139C18.6032 38.4641 20.5109 39.1665 22.5 39.1665C24.4891 39.1665 26.3968 38.4641 27.8033 37.2139C29.2098 35.9636 30 34.2679 30 32.4998V18.3332C29.0625 19.1665 28.125 19.9998 26.25 19.9998C22.5 19.9998 22.5 16.6665 18.75 16.6665C16.875 16.6665 15.9375 17.4998 15 18.3332Z" fill="#C11A1D"/>
<path d="M26.25 20.0002V32.5002C26.2488 33.9773 25.6957 35.4122 24.6776 36.5796C23.6595 37.7471 22.234 38.5809 20.625 38.9502C21.7332 39.2096 22.8937 39.239 24.0168 39.0361C25.1398 38.8331 26.1953 38.4033 27.1016 37.7798C28.0078 37.1563 28.7406 36.3558 29.2432 35.4403C29.7458 34.5248 30.0047 33.5188 30 32.5002V18.3335C29.0625 19.1668 28.125 20.0002 26.25 20.0002Z" fill="#971518"/>
<path d="M15 18.3332C15.9375 17.4998 16.875 16.6665 18.75 16.6665C22.5 16.6665 22.5 19.9998 26.25 19.9998C28.125 19.9998 29.0625 19.1665 30 18.3332" stroke="#281A3B" stroke-width="1.5" stroke-linecap="round" stroke-linejoin="round"/>
<path d="M30 9.1665V32.4998C29.9981 33.9311 29.478 35.3238 28.5167 36.472C27.5554 37.6201 26.2039 38.4628 24.6621 38.8754C23.1203 39.288 21.4701 39.2486 19.9554 38.763C18.4408 38.2774 17.1422 37.3714 16.2516 36.179C16.186 36.0915 16.1204 35.9998 16.0641 35.9082C15.3636 34.8806 14.9954 33.7013 15 32.4998V9.1665H30Z" stroke="#281A3B" stroke-width="1.5" stroke-linecap="round" stroke-linejoin="round"/>
</svg>
