<svg width="40" height="40" viewBox="0 0 40 40" fill="none" xmlns="http://www.w3.org/2000/svg">
<path fill-rule="evenodd" clip-rule="evenodd" d="M7 16.6569C7 15.8394 7 15.4306 7.15224 15.0631C7.30448 14.6955 7.59351 14.4065 8.17157 13.8284L10.8284 11.1716C11.4065 10.5935 11.6955 10.3045 12.0631 10.1522C12.4306 10 12.8394 10 13.6569 10H27.0098C27.8273 10 28.2361 10 28.6036 10.1522C28.9711 10.3045 29.2602 10.5935 29.8382 11.1716L32.4951 13.8284C33.0732 14.4065 33.3622 14.6955 33.5144 15.0631C33.6667 15.4306 33.6667 15.8394 33.6667 16.6569V19H7V16.6569ZM25.8886 21H33.6667V31C33.6667 32.8856 33.6667 33.8284 33.0809 34.4142C32.4951 35 31.5523 35 29.6667 35H11C9.11438 35 8.17157 35 7.58579 34.4142C7 33.8284 7 32.8856 7 31V21H14.7775L14.7775 27.7778C14.7775 29.0525 14.7775 29.6898 14.9424 30.0324C15.3103 30.7971 16.1942 31.1631 16.9951 30.8826C17.3539 30.757 17.8045 30.3063 18.7059 29.405C19.1233 28.9875 19.3321 28.7788 19.554 28.6614C20.0414 28.4037 20.6247 28.4037 21.1121 28.6614C21.3341 28.7788 21.5428 28.9875 21.9602 29.405L21.9603 29.405C22.8616 30.3063 23.3123 30.757 23.671 30.8826C24.472 31.1631 25.3558 30.7971 25.7238 30.0324C25.8886 29.6898 25.8886 29.0525 25.8886 27.7778V21Z" fill="#C11A1D"/>
<path d="M7.15224 15.0631L6.6903 14.8717L6.6903 14.8717L7.15224 15.0631ZM8.17157 13.8284L8.52513 14.182L8.52513 14.182L8.17157 13.8284ZM10.8284 11.1716L11.182 11.5251L11.182 11.5251L10.8284 11.1716ZM12.0631 10.1522L11.8717 9.6903L11.8717 9.6903L12.0631 10.1522ZM28.6036 10.1522L28.7949 9.6903L28.7949 9.6903L28.6036 10.1522ZM29.8382 11.1716L29.4847 11.5251L29.4847 11.5251L29.8382 11.1716ZM32.4951 13.8284L32.1415 14.182L32.1415 14.182L32.4951 13.8284ZM33.5144 15.0631L33.9764 14.8717L33.9764 14.8717L33.5144 15.0631ZM33.6667 19V19.5H34.1667V19H33.6667ZM7 19H6.5V19.5H7V19ZM33.6667 21H34.1667V20.5H33.6667V21ZM25.8886 21V20.5H25.3886V21H25.8886ZM7 21V20.5H6.5V21H7ZM14.7775 21L15.2775 21L15.2775 20.5H14.7775V21ZM14.7775 27.7778L14.2775 27.7778V27.7778H14.7775ZM14.9424 30.0324L15.3929 29.8155L15.3929 29.8155L14.9424 30.0324ZM16.9951 30.8826L17.1604 31.3545L17.1604 31.3545L16.9951 30.8826ZM18.7059 29.405L18.3523 29.0514L18.3523 29.0514L18.7059 29.405ZM19.554 28.6614L19.3203 28.2194L19.3203 28.2194L19.554 28.6614ZM21.1121 28.6614L21.3458 28.2194L21.3458 28.2194L21.1121 28.6614ZM21.9602 29.405L21.6067 29.7585L21.6067 29.7585L21.9602 29.405ZM21.9603 29.405L21.6067 29.7585L21.6067 29.7585L21.9603 29.405ZM23.671 30.8826L23.5058 31.3545L23.5058 31.3545L23.671 30.8826ZM25.7238 30.0324L25.2732 29.8155L25.2732 29.8155L25.7238 30.0324ZM6.6903 14.8717C6.49115 15.3525 6.5 15.8801 6.5 16.6569H7.5C7.5 15.7986 7.50885 15.5087 7.61418 15.2544L6.6903 14.8717ZM7.81802 13.4749C7.26881 14.0241 6.88945 14.3909 6.6903 14.8717L7.61418 15.2544C7.71951 15.0001 7.91822 14.7889 8.52513 14.182L7.81802 13.4749ZM10.4749 10.818L7.81802 13.4749L8.52513 14.182L11.182 11.5251L10.4749 10.818ZM11.8717 9.6903C11.3909 9.88945 11.0241 10.2688 10.4749 10.818L11.182 11.5251C11.7889 10.9182 12.0001 10.7195 12.2544 10.6142L11.8717 9.6903ZM13.6569 9.5C12.8801 9.5 12.3525 9.49115 11.8717 9.6903L12.2544 10.6142C12.5087 10.5089 12.7986 10.5 13.6569 10.5V9.5ZM27.0098 9.5H13.6569V10.5H27.0098V9.5ZM28.7949 9.6903C28.3142 9.49115 27.7865 9.5 27.0098 9.5V10.5C27.8681 10.5 28.158 10.5089 28.4123 10.6142L28.7949 9.6903ZM30.1918 10.818C29.6426 10.2688 29.2757 9.88945 28.7949 9.6903L28.4123 10.6142C28.6666 10.7195 28.8778 10.9182 29.4847 11.5251L30.1918 10.818ZM32.8486 13.4749L30.1918 10.818L29.4847 11.5251L32.1415 14.182L32.8486 13.4749ZM33.9764 14.8717C33.7772 14.3909 33.3979 14.0241 32.8486 13.4749L32.1415 14.182C32.7484 14.7889 32.9472 15.0001 33.0525 15.2544L33.9764 14.8717ZM34.1667 16.6569C34.1667 15.8801 34.1755 15.3525 33.9764 14.8717L33.0525 15.2544C33.1578 15.5087 33.1667 15.7986 33.1667 16.6569H34.1667ZM34.1667 19V16.6569H33.1667V19H34.1667ZM7 19.5H33.6667V18.5H7V19.5ZM6.5 16.6569V19H7.5V16.6569H6.5ZM33.6667 20.5H25.8886V21.5H33.6667V20.5ZM34.1667 31V21H33.1667V31H34.1667ZM33.4344 34.7678C33.8357 34.3665 34.0083 33.8612 34.089 33.2612C34.1677 32.6755 34.1667 31.9287 34.1667 31H33.1667C33.1667 31.9569 33.1656 32.6244 33.0979 33.1279C33.0321 33.6171 32.9118 33.8762 32.7273 34.0607L33.4344 34.7678ZM29.6667 35.5C30.5953 35.5 31.3421 35.5011 31.9278 35.4223C32.5279 35.3416 33.0332 35.169 33.4344 34.7678L32.7273 34.0607C32.5428 34.2452 32.2838 34.3655 31.7946 34.4312C31.291 34.4989 30.6236 34.5 29.6667 34.5V35.5ZM11 35.5H29.6667V34.5H11V35.5ZM7.23223 34.7678C7.63351 35.169 8.13876 35.3416 8.73883 35.4223C9.32452 35.5011 10.0713 35.5 11 35.5V34.5C10.0431 34.5 9.37565 34.4989 8.87208 34.4312C8.3829 34.3655 8.12385 34.2452 7.93934 34.0607L7.23223 34.7678ZM6.5 31C6.5 31.9287 6.49894 32.6755 6.57768 33.2612C6.65836 33.8612 6.83096 34.3665 7.23223 34.7678L7.93934 34.0607C7.75483 33.8762 7.63453 33.6171 7.56876 33.1279C7.50106 32.6244 7.5 31.9569 7.5 31H6.5ZM6.5 21V31H7.5V21H6.5ZM14.7775 20.5H7V21.5H14.7775V20.5ZM14.2775 21L14.2775 27.7778L15.2775 27.7778L15.2775 21L14.2775 21ZM14.2775 27.7778C14.2775 28.4089 14.2773 28.9039 14.2989 29.2831C14.3199 29.651 14.3634 29.9823 14.4918 30.2492L15.3929 29.8155C15.3565 29.7398 15.3175 29.5812 15.2973 29.2262C15.2777 28.8823 15.2775 28.4213 15.2775 27.7778H14.2775ZM14.4918 30.2492C14.9702 31.2433 16.1192 31.7192 17.1604 31.3545L16.8298 30.4107C16.2692 30.6071 15.6505 30.3508 15.3929 29.8155L14.4918 30.2492ZM17.1604 31.3545C17.4399 31.2566 17.7049 31.0531 17.9799 30.8078C18.2633 30.555 18.6132 30.2048 19.0594 29.7585L18.3523 29.0514C17.8972 29.5065 17.5712 29.8323 17.3142 30.0616C17.0488 30.2983 16.9091 30.383 16.8298 30.4107L17.1604 31.3545ZM19.0594 29.7585C19.503 29.3149 19.6492 29.1767 19.7877 29.1034L19.3203 28.2194C19.015 28.3808 18.7437 28.6601 18.3523 29.0514L19.0594 29.7585ZM19.7877 29.1034C20.1289 28.923 20.5372 28.923 20.8784 29.1034L21.3458 28.2194C20.7122 27.8844 19.9539 27.8844 19.3203 28.2194L19.7877 29.1034ZM20.8784 29.1034C21.017 29.1767 21.1631 29.3149 21.6067 29.7585L22.3138 29.0514C21.9225 28.6601 21.6511 28.3808 21.3458 28.2194L20.8784 29.1034ZM21.6067 29.7585L21.6067 29.7585L22.3138 29.0514L22.3138 29.0514L21.6067 29.7585ZM21.6067 29.7585C22.053 30.2048 22.4029 30.555 22.6862 30.8078C22.9612 31.0531 23.2263 31.2566 23.5058 31.3545L23.8363 30.4107C23.757 30.383 23.6173 30.2983 23.352 30.0616C23.095 29.8323 22.7689 29.5065 22.3138 29.0514L21.6067 29.7585ZM23.5058 31.3545C24.547 31.7192 25.6959 31.2433 26.1743 30.2492L25.2732 29.8155C25.0156 30.3508 24.397 30.6071 23.8363 30.4107L23.5058 31.3545ZM26.1743 30.2492C26.3027 29.9823 26.3462 29.651 26.3672 29.2831C26.3888 28.9039 26.3886 28.4089 26.3886 27.7778H25.3886C25.3886 28.4214 25.3884 28.8823 25.3688 29.2262C25.3486 29.5812 25.3097 29.7398 25.2732 29.8155L26.1743 30.2492ZM26.3886 27.7778V21H25.3886V27.7778H26.3886Z" fill="black"/>
</svg>
