<svg width="40" height="40" viewBox="0 0 40 40" fill="none" xmlns="http://www.w3.org/2000/svg">
<g clip-path="url(#clip0_235_1251)">
<path d="M26.1012 16.7458V28.8136C26.1012 31.7966 23.6605 34.2373 20.6774 34.2373H19.3215V36.2712C19.3215 36.6102 19.0504 36.9491 18.6436 36.9491H15.2538H11.8639C11.5249 36.9491 11.186 36.6101 11.186 36.2712V34.2373H9.83C6.84693 34.2373 4.40625 31.7966 4.40625 28.8136V17.2882C4.40625 17.2882 11.1859 15.9322 14.5757 17.2882C19.0504 19.1187 26.1012 16.7458 26.1012 16.7458Z" fill="#C11A1D"/>
<path d="M35.5927 1.69482V39.6609H32.8809V1.69482C32.8809 1.69482 32.8809 0.338867 34.2368 0.338867C35.5927 0.338947 35.5927 1.69482 35.5927 1.69482Z" fill="#AAB1BA"/>
<path d="M26.1012 7.11857V16.7457C26.1012 16.7457 19.0503 19.1186 14.5757 17.2881C11.1859 15.9321 4.40625 17.2881 4.40625 17.2881V7.11857C4.40625 5.62708 5.62659 4.40674 7.11809 4.40674H15.2538H23.3893C24.8808 4.40674 26.1012 5.62708 26.1012 7.11857Z" fill="#ECF4F7"/>
<mask id="path-4-inside-1_235_1251" fill="white">
<path d="M35.5929 40C35.3895 40 35.2539 39.8644 35.2539 39.661V1.69489C35.2539 1.55927 35.1861 0.677939 34.2369 0.677939C33.2877 0.677939 33.22 1.55927 33.22 1.69489V39.661C33.22 39.8644 33.0843 40 32.8809 40C32.6776 40 32.5419 39.8644 32.5419 39.661V2.0339H15.5929V4.06779H23.3895C25.0844 4.06779 26.4403 5.42375 26.4403 7.11864V28.8136C26.4403 32 23.864 34.5762 20.6776 34.5762H19.6607V36.2711C19.6607 36.8135 19.1861 37.2881 18.6437 37.2881H15.5929V39.661C15.5929 39.8644 15.4573 40 15.2539 40C15.0505 40 14.9149 39.8644 14.9149 39.661V37.2881H11.864C11.3216 37.2881 10.8471 36.8135 10.8471 36.2711V34.5762H9.83014C6.64368 34.5762 4.06746 31.9999 4.06746 28.8136V17.2881C4.06746 17.1525 4.20308 17.017 4.33862 16.9491C4.60978 16.8813 11.2539 15.5932 14.7115 16.9491C17.9657 18.2372 23.2539 16.9491 23.3216 16.9491C23.525 16.8813 23.6606 17.0169 23.7284 17.2203C23.7962 17.4237 23.6606 17.5593 23.4573 17.6271C23.2539 17.6948 17.898 18.983 14.4403 17.6271C11.5929 16.4745 6.03359 17.3559 4.7454 17.6271V28.8135C4.7454 31.5932 7.05046 33.8982 9.83014 33.8982H11.1861C11.3895 33.8982 11.5251 34.0338 11.5251 34.2372V36.2711C11.5251 36.4745 11.6607 36.6101 11.8641 36.6101H18.6437C18.8471 36.6101 18.9828 36.4745 18.9828 36.2711V34.2372C18.9828 34.0338 19.1184 33.8982 19.3218 33.8982H20.6777C23.4574 33.8982 25.7625 31.5932 25.7625 28.8135V7.11864C25.7625 5.83053 24.6777 4.74573 23.3896 4.74573H7.11831C5.8302 4.74573 4.7454 5.83045 4.7454 7.11864V14.5763C4.7454 14.7797 4.60978 14.9153 4.40639 14.9153C4.203 14.9153 4.06738 14.7797 4.06738 14.5763V7.11864C4.06738 5.42375 5.42334 4.06779 7.11823 4.06779H14.9148V1.69489C14.9148 1.4915 15.0504 1.35588 15.2538 1.35588H32.6097C32.7454 0.745789 33.1522 0 34.2369 0C35.5929 0 35.9319 1.08472 35.9319 1.69489V39.661C35.9319 39.8644 35.7963 40 35.5929 40ZM11.1861 29.1525H7.11831C6.91492 29.1525 6.7793 29.0169 6.7793 28.8135C6.7793 28.6101 6.91492 28.4746 7.11831 28.4746H11.1861C11.3895 28.4746 11.5251 28.6102 11.5251 28.8136C11.5251 29.017 11.3895 29.1525 11.1861 29.1525ZM8.47427 25.0847H7.11831C6.91492 25.0847 6.7793 24.9491 6.7793 24.7457C6.7793 24.5423 6.91492 24.4067 7.11831 24.4067H8.47427C8.67765 24.4067 8.81327 24.5423 8.81327 24.7457C8.81319 24.9492 8.67765 25.0847 8.47427 25.0847ZM8.47427 21.0169H7.11831C6.91492 21.0169 6.7793 20.8813 6.7793 20.6779C6.7793 20.4745 6.91492 20.3389 7.11831 20.3389H8.47427C8.67765 20.3389 8.81327 20.4745 8.81327 20.6779C8.81319 20.8814 8.67765 21.0169 8.47427 21.0169ZM11.1861 12.8813H7.11831C6.91492 12.8813 6.7793 12.7457 6.7793 12.5423C6.7793 12.3389 6.91492 12.2033 7.11831 12.2033H11.1861C11.3895 12.2033 11.5251 12.3389 11.5251 12.5423C11.5251 12.7458 11.3895 12.8813 11.1861 12.8813ZM8.47427 8.81353H7.11831C6.91492 8.81353 6.7793 8.67791 6.7793 8.47452C6.7793 8.27113 6.91492 8.13559 7.11831 8.13559H8.47427C8.67765 8.13559 8.81327 8.27121 8.81327 8.4746C8.81327 8.67799 8.67765 8.81353 8.47427 8.81353Z"/>
</mask>
<path d="M35.5929 40C35.3895 40 35.2539 39.8644 35.2539 39.661V1.69489C35.2539 1.55927 35.1861 0.677939 34.2369 0.677939C33.2877 0.677939 33.22 1.55927 33.22 1.69489V39.661C33.22 39.8644 33.0843 40 32.8809 40C32.6776 40 32.5419 39.8644 32.5419 39.661V2.0339H15.5929V4.06779H23.3895C25.0844 4.06779 26.4403 5.42375 26.4403 7.11864V28.8136C26.4403 32 23.864 34.5762 20.6776 34.5762H19.6607V36.2711C19.6607 36.8135 19.1861 37.2881 18.6437 37.2881H15.5929V39.661C15.5929 39.8644 15.4573 40 15.2539 40C15.0505 40 14.9149 39.8644 14.9149 39.661V37.2881H11.864C11.3216 37.2881 10.8471 36.8135 10.8471 36.2711V34.5762H9.83014C6.64368 34.5762 4.06746 31.9999 4.06746 28.8136V17.2881C4.06746 17.1525 4.20308 17.017 4.33862 16.9491C4.60978 16.8813 11.2539 15.5932 14.7115 16.9491C17.9657 18.2372 23.2539 16.9491 23.3216 16.9491C23.525 16.8813 23.6606 17.0169 23.7284 17.2203C23.7962 17.4237 23.6606 17.5593 23.4573 17.6271C23.2539 17.6948 17.898 18.983 14.4403 17.6271C11.5929 16.4745 6.03359 17.3559 4.7454 17.6271V28.8135C4.7454 31.5932 7.05046 33.8982 9.83014 33.8982H11.1861C11.3895 33.8982 11.5251 34.0338 11.5251 34.2372V36.2711C11.5251 36.4745 11.6607 36.6101 11.8641 36.6101H18.6437C18.8471 36.6101 18.9828 36.4745 18.9828 36.2711V34.2372C18.9828 34.0338 19.1184 33.8982 19.3218 33.8982H20.6777C23.4574 33.8982 25.7625 31.5932 25.7625 28.8135V7.11864C25.7625 5.83053 24.6777 4.74573 23.3896 4.74573H7.11831C5.8302 4.74573 4.7454 5.83045 4.7454 7.11864V14.5763C4.7454 14.7797 4.60978 14.9153 4.40639 14.9153C4.203 14.9153 4.06738 14.7797 4.06738 14.5763V7.11864C4.06738 5.42375 5.42334 4.06779 7.11823 4.06779H14.9148V1.69489C14.9148 1.4915 15.0504 1.35588 15.2538 1.35588H32.6097C32.7454 0.745789 33.1522 0 34.2369 0C35.5929 0 35.9319 1.08472 35.9319 1.69489V39.661C35.9319 39.8644 35.7963 40 35.5929 40ZM11.1861 29.1525H7.11831C6.91492 29.1525 6.7793 29.0169 6.7793 28.8135C6.7793 28.6101 6.91492 28.4746 7.11831 28.4746H11.1861C11.3895 28.4746 11.5251 28.6102 11.5251 28.8136C11.5251 29.017 11.3895 29.1525 11.1861 29.1525ZM8.47427 25.0847H7.11831C6.91492 25.0847 6.7793 24.9491 6.7793 24.7457C6.7793 24.5423 6.91492 24.4067 7.11831 24.4067H8.47427C8.67765 24.4067 8.81327 24.5423 8.81327 24.7457C8.81319 24.9492 8.67765 25.0847 8.47427 25.0847ZM8.47427 21.0169H7.11831C6.91492 21.0169 6.7793 20.8813 6.7793 20.6779C6.7793 20.4745 6.91492 20.3389 7.11831 20.3389H8.47427C8.67765 20.3389 8.81327 20.4745 8.81327 20.6779C8.81319 20.8814 8.67765 21.0169 8.47427 21.0169ZM11.1861 12.8813H7.11831C6.91492 12.8813 6.7793 12.7457 6.7793 12.5423C6.7793 12.3389 6.91492 12.2033 7.11831 12.2033H11.1861C11.3895 12.2033 11.5251 12.3389 11.5251 12.5423C11.5251 12.7458 11.3895 12.8813 11.1861 12.8813ZM8.47427 8.81353H7.11831C6.91492 8.81353 6.7793 8.67791 6.7793 8.47452C6.7793 8.27113 6.91492 8.13559 7.11831 8.13559H8.47427C8.67765 8.13559 8.81327 8.27121 8.81327 8.4746C8.81327 8.67799 8.67765 8.81353 8.47427 8.81353Z" fill="#51565F"/>
<path d="M32.5419 2.0339H33.5419V1.0339H32.5419V2.0339ZM15.5929 2.0339V1.0339H14.5929V2.0339H15.5929ZM15.5929 4.06779H14.5929V5.06779H15.5929V4.06779ZM19.6607 34.5762V33.5762H18.6607V34.5762H19.6607ZM15.5929 37.2881V36.2881H14.5929V37.2881H15.5929ZM14.9149 37.2881H15.9149V36.2881H14.9149V37.2881ZM10.8471 34.5762H11.8471V33.5762H10.8471V34.5762ZM4.33862 16.9491L4.09615 15.979L3.98939 16.0056L3.89099 16.0549L4.33862 16.9491ZM14.7115 16.9491L15.0795 16.0193L15.0766 16.0181L14.7115 16.9491ZM23.3216 16.9491V17.9491H23.4838L23.6377 17.8978L23.3216 16.9491ZM14.4403 17.6271L14.0651 18.5541L14.0752 18.558L14.4403 17.6271ZM4.7454 17.6271L4.53942 16.6485L3.7454 16.8156V17.6271H4.7454ZM14.9148 4.06779V5.06779H15.9148V4.06779H14.9148ZM32.6097 1.35588V2.35588H33.4117L33.5859 1.573L32.6097 1.35588ZM8.81327 24.7457L9.81327 24.7461V24.7457H8.81327ZM8.81327 20.6779L9.81327 20.6783V20.6779H8.81327ZM35.5929 39C35.7185 39 35.9008 39.0462 36.0542 39.1997C36.2076 39.3531 36.2539 39.5354 36.2539 39.661H34.2539C34.2539 39.99 34.3679 40.3418 34.64 40.6139C34.9121 40.8859 35.2639 41 35.5929 41V39ZM36.2539 39.661V1.69489H34.2539V39.661H36.2539ZM36.2539 1.69489C36.2539 1.53541 36.2248 1.08607 35.9696 0.639422C35.6707 0.116435 35.0992 -0.322061 34.2369 -0.322061V1.67794C34.2778 1.67794 34.2967 1.68263 34.2989 1.68322C34.3002 1.68357 34.2984 1.68318 34.2942 1.68141C34.29 1.67963 34.2844 1.67689 34.2779 1.67297C34.2715 1.66907 34.2651 1.66455 34.2591 1.65961C34.2531 1.6547 34.2481 1.64987 34.244 1.6455C34.2359 1.63681 34.2328 1.63122 34.2331 1.63169C34.2335 1.63243 34.2362 1.63747 34.2398 1.64767C34.2434 1.65782 34.2468 1.66984 34.2494 1.68271C34.2521 1.69551 34.2535 1.70595 34.254 1.71173C34.2543 1.71446 34.2543 1.71515 34.2542 1.71341C34.2542 1.71221 34.2539 1.70602 34.2539 1.69489H36.2539ZM34.2369 -0.322061C33.3746 -0.322061 32.8031 0.116435 32.5042 0.63942C32.249 1.08606 32.22 1.53541 32.22 1.69489H34.22C34.22 1.70602 34.2196 1.71221 34.2196 1.71341C34.2195 1.71515 34.2195 1.71446 34.2198 1.71174C34.2203 1.70595 34.2217 1.69551 34.2244 1.68271C34.227 1.66985 34.2304 1.65783 34.234 1.64767C34.2376 1.63747 34.2403 1.63243 34.2407 1.63169C34.241 1.63122 34.2379 1.63682 34.2298 1.64551C34.2257 1.64987 34.2207 1.6547 34.2147 1.65961C34.2087 1.66455 34.2023 1.66907 34.1959 1.67297C34.1894 1.67689 34.1838 1.67963 34.1796 1.68141C34.1754 1.68318 34.1736 1.68357 34.1749 1.68322C34.1772 1.68263 34.196 1.67794 34.2369 1.67794V-0.322061ZM32.22 1.69489V39.661H34.22V1.69489H32.22ZM32.22 39.661C32.22 39.5354 32.2662 39.3531 32.4196 39.1997C32.573 39.0462 32.7553 39 32.8809 39V41C33.2099 41 33.5618 40.8859 33.8338 40.6139C34.1059 40.3418 34.22 39.99 34.22 39.661H32.22ZM32.8809 39C33.0065 39 33.1889 39.0462 33.3423 39.1997C33.4957 39.3531 33.5419 39.5354 33.5419 39.661H31.5419C31.5419 39.99 31.656 40.3418 31.9281 40.6139C32.2001 40.8859 32.552 41 32.8809 41V39ZM33.5419 39.661V2.0339H31.5419V39.661H33.5419ZM32.5419 1.0339H15.5929V3.0339H32.5419V1.0339ZM14.5929 2.0339V4.06779H16.5929V2.0339H14.5929ZM15.5929 5.06779H23.3895V3.06779H15.5929V5.06779ZM23.3895 5.06779C24.5321 5.06779 25.4403 5.97604 25.4403 7.11864H27.4403C27.4403 4.87147 25.6367 3.06779 23.3895 3.06779V5.06779ZM25.4403 7.11864V28.8136H27.4403V7.11864H25.4403ZM25.4403 28.8136C25.4403 31.4477 23.3118 33.5762 20.6776 33.5762V35.5762C24.4163 35.5762 27.4403 32.5523 27.4403 28.8136H25.4403ZM20.6776 33.5762H19.6607V35.5762H20.6776V33.5762ZM18.6607 34.5762V36.2711H20.6607V34.5762H18.6607ZM18.6607 36.2711C18.6607 36.2599 18.6632 36.255 18.6623 36.2572C18.6617 36.2584 18.6605 36.261 18.658 36.2646C18.6556 36.2681 18.6524 36.2721 18.6485 36.2759C18.6447 36.2798 18.6408 36.2829 18.6372 36.2854C18.6336 36.2878 18.631 36.2891 18.6298 36.2897C18.6276 36.2906 18.6325 36.2881 18.6437 36.2881V38.2881C19.7384 38.2881 20.6607 37.3658 20.6607 36.2711H18.6607ZM18.6437 36.2881H15.5929V38.2881H18.6437V36.2881ZM14.5929 37.2881V39.661H16.5929V37.2881H14.5929ZM14.5929 39.661C14.5929 39.5354 14.6391 39.3531 14.7926 39.1997C14.946 39.0462 15.1283 39 15.2539 39V41C15.5829 41 15.9347 40.8859 16.2068 40.6139C16.4789 40.3418 16.5929 39.99 16.5929 39.661H14.5929ZM15.2539 39C15.3795 39 15.5618 39.0462 15.7152 39.1997C15.8686 39.3531 15.9149 39.5354 15.9149 39.661H13.9149C13.9149 39.99 14.0289 40.3418 14.301 40.6139C14.5731 40.8859 14.9249 41 15.2539 41V39ZM15.9149 39.661V37.2881H13.9149V39.661H15.9149ZM14.9149 36.2881H11.864V38.2881H14.9149V36.2881ZM11.864 36.2881C11.8753 36.2881 11.8802 36.2906 11.878 36.2897C11.8768 36.2891 11.8742 36.2878 11.8706 36.2854C11.867 36.2829 11.8631 36.2798 11.8593 36.2759C11.8554 36.2721 11.8522 36.2681 11.8498 36.2646C11.8473 36.261 11.846 36.2584 11.8455 36.2572C11.8445 36.255 11.8471 36.2599 11.8471 36.2711H9.84709C9.84709 37.3658 10.7694 38.2881 11.864 38.2881V36.2881ZM11.8471 36.2711V34.5762H9.84709V36.2711H11.8471ZM10.8471 33.5762H9.83014V35.5762H10.8471V33.5762ZM9.83014 33.5762C7.19597 33.5762 5.06746 31.4477 5.06746 28.8136H3.06746C3.06746 32.5522 6.09138 35.5762 9.83014 35.5762V33.5762ZM5.06746 28.8136V17.2881H3.06746V28.8136H5.06746ZM5.06746 17.2881C5.06746 17.549 4.94523 17.7046 4.91145 17.744C4.86795 17.7948 4.82644 17.8232 4.78625 17.8433L3.89099 16.0549C3.71526 16.1429 3.53817 16.273 3.39297 16.4424C3.25751 16.6004 3.06746 16.8917 3.06746 17.2881H5.06746ZM4.58109 17.9193C4.5785 17.9199 4.68031 17.8978 4.89962 17.8578C5.1048 17.8205 5.39062 17.7715 5.7384 17.7184C6.43482 17.6121 7.37299 17.4905 8.40562 17.4124C10.5245 17.252 12.8474 17.2922 14.3464 17.8801L15.0766 16.0181C13.1179 15.25 10.3901 15.2564 8.25465 15.4181C6.08357 15.5824 4.29737 15.9287 4.09615 15.979L4.58109 17.9193ZM14.3435 17.8789C16.2007 18.6141 18.5357 18.5918 20.3038 18.4279C21.2086 18.344 22.0072 18.2185 22.5834 18.1143C22.872 18.062 23.1056 18.015 23.2691 17.981C23.3497 17.9643 23.4154 17.9503 23.4559 17.9417C23.4779 17.9371 23.4893 17.9347 23.4947 17.9337C23.498 17.933 23.4929 17.9341 23.4837 17.9356C23.4795 17.9364 23.4675 17.9384 23.4515 17.9405C23.4492 17.9409 23.393 17.9491 23.3216 17.9491V15.9491C23.2492 15.9491 23.1913 15.9575 23.1867 15.9582C23.1683 15.9606 23.1534 15.9631 23.1456 15.9644C23.1292 15.9672 23.1145 15.9701 23.1057 15.9719C23.0869 15.9756 23.0644 15.9803 23.0432 15.9848C22.9972 15.9945 22.9391 16.0069 22.8623 16.0228C22.7109 16.0543 22.4948 16.0978 22.2273 16.1462C21.6911 16.2432 20.9517 16.3593 20.1192 16.4364C18.4128 16.5946 16.4765 16.5723 15.0795 16.0193L14.3435 17.8789ZM23.6377 17.8978C23.5599 17.9238 23.4469 17.9433 23.3132 17.9232C23.1779 17.9029 23.063 17.8483 22.976 17.7831C22.8193 17.6656 22.7805 17.5388 22.7797 17.5364L24.6771 16.9042C24.6086 16.6984 24.468 16.4021 24.1758 16.1829C23.8312 15.9246 23.4011 15.8686 23.0055 16.0004L23.6377 17.8978ZM22.7797 17.5364C22.7538 17.4585 22.7342 17.3456 22.7543 17.2118C22.7746 17.0765 22.8292 16.9617 22.8944 16.8746C23.0119 16.718 23.1387 16.6791 23.1411 16.6783L23.7734 18.5758C23.9792 18.5072 24.2755 18.3667 24.4946 18.0744C24.753 17.7298 24.8089 17.2997 24.6771 16.9042L22.7797 17.5364ZM23.1411 16.6783C23.1638 16.6708 22.8542 16.7534 22.2654 16.8633C21.7048 16.9679 20.9403 17.0878 20.0799 17.1649C18.3231 17.3224 16.3114 17.2867 14.8054 16.6961L14.0752 18.558C16.0269 19.3234 18.422 19.3215 20.2584 19.157C22.1015 18.9918 23.5738 18.6423 23.7734 18.5758L23.1411 16.6783ZM14.8155 16.7001C13.1684 16.0334 10.8696 15.9839 8.95046 16.0948C6.98845 16.2082 5.22682 16.5038 4.53942 16.6485L4.95138 18.6056C5.55217 18.4791 7.21428 18.1985 9.06583 18.0915C10.9602 17.982 12.8649 18.0682 14.0651 18.554L14.8155 16.7001ZM3.7454 17.6271V28.8135H5.7454V17.6271H3.7454ZM3.7454 28.8135C3.7454 32.1455 6.49817 34.8982 9.83014 34.8982V32.8982C7.60274 32.8982 5.7454 31.0409 5.7454 28.8135H3.7454ZM9.83014 34.8982H11.1861V32.8982H9.83014V34.8982ZM11.1861 34.8982C11.0605 34.8982 10.8782 34.852 10.7248 34.6986C10.5713 34.5451 10.5251 34.3628 10.5251 34.2372H12.5251C12.5251 33.9082 12.4111 33.5564 12.139 33.2844C11.8669 33.0123 11.5151 32.8982 11.1861 32.8982V34.8982ZM10.5251 34.2372V36.2711H12.5251V34.2372H10.5251ZM10.5251 36.2711C10.5251 36.6001 10.6392 36.9519 10.9112 37.224C11.1833 37.4961 11.5351 37.6101 11.8641 37.6101V35.6101C11.9897 35.6101 12.172 35.6564 12.3255 35.8098C12.4789 35.9632 12.5251 36.1455 12.5251 36.2711H10.5251ZM11.8641 37.6101H18.6437V35.6101H11.8641V37.6101ZM18.6437 37.6101C18.9727 37.6101 19.3246 37.4961 19.5966 37.224C19.8687 36.9519 19.9828 36.6001 19.9828 36.2711H17.9828C17.9828 36.1455 18.029 35.9632 18.1824 35.8098C18.3358 35.6564 18.5181 35.6101 18.6437 35.6101V37.6101ZM19.9828 36.2711V34.2372H17.9828V36.2711H19.9828ZM19.9828 34.2372C19.9828 34.3628 19.9365 34.5451 19.7831 34.6986C19.6297 34.852 19.4474 34.8982 19.3218 34.8982V32.8982C18.9928 32.8982 18.641 33.0123 18.3689 33.2844C18.0968 33.5564 17.9828 33.9082 17.9828 34.2372H19.9828ZM19.3218 34.8982H20.6777V32.8982H19.3218V34.8982ZM20.6777 34.8982C24.0097 34.8982 26.7625 32.1455 26.7625 28.8135H24.7625C24.7625 31.0409 22.9051 32.8982 20.6777 32.8982V34.8982ZM26.7625 28.8135V7.11864H24.7625V28.8135H26.7625ZM26.7625 7.11864C26.7625 5.27827 25.2301 3.74573 23.3896 3.74573V5.74573C24.1254 5.74573 24.7625 6.38279 24.7625 7.11864H26.7625ZM23.3896 3.74573H7.11831V5.74573H23.3896V3.74573ZM7.11831 3.74573C5.27794 3.74573 3.7454 5.27814 3.7454 7.11864H5.7454C5.7454 6.38276 6.38246 5.74573 7.11831 5.74573V3.74573ZM3.7454 7.11864V14.5763H5.7454V7.11864H3.7454ZM3.7454 14.5763C3.7454 14.4507 3.79164 14.2684 3.94506 14.115C4.09848 13.9615 4.28079 13.9153 4.40639 13.9153V15.9153C4.73538 15.9153 5.0872 15.8012 5.35927 15.5292C5.63135 15.2571 5.7454 14.9053 5.7454 14.5763H3.7454ZM4.40639 13.9153C4.53199 13.9153 4.7143 13.9615 4.86772 14.115C5.02114 14.2684 5.06738 14.4507 5.06738 14.5763H3.06738C3.06738 14.9053 3.18143 15.2571 3.45351 15.5292C3.72559 15.8012 4.0774 15.9153 4.40639 15.9153V13.9153ZM5.06738 14.5763V7.11864H3.06738V14.5763H5.06738ZM5.06738 7.11864C5.06738 5.97604 5.97563 5.06779 7.11823 5.06779V3.06779C4.87106 3.06779 3.06738 4.87147 3.06738 7.11864H5.06738ZM7.11823 5.06779H14.9148V3.06779H7.11823V5.06779ZM15.9148 4.06779V1.69489H13.9148V4.06779H15.9148ZM15.9148 1.69489C15.9148 1.82049 15.8686 2.0028 15.7151 2.15622C15.5617 2.30964 15.3794 2.35588 15.2538 2.35588V0.355878C14.9248 0.355878 14.573 0.469928 14.3009 0.742005C14.0289 1.01408 13.9148 1.3659 13.9148 1.69489H15.9148ZM15.2538 2.35588H32.6097V0.355878H15.2538V2.35588ZM33.5859 1.573C33.6298 1.37543 33.7035 1.2298 33.786 1.1446C33.8419 1.08682 33.9508 1 34.2369 1V-1C33.4383 -1 32.8014 -0.713924 32.3488 -0.246285C31.9228 0.193923 31.7253 0.726235 31.6336 1.13876L33.5859 1.573ZM34.2369 1C34.4396 1 34.559 1.03966 34.6266 1.07346C34.6938 1.10708 34.7439 1.15188 34.7859 1.20916C34.8832 1.34223 34.9319 1.54178 34.9319 1.69489H36.9319C36.9319 1.23782 36.811 0.589934 36.3999 0.0280985C35.9521 -0.583806 35.2249 -1 34.2369 -1V1ZM34.9319 1.69489V39.661H36.9319V1.69489H34.9319ZM34.9319 39.661C34.9319 39.5354 34.9781 39.3531 35.1315 39.1997C35.285 39.0462 35.4673 39 35.5929 39V41C35.9219 41 36.2737 40.8859 36.5457 40.6139C36.8178 40.3418 36.9319 39.99 36.9319 39.661H34.9319ZM11.1861 28.1525H7.11831V30.1525H11.1861V28.1525ZM7.11831 28.1525C7.24391 28.1525 7.42622 28.1987 7.57964 28.3522C7.73306 28.5056 7.7793 28.6879 7.7793 28.8135H5.7793C5.7793 29.1425 5.89335 29.4943 6.16542 29.7664C6.4375 30.0384 6.78931 30.1525 7.11831 30.1525V28.1525ZM7.7793 28.8135C7.7793 28.9391 7.73304 29.1215 7.57952 29.275C7.42603 29.4284 7.24374 29.4746 7.11831 29.4746V27.4746C6.78949 27.4746 6.43769 27.5885 6.16554 27.8605C5.89337 28.1326 5.7793 28.4845 5.7793 28.8135H7.7793ZM7.11831 29.4746H11.1861V27.4746H7.11831V29.4746ZM11.1861 29.4746C11.0605 29.4746 10.8782 29.4283 10.7248 29.2749C10.5713 29.1215 10.5251 28.9392 10.5251 28.8136H12.5251C12.5251 28.4846 12.4111 28.1328 12.139 27.8607C11.8669 27.5886 11.5151 27.4746 11.1861 27.4746V29.4746ZM10.5251 28.8136C10.5251 28.6879 10.5714 28.5055 10.7249 28.3521C10.8784 28.1986 11.0607 28.1525 11.1861 28.1525V30.1525C11.5149 30.1525 11.8667 30.0386 12.1389 29.7665C12.411 29.4944 12.5251 29.1426 12.5251 28.8136H10.5251ZM8.47427 24.0847H7.11831V26.0847H8.47427V24.0847ZM7.11831 24.0847C7.24391 24.0847 7.42622 24.1309 7.57964 24.2844C7.73306 24.4378 7.7793 24.6201 7.7793 24.7457H5.7793C5.7793 25.0747 5.89335 25.4265 6.16542 25.6986C6.4375 25.9707 6.78932 26.0847 7.11831 26.0847V24.0847ZM7.7793 24.7457C7.7793 24.8713 7.73306 25.0536 7.57964 25.207C7.42622 25.3604 7.24391 25.4067 7.11831 25.4067V23.4067C6.78932 23.4067 6.4375 23.5207 6.16542 23.7928C5.89335 24.0649 5.7793 24.4167 5.7793 24.7457H7.7793ZM7.11831 25.4067H8.47427V23.4067H7.11831V25.4067ZM8.47427 25.4067C8.34866 25.4067 8.16635 25.3604 8.01293 25.207C7.85951 25.0536 7.81327 24.8713 7.81327 24.7457H9.81327C9.81327 24.4167 9.69922 24.0649 9.42715 23.7928C9.15507 23.5207 8.80326 23.4067 8.47427 23.4067V25.4067ZM7.81327 24.7453C7.81332 24.6201 7.85943 24.4379 8.0129 24.2844C8.16641 24.1309 8.34879 24.0847 8.47427 24.0847V26.0847C8.80313 26.0847 9.15497 25.9707 9.42712 25.6986C9.69923 25.4265 9.81315 25.0748 9.81327 24.7461L7.81327 24.7453ZM8.47427 20.0169H7.11831V22.0169H8.47427V20.0169ZM7.11831 20.0169C7.24391 20.0169 7.42622 20.0631 7.57964 20.2166C7.73306 20.37 7.7793 20.5523 7.7793 20.6779H5.7793C5.7793 21.0069 5.89335 21.3587 6.16542 21.6308C6.4375 21.9029 6.78932 22.0169 7.11831 22.0169V20.0169ZM7.7793 20.6779C7.7793 20.8035 7.73306 20.9858 7.57964 21.1392C7.42622 21.2926 7.24391 21.3389 7.11831 21.3389V19.3389C6.78932 19.3389 6.4375 19.4529 6.16542 19.725C5.89335 19.9971 5.7793 20.3489 5.7793 20.6779H7.7793ZM7.11831 21.3389H8.47427V19.3389H7.11831V21.3389ZM8.47427 21.3389C8.34866 21.3389 8.16635 21.2926 8.01293 21.1392C7.85951 20.9858 7.81327 20.8035 7.81327 20.6779H9.81327C9.81327 20.3489 9.69922 19.9971 9.42715 19.725C9.15507 19.4529 8.80326 19.3389 8.47427 19.3389V21.3389ZM7.81327 20.6775C7.81332 20.5523 7.85943 20.3701 8.0129 20.2166C8.16641 20.0631 8.34879 20.0169 8.47427 20.0169V22.0169C8.80313 22.0169 9.15497 21.903 9.42712 21.6308C9.69923 21.3587 9.81315 21.007 9.81327 20.6783L7.81327 20.6775ZM11.1861 11.8813H7.11831V13.8813H11.1861V11.8813ZM7.11831 11.8813C7.24391 11.8813 7.42622 11.9276 7.57964 12.081C7.73306 12.2344 7.7793 12.4167 7.7793 12.5423H5.7793C5.7793 12.8713 5.89335 13.2231 6.16542 13.4952C6.4375 13.7673 6.78932 13.8813 7.11831 13.8813V11.8813ZM7.7793 12.5423C7.7793 12.6679 7.73306 12.8502 7.57964 13.0036C7.42622 13.1571 7.24391 13.2033 7.11831 13.2033V11.2033C6.78932 11.2033 6.4375 11.3174 6.16542 11.5894C5.89335 11.8615 5.7793 12.2133 5.7793 12.5423H7.7793ZM7.11831 13.2033H11.1861V11.2033H7.11831V13.2033ZM11.1861 13.2033C11.0605 13.2033 10.8782 13.1571 10.7248 13.0036C10.5713 12.8502 10.5251 12.6679 10.5251 12.5423H12.5251C12.5251 12.2133 12.4111 11.8615 12.139 11.5894C11.8669 11.3174 11.5151 11.2033 11.1861 11.2033V13.2033ZM10.5251 12.5423C10.5251 12.4168 10.5713 12.2345 10.7248 12.081C10.8783 11.9275 11.0607 11.8813 11.1861 11.8813V13.8813C11.5149 13.8813 11.8668 13.7674 12.1389 13.4953C12.4111 13.2231 12.5251 12.8713 12.5251 12.5423H10.5251ZM8.47427 7.81353H7.11831V9.81353H8.47427V7.81353ZM7.11831 7.81353C7.24391 7.81353 7.42622 7.85977 7.57964 8.01319C7.73306 8.16661 7.7793 8.34892 7.7793 8.47452H5.7793C5.7793 8.80351 5.89335 9.15532 6.16542 9.4274C6.4375 9.69948 6.78932 9.81353 7.11831 9.81353V7.81353ZM7.7793 8.47452C7.7793 8.60014 7.73304 8.78254 7.57952 8.93601C7.42604 9.08944 7.24374 9.13559 7.11831 9.13559V7.13559C6.78948 7.13559 6.43768 7.24951 6.16554 7.52156C5.89337 7.79364 5.7793 8.1455 5.7793 8.47452H7.7793ZM7.11831 9.13559H8.47427V7.13559H7.11831V9.13559ZM8.47427 9.13559C8.34866 9.13559 8.16635 9.08935 8.01293 8.93593C7.85951 8.78251 7.81327 8.6002 7.81327 8.4746H9.81327C9.81327 8.1456 9.69922 7.79379 9.42715 7.52171C9.15507 7.24964 8.80326 7.13559 8.47427 7.13559V9.13559ZM7.81327 8.4746C7.81327 8.34897 7.85953 8.16658 8.01305 8.01311C8.16654 7.85968 8.34883 7.81353 8.47427 7.81353V9.81353C8.80309 9.81353 9.15489 9.69961 9.42703 9.42756C9.69921 9.15547 9.81327 8.80361 9.81327 8.4746H7.81327Z" fill="black" mask="url(#path-4-inside-1_235_1251)"/>
</g>
<defs>
<clipPath id="clip0_235_1251">
<rect width="40" height="40" fill="white"/>
</clipPath>
</defs>
</svg>
