<svg width="44" height="45" viewBox="0 0 44 45" fill="none" xmlns="http://www.w3.org/2000/svg">
<path d="M12.2458 20.625V21.125H12.7458H28.6333V23.875H12.7458H12.2458V24.375V28.9403L4.42797 22.5L12.2458 16.0597V20.625Z" fill="#C11A1D" stroke="black"/>
<path d="M20.0294 8.875H19.5294V9.375V16.375H16.8877V9.375C16.8877 7.5691 18.3108 6.125 20.0294 6.125H36.4169C38.1354 6.125 39.5585 7.5691 39.5585 9.375V35.625C39.5585 37.4309 38.1354 38.875 36.4169 38.875H20.0294C18.3108 38.875 16.8877 37.4309 16.8877 35.625V28.625H19.5294V35.625V36.125H20.0294H36.4169H36.9169V35.625V9.375V8.875H36.4169H20.0294Z" fill="#C11A1D" stroke="black"/>
</svg>
