<svg width="40" height="40" viewBox="0 0 40 40" fill="none" xmlns="http://www.w3.org/2000/svg">
<g clip-path="url(#clip0_235_1251)">
<path d="M26.1012 16.7458V28.8136C26.1012 31.7966 23.6605 34.2373 20.6774 34.2373H19.3215V36.2712C19.3215 36.6102 19.0504 36.9491 18.6436 36.9491H15.2538H11.8639C11.5249 36.9491 11.186 36.6101 11.186 36.2712V34.2373H9.83C6.84693 34.2373 4.40625 31.7966 4.40625 28.8136V17.2882C4.40625 17.2882 11.1859 15.9322 14.5757 17.2882C19.0504 19.1187 26.1012 16.7458 26.1012 16.7458Z" fill="#74FFCD"/>
<path d="M35.5927 1.69482V39.6609H32.8809V1.69482C32.8809 1.69482 32.8809 0.338867 34.2368 0.338867C35.5927 0.338947 35.5927 1.69482 35.5927 1.69482Z" fill="#AAB1BA"/>
<path d="M26.1012 7.11857V16.7457C26.1012 16.7457 19.0503 19.1186 14.5757 17.2881C11.1859 15.9321 4.40625 17.2881 4.40625 17.2881V7.11857C4.40625 5.62708 5.62659 4.40674 7.11809 4.40674H15.2538H23.3893C24.8808 4.40674 26.1012 5.62708 26.1012 7.11857Z" fill="#ECF4F7"/>
<path d="M35.5929 40C35.3895 40 35.2539 39.8644 35.2539 39.661V1.69489C35.2539 1.55927 35.1861 0.677939 34.2369 0.677939C33.2877 0.677939 33.22 1.55927 33.22 1.69489V39.661C33.22 39.8644 33.0843 40 32.8809 40C32.6776 40 32.5419 39.8644 32.5419 39.661V2.0339H15.5929V4.06779H23.3895C25.0844 4.06779 26.4403 5.42375 26.4403 7.11864V28.8136C26.4403 32 23.864 34.5762 20.6776 34.5762H19.6607V36.2711C19.6607 36.8135 19.1861 37.2881 18.6437 37.2881H15.5929V39.661C15.5929 39.8644 15.4573 40 15.2539 40C15.0505 40 14.9149 39.8644 14.9149 39.661V37.2881H11.864C11.3216 37.2881 10.8471 36.8135 10.8471 36.2711V34.5762H9.83014C6.64368 34.5762 4.06746 32 4.06746 28.8136V17.2881C4.06746 17.1525 4.20308 17.017 4.33862 16.9491C4.60978 16.8813 11.2539 15.5932 14.7115 16.9491C17.9657 18.2372 23.2539 16.9491 23.3216 16.9491C23.525 16.8813 23.6606 17.0169 23.7284 17.2203C23.7962 17.4237 23.6606 17.5593 23.4573 17.6271C23.2539 17.6948 17.898 18.983 14.4403 17.6271C11.5929 16.4745 6.03359 17.3559 4.7454 17.6271V28.8135C4.7454 31.5932 7.05046 33.8982 9.83014 33.8982H11.1861C11.3895 33.8982 11.5251 34.0338 11.5251 34.2372V36.2711C11.5251 36.4745 11.6607 36.6101 11.8641 36.6101H18.6437C18.8471 36.6101 18.9828 36.4745 18.9828 36.2711V34.2372C18.9828 34.0338 19.1184 33.8982 19.3218 33.8982H20.6777C23.4574 33.8982 25.7625 31.5932 25.7625 28.8135V7.11864C25.7625 5.83053 24.6777 4.74573 23.3896 4.74573H7.11831C5.8302 4.74573 4.7454 5.83045 4.7454 7.11864V14.5763C4.7454 14.7797 4.60978 14.9153 4.40639 14.9153C4.203 14.9153 4.06738 14.7797 4.06738 14.5763V7.11864C4.06738 5.42375 5.42334 4.06779 7.11823 4.06779H14.9148V1.69489C14.9148 1.4915 15.0504 1.35588 15.2538 1.35588H32.6097C32.7454 0.745789 33.1522 0 34.2369 0C35.5929 0 35.9319 1.08472 35.9319 1.69489V39.661C35.9319 39.8644 35.7963 40 35.5929 40ZM11.1861 29.1525H7.11831C6.91492 29.1525 6.7793 29.0169 6.7793 28.8135C6.7793 28.6101 6.91492 28.4746 7.11831 28.4746H11.1861C11.3895 28.4746 11.5251 28.6102 11.5251 28.8136C11.5251 29.017 11.3895 29.1525 11.1861 29.1525ZM8.47427 25.0847H7.11831C6.91492 25.0847 6.7793 24.9491 6.7793 24.7457C6.7793 24.5423 6.91492 24.4067 7.11831 24.4067H8.47427C8.67765 24.4067 8.81327 24.5423 8.81327 24.7457C8.81319 24.9492 8.67765 25.0847 8.47427 25.0847ZM8.47427 21.0169H7.11831C6.91492 21.0169 6.7793 20.8813 6.7793 20.6779C6.7793 20.4745 6.91492 20.3389 7.11831 20.3389H8.47427C8.67765 20.3389 8.81327 20.4745 8.81327 20.6779C8.81319 20.8814 8.67765 21.0169 8.47427 21.0169ZM11.1861 12.8813H7.11831C6.91492 12.8813 6.7793 12.7457 6.7793 12.5423C6.7793 12.3389 6.91492 12.2033 7.11831 12.2033H11.1861C11.3895 12.2033 11.5251 12.3389 11.5251 12.5423C11.5251 12.7458 11.3895 12.8813 11.1861 12.8813ZM8.47427 8.81353H7.11831C6.91492 8.81353 6.7793 8.67791 6.7793 8.47452C6.7793 8.27113 6.91492 8.13559 7.11831 8.13559H8.47427C8.67765 8.13559 8.81327 8.27121 8.81327 8.4746C8.81327 8.67799 8.67765 8.81353 8.47427 8.81353Z" fill="#51565F"/>
</g>
<defs>
<clipPath id="clip0_235_1251">
<rect width="40" height="40" fill="white"/>
</clipPath>
</defs>
</svg>
