<svg width="51" height="51" viewBox="0 0 51 51" fill="none" xmlns="http://www.w3.org/2000/svg">
<path d="M25.3623 0.182617C11.38 0.182617 0.0449219 11.5177 0.0449219 25.5C0.0449219 39.4823 11.38 50.8174 25.3623 50.8174C39.3446 50.8174 50.6797 39.4823 50.6797 25.5C50.6797 11.5177 39.3446 0.182617 25.3623 0.182617ZM37.8232 30.5468C39.8701 32.5936 39.8701 35.9129 37.8232 37.9609C35.7764 40.0078 32.4571 40.0078 30.4091 37.9609L25.3623 32.9141L20.3155 37.9609C18.2687 40.0078 14.9494 40.0078 12.9014 37.9609C10.8545 35.9141 10.8545 32.5948 12.9014 30.5468L17.9482 25.5L12.9014 20.4532C10.8545 18.4064 10.8545 15.0871 12.9014 13.0391C14.9482 10.9922 18.2675 10.9922 20.3155 13.0391L25.3623 18.0859L30.4091 13.0391C32.4559 10.9922 35.7752 10.9922 37.8232 13.0391C39.8701 15.0859 39.8701 18.4052 37.8232 20.4532L32.7752 25.5L37.8232 30.5468Z" fill="#A54949"/>
</svg>
