<svg width="100" height="93" viewBox="0 0 100 93" fill="none" xmlns="http://www.w3.org/2000/svg">
<path d="M27.4434 84.3126C26.6768 84.3126 25.965 84.1626 25.3283 83.8659C24.4867 83.4792 23.3533 82.606 22.8084 80.6726L22.3467 79.0392L24.2301 77.6075C26.8818 75.5976 29.89 73.3175 32.95 71.8226L36.835 69.9243L36.54 74.2394C36.3066 77.661 34.7867 80.6026 32.26 82.5261C30.7566 83.6626 29.0033 84.3126 27.4434 84.3126Z" fill="#B3CC96"/>
<path d="M56.862 55.7557C49.3536 45.2607 55.1804 25.4641 59.3103 16.4623L59.9786 15.0039L61.5853 15.0057C94.1021 15.0439 97.5003 15.049 97.5003 22.499C97.5003 25.059 95.4054 26.5773 92.5054 28.6773C90.0671 30.4457 87.0322 32.6439 83.9072 36.184C82.3454 37.9539 81.0072 39.809 79.7089 41.6057C76.4339 46.1424 73.3423 50.4273 67.5107 52.3707C65.0408 53.194 62.7923 54.434 60.4324 56.2725L58.379 57.8742L56.862 55.7557Z" fill="#FF9F99"/>
<path d="M49.5418 32.3023C47.4219 26.9439 44.2584 22.924 39.5867 19.6473L33.3467 15.2689L40.9666 15.099C43.7766 15.0373 46.7398 14.999 50 14.999L59.8732 15.0041L58.4432 18.4574C57.4299 20.9041 55.5465 25.9008 54.3131 31.8875L52.6248 40.0992L49.5418 32.3023Z" fill="#FFCFCC"/>
<path d="M8.90664 84.9993C7.4916 84.9993 6.5916 84.3626 6.08828 83.8294C4.50996 82.1643 4.65 79.5893 4.90156 74.9161C5.01484 72.8095 5.15664 70.1878 5.15664 67.186C5.15664 61.5261 4.25 55.8026 3.52168 51.2044C2.97344 47.7511 2.5 44.7661 2.5 42.4993C2.5 25.0743 3.67168 17.2942 31.4783 15.5011L32.3133 15.4478L33.1217 15.9794L33.1934 16.036C48.3467 22.8077 53.2518 33.9093 53.2816 61.4677C53.2967 61.5593 53.3084 61.6593 53.315 61.771L53.3734 62.906L52.5584 63.696C49.4084 66.7442 45.5816 69.9993 40 69.9993C34.2699 69.9993 29.1633 73.8677 24.2268 77.6077C19.21 81.4093 14.4732 84.9993 8.90664 84.9993Z" fill="#FF877F"/>
<path d="M89.9268 13.1541C84.0268 12.499 72.6551 12.499 50 12.499C4.91172 12.499 0 18.5707 0 42.499C0 44.9641 0.486719 48.0373 1.05176 51.5973C1.80352 56.3439 2.65684 61.7223 2.65684 67.1873C2.65684 70.1207 2.52344 72.5973 2.40508 74.7822C2.1334 79.7939 1.95508 83.1039 4.27168 85.5506C5.46328 86.809 7.1084 87.5006 8.90664 87.5006C13.415 87.5006 17.3699 85.5006 21.1066 82.9689C22.0482 84.7256 23.3584 85.7156 24.3016 86.149C25.2732 86.5939 26.3383 86.8123 27.4465 86.8123C29.5516 86.8123 31.7914 86.0207 33.7697 84.5174C37.3814 81.774 39.1646 77.3941 38.948 72.5906C39.298 72.5539 39.6463 72.499 39.9998 72.499C47.3932 72.499 52.198 67.6439 56.4365 63.3607C59.8215 59.9391 63.3232 56.4008 68.2998 54.7424C74.8947 52.5441 78.3715 47.7273 81.7348 43.0691C82.9965 41.3225 84.2998 39.5158 85.7797 37.8391C88.723 34.5057 91.633 32.3975 93.9713 30.7023C97.0717 28.4574 100 26.3357 100 22.4992C100 16.5791 97.1768 13.9607 89.9268 13.1541ZM30.7467 80.5359C29.2434 81.6742 27.485 82.1127 26.3867 81.601C25.7451 81.3076 25.4084 80.6742 25.215 79.9943C25.3883 79.8627 25.5633 79.7326 25.7367 79.6027C28.5584 77.4645 31.29 75.4178 34.05 74.0693C33.8684 76.7176 32.7199 79.0359 30.7467 80.5359ZM40 67.4992C27.5416 67.4992 18.9066 82.4992 8.90664 82.4992C6.14824 82.4992 7.65664 77.1859 7.65664 67.1859C7.65664 57.1859 5 47.4992 5 42.4992C5 26.2908 5.1084 19.7059 31.6383 17.9959C31.7482 18.0676 31.8332 18.1676 31.9582 18.2209C46.3814 24.5875 50.7814 34.7492 50.7814 61.7176C50.7814 61.7809 50.8131 61.8342 50.8182 61.8977C47.5783 65.0357 44.3834 67.4992 40 67.4992ZM51.8666 31.3824C49.6299 25.7307 46.1799 21.2174 41.0232 17.6008C43.8148 17.5391 46.76 17.5008 50 17.5008C52.1768 17.5008 54.1617 17.5008 56.1334 17.5025C54.6033 21.1926 52.9518 26.0975 51.8666 31.3824ZM82.0316 34.5309C76.5434 40.7492 73.9482 47.5893 66.7184 49.9992C63.6633 51.0176 61.1316 52.5576 58.8951 54.301C52.2734 45.0477 57.3668 26.6893 61.5818 17.5061C94.8816 17.5459 95 17.9775 95 22.4992C95 25.0893 88.5934 27.0959 82.0316 34.5309Z" fill="#573A32"/>
</svg>
