<svg width="72" height="72" viewBox="0 0 72 72" fill="none" xmlns="http://www.w3.org/2000/svg">
<path d="M11.9365 25.7976L15.9213 56.2407C17.063 58.8755 17.6849 61.706 17.7531 64.5766H21.4687C21.4687 64.5766 21.7889 62.2063 21.4687 60.0923C21.4687 60.0923 24.4796 64.6408 31.0138 66.5625C37.548 68.4843 39.9185 68.6766 39.9185 68.6766L41.4559 66.1778C41.4559 66.1778 33.6403 65.4091 30.5013 62.5263C30.5013 62.5263 47.798 67.395 55.4213 49.1373C55.4213 49.1373 62.9062 48.6888 67.2357 51.5726V39.78C64.5691 38.4393 61.665 37.6356 58.6884 37.4146C58.6884 37.4146 58.2402 19.7335 42.6089 14.1601C42.6089 14.1601 33.5763 11.4707 25.6326 14.993C25.6326 14.993 30.1811 10.0601 37.6121 10.0601V7.37071C37.6121 7.37071 24.0012 6.66595 16.8732 19.9908C16.8732 19.9908 17.8812 16.5956 17.3687 13.5206L14.422 14.4163C14.422 14.4163 13.6796 21.6119 11.9365 25.7976Z" fill="#F3D77A"/>
<path d="M11.9366 25.7979C11.9366 25.7979 13.2004 27.0543 13.8437 31.5663C14.4871 36.0784 17.5153 51.2202 15.9214 56.2409C14.6256 54.718 13.1542 53.3537 11.5378 52.1765C9.45978 50.6556 4.98371 47.1469 4.77534 41.0193C4.55891 34.6549 8.03122 30.8982 8.03122 30.8982C8.03122 30.8982 11.0855 27.3804 11.9366 25.7979Z" fill="#F3D77A"/>
<path d="M14.2233 31.6686C14.1247 30.9757 14.4588 30.0251 14.3377 29.4785C12.978 30.262 10.6066 31.9049 9.74029 34.4338C8.90318 36.878 8.81445 39.4164 8.95676 41.4237C9.18737 44.6834 10.7972 47.7244 13.4839 49.5849C14.3241 50.1669 15.5977 50.6505 16.6692 50.9093C16.4606 44.3211 14.706 35.0539 14.2233 31.6686Z" fill="#B3CC96"/>
<path d="M25.9578 18.456C22.4389 19.9422 18.9678 22.6041 16.873 27.3178V47.986C16.873 47.986 20.3614 58.9743 34.0531 58.9743C34.0531 58.9743 51.1459 59.4103 53.1517 39.5268C53.2271 36.6888 52.8744 33.8555 52.1056 31.1225C48.9798 19.9473 36.6476 13.9414 25.9578 18.456Z" fill="#B83677"/>
<path d="M23.8189 23.2128C20.7061 24.4752 18.2124 26.9077 16.873 29.9882V45.7907C16.873 45.7907 19.5413 54.1923 30.0086 54.1923C30.0086 54.1923 43.0774 54.5256 44.611 39.323C44.6687 37.153 44.3991 34.9868 43.8112 32.8972C41.4214 24.3529 31.9922 19.7608 23.8189 23.2128Z" fill="#FF65A7"/>
<path d="M23.8992 19.4746C23.8992 19.4746 21.9722 20.5281 20.3998 23.4693C19.4257 25.2939 19.1504 26.9776 18.787 29.5017C18.2739 33.075 18.0418 39.084 19.2118 45.3957C19.6686 47.9786 20.6104 50.4517 21.9874 52.6842C23.1699 54.5642 25.058 56.6749 27.3798 57.9586C27.3798 57.9586 19.2658 58.538 14.9803 47.3755C12.2736 40.3256 13.2062 34.4104 14.0335 30.6643C14.9086 26.7015 16.9006 23.7747 19.297 21.9794C21.1281 20.6076 21.8153 20.288 23.8992 19.4746Z" fill="#F49F42"/>
<path d="M19.0918 37.0337C19.0918 37.0337 23.7083 36.5293 30.3405 38.1247C36.9728 39.7201 44.3594 39.7797 44.3594 39.7797C44.3594 39.7797 57.8748 39.9717 67.2348 44.211V47.3598C67.2348 47.3598 55.6089 42.9106 44.1076 42.9525C44.1076 42.9525 34.2476 42.519 30.2565 41.4835C25.4706 40.2422 19.5532 41.3156 19.5532 41.3156L19.0918 37.0337Z" fill="#A0CEFF"/>
<path d="M17.9644 34.2133C17.7244 33.9665 17.4347 33.7735 17.1145 33.6472C16.7943 33.5208 16.4509 33.4639 16.1071 33.4803C15.7632 33.4966 15.4268 33.5859 15.12 33.7421C14.8133 33.8983 14.5432 34.1178 14.3277 34.3863C13.7034 35.191 13.1861 36.5674 13.2066 38.9233C13.2066 38.9233 13.1565 42.6553 15.2262 45.2324C15.4478 45.5123 15.7331 45.7352 16.0583 45.8825C16.3834 46.0298 16.7391 46.0972 17.0956 46.0792C17.4521 46.0612 17.7992 45.9583 18.1079 45.7791C18.4166 45.5998 18.678 45.3494 18.8703 45.0486C19.4776 44.0891 19.9979 42.6093 20.0151 40.35C20.0151 40.3508 20.0151 36.2617 17.9644 34.2133Z" fill="white"/>
<path d="M16.6801 55.8676C16.6672 55.8415 16.6503 55.8172 16.6346 55.792C16.6189 55.7668 16.6052 55.7424 16.5878 55.7202C16.5852 55.717 16.5838 55.7134 16.5812 55.7102C15.2404 54.1283 13.7151 52.7124 12.038 51.4927C9.36979 49.5407 5.80346 46.3282 5.62155 40.9905C5.42037 35.0793 8.62205 31.5066 8.65296 31.4729L8.67054 31.4532C8.7976 31.3065 11.7962 27.8454 12.6818 26.1989C12.6867 26.19 12.6888 26.1803 12.6932 26.1712C12.7013 26.1551 12.7108 26.14 12.7178 26.1231C14.4884 21.8713 15.2327 14.8022 15.2636 14.5034C15.2834 14.2816 15.2151 14.061 15.0735 13.8892C14.9319 13.7174 14.7283 13.6083 14.5069 13.5854C14.2854 13.5626 14.0638 13.6278 13.8901 13.7671C13.7164 13.9063 13.6045 14.1084 13.5786 14.3295C13.5712 14.4002 12.8328 21.4039 11.1702 25.4313C10.3655 26.8948 7.55941 30.1483 7.39826 30.3347C7.13757 30.6212 3.70635 34.5249 3.92828 41.0478C4.15868 47.8262 9.3359 51.6149 11.0372 52.8597C12.5634 53.9775 13.9586 55.2638 15.1965 56.6943C16.2563 59.1953 16.8359 61.8733 16.9052 64.5887C16.9083 64.8113 16.999 65.0237 17.1575 65.18C17.316 65.3363 17.5297 65.4239 17.7523 65.4239H17.7641C17.8754 65.4224 17.9853 65.3989 18.0875 65.3549C18.1897 65.3109 18.2822 65.2472 18.3598 65.1675C18.4374 65.0877 18.4985 64.9935 18.5396 64.8901C18.5808 64.7867 18.6011 64.6762 18.5996 64.565C18.5337 61.5721 17.8836 58.621 16.6858 55.8775C16.6844 55.8731 16.6818 55.8712 16.6801 55.8676ZM16.5509 20.7733C16.745 20.8529 16.9616 20.8577 17.1589 20.7868C17.3563 20.7158 17.5203 20.5742 17.6193 20.3894C20.4595 15.0796 24.6677 11.4179 30.1268 9.50592C34.2138 8.0746 37.5127 8.21415 37.5682 8.21542C37.7925 8.22694 38.0123 8.14885 38.1791 7.99833C38.3459 7.84782 38.4461 7.63721 38.4576 7.41283C38.4691 7.18846 38.391 6.9687 38.2405 6.80191C38.09 6.63511 37.8794 6.53494 37.655 6.52342C37.5091 6.51686 34.0366 6.35634 29.6372 7.88253C25.1364 9.43698 21.2036 12.3025 18.3448 16.1104C18.393 15.198 18.3458 14.283 18.2038 13.3804C18.1872 13.2691 18.1486 13.1623 18.0903 13.0662C18.032 12.97 17.9551 12.8864 17.8642 12.8203C17.7732 12.7541 17.67 12.7068 17.5606 12.6809C17.4511 12.6551 17.3376 12.6513 17.2267 12.6698C17.1158 12.6883 17.0097 12.7287 16.9145 12.7886C16.8194 12.8485 16.7371 12.9268 16.6725 13.0189C16.6079 13.111 16.5623 13.215 16.5384 13.3248C16.5144 13.4347 16.5126 13.5482 16.5329 13.6588C17.0058 16.4965 16.07 19.7172 16.0607 19.7486C16.001 19.9497 16.018 20.1659 16.1086 20.3553C16.1992 20.5446 16.3568 20.6936 16.5509 20.7733Z" fill="#3C3C4F"/>
<path d="M25.9759 15.7674C33.361 12.4916 41.8906 14.8357 42.3483 14.9667C48.5629 17.1903 53.0559 21.6225 55.7034 28.1421C56.9104 31.1053 57.6326 34.2435 57.8422 37.4363C57.8475 37.6459 57.9305 37.8462 58.0749 37.9982C58.2194 38.1503 58.4151 38.2434 58.6243 38.2594C61.4775 38.4769 64.2617 39.2446 66.8232 40.5202C67.0194 40.6296 67.2511 40.6565 67.4672 40.5951C67.6833 40.5337 67.8661 40.3889 67.9755 40.1927C68.0849 39.9965 68.1118 39.7648 68.0504 39.5487C67.989 39.3326 67.8442 39.1498 67.648 39.0404C65.0988 37.7459 62.3331 36.9318 59.4891 36.6385C59.2045 33.5216 58.4655 30.4631 57.2955 27.5602C54.5002 20.6342 49.5188 15.7247 42.8931 13.3622C42.8789 13.3573 42.865 13.3525 42.8508 13.3482C42.5469 13.2576 36.7208 11.566 30.2436 12.7242C32.52 11.5396 35.0468 10.9165 37.613 10.907C37.8376 10.907 38.0531 10.8178 38.2119 10.6589C38.3708 10.5001 38.46 10.2846 38.46 10.0599C38.46 9.8353 38.3708 9.61984 38.2119 9.46099C38.0531 9.30213 37.8376 9.21289 37.613 9.21289C29.8995 9.21289 25.2068 14.2063 25.0109 14.4185C24.8786 14.5617 24.7998 14.7461 24.7878 14.9407C24.7757 15.1352 24.8311 15.328 24.9446 15.4865C25.0581 15.6449 25.2228 15.7594 25.4109 15.8105C25.599 15.8617 25.799 15.8464 25.9771 15.7672L25.9759 15.7674ZM67.7045 50.8674C63.1906 47.8614 55.6875 48.2731 55.3703 48.2922C55.2121 48.3017 55.0596 48.3554 54.9304 48.4472C54.8012 48.5391 54.7003 48.6653 54.6393 48.8116C51.6032 56.0828 46.6782 60.4646 40.0006 61.8352C36.937 62.4547 33.7764 62.4125 30.7304 61.7113C30.5469 61.6593 30.3512 61.6708 30.1751 61.7438C29.9989 61.8169 29.8525 61.9473 29.7597 62.1139C29.6668 62.2805 29.6329 62.4735 29.6634 62.6618C29.6939 62.8501 29.7871 63.0225 29.9278 63.1513C33.2373 66.1905 41.0419 66.9895 41.3727 67.0221C41.4006 67.0249 41.4288 67.0261 41.4574 67.0261C41.6745 67.0255 41.8831 66.9416 42.0401 66.7916C42.1971 66.6416 42.2905 66.4371 42.301 66.2202C42.3116 66.0034 42.2384 65.7907 42.0967 65.6262C41.955 65.4617 41.7556 65.3579 41.5395 65.3363C39.3251 65.0858 37.1398 64.6243 35.0131 63.9581C36.7769 64.0063 38.5405 63.8559 40.2706 63.51C45.1995 62.5147 51.8859 59.3512 55.9889 49.967C57.7143 49.9333 63.3606 50.0094 66.7666 52.278C66.8592 52.342 66.9635 52.3869 67.0736 52.4101C67.1836 52.4333 67.2972 52.4343 67.4077 52.4132C67.5182 52.392 67.6233 52.3491 67.717 52.2868C67.8107 52.2246 67.8911 52.1443 67.9534 52.0507C68.0157 51.9571 68.0588 51.852 68.0801 51.7415C68.1014 51.6311 68.1004 51.5175 68.0774 51.4074C68.0543 51.2973 68.0095 51.1929 67.9456 51.1003C67.8818 51.0077 67.8001 50.9288 67.7054 50.8681L67.7045 50.8674Z" fill="#3C3C4F"/>
<path d="M39.7065 67.7983C38.8631 67.6821 36.3505 67.2494 31.2523 65.7499C25.1185 63.9459 22.2019 59.6664 22.1739 59.6248C22.0674 59.464 21.9091 59.3443 21.7253 59.2856C21.5415 59.2269 21.3432 59.2327 21.1631 59.302C20.9831 59.3714 20.8321 59.5001 20.7352 59.667C20.6383 59.8338 20.6012 60.0287 20.6301 60.2195C20.9279 62.1832 20.6301 64.441 20.6284 64.4637C20.6024 64.6843 20.6641 64.9064 20.8003 65.082C20.9364 65.2576 21.1361 65.3727 21.3563 65.4024C21.5766 65.4321 21.7996 65.3741 21.9775 65.2409C22.1553 65.1077 22.2737 64.9099 22.3071 64.6903C22.3953 63.973 22.4448 63.2515 22.4553 62.529C24.788 64.8035 27.6453 66.4681 30.7745 67.3754C35.9824 68.9069 38.5943 69.355 39.4755 69.4768C39.6981 69.5075 39.9237 69.4485 40.1028 69.3128C40.2819 69.1771 40.3998 68.9759 40.4305 68.7533C40.4611 68.5307 40.4022 68.305 40.2665 68.126C40.1308 67.9469 39.9295 67.829 39.707 67.7983H39.7065ZM27.2685 58.811C29.4606 59.4978 31.7464 59.8387 34.0435 59.8214H34.1522C36.5976 59.7613 39.0127 59.2645 41.2833 58.3545C44.8723 56.9356 49.6959 53.8227 52.2951 47.0566C52.372 46.8477 52.3636 46.617 52.2717 46.4142C52.1798 46.2115 52.0118 46.0531 51.804 45.9733C51.5962 45.8935 51.3654 45.8986 51.1614 45.9876C50.9574 46.0767 50.7966 46.2424 50.7139 46.4491C48.8122 51.398 45.4502 54.8652 40.7209 56.7546C38.6069 57.6113 36.3547 58.0762 34.0742 58.1266H34.0531C31.9056 58.1458 29.7687 57.8255 27.7213 57.1775C25.8448 56.121 24.0201 54.3239 22.7046 52.233C21.3832 50.0923 20.4807 47.7201 20.045 45.2424C20.0177 45.0955 19.9925 44.9487 19.9667 44.8019C20.3774 43.9145 20.6431 42.9669 20.7536 41.9952C22.6427 41.7568 26.6561 41.4235 30.0443 42.3031C34.0755 43.349 43.6648 43.7806 44.071 43.7984H44.1083C44.1615 43.8011 44.2148 43.8011 44.2679 43.7984C55.4199 43.7984 66.8186 48.1061 66.9329 48.1499C67.1418 48.2261 67.3723 48.2171 67.5745 48.1248C67.7768 48.0325 67.9347 47.8644 68.0142 47.6568C68.0936 47.4491 68.0882 47.2185 67.9992 47.0148C67.9101 46.8111 67.7445 46.6506 67.5381 46.5679C67.0596 46.3847 55.7428 42.1043 44.2718 42.1043H44.1259C43.6305 42.0816 34.2464 41.6422 30.4698 40.6624C26.9905 39.7596 22.9718 40.0294 20.8618 40.2751C20.8396 39.4463 20.7434 38.6211 20.5744 37.8095C23.7986 37.794 27.0123 38.1764 30.1428 38.9481C36.7922 40.5478 44.0477 40.6243 44.348 40.6268C44.4814 40.6287 57.7921 40.864 66.8859 44.9826C66.9875 45.0301 67.0974 45.0569 67.2094 45.0616C67.3215 45.0663 67.4333 45.0487 67.5384 45.0098C67.6436 44.971 67.74 44.9116 67.822 44.8352C67.9041 44.7588 67.9702 44.6669 68.0164 44.5647C68.0627 44.4626 68.0882 44.3523 68.0915 44.2403C68.0948 44.1282 68.0758 44.0166 68.0356 43.9119C67.9955 43.8072 67.935 43.7116 67.8575 43.6305C67.7801 43.5494 67.6874 43.4844 67.5847 43.4395C63.3225 41.5092 58.2755 40.4047 53.9761 39.773C53.9818 39.7187 53.9886 39.6671 53.9941 39.6116C53.9954 39.6004 53.9962 39.5904 53.9968 39.5779C54.0813 36.6456 53.7186 33.7175 52.9213 30.8943C52.1444 28.1358 50.7914 25.5734 48.9514 23.3762C47.1115 21.179 44.8265 19.397 42.2472 18.1478C39.668 16.8986 36.8531 16.2106 33.9885 16.1293C31.1238 16.0479 28.2744 16.575 25.6284 17.6757C24.9119 17.9783 24.2138 18.3226 23.5377 18.707C21.3988 19.5433 20.6365 19.9177 18.7893 21.3018C16.4927 23.0224 14.7335 25.5847 13.719 28.6341C11.9698 29.7141 9.76978 31.735 8.93924 34.1597C8.19933 36.3197 7.92108 38.7847 8.11209 41.4838C8.36769 45.0999 10.1499 48.3067 13.0017 50.2818C13.9603 50.8975 15.0112 51.3559 16.1147 51.6394C20.2274 58.3795 25.7898 58.8125 27.1453 58.8123C27.1912 58.8123 27.2319 58.8117 27.2685 58.811ZM14.0544 38.9369V38.9157C14.0385 37.1081 14.3647 35.7215 14.9978 34.9053C15.1287 34.7359 15.2946 34.5967 15.4841 34.4972C15.6737 34.3978 15.8825 34.3403 16.0963 34.3289C16.1306 34.3266 16.1649 34.3255 16.199 34.3255C16.6373 34.3268 17.0571 34.502 17.3664 34.8126C18.0017 35.4479 18.4134 36.3352 18.6794 37.2134C18.6821 37.2239 18.6857 37.2345 18.6887 37.2445C18.9786 38.2532 19.1397 39.2945 19.1683 40.3437C19.155 42.1238 18.8138 43.5542 18.155 44.5957C18.039 44.7812 17.8799 44.936 17.6913 45.0468C17.5026 45.1576 17.29 45.2213 17.0714 45.2323C16.8459 45.2463 16.6204 45.2055 16.4141 45.1133C16.2078 45.0211 16.027 44.8803 15.887 44.7028C14.6421 43.1529 14.2429 41.0889 14.1148 39.8911C14.0885 39.569 14.0685 39.2509 14.0544 38.9369ZM19.8051 22.6577L19.9419 22.5554C19.8448 22.721 19.7483 22.8928 19.6524 23.0707C18.6359 24.9748 18.3299 26.7253 17.9483 29.3812C17.8963 29.7449 17.8498 30.1093 17.809 30.4744C17.7956 30.5853 17.8043 30.6978 17.8346 30.8054C17.8649 30.913 17.9162 31.0135 17.9855 31.1012C18.0548 31.1888 18.1408 31.2619 18.2385 31.3162C18.3362 31.3705 18.4436 31.4049 18.5547 31.4175C18.6657 31.4301 18.7782 31.4205 18.8855 31.3895C18.9929 31.3584 19.093 31.3064 19.1802 31.2364C19.2673 31.1665 19.3398 31.08 19.3933 30.9819C19.4469 30.8838 19.4806 30.7761 19.4923 30.665C19.5334 30.3011 19.5781 29.9507 19.6251 29.6229C19.9792 27.1588 20.242 25.5623 21.1468 23.8692C22.5631 21.2188 24.292 20.2269 24.3051 20.2188C24.3081 20.2173 24.3102 20.215 24.3131 20.2133C24.3161 20.2116 24.3182 20.2114 24.3208 20.2099C24.956 19.8462 25.6126 19.5213 26.287 19.2369C28.7114 18.2296 31.3218 17.7478 33.946 17.8231C36.5702 17.8985 39.1487 18.5293 41.5113 19.6739C43.8739 20.8186 45.967 22.4511 47.6526 24.4639C49.3382 26.4766 50.5779 28.8238 51.2901 31.3507C52.0267 33.9893 52.3692 36.7224 52.3065 39.4612C52.3038 39.4894 52.3002 39.5165 52.2972 39.5447C49.6658 39.2064 47.019 39.0022 44.3668 38.9327C44.294 38.9327 36.9953 38.8541 30.5386 37.3021C25.7091 36.1401 21.9541 36.0626 20.0959 36.1259C19.7697 35.1892 19.2472 34.3329 18.5633 33.6144C18.2278 33.2787 17.8248 33.018 17.381 32.8497C16.9372 32.6814 16.4627 32.6093 15.9889 32.6382C15.4267 32.6738 14.8837 32.8564 14.4142 33.1676C14.5457 32.3504 14.7001 31.5755 14.8608 30.8477C15.6263 27.3813 17.3823 24.473 19.8051 22.6577ZM13.9663 48.889C11.5391 47.2078 10.0214 44.4652 9.80218 41.3644C9.62726 38.8929 9.87609 36.6535 10.5421 34.7086C11.0097 33.3434 12.0335 32.1463 13.0428 31.2528C12.4839 33.8384 12.2553 36.4844 12.3624 39.1275C12.3673 39.3211 12.3817 39.6334 12.4226 40.0296C12.6425 42.6508 13.2373 45.2269 14.1889 47.6792C14.4244 48.2933 14.6713 48.8706 14.9271 49.4182C14.5922 49.2697 14.2708 49.0927 13.9663 48.889ZM17.4056 50.4955C17.3978 50.4815 17.3903 50.4675 17.3817 50.4531C16.7535 49.3718 16.2153 48.2407 15.7723 47.0712C15.7104 46.9099 15.652 46.75 15.5939 46.5899C16.0279 46.8107 16.5077 46.9264 16.9946 46.9276C17.0519 46.9276 17.11 46.9259 17.1676 46.9228C17.6652 46.8961 18.1487 46.7483 18.5762 46.4923C19.0913 48.8434 20.0028 51.0896 21.2716 53.1349C22.0415 54.3563 22.9578 55.479 24.0002 56.478C22.0276 55.7184 19.5127 54.0664 17.4056 50.4955Z" fill="#3C3C4F"/>
</svg>
