<svg width="127" height="105" viewBox="0 0 127 105" fill="none" xmlns="http://www.w3.org/2000/svg">
<g clip-path="url(#clip0_638_264)">
<path d="M71.0002 86.5922C90.1048 86.5922 105.592 71.1048 105.592 52.0002C105.592 32.8956 90.1048 17.4082 71.0002 17.4082C51.8956 17.4082 36.4082 32.8956 36.4082 52.0002C36.4082 71.1048 51.8956 86.5922 71.0002 86.5922Z" fill="#FFD2C8"/>
<path d="M69.9955 73.52L57.6621 71.4805C57.6621 71.4805 59.7537 77.1003 69.9955 77.1003C80.2373 77.1003 82.3295 71.4805 82.3295 71.4805L69.9955 73.52Z" fill="#D86664"/>
<path d="M78.0052 70.0514C75.9267 69.2382 73.6446 70.0436 72.5175 70.5656C71.9487 70.8262 71.3444 71.0013 70.7243 71.0852C70.2409 71.1526 69.7506 71.1526 69.2672 71.0852C68.6472 71.0014 68.0431 70.8263 67.4744 70.5656C66.3472 70.0436 64.065 69.2382 61.9865 70.0514C60.0349 70.8152 57.4837 70.5514 56.023 70.2968C55.974 70.2889 55.9238 70.2984 55.8811 70.3238C55.8384 70.3491 55.8059 70.3886 55.7894 70.4354C55.7729 70.4822 55.7733 70.5333 55.7907 70.5799C55.808 70.6264 55.8412 70.6653 55.8843 70.6899C60.7362 73.3022 69.9959 73.5201 69.9959 73.5201C69.9959 73.5201 79.2557 73.3022 84.1076 70.6899C84.1508 70.6653 84.184 70.6264 84.2013 70.5798C84.2187 70.5333 84.2191 70.4821 84.2026 70.4353C84.186 70.3884 84.1535 70.3489 84.1108 70.3236C84.068 70.2983 84.0177 70.2888 83.9687 70.2968C82.508 70.5512 79.9579 70.8152 78.0052 70.0514Z" fill="#D86664"/>
<path d="M48.5611 53.3488C49.0107 53.3488 49.3751 52.9843 49.3751 52.5347C49.3751 52.0852 49.0107 51.7207 48.5611 51.7207C48.1115 51.7207 47.7471 52.0852 47.7471 52.5347C47.7471 52.9843 48.1115 53.3488 48.5611 53.3488Z" fill="#F29E9C"/>
<path d="M52.2554 59.1622C52.705 59.1622 53.0695 58.7978 53.0695 58.3482C53.0695 57.8986 52.705 57.5342 52.2554 57.5342C51.8059 57.5342 51.4414 57.8986 51.4414 58.3482C51.4414 58.7978 51.8059 59.1622 52.2554 59.1622Z" fill="#F29E9C"/>
<path d="M54.8599 51.7208C55.3095 51.7208 55.6739 51.3564 55.6739 50.9068C55.6739 50.4572 55.3095 50.0928 54.8599 50.0928C54.4103 50.0928 54.0459 50.4572 54.0459 50.9068C54.0459 51.3564 54.4103 51.7208 54.8599 51.7208Z" fill="#F29E9C"/>
<path d="M60.2554 54.9767C60.705 54.9767 61.0695 54.6122 61.0695 54.1627C61.0695 53.7131 60.705 53.3486 60.2554 53.3486C59.8059 53.3486 59.4414 53.7131 59.4414 54.1627C59.4414 54.6122 59.8059 54.9767 60.2554 54.9767Z" fill="#F29E9C"/>
<path d="M91.4341 53.3488C91.8837 53.3488 92.2482 52.9843 92.2482 52.5347C92.2482 52.0852 91.8837 51.7207 91.4341 51.7207C90.9846 51.7207 90.6201 52.0852 90.6201 52.5347C90.6201 52.9843 90.9846 53.3488 91.4341 53.3488Z" fill="#F29E9C"/>
<path d="M87.7398 59.1622C88.1894 59.1622 88.5538 58.7978 88.5538 58.3482C88.5538 57.8986 88.1894 57.5342 87.7398 57.5342C87.2902 57.5342 86.9258 57.8986 86.9258 58.3482C86.9258 58.7978 87.2902 59.1622 87.7398 59.1622Z" fill="#F29E9C"/>
<path d="M85.1353 51.7208C85.5849 51.7208 85.9493 51.3564 85.9493 50.9068C85.9493 50.4572 85.5849 50.0928 85.1353 50.0928C84.6857 50.0928 84.3213 50.4572 84.3213 50.9068C84.3213 51.3564 84.6857 51.7208 85.1353 51.7208Z" fill="#F29E9C"/>
<path d="M79.7408 54.9767C80.1904 54.9767 80.5548 54.6122 80.5548 54.1627C80.5548 53.7131 80.1904 53.3486 79.7408 53.3486C79.2912 53.3486 78.9268 53.7131 78.9268 54.1627C78.9268 54.6122 79.2912 54.9767 79.7408 54.9767Z" fill="#F29E9C"/>
<path d="M76.4518 56.3772C76.3926 56.3248 76.3178 56.2935 76.2389 56.2884C76.1601 56.2832 76.0818 56.3044 76.0163 56.3486C75.9508 56.3928 75.9019 56.4575 75.8772 56.5326C75.8525 56.6077 75.8535 56.6888 75.88 56.7632C75.9594 57.0329 75.974 57.3175 75.9227 57.5939C75.8714 57.8703 75.7556 58.1307 75.5848 58.354C74.7251 59.8093 73.1993 60.7781 71.9588 61.3664C71.3448 61.6569 70.6741 61.8076 69.9949 61.8076C69.3157 61.8076 68.6449 61.6569 68.031 61.3664C66.7907 60.7781 65.2649 59.8093 64.4049 58.354C64.2341 58.1307 64.1183 57.8703 64.0671 57.5939C64.0158 57.3175 64.0304 57.0329 64.1097 56.7632C64.1364 56.6888 64.1375 56.6075 64.1129 56.5324C64.0883 56.4572 64.0394 56.3923 63.9738 56.3481C63.9083 56.3038 63.8298 56.2826 63.7509 56.2879C63.672 56.2932 63.597 56.3246 63.5379 56.3772C62.9833 56.8661 62.5876 57.7138 63.1356 59.1627C64.4988 61.7021 66.7845 63.6215 69.5214 64.525C69.828 64.6271 70.1594 64.6271 70.466 64.525C73.2028 63.6215 75.4885 61.7021 76.8516 59.1627C77.402 57.7138 77.0064 56.8661 76.4518 56.3772Z" fill="#ED8B84"/>
<path d="M82.9306 72.1193C83.8802 71.7637 84.7811 71.2897 85.6119 70.7085C85.7655 70.5966 85.8752 70.4344 85.9218 70.2502C85.9684 70.0659 85.949 69.8712 85.8671 69.6997C85.7852 69.5282 85.6458 69.3908 85.4732 69.3112C85.3006 69.2317 85.1056 69.2151 84.922 69.2643C84.8824 69.2751 80.9154 70.315 78.3027 69.2926C75.9561 68.3744 73.4566 69.2329 72.1759 69.8263C71.68 70.0532 71.1533 70.2055 70.6128 70.2782C70.204 70.3351 69.7892 70.3351 69.3804 70.2782C68.84 70.2054 68.3134 70.0532 67.8176 69.8265C66.5368 69.2335 64.0378 68.3746 61.6906 69.2926C59.0782 70.315 55.111 69.2751 55.0719 69.2645C54.8883 69.2153 54.6933 69.2318 54.5206 69.3113C54.348 69.3908 54.2086 69.5282 54.1267 69.6996C54.0447 69.8711 54.0253 70.0658 54.0718 70.2501C54.1184 70.4344 54.2279 70.5965 54.3815 70.7085C55.212 71.2895 56.1125 71.7635 57.0616 72.1193C57.7327 73.4405 60.6921 77.9134 69.9968 77.9134C79.3016 77.9134 82.2595 73.4407 82.9306 72.1193ZM62.2835 70.8087C64.0674 70.1098 66.0876 70.819 67.1329 71.3035C67.7744 71.5979 68.4559 71.7956 69.1553 71.8903C69.7132 71.9681 70.2792 71.9681 70.8371 71.8903C71.5366 71.7956 72.2182 71.5978 72.8597 71.3033C73.9054 70.8192 75.9254 70.1109 77.7091 70.8087C78.4821 71.0971 79.2928 71.272 80.116 71.3281C75.6518 72.5212 70.3606 72.6946 69.9964 72.7046C69.6305 72.6942 64.3393 72.522 59.874 71.3281C60.6978 71.2722 61.5091 71.0972 62.2827 70.8087H62.2835ZM59.6877 72.9587C64.3912 74.1831 69.6637 74.3256 69.9773 74.3331H70.0157C70.3293 74.3256 75.6016 74.1831 80.3051 72.9587C78.8384 74.4317 75.835 76.2855 69.9966 76.2855C64.1583 76.2855 61.1531 74.4317 59.6868 72.9587H59.6877ZM65.1063 57.9397C65.0877 57.9073 65.0664 57.8765 65.0428 57.8476C64.8289 57.5689 64.5911 57.0084 65.399 56.3864C65.5701 56.2548 65.6819 56.0607 65.7099 55.8466C65.7378 55.6326 65.6796 55.4162 65.548 55.2451C65.4164 55.074 65.2222 54.9622 65.0082 54.9342C64.7941 54.9063 64.5778 54.9645 64.4067 55.0961C63.5369 55.7651 63.2864 56.4955 63.2295 56.9904C63.1681 57.6375 63.346 58.2846 63.7294 58.8094C65.4871 61.7318 69.5367 63.2802 69.7088 63.345C69.8934 63.4145 70.097 63.4145 70.2816 63.345C70.4538 63.2802 74.504 61.732 76.2608 58.8094C76.6443 58.2846 76.8223 57.6375 76.761 56.9904C76.704 56.4955 76.4535 55.7651 75.5836 55.0961C75.4989 55.031 75.4022 54.9831 75.299 54.9554C75.1957 54.9276 75.0881 54.9204 74.9821 54.9342C74.8761 54.9481 74.7739 54.9827 74.6813 55.036C74.5887 55.0893 74.5075 55.1604 74.4423 55.2451C74.3771 55.3298 74.3293 55.4266 74.3015 55.5298C74.2738 55.633 74.2666 55.7406 74.2804 55.8466C74.2942 55.9526 74.3288 56.0548 74.3822 56.1474C74.4355 56.2401 74.5065 56.3213 74.5913 56.3864C75.3994 57.0082 75.1613 57.5687 74.9551 57.8381C74.929 57.87 74.9053 57.904 74.8844 57.9395C73.6731 59.9894 70.8947 61.3155 69.9953 61.703C69.0956 61.3152 66.3174 59.9892 65.1063 57.9397ZM45.8595 42.8595C46.3779 42.9344 46.9065 42.894 47.4075 42.7409C47.9085 42.5879 48.3695 42.3262 48.7577 41.9743C49.1833 42.2927 49.6322 42.5788 50.1005 42.8303C49.8112 43.0891 49.4764 43.292 49.113 43.4285C48.9097 43.4985 48.7423 43.646 48.6473 43.839C48.5524 44.0319 48.5377 44.2546 48.6064 44.4584C48.6751 44.6621 48.8216 44.8304 49.014 44.9265C49.2063 45.0226 49.4289 45.0387 49.6331 44.9712C50.4344 44.6882 51.1392 44.1841 51.666 43.5173C52.1639 43.6898 52.6746 43.823 53.1933 43.9156C53.1452 44.1741 53.0356 44.4172 52.8737 44.6244C52.7307 44.7831 52.6558 44.9917 52.6652 45.2052C52.6746 45.4187 52.7676 45.6199 52.9241 45.7654C53.0805 45.9109 53.288 45.9891 53.5016 45.983C53.7152 45.977 53.9178 45.8871 54.0658 45.733C54.4721 45.2618 54.7338 44.6834 54.8194 44.0672C54.8465 44.0672 54.8728 44.0693 54.9001 44.0693C56.5223 44.055 58.1202 43.6739 59.5742 42.9544C59.6706 42.9083 59.757 42.8437 59.8285 42.7642C59.8999 42.6847 59.955 42.592 59.9906 42.4912C60.0262 42.3904 60.0416 42.2836 60.036 42.1769C60.0303 42.0702 60.0037 41.9656 59.9576 41.8692C59.9115 41.7728 59.8469 41.6864 59.7674 41.6149C59.6879 41.5435 59.5952 41.4884 59.4944 41.4528C59.3936 41.4172 59.2868 41.4017 59.1801 41.4074C59.0734 41.4131 58.9688 41.4397 58.8724 41.4858C57.4134 42.2192 55.7829 42.5434 54.1543 42.4237C54.1226 42.4184 54.0906 42.415 54.0586 42.4135C53.2542 42.3348 52.4658 42.1385 51.7184 41.831C51.6789 41.8063 51.6374 41.785 51.5943 41.7674C51.5714 41.7583 51.5479 41.7547 51.5248 41.7478C50.685 41.3882 49.9132 40.8872 49.2428 40.2667C49.1554 40.1762 49.0481 40.1074 48.9293 40.0658C48.8106 40.0241 48.6838 40.0108 48.559 40.0269C48.4342 40.0429 48.3149 40.0879 48.2106 40.1583C48.1063 40.2286 48.0199 40.3224 47.9583 40.4321C47.8996 40.5307 47.3458 41.3916 46.0456 41.2429C45.9394 41.2307 45.8319 41.2395 45.7291 41.2688C45.6263 41.2982 45.5304 41.3475 45.4466 41.4139C45.3629 41.4803 45.2931 41.5626 45.2412 41.656C45.1892 41.7494 45.1562 41.8522 45.144 41.9584C45.1318 42.0645 45.1406 42.1721 45.1699 42.2748C45.1993 42.3776 45.2486 42.4736 45.315 42.5573C45.3814 42.641 45.4637 42.7109 45.5571 42.7628C45.6506 42.8147 45.7533 42.8477 45.8595 42.8599V42.8595ZM64.8787 40.698C64.2123 40.1886 63.3778 39.9503 62.5429 40.0312C62.4357 40.0432 62.3319 40.0764 62.2377 40.1289C62.1434 40.1814 62.0605 40.2521 61.9938 40.3369C61.9271 40.4218 61.878 40.519 61.8492 40.623C61.8204 40.7269 61.8126 40.8356 61.8262 40.9426C61.8397 41.0497 61.8745 41.1529 61.9283 41.2464C61.9822 41.3399 62.0541 41.4218 62.1398 41.4872C62.2256 41.5527 62.3235 41.6004 62.4279 41.6277C62.5323 41.655 62.6411 41.6612 62.7479 41.6461C63.0296 41.616 64.4482 41.5796 64.7173 43.8103C64.7411 44.0077 64.8363 44.1896 64.985 44.3216C65.1337 44.4536 65.3255 44.5267 65.5244 44.527C65.5573 44.5269 65.5903 44.5249 65.623 44.521C65.8373 44.4951 66.0325 44.3851 66.1658 44.2152C66.299 44.0454 66.3593 43.8296 66.3335 43.6153C66.1751 42.3049 65.6849 41.3234 64.8787 40.698ZM80.4207 42.9544C81.8747 43.674 83.4728 44.0552 85.095 44.0693C85.1221 44.0693 85.1484 44.0674 85.1755 44.0672C85.2611 44.6834 85.5228 45.2618 85.9292 45.733C86.0062 45.8146 86.0991 45.8796 86.2022 45.924C86.3053 45.9684 86.4164 45.9913 86.5287 45.9911C86.6868 45.991 86.8414 45.9447 86.9736 45.858C87.1057 45.7712 87.2097 45.6477 87.2727 45.5027C87.3356 45.3577 87.3549 45.1974 87.3281 45.0416C87.3012 44.8858 87.2295 44.7412 87.1216 44.6256C86.9587 44.4185 86.8486 44.1748 86.8008 43.9156C87.3195 43.823 87.8302 43.6898 88.328 43.5173C88.8548 44.1841 89.5596 44.6882 90.361 44.9712C90.5644 45.036 90.7852 45.0183 90.9757 44.9219C91.1662 44.8254 91.3112 44.658 91.3794 44.4557C91.4476 44.2534 91.4336 44.0323 91.3404 43.8402C91.2472 43.6481 91.0822 43.5004 90.8811 43.4287C90.5176 43.2921 90.1826 43.0892 89.8932 42.8303C90.3614 42.5788 90.8102 42.2927 91.2358 41.9743C91.6241 42.326 92.0852 42.5877 92.5862 42.7407C93.0873 42.8937 93.6159 42.9343 94.1344 42.8595C94.2406 42.8473 94.3433 42.8143 94.4367 42.7624C94.5301 42.7104 94.6124 42.6406 94.6789 42.5569C94.7453 42.4732 94.7946 42.3772 94.8239 42.2744C94.8533 42.1717 94.8621 42.0641 94.8499 41.9579C94.8376 41.8518 94.8046 41.749 94.7527 41.6556C94.7008 41.5622 94.631 41.4799 94.5472 41.4135C94.4635 41.347 94.3675 41.2978 94.2648 41.2684C94.162 41.2391 94.0544 41.2303 93.9483 41.2425C92.648 41.3907 92.0941 40.5303 92.0407 40.441C91.9791 40.3307 91.8927 40.2363 91.7884 40.1652C91.684 40.0941 91.5645 40.0483 91.4394 40.0313C91.3143 40.0144 91.1869 40.0268 91.0674 40.0676C90.9479 40.1083 90.8395 40.1764 90.7508 40.2662C90.7117 40.3056 86.7807 44.1894 81.1219 41.4858C80.9271 41.3927 80.7034 41.3808 80.4999 41.4527C80.2963 41.5246 80.1297 41.6743 80.0366 41.8691C79.9435 42.0638 79.9316 42.2876 80.0035 42.4911C80.0753 42.6947 80.2251 42.8613 80.4199 42.9544H80.4207ZM74.4704 44.527C74.6692 44.5267 74.861 44.4536 75.0097 44.3216C75.1584 44.1896 75.2536 44.0077 75.2774 43.8103C75.5461 41.5836 76.9588 41.616 77.2449 41.6459C77.4574 41.67 77.6709 41.6095 77.8391 41.4775C78.0074 41.3455 78.1169 41.1526 78.1441 40.9404C78.1713 40.7283 78.1138 40.514 77.9842 40.3438C77.8547 40.1737 77.6633 40.0614 77.4516 40.0312C76.6167 39.95 75.7822 40.1883 75.116 40.698C74.3088 41.3234 73.8194 42.3049 73.6612 43.6153C73.6354 43.8296 73.6957 44.0454 73.8289 44.2152C73.9622 44.3851 74.1574 44.4951 74.3717 44.521C74.4044 44.5249 74.4374 44.5269 74.4704 44.527Z" fill="#3C3C4F"/>
<path d="M49.2757 54.9318L43.9392 60.0518L43.2315 52.4228C42.932 47.8148 43.1226 37.8434 43.1226 37.8434C43.2776 32.8807 43.2363 28.8671 43.1862 26.5903C43.1735 26.0335 42.9492 25.5025 42.5587 25.1054C42.1682 24.7084 41.6411 24.4751 41.0846 24.4531C40.5302 24.431 39.988 24.6202 39.5677 24.9824C39.1474 25.3447 38.8802 25.8529 38.8202 26.4045L38.633 28.1272C37.9797 34.3319 36.1731 49.0786 36.1731 49.0786L34.5133 34.3203C34.3844 33.1721 34.3006 32.0204 34.2618 30.8651C34.1612 27.7897 33.9352 23.6575 33.788 21.1195C33.752 20.4974 33.4794 19.9126 33.0261 19.4849C32.5728 19.0573 31.9732 18.8192 31.35 18.8193H31.279C30.6458 18.8191 30.0372 19.0649 29.5818 19.5049C29.1264 19.9449 28.8598 20.5447 28.8382 21.1775C28.5708 29.0787 27.92 45.9231 27.7718 45.6002C26.2213 41.7626 25.2416 33.5969 25.2416 33.5969C24.9198 30.4719 24.4947 28.0197 24.1845 26.4725C24.079 25.9484 23.7952 25.477 23.3814 25.1384C22.9676 24.7999 22.4493 24.6151 21.9146 24.6155C21.6104 24.6154 21.3092 24.6752 21.0281 24.7916C20.747 24.9079 20.4917 25.0786 20.2766 25.2937C20.0615 25.5088 19.8909 25.7642 19.7746 26.0453C19.6583 26.3264 19.5985 26.6276 19.5987 26.9318C19.5998 29.596 19.6381 33.9772 19.8529 36.8909C20.1796 41.3272 20.3429 49.7641 20.3429 49.7641L20.136 49.3895C18.536 46.4894 17.2294 43.437 16.2355 40.2775L15.615 38.3057C15.4758 37.8479 15.1705 37.4586 14.7591 37.2143C14.572 37.1051 14.3711 37.0217 14.1617 36.9663C12.756 36.5978 11.4774 37.9091 11.806 39.3245L12.5048 42.3341C13.274 46.7714 14.8575 52.4946 15.6714 55.3104C15.9914 56.4166 16.1706 57.5587 16.2046 58.7097C16.3623 64.0896 17.2083 69.9885 17.6056 72.5112C17.7342 73.3282 17.978 74.1228 18.3298 74.8713L19.5117 77.3899C20.0589 78.5547 20.3426 79.8259 20.3427 81.1129V83.9819C26.7318 86.2465 33.6346 86.6399 40.2397 85.1159C40.6513 80.0744 42.6538 79.1964 47.2866 74.1782C50.7159 70.4633 51.9848 66.6682 52.4373 64.7255C52.6692 63.7144 53.0323 62.7379 53.5173 61.8209L53.6151 61.6375C53.8588 61.1804 54.1329 60.7401 54.4355 60.3197L55.1555 59.3185L57.7975 55.3744C57.9615 55.1235 58.1111 54.8635 58.2458 54.5957C58.2581 54.3132 58.1932 54.0326 58.058 53.7842C57.9228 53.5358 57.7225 53.3289 57.4786 53.1858C55.7455 52.1642 53.9008 52.4082 52.475 52.9192C51.2789 53.3576 50.1887 54.0434 49.2757 54.9318Z" fill="#FFD2C8"/>
<path d="M58.2447 54.5953C58.0075 54.4414 57.7512 54.3193 57.4823 54.2321C57.0712 54.1035 56.6372 54.0645 56.2098 54.1178C55.7823 54.171 55.3712 54.3153 55.0041 54.5408C54.6371 54.7663 54.3227 55.0679 54.082 55.4252C53.8414 55.7825 53.6801 56.1873 53.6091 56.6121C53.4821 57.4018 53.668 58.1862 54.3382 58.7383C54.5971 58.9502 54.8703 59.144 55.1558 59.3183L57.9573 55.4246C58.1322 55.1822 58.2321 54.8939 58.2447 54.5953ZM15.2943 37.5141C15.1722 37.0328 14.8806 36.6118 14.4729 36.3283C14.2968 36.2114 14.1045 36.121 13.9022 36.06C12.556 35.6599 11.1308 36.5944 11.5632 38.5501L11.8011 39.3794L11.8502 39.6195C11.9868 40.1544 12.4658 41.3757 13.9562 41.0817C14.0317 41.0735 14.1065 41.0594 14.1798 41.0394C15.2371 40.7677 15.8462 39.503 15.5209 38.3307L15.2943 37.5141ZM22.2944 30.5907C22.2944 30.5907 22.3342 30.5877 22.4043 30.5755C23.67 30.3533 24.5175 28.8585 24.2839 27.3162C24.2338 26.9847 24.1856 26.6771 24.1393 26.3933C23.9398 25.1651 23.1165 24.1948 22.0977 24.0976C20.772 23.9705 19.6645 25.2519 19.6651 26.8505V27.2467C19.6995 28.2342 20.012 30.7152 22.2944 30.5907ZM32.5796 23.681C33.3458 23.0868 33.763 22.0081 33.7104 20.9069L33.7007 20.7028C33.6285 19.1906 32.5974 18.0098 31.3501 18.0098H31.2815C30.0109 18.0098 28.9703 19.2302 28.9273 20.7705L28.8991 21.7737C29.062 23.1103 30.0215 24.1791 31.2084 24.1791H31.4988C31.896 24.109 32.2683 23.9375 32.5796 23.681ZM41.0921 29.6431C41.0921 29.6431 43.1463 30.0242 43.2363 27.2613C43.2316 26.9378 43.2265 26.6282 43.2214 26.3459C43.195 24.8892 42.2575 23.7109 41.0809 23.6527C39.9092 23.5946 38.9014 24.6691 38.7746 26.1119L38.721 26.7216C38.6828 27.1181 38.7322 27.5182 38.8656 27.8935C38.999 28.2689 39.2132 28.6104 39.4931 28.8938C39.9103 29.3395 40.4827 29.6077 41.0921 29.6431Z" fill="#FFF0EE"/>
<path d="M22.2696 56.4503C22.3623 56.8314 22.4377 57.2401 22.5101 57.6313C22.5101 57.6313 22.8862 59.5683 22.9676 59.9425C23.0565 60.3133 23.152 60.6728 23.2448 61.0318L23.2566 61.0777C23.2989 61.2428 23.2813 61.4175 23.207 61.5708C23.1326 61.7242 23.0062 61.8461 22.8504 61.915C22.6946 61.984 22.5193 61.9954 22.3559 61.9473C22.1924 61.8992 22.0513 61.7946 21.9576 61.6523C21.7077 61.2595 21.5099 60.836 21.3689 60.3923C21.1669 59.5304 21.0324 58.6542 20.9666 57.7715C20.96 57.3287 20.9955 56.8863 21.0725 56.4503C21.0976 56.3134 21.1689 56.1892 21.2745 56.0986C21.3802 56.0079 21.5137 55.9563 21.6528 55.9522C21.792 55.9482 21.9283 55.992 22.039 56.0764C22.1497 56.1607 22.2281 56.2805 22.2611 56.4157L22.2696 56.4503ZM29.2038 55.6987C29.2938 56.0602 29.362 56.467 29.4255 56.8505C29.4929 57.2391 29.7099 58.7941 29.7529 59.1865C29.8017 59.5832 29.8287 59.9824 29.8338 60.3821V60.4048C29.8332 60.5684 29.7772 60.7269 29.675 60.8546C29.5727 60.9823 29.4301 61.0716 29.2706 61.1078C29.1111 61.1441 28.944 61.1252 28.7965 61.0543C28.6491 60.9834 28.5301 60.8646 28.4588 60.7173C28.2731 60.3271 28.1295 59.9182 28.0306 59.4976C27.8812 58.6505 27.7987 57.7931 27.7839 56.9331C27.8009 56.4882 27.8689 56.0468 27.9866 55.6174C28.0239 55.4856 28.1037 55.3698 28.2135 55.288C28.3234 55.2062 28.4572 55.1629 28.5941 55.1649C28.7311 55.167 28.8635 55.2141 28.9709 55.2991C29.0783 55.3841 29.1547 55.5021 29.1881 55.635L29.2038 55.6987ZM36.5612 55.0954C36.7407 55.502 36.8838 55.9237 36.9887 56.3556C37.1522 57.2133 37.2583 58.081 37.3064 58.9529C37.3053 59.3937 37.2621 59.8333 37.1774 60.2658C37.1402 60.4568 37.0352 60.6278 36.8816 60.7473C36.7281 60.8667 36.5365 60.9265 36.3423 60.9156C36.1481 60.9047 35.9644 60.8238 35.8252 60.6878C35.686 60.5519 35.6008 60.3702 35.5853 60.1763L35.5828 60.1432C35.5508 59.7466 35.5498 59.3557 35.5371 58.9618C35.5371 58.9618 35.4809 56.9841 35.4659 56.5843C35.4504 56.1889 35.4278 55.7739 35.4214 55.3933V55.3491C35.4192 55.2118 35.4644 55.078 35.5494 54.9703C35.6344 54.8625 35.754 54.7873 35.888 54.7574C36.0219 54.7276 36.1621 54.7449 36.2848 54.8063C36.4075 54.8678 36.5053 54.9698 36.5616 55.095L36.5612 55.0954Z" fill="#ED8B84"/>
<path d="M20.3422 84.8281C20.5669 84.8281 20.7823 84.7388 20.9412 84.58C21.1 84.4211 21.1893 84.2057 21.1893 83.981V81.1124C21.1875 79.7012 20.8767 78.3075 20.2787 77.0292L19.0964 74.5115C18.7786 73.8355 18.5583 73.1178 18.4421 72.3799C18.0766 70.0577 17.209 64.0749 17.051 58.6853C17.0148 57.463 16.8246 56.2502 16.4849 55.0756C15.6508 52.1896 14.1555 46.7638 13.3858 42.4527C13.5121 42.4699 13.6394 42.4788 13.7669 42.4794C13.9668 42.4787 14.1662 42.461 14.3631 42.4262C14.5844 42.3877 14.7814 42.2629 14.9107 42.0791C15.0399 41.8954 15.091 41.6678 15.0525 41.4465C15.014 41.2251 14.8891 41.0282 14.7054 40.8989C14.5216 40.7696 14.2941 40.7186 14.0727 40.7571C13.9323 40.7946 13.7858 40.8035 13.6418 40.7833C13.4979 40.7631 13.3595 40.7142 13.2348 40.6395C13.0431 40.4833 12.905 40.2713 12.8396 40.0328L12.6308 39.1335C12.5861 38.9418 12.5921 38.7418 12.6482 38.5531C12.7043 38.3644 12.8086 38.1936 12.9508 38.0575C13.0786 37.9294 13.2377 37.8369 13.4123 37.7893C13.5869 37.7417 13.7709 37.7405 13.9461 37.786C14.082 37.8224 14.2124 37.8769 14.3338 37.9478C14.5624 38.0857 14.731 38.3043 14.8063 38.5604L15.4265 40.5322C15.9543 42.2085 16.5686 43.8563 17.267 45.4691C17.3099 45.5731 17.3731 45.6675 17.4529 45.7468C17.5326 45.8261 17.6274 45.8888 17.7317 45.931C17.8359 45.9733 17.9476 45.9944 18.0601 45.9931C18.1726 45.9918 18.2837 45.968 18.3869 45.9233C18.4901 45.8785 18.5834 45.8137 18.6613 45.7325C18.7392 45.6513 18.8001 45.5554 18.8406 45.4504C18.881 45.3454 18.9001 45.2334 18.8967 45.121C18.8934 45.0085 18.8677 44.8978 18.8211 44.7954C18.1462 43.2367 17.5524 41.644 17.0423 40.0237L16.422 38.052C16.2201 37.3916 15.7776 36.8312 15.1822 36.4816C14.9294 36.3345 14.658 36.2222 14.3753 36.1474C13.918 36.0269 13.4372 36.0277 12.9802 36.1496C12.5232 36.2715 12.1059 36.5104 11.7694 36.8426C11.4169 37.1814 11.1588 37.6061 11.0204 38.0749C10.882 38.5437 10.8681 39.0405 10.9801 39.5163L11.137 40.1921C11.1466 40.2471 11.1652 40.3374 11.1974 40.4521L11.6734 42.5029C12.443 46.9304 13.9975 52.5731 14.8567 55.5461C15.157 56.5838 15.3251 57.6552 15.3571 58.7351C15.5178 64.2215 16.3973 70.2894 16.7681 72.6433C16.9091 73.5393 17.1765 74.4108 17.5622 75.2317L18.7447 77.7496C19.2374 78.8023 19.4935 79.9501 19.4952 81.1124V83.981C19.4952 84.2057 19.5844 84.4211 19.7433 84.58C19.9021 84.7388 20.1176 84.8281 20.3422 84.8281ZM31.2795 19.6668H31.3504C31.7573 19.6671 32.1487 19.8227 32.4447 20.1019C32.7407 20.3811 32.9189 20.7629 32.9429 21.1691C33.1047 23.9605 33.3181 27.9138 33.4155 30.8935C33.4536 32.0548 33.54 33.2399 33.672 34.4151L34.2346 39.4255C34.2599 39.6486 34.3727 39.8525 34.5482 39.9925C34.7238 40.1325 34.9477 40.197 35.1709 40.172C35.394 40.1469 35.598 40.0343 35.7381 39.8589C35.8783 39.6834 35.943 39.4595 35.9182 39.2364L35.3555 34.2263C35.2284 33.095 35.1454 31.9549 35.1088 30.838C35.0105 27.8407 34.7964 23.8722 34.634 21.0708C34.5846 20.2332 34.2172 19.446 33.6069 18.8702C32.9966 18.2944 32.1895 17.9733 31.3504 17.9727H31.2795C30.4438 17.9696 29.6386 18.2863 29.029 18.8579C28.4194 19.4294 28.0515 20.2125 28.0007 21.0467L27.9931 21.0856C27.9336 21.4055 27.9228 21.7324 27.9611 22.0555C27.7578 27.9587 27.4615 35.6036 27.2369 40.5188C26.5169 37.0734 26.0891 33.5552 26.0838 33.5113C25.7564 30.3317 25.3215 27.8386 25.0146 26.3071C24.9013 25.7465 24.6382 25.2272 24.2532 24.8043C23.8682 24.3814 23.3758 24.0707 22.8283 23.9054C22.2808 23.7401 21.6988 23.7262 21.1441 23.8654C20.5894 24.0045 20.0828 24.2914 19.6781 24.6956C19.0993 25.2721 18.7681 26.0516 18.7551 26.8685C18.7551 26.8708 18.7551 26.8729 18.7538 26.8751C18.7456 27.0226 18.7451 27.1705 18.7523 27.3181C18.7567 29.8425 18.7985 34.1047 19.0081 36.9534C19.3294 41.3157 19.4952 49.6967 19.4952 49.7808C19.4995 50.0026 19.5906 50.2138 19.749 50.3691C19.9074 50.5244 20.1204 50.6114 20.3422 50.6113H20.359C20.5835 50.607 20.7972 50.5136 20.953 50.3518C21.1087 50.1899 21.1938 49.9728 21.1895 49.7482C21.1878 49.6635 21.022 41.2374 20.6976 36.8291C20.5652 35.0335 20.501 32.6531 20.471 30.5166C20.9838 30.7905 21.5582 30.9285 22.1395 30.9174C22.2049 30.9174 22.2716 30.9162 22.3398 30.913C22.4515 30.9089 22.5612 30.8827 22.6627 30.8359C22.7643 30.7892 22.8555 30.7229 22.9313 30.6407C23.007 30.5585 23.0658 30.4622 23.1041 30.3572C23.1425 30.2523 23.1597 30.1408 23.1548 30.0291C23.1498 29.9175 23.1229 29.8079 23.0754 29.7067C23.0279 29.6056 22.9609 29.5148 22.8782 29.4396C22.7955 29.3645 22.6988 29.3064 22.5935 29.2688C22.4883 29.2312 22.3767 29.2148 22.265 29.2206C21.7043 29.2447 21.2909 29.1147 21.0029 28.8229C20.5932 28.4074 20.4699 27.7041 20.4462 27.2649V26.932C20.4481 26.5692 20.5843 26.22 20.8284 25.9516C21.0725 25.6832 21.4073 25.5147 21.7683 25.4784C22.1292 25.4422 22.4909 25.5408 22.7834 25.7553C23.076 25.9698 23.2789 26.285 23.3529 26.6402C23.6527 28.1357 24.0773 30.5716 24.3994 33.6992C24.4395 34.0325 25.3858 41.8081 26.9245 45.7585V50.4627C26.9245 50.6873 27.0138 50.9028 27.1726 51.0616C27.3315 51.2205 27.5469 51.3097 27.7716 51.3097C27.9962 51.3097 28.2117 51.2205 28.3705 51.0616C28.5294 50.9028 28.6186 50.6873 28.6186 50.4627V45.698C28.6615 45.4426 28.6891 45.1849 28.7012 44.9263C28.7334 44.4668 28.7724 43.7912 28.8173 42.9179C28.8979 41.3439 28.9975 39.1328 29.1137 36.3469C29.2779 32.3949 29.4441 28.0084 29.5701 24.4967C30.0665 24.7844 30.6299 24.9361 31.2036 24.9366H31.5046C31.7292 24.9366 31.9447 24.8473 32.1035 24.6885C32.2624 24.5296 32.3516 24.3142 32.3516 24.0895C32.3516 23.8648 32.2624 23.6494 32.1035 23.4905C31.9447 23.3317 31.7292 23.2424 31.5046 23.2424H31.2036C30.9713 23.2428 30.7418 23.1917 30.5315 23.0928C30.3212 22.994 30.1355 22.8498 29.9875 22.6707C29.8204 22.4686 29.7074 22.2273 29.6592 21.9695L29.6853 21.2072C29.6978 20.7933 29.8714 20.4006 30.1692 20.1129C30.467 19.8251 30.8654 19.6651 31.2795 19.6668ZM59.0435 54.0326C58.9742 53.7054 58.8375 53.3961 58.6423 53.1245C58.447 52.8529 58.1974 52.6249 57.9093 52.455C56.2639 51.4853 54.286 51.3697 52.1899 52.1208C50.8803 52.598 49.6869 53.3478 48.6886 54.3206L45.7788 57.1134C45.6166 57.2689 45.5229 57.4825 45.5182 57.7071C45.5136 57.9318 45.5983 58.1491 45.7539 58.3112C45.9094 58.4734 46.123 58.5671 46.3477 58.5717C46.5723 58.5764 46.7896 58.4916 46.9517 58.3361L49.8622 55.5433C50.6886 54.7359 51.6769 54.1131 52.7619 53.716C54.3925 53.132 55.8348 53.1989 57.0499 53.9149C57.1356 53.9645 57.2098 54.0317 57.2678 54.112C57.3257 54.1922 57.3661 54.2838 57.3862 54.3807C57.4066 54.4751 57.4068 54.5727 57.3869 54.6671C57.367 54.7615 57.3273 54.8507 57.2706 54.9288L54.9566 58.1447C54.9308 58.1235 54.9022 58.1044 54.877 58.0837C54.6679 57.9079 54.5091 57.6799 54.417 57.4227C54.3248 57.1655 54.3026 56.8885 54.3526 56.6199C54.4025 56.3514 54.5229 56.1009 54.7013 55.8941C54.8798 55.6872 55.11 55.5315 55.3683 55.4427L55.4022 55.4317C55.6152 55.365 55.7932 55.2169 55.8975 55.0196C56.0019 54.8223 56.0242 54.5918 55.9596 54.3782C55.895 54.1646 55.7487 53.9851 55.5525 53.8788C55.3563 53.7724 55.126 53.7478 54.9118 53.8103C54.9118 53.8103 54.8847 53.8183 54.8319 53.8357C54.2866 54.0202 53.8003 54.3469 53.4232 54.782C53.0462 55.2171 52.792 55.7448 52.6868 56.3109C52.5817 56.8769 52.6294 57.4608 52.8251 58.0023C53.0208 58.5437 53.3573 59.0232 53.8 59.3913C53.8531 59.4352 53.9122 59.476 53.9675 59.5184L53.7481 59.8233C53.4235 60.2745 53.1295 60.7468 52.868 61.2373L52.7702 61.4207C52.2503 62.4027 51.8609 63.4485 51.612 64.5315C51.18 66.3848 49.963 70.0278 46.6637 73.602C45.7398 74.603 44.9188 75.4401 44.1946 76.1792C41.2343 79.1979 39.7475 80.7135 39.3949 85.0453C39.3767 85.2692 39.4482 85.4912 39.5936 85.6624C39.739 85.8336 39.9465 85.94 40.1704 85.9583C40.1937 85.9604 40.2172 85.9612 40.2403 85.9612C40.4528 85.961 40.6575 85.8808 40.8137 85.7366C40.97 85.5925 41.0662 85.3949 41.0835 85.183C41.3872 81.4621 42.5631 80.2626 45.4035 77.3651C46.1362 76.6177 46.9666 75.7709 47.9081 74.7508C51.4712 70.8908 52.7916 66.9323 53.2613 64.9158C53.4767 63.9766 53.8138 63.0696 54.2642 62.2177L54.362 62.0346C54.5882 61.6108 54.8423 61.2026 55.1227 60.8127L58.6445 55.9177C58.8381 55.6483 58.9735 55.3416 59.0421 55.0171C59.1108 54.6926 59.1113 54.3573 59.0435 54.0326Z" fill="#3C3C4F"/>
<path d="M43.9385 64.6689C44.1631 64.6689 44.3786 64.5796 44.5374 64.4208C44.6963 64.2619 44.7855 64.0465 44.7855 63.8218V60.0524C44.7855 60.0391 44.7824 60.0268 44.7817 60.0134C44.7811 60.0001 44.7832 59.9876 44.7817 59.9743L44.0753 52.3569C43.7826 47.8319 43.9668 37.9596 43.9694 37.8705C44.1216 32.9967 44.0876 29.0363 44.0329 26.5718C44.0182 25.799 43.7094 25.0609 43.1694 24.5079C42.6294 23.9549 41.8989 23.6286 41.1267 23.5956C40.3545 23.5625 39.5988 23.8251 39.0135 24.3299C38.4282 24.8347 38.0574 25.5437 37.9767 26.3124L37.789 28.038C37.1506 34.1049 35.3842 48.5368 35.3326 48.964C35.2554 49.472 35.1444 49.9743 35.0003 50.4675C34.967 50.5743 34.9552 50.6866 34.9656 50.798C34.9759 50.9094 35.0082 51.0177 35.0606 51.1165C35.1131 51.2153 35.1845 51.3028 35.2709 51.3739C35.3573 51.4449 35.457 51.4982 35.5641 51.5305C35.6712 51.5629 35.7836 51.5737 35.8949 51.5623C36.0062 51.551 36.1141 51.5177 36.2125 51.4644C36.3108 51.4111 36.3977 51.3389 36.468 51.2518C36.5383 51.1648 36.5906 51.0647 36.622 50.9573C36.7919 50.3797 36.9218 49.7911 37.0108 49.1956V49.1887C37.0108 49.1863 37.0123 49.184 37.0125 49.1815C37.0305 49.0332 38.8275 34.3579 39.4738 28.2189L39.661 26.496C39.6979 26.1572 39.8622 25.8452 40.1205 25.6231C40.3789 25.401 40.7121 25.2854 41.0525 25.2998C41.3929 25.3142 41.7151 25.4575 41.9538 25.7007C42.1925 25.9438 42.3298 26.2686 42.3379 26.6092C42.3428 26.8263 42.3475 27.0592 42.3519 27.2994C42.3327 27.7096 42.2259 28.0003 42.0343 28.163C41.7944 28.3291 41.502 28.4018 41.2122 28.3673C40.9903 28.336 40.765 28.3938 40.5857 28.5282C40.4064 28.6626 40.2876 28.8626 40.2554 29.0844C40.2232 29.3062 40.2803 29.5317 40.414 29.7115C40.5477 29.8913 40.7472 30.0108 40.9689 30.0439C41.0912 30.0607 41.2145 30.0687 41.338 30.0678C41.6938 30.0689 42.0472 30.0078 42.382 29.8874C42.3928 32.073 42.3712 34.7662 42.2761 37.8273C42.2683 38.2358 42.0885 47.8861 42.3867 52.4778C42.3867 52.4854 42.3867 52.4932 42.3886 52.5009L43.0925 60.0909V63.8216C43.0924 64.0461 43.1815 64.2615 43.3401 64.4203C43.4987 64.5792 43.714 64.6686 43.9385 64.6689Z" fill="#3C3C4F"/>
</g>
<defs>
<clipPath id="clip0_638_264">
<rect width="127" height="105" fill="white"/>
</clipPath>
</defs>
</svg>
