<svg width="72" height="72" viewBox="0 0 72 72" fill="none" xmlns="http://www.w3.org/2000/svg">
<path d="M40.8203 12.4315H44.7458C45.8258 10.6481 46.1458 8.51707 46.2398 7.44512C46.2575 7.24684 46.2093 7.04827 46.1027 6.88014C45.9961 6.71201 45.8371 6.58369 45.6502 6.51505C44.3944 6.05888 43.0986 5.72133 41.7798 5.50684C41.6446 7.83691 41.3238 10.1525 40.8203 12.4315Z" fill="#B83677"/>
<path d="M41.1523 4.91731C39.9589 4.75401 38.7524 4.7067 37.5498 4.77606V11.9634H41.028C41.4692 9.95793 41.7715 7.92447 41.9329 5.87745C41.9509 5.64782 41.8799 5.42007 41.7346 5.24135C41.5893 5.06263 41.3808 4.94661 41.1523 4.91731Z" fill="#FF82B1"/>
<path d="M37.5498 7.32281V11.9634H39.6778C39.7747 10.2851 39.4749 8.60752 38.8028 7.06657C38.7438 6.9282 38.6388 6.81445 38.5056 6.74458C38.3724 6.67472 38.2191 6.65302 38.0717 6.68316C37.9243 6.7133 37.7919 6.79342 37.6968 6.90998C37.6017 7.02654 37.5498 7.17238 37.5498 7.32281Z" fill="#FF65A7"/>
<path d="M34.0426 6.04603C34.1733 7.87059 34.1273 11.3588 32.4531 14.811L38.203 13.1759C38.203 13.1759 39.0483 9.28751 38.1498 5.38299C38.0633 5.00586 37.8336 4.67713 37.5091 4.4663C37.1847 4.25548 36.791 4.17907 36.4112 4.25323L35.2404 4.48278C34.8842 4.55202 34.5657 4.74927 34.3451 5.03728C34.1244 5.32529 34.0168 5.68412 34.0426 6.04603Z" fill="#FF82B1"/>
<path d="M42.9775 25.5965C42.9775 25.5965 47.645 26.3188 51.3401 24.7005C51.5383 24.6108 51.7528 24.5629 51.9703 24.5597C52.1878 24.5565 52.4037 24.5981 52.6044 24.682C52.8051 24.7658 52.9865 24.89 53.1372 25.0469C53.2878 25.2038 53.4046 25.39 53.4802 25.5939L54.2993 27.8463C54.2993 27.8463 51.7581 29.6607 47.7674 29.7331C43.7767 29.8055 42.9775 25.5965 42.9775 25.5965Z" fill="#B83677"/>
<path d="M46.2432 29.7344C46.2432 29.7344 51.089 29.2207 55.172 27.0827C55.3724 26.9793 55.592 26.9184 55.817 26.9038C56.042 26.8892 56.2677 26.9212 56.4798 26.9978C56.6919 27.0744 56.8859 27.1939 57.0496 27.3489C57.2134 27.5039 57.3434 27.6911 57.4315 27.8987L57.7327 28.6013C57.8824 28.9511 57.9064 29.3419 57.8003 29.7074C57.6943 30.0728 57.4649 30.3901 57.1512 30.6054C55.5005 31.7402 53.5442 32.3472 51.5411 32.3461L46.2432 29.7344Z" fill="#FF65A7"/>
<path d="M46.6924 16.5058L46.143 19.7782C46.1012 20.0235 45.9719 20.2453 45.779 20.4026C45.586 20.5598 45.3427 20.6418 45.094 20.6333C43.4648 20.5869 40.1992 21.1152 40.5387 26.1705L33.4844 26.8511C33.4844 26.8511 34.0962 13.9805 46.6924 15.5263V16.5058Z" fill="#A0CEFF"/>
<path d="M24.8221 33.4727C24.8221 33.4727 23.6464 13.6712 38.0026 10.5153C38.0026 10.5153 44.2469 9.01179 49.5819 13.0474C49.7387 13.1669 49.8491 13.3372 49.8943 13.5291C49.9394 13.7211 49.9165 13.9227 49.8294 14.0996L48.7674 16.263C48.6835 16.4348 48.544 16.5732 48.3714 16.6557C48.1989 16.7381 48.0036 16.7597 47.8172 16.7171C45.3972 16.1533 36.9325 14.9579 36.0842 25.5521L24.8221 33.4727Z" fill="#FF65A7"/>
<path d="M14.2652 29.827L13.7432 31.1956C13.6881 31.3399 13.6632 31.4941 13.6701 31.6484C13.677 31.8028 13.7156 31.9541 13.7834 32.0929C13.8513 32.2317 13.947 32.3551 14.0646 32.4554C14.1821 32.5557 14.319 32.6307 14.4668 32.6758C15.8607 33.1025 18.5115 33.5627 22.1666 32.6464L22.5672 28.7031C22.5672 28.7031 19.194 29.8162 15.5265 29.122C15.267 29.0729 14.9984 29.1165 14.7678 29.2454C14.5373 29.3743 14.3593 29.5802 14.2652 29.827Z" fill="#B83677"/>
<path d="M10.706 36.3552L10.9915 38.0935C11.0372 38.3716 11.1886 38.6213 11.4142 38.7902C11.6398 38.9592 11.922 39.0343 12.2017 38.9999C14.5688 38.7113 20.4038 37.7698 23.7996 35.2277L23.0932 31.4619C23.0932 31.4619 16.8806 34.3419 11.6238 35.0998C11.4805 35.1206 11.3428 35.1698 11.2187 35.2445C11.0947 35.3192 10.9867 35.4179 10.9013 35.5347C10.8158 35.6516 10.7545 35.7844 10.721 35.9253C10.6875 36.0662 10.6824 36.2123 10.706 36.3552Z" fill="#FF65A7"/>
<path d="M24.3961 13.0654H26.6158C26.9603 13.065 27.2929 13.1908 27.5509 13.4191C27.8089 13.6473 27.9744 13.9621 28.016 14.304C28.2989 16.8388 28.2323 19.4005 27.8182 21.9172C26.986 27.1376 26.3807 38.2591 26.3807 38.2591C26.3807 38.2591 24.0566 54.0355 24.3008 63.5029C24.309 63.789 24.2195 64.0694 24.0468 64.2977C23.8742 64.5261 23.6288 64.6887 23.3512 64.7587L21.1576 65.3069C20.9832 65.3505 20.8014 65.3561 20.6247 65.3233C20.4479 65.2906 20.2802 65.2202 20.133 65.117C19.9858 65.0138 19.8625 64.8802 19.7714 64.7252C19.6803 64.5702 19.6236 64.3975 19.6051 64.2187C19.1615 59.4001 19.5079 54.5414 20.6307 49.8346C20.6307 49.8346 21.1601 40.0747 21.5387 37.1998C21.9174 34.3249 21.3117 30.0125 22.371 24.5653C23.1109 20.7591 23.0753 16.6574 22.9868 14.5315C22.9791 14.3417 23.0099 14.1523 23.0773 13.9747C23.1446 13.7971 23.2472 13.6349 23.3789 13.498C23.5105 13.3611 23.6685 13.2521 23.8433 13.1778C24.0181 13.1035 24.2061 13.0652 24.3961 13.0654Z" fill="#A0CEFF"/>
<path d="M28.1881 27.5392C27.0198 29.6011 24.1858 33.2502 19.1458 36.4909C18.2845 37.0407 17.5818 37.806 17.1075 38.7111C16.6331 39.6161 16.4036 40.6294 16.4416 41.6505C16.5811 45.1006 17.4072 50.4214 20.7135 55.1054C20.7135 55.1054 26.1874 63.0203 37.2688 65.6157C39.6955 66.2004 42.0692 66.9867 44.3651 67.9663C46.6392 68.9193 49.8517 69.8902 53.3136 69.7627C54.8612 69.7129 56.3576 69.1969 57.607 68.2823C58.8564 67.3677 59.8005 66.0971 60.3156 64.637C61.3643 61.6053 61.9182 56.7117 60.2133 49.0746C59.8957 47.6545 59.6049 46.2274 59.3694 44.7916C58.6806 40.5955 55.8118 29.8053 44.2763 25.4787C43.0016 25.0042 41.6758 24.6805 40.3259 24.5141C38.0401 24.2272 34.2126 24.0014 30.8401 25.0181C30.6542 25.0742 30.472 25.142 30.2946 25.221C30.2946 25.221 28.7031 26.6307 28.1881 27.5392Z" fill="#FF82B1"/>
<path d="M27.0951 50.2997C23.5269 44.222 25.7449 39.5278 27.2071 37.4314C28.0588 36.2302 28.7401 34.9169 29.2316 33.529C30.8876 28.7367 30.6174 26.2813 30.2955 25.2246C29.3479 25.6512 28.562 26.3701 28.0529 27.276C26.8844 29.3377 24.1852 33.2496 19.1448 36.4903C18.2835 37.0401 17.5809 37.8054 17.1065 38.7105C16.6322 39.6155 16.4026 40.6288 16.4406 41.6499C16.4618 42.169 16.4984 42.7299 16.5566 43.3258C17.463 42.4028 18.4456 41.5579 19.494 40.8001C19.7284 40.6304 20.007 40.5325 20.2961 40.5183C20.5851 40.504 20.872 40.5741 21.1219 40.7199C21.3718 40.8657 21.574 41.0811 21.7038 41.3397C21.8336 41.5983 21.8855 41.889 21.8531 42.1766C21.8429 42.266 21.8332 42.3554 21.8238 42.4449C21.5194 45.575 22.2016 48.7219 23.7748 51.4449C26.6173 56.4584 30.2511 60.9798 34.5359 64.8341C35.4335 65.138 36.3451 65.3988 37.2676 65.6158C39.6943 66.2005 42.068 66.9867 44.3639 67.9664C33.5768 60.6338 27.0951 50.2997 27.0951 50.2997Z" fill="#FF65A7"/>
<path d="M31.7489 49.1948C31.813 49.2913 31.8963 49.3736 31.9936 49.4366C32.0909 49.4996 32.2 49.542 32.3143 49.5611C32.4286 49.5803 32.5456 49.5757 32.6581 49.5478C32.7705 49.5199 32.8761 49.4693 32.9682 49.3989C33.1387 49.2615 33.2512 49.0649 33.2834 48.8483C33.3155 48.6316 33.2649 48.4108 33.1416 48.2298C32.5017 47.2667 32.0553 46.1884 31.8272 45.0548C31.7003 44.3567 31.7655 43.6372 32.0159 42.9733C32.2662 42.3093 32.6923 41.7259 33.2486 41.2854C33.471 41.1015 33.685 40.9077 33.89 40.7045C35.8111 38.8165 37.0089 36.3143 37.2747 33.6339C37.4713 33.8052 37.6789 33.9634 37.8962 34.1076C38.2582 34.3477 38.6119 34.6001 38.9567 34.8643C40.0721 35.7209 40.941 36.8573 41.4752 38.1583C41.7376 38.7936 41.9727 39.4229 42.174 40.0271C42.2107 40.1369 42.2695 40.2381 42.3467 40.3243C42.424 40.4106 42.5182 40.48 42.6233 40.5285C42.7285 40.5769 42.8425 40.6032 42.9583 40.6059C43.074 40.6085 43.1891 40.5874 43.2964 40.5438C43.4977 40.4551 43.6581 40.2937 43.7456 40.0919C43.8331 39.8901 43.8413 39.6627 43.7684 39.4551C43.5567 38.8251 43.3125 38.1718 43.0406 37.5124C42.3921 35.9348 41.3378 34.5569 39.9846 33.5185C39.5981 33.222 39.2096 32.9467 38.8301 32.6947C37.9056 32.0876 37.2593 31.1389 37.0326 30.0563C37.0229 30.0104 37.0114 29.9689 37.0013 29.9238L36.9926 29.8863C36.8854 29.3874 36.728 28.9006 36.5229 28.4334C35.9597 27.0266 35.1404 25.7366 34.1064 24.6288C33.8997 24.4088 33.6291 24.2591 33.3328 24.2009C33.0364 24.1427 32.7293 24.1789 32.4547 24.3044C32.3679 24.3437 32.292 24.4035 32.2335 24.4785C32.1749 24.5536 32.1354 24.6418 32.1184 24.7355C32.1013 24.8292 32.1073 24.9256 32.1357 25.0165C32.1641 25.1074 32.2141 25.19 32.2815 25.2573C33.2444 26.23 35.0225 28.3307 35.491 30.965C35.7509 32.5079 35.6323 34.0908 35.1454 35.5777C34.6585 37.0645 33.8178 38.411 32.6957 39.5013C32.5274 39.6682 32.3517 39.8275 32.169 39.9786C31.3758 40.6138 30.7702 41.4527 30.4169 42.4055C30.0637 43.3584 29.9761 44.3893 30.1636 45.3881C30.4378 46.7485 30.9764 48.0419 31.7489 49.1948Z" fill="#FF65A7"/>
<path d="M56.8158 56.2865C56.3108 54.5362 55.4297 52.9173 54.2339 51.5429C53.4518 50.6509 53.047 49.4898 53.1052 48.3048C53.1321 47.7543 53.1398 47.2522 53.1302 46.8032C53.1385 34.7926 46.4111 29.217 46.0958 28.9627C45.9211 28.8215 45.6974 28.7554 45.474 28.7791C45.2505 28.8029 45.0457 28.9144 44.9044 29.0891C44.7632 29.2639 44.6972 29.4876 44.7209 29.711C44.7446 29.9344 44.8561 30.1393 45.0309 30.2805C45.34 30.5484 45.6323 30.8351 45.9061 31.139C47.7466 33.1024 48.8577 35.6378 49.0538 38.3218C49.0615 38.4414 49.0674 38.5621 49.0713 38.684C49.0869 39.6227 48.8989 40.5537 48.5201 41.4128C48.1414 42.2719 47.581 43.0387 46.8775 43.6604C45.4701 44.9287 44.5545 46.6523 44.2914 48.5285C44.2649 48.7048 44.286 48.885 44.3526 49.0505C44.4119 49.2056 44.5172 49.3388 44.6545 49.4323C44.7918 49.5257 44.9544 49.5749 45.1204 49.5731C45.326 49.5729 45.5245 49.4979 45.6789 49.3621C45.8333 49.2263 45.933 49.039 45.9595 48.8351C46.1556 47.3231 46.8865 45.9313 48.0199 44.9115C49.3786 43.6884 50.2993 42.0539 50.6409 40.258C51.3268 42.9955 51.6841 46.4032 51.2214 50.4795C50.9325 51.4424 48.5955 59.7548 52.486 64.1806C52.6342 64.3492 52.8433 64.4521 53.0672 64.4667C53.2912 64.4812 53.5118 64.4063 53.6806 64.2584C53.8458 64.0991 53.9431 63.8821 53.9521 63.6527C53.961 63.4234 53.881 63.1995 53.7287 63.0278C51.1451 60.0402 51.996 54.5682 52.5475 52.1331C52.6746 52.3146 52.8111 52.4893 52.9564 52.6566C53.9974 53.8525 54.7622 55.2629 55.1966 56.7877C55.2466 56.9655 55.3532 57.122 55.5004 57.2336C55.6475 57.3451 55.8271 57.4056 56.0117 57.4056C56.1182 57.4054 56.2238 57.3854 56.323 57.3466C56.5218 57.2622 56.6822 57.1071 56.7732 56.9113C56.8642 56.7154 56.8794 56.4928 56.8158 56.2865Z" fill="#B83677"/>
<path d="M37.0745 66.4401C39.4557 67.0128 41.7845 67.7846 44.0365 68.7473C46.1139 69.6181 49.2552 70.6208 52.7019 70.6208C52.9146 70.6208 53.1285 70.6168 53.3435 70.6089C55.0602 70.5467 56.7187 69.9706 58.1043 68.9552C59.4899 67.9399 60.5389 66.5319 61.1153 64.9137C62.5273 60.8324 62.5019 55.441 61.0397 48.8899C60.6797 47.2775 60.4143 45.9315 60.2047 44.6546C59.767 41.9874 58.5392 37.066 55.1647 32.5628C56.0373 32.2494 56.8662 31.8258 57.6313 31.3022C58.1054 30.9752 58.4519 30.4944 58.6123 29.9413C58.7727 29.3882 58.7372 28.7967 58.5116 28.2668L58.2105 27.5641C58.0745 27.2478 57.8747 26.9629 57.6237 26.7272C57.3726 26.4915 57.0757 26.3101 56.7514 26.1942C56.431 26.0804 56.0905 26.0337 55.7512 26.0573C55.4119 26.0808 55.0812 26.174 54.7795 26.331C54.7437 26.3499 54.706 26.3677 54.67 26.3863L54.2763 25.3038C54.165 24.9935 53.9907 24.7097 53.7642 24.4701C53.5378 24.2306 53.2642 24.0406 52.9606 23.912C52.6504 23.7803 52.3165 23.7134 51.9794 23.7154C51.6423 23.7174 51.3092 23.7883 51.0006 23.9237C49.0282 24.7873 46.7257 24.9346 45.1421 24.9061C44.9545 24.8307 44.7647 24.7569 44.5729 24.6848C43.5919 24.3187 42.5809 24.0387 41.5514 23.8481C41.9679 22.2952 43.0746 21.4975 44.8505 21.478C45.3761 21.4714 45.8826 21.2801 46.2814 20.9376C46.6802 20.5952 46.9458 20.1233 47.0317 19.6047L47.3868 17.4871C47.8365 17.5767 48.3032 17.5152 48.7145 17.3123C49.1257 17.1093 49.4583 16.7762 49.6607 16.3647L50.4478 14.7608C50.6665 14.3181 50.7202 13.8119 50.5995 13.3331C50.4788 12.8542 50.1915 12.4341 49.789 12.1479C48.7718 11.4203 47.6638 10.8287 46.4934 10.3881C46.6662 9.8121 46.8022 9.22567 46.9004 8.63236C47.0171 7.92954 46.876 7.20821 46.503 6.60118C46.13 5.99416 45.5503 5.54231 44.8706 5.32883C44.1195 5.09961 43.3568 4.91017 42.5857 4.7613C42.5528 4.75319 42.5195 4.74704 42.4859 4.74288C41.9142 4.63319 41.3373 4.53938 40.7539 4.47246C40.6426 4.45804 40.5295 4.4659 40.4212 4.49559C40.3129 4.52527 40.2116 4.57618 40.1232 4.64536C40.0348 4.71454 39.961 4.80061 39.9061 4.89856C39.8512 4.99651 39.8164 5.10439 39.8036 5.21593C39.7908 5.32747 39.8003 5.44044 39.8315 5.54827C39.8628 5.65611 39.9152 5.75665 39.9856 5.84407C40.0561 5.93148 40.1432 6.00401 40.2419 6.05745C40.3407 6.11089 40.449 6.14417 40.5608 6.15535C40.853 6.18902 41.1433 6.23053 41.4326 6.27563C41.3132 7.33464 41.0823 8.37807 40.7437 9.38858C40.2461 9.3926 39.7971 9.4178 39.4081 9.45211C39.4302 8.02084 39.2849 6.59191 38.9753 5.19436C38.8419 4.60156 38.482 4.08443 37.9724 3.75346C37.4628 3.4225 36.844 3.30396 36.2482 3.42316L35.0769 3.65272C34.5184 3.76241 34.0191 4.07232 33.673 4.5242C33.3269 4.97608 33.1577 5.53882 33.1973 6.10665C33.3348 8.02695 33.154 9.95677 32.6624 11.8182C31.2439 12.7489 29.9894 13.9081 28.9497 15.2487C28.9222 14.9099 28.8904 14.5967 28.8561 14.314C28.7893 13.7667 28.5246 13.2627 28.1119 12.8971C27.6992 12.5315 27.167 12.3295 26.6156 12.3291H24.3961C24.092 12.329 23.791 12.3903 23.5112 12.5095C23.2313 12.6286 22.9785 12.8031 22.7678 13.0225C22.5571 13.2418 22.393 13.5015 22.2852 13.7859C22.1774 14.0703 22.1282 14.3735 22.1406 14.6774C22.227 16.7527 22.2641 20.7883 21.5394 24.5143C21.1093 26.8167 20.8819 29.1525 20.8601 31.4947C20.1495 31.7826 19.4336 32.0572 18.7128 32.3185C18.6982 32.3185 18.6844 32.3155 18.6704 32.3161C17.3361 32.3892 15.999 32.2366 14.7155 31.8646C14.6787 31.8535 14.6446 31.8349 14.6153 31.8099C14.586 31.785 14.5622 31.7543 14.5453 31.7197C14.5284 31.6852 14.5189 31.6475 14.5172 31.6091C14.5156 31.5706 14.5219 31.5323 14.5357 31.4964L15.0575 30.1278C15.0809 30.0666 15.1251 30.0157 15.1823 29.9838C15.2394 29.952 15.306 29.9412 15.3703 29.9535C16.5082 30.1625 17.6667 30.2377 18.8221 30.1775C19.0437 30.1633 19.2509 30.0625 19.399 29.897C19.5471 29.7314 19.6242 29.5144 19.6138 29.2925C19.6034 29.0706 19.5062 28.8617 19.3433 28.7108C19.1804 28.5599 18.9647 28.479 18.7426 28.4855C17.7195 28.5389 16.6937 28.4729 15.6858 28.2888C15.2307 28.2016 14.7594 28.2777 14.3548 28.5037C13.9502 28.7297 13.6383 29.0912 13.4739 29.5244L12.9522 30.8929C12.8556 31.1456 12.8121 31.4155 12.8242 31.6857C12.8364 31.956 12.9039 32.2209 13.0227 32.4639C13.1415 32.707 13.309 32.923 13.5148 33.0986C13.7206 33.2743 13.9602 33.4057 14.2189 33.4849C14.347 33.524 14.49 33.5636 14.6403 33.603C13.6078 33.881 12.5605 34.1006 11.5033 34.2606C11.2485 34.2974 11.0036 34.3847 10.783 34.5173C10.5624 34.65 10.3704 34.8253 10.2184 35.033C10.0663 35.2407 9.95727 35.4767 9.89754 35.7271C9.83782 35.9775 9.82864 36.2373 9.87055 36.4913L10.156 38.2297C10.2294 38.6831 10.4619 39.0956 10.8117 39.3932C11.1615 39.6909 11.6059 39.8543 12.0653 39.8541C12.1452 39.854 12.225 39.8492 12.3044 39.8395C13.5336 39.6893 14.7556 39.4844 15.9666 39.2254C15.6881 40.0136 15.5615 40.8475 15.5937 41.6829C15.7278 44.9835 16.4526 49.6522 19.0133 54.0254C18.5188 57.4677 18.4345 60.9566 18.7621 64.4188C18.7933 64.7182 18.8884 65.0075 19.0411 65.267C19.1937 65.5265 19.4003 65.7501 19.6469 65.9228C19.8935 66.0955 20.1744 66.2132 20.4704 66.2679C20.7664 66.3226 21.0708 66.3131 21.3628 66.24L23.5561 65.6917C24.0216 65.577 24.4337 65.3059 24.7234 64.9237C25.013 64.5416 25.1626 64.0716 25.1473 63.5923C25.125 62.7272 25.1242 61.7711 25.1443 60.7394C28.662 63.48 32.7323 65.4249 37.0745 66.4401ZM56.1831 27.7909C56.2877 27.8277 56.3836 27.8858 56.4645 27.9618C56.5454 28.0377 56.6095 28.1297 56.6528 28.2318L56.9539 28.9345C57.026 29.1044 57.0372 29.294 56.9856 29.4712C56.934 29.6484 56.8228 29.8024 56.6708 29.9071C55.8592 30.4611 54.964 30.8812 54.0193 31.1514C53.4347 30.4848 52.812 29.8525 52.1545 29.2578C53.3274 28.8753 54.4676 28.3987 55.5639 27.8326C55.6584 27.7828 55.7624 27.7533 55.869 27.7461C55.9757 27.7389 56.0827 27.7542 56.1831 27.7909ZM51.6797 25.4761C51.776 25.4327 51.8804 25.4097 51.9861 25.4086C52.0918 25.4076 52.1966 25.4285 52.2938 25.47C52.3839 25.5082 52.4651 25.5647 52.5324 25.6358C52.5996 25.707 52.6514 25.7912 52.6845 25.8834L53.1252 27.0953C52.2972 27.4307 51.4519 27.7219 50.5929 27.9675C49.8432 27.4027 49.0597 26.8842 48.2468 26.4149C49.4279 26.2567 50.5824 25.941 51.6797 25.4761ZM58.5322 44.9288C58.7473 46.2384 59.0192 47.6142 59.3854 49.2588C61.1206 57.0316 60.4129 61.7609 59.5137 64.3599C59.0502 65.656 58.2084 66.7831 57.0972 67.5954C55.986 68.4077 54.6566 68.8677 53.281 68.9161C49.9371 69.0357 46.819 68.069 44.7681 67.2164C39.488 63.6145 35.2353 59.2515 32.3094 55.7996C33.3914 56.2391 34.5352 56.5077 35.6997 56.5958C35.8345 56.6056 35.9695 56.6133 36.1046 56.6191C37.6335 56.6581 39.135 57.0341 40.5019 57.7203C41.5815 58.2755 42.5573 59.0125 43.3866 59.8991C43.5394 60.0638 43.7514 60.1609 43.9759 60.1693C44.2004 60.1776 44.419 60.0964 44.5837 59.9436C44.7483 59.7907 44.8455 59.5787 44.8538 59.3542C44.8622 59.1297 44.781 58.9111 44.6281 58.7465C43.6669 57.7174 42.5353 56.8617 41.2833 56.2172C39.6963 55.4162 37.9521 54.9757 36.1751 54.9271C36.0576 54.922 35.9402 54.9153 35.823 54.907C34.3081 54.7784 32.8419 54.3094 31.5337 53.5349C30.2255 52.7604 29.1091 51.7005 28.2678 50.4343L27.5 49.2908C24.6744 43.9795 26.5123 39.9083 27.9008 37.9175C28.7967 36.652 29.5135 35.2689 30.031 33.8074C30.482 32.5298 30.8395 31.2212 31.1008 29.8918C31.1213 29.7825 31.1201 29.6702 31.0972 29.5613C31.0744 29.4525 31.0303 29.3492 30.9675 29.2574C30.9047 29.1655 30.8244 29.087 30.7312 29.0262C30.6381 28.9654 30.5339 28.9235 30.4245 28.903C30.3152 28.8825 30.2029 28.8837 30.094 28.9066C29.9852 28.9295 29.8819 28.9736 29.7901 29.0364C29.6982 29.0992 29.6197 29.1794 29.5589 29.2726C29.4981 29.3657 29.4562 29.4699 29.4357 29.5793C29.1898 30.8269 28.8537 32.055 28.43 33.254C27.9633 34.5679 27.3176 35.8111 26.511 36.9485C24.8404 39.344 22.5995 44.3198 26.3628 50.7301C26.3668 50.7373 26.3713 50.7445 26.3755 50.7513C26.6048 51.117 31.3318 58.5692 39.4414 65.3142C38.7746 65.121 38.1135 64.947 37.458 64.7922C26.8486 62.3073 21.4587 54.7003 21.4016 54.6181C18.8235 50.9656 17.8016 46.9044 17.4382 43.6487C18.2316 42.8657 19.0832 42.144 19.9857 41.4898C20.0875 41.4146 20.2093 41.3712 20.3358 41.3653C20.4622 41.3593 20.5875 41.391 20.696 41.4563C20.8049 41.5171 20.893 41.6092 20.9488 41.7208C21.0046 41.8323 21.0255 41.9581 21.0087 42.0817C20.9979 42.1748 20.9876 42.2682 20.9782 42.361C20.6503 45.6671 21.3716 48.9925 23.0398 51.8656C23.4716 52.6217 23.9209 53.3676 24.3872 54.1029C24.5076 54.2926 24.6983 54.4268 24.9176 54.4758C25.0261 54.5001 25.1384 54.5028 25.248 54.4837C25.3576 54.4646 25.4623 54.4241 25.5563 54.3645C25.6502 54.305 25.7315 54.2275 25.7955 54.1365C25.8595 54.0455 25.9049 53.9428 25.9292 53.8342C25.9535 53.7256 25.9562 53.6134 25.9371 53.5038C25.918 53.3942 25.8775 53.2894 25.8179 53.1955C25.3652 52.4823 24.9292 51.7586 24.5105 51.0249C23.0194 48.4577 22.3744 45.4862 22.6669 42.5319C22.6755 42.4472 22.6849 42.3608 22.6948 42.2744C22.7458 41.8238 22.6648 41.3681 22.4617 40.9627C22.2585 40.5574 21.9419 40.2197 21.5505 39.9909C21.159 39.7621 20.7095 39.6519 20.2566 39.6739C19.8036 39.6958 19.3669 39.8488 18.9993 40.1144C18.407 40.5426 17.8353 40.9986 17.2861 41.4809C17.2799 40.6304 17.4891 39.7922 17.8942 39.0444C18.2993 38.2966 18.8872 37.6636 19.603 37.2043C24.8019 33.8618 27.5904 29.8118 28.79 27.6961C29.2851 26.8015 30.1072 26.1332 31.0841 25.8313C31.5695 25.687 32.062 25.568 32.5597 25.4746C34.0773 26.9602 35.1009 28.8769 35.4915 30.9644C35.7514 32.5073 35.6328 34.0902 35.1459 35.5771C34.659 37.064 33.8184 38.4104 32.6962 39.5007C32.528 39.6677 32.3523 39.8269 32.1696 39.978C31.3764 40.6132 30.7707 41.4521 30.4175 42.4049C30.0643 43.3578 29.9767 44.3887 30.1642 45.3875C30.4375 46.7478 30.9753 48.0413 31.7469 49.1944C31.8727 49.3783 32.0658 49.5052 32.2845 49.5477C32.5032 49.5901 32.7298 49.5448 32.9152 49.4214C33.1007 49.298 33.2301 49.1065 33.2754 48.8884C33.3207 48.6703 33.2782 48.4431 33.1573 48.2561C32.5081 47.2863 32.0556 46.1985 31.8253 45.0544C31.6984 44.3563 31.7636 43.6368 32.0139 42.9729C32.2643 42.3089 32.6904 41.7255 33.2466 41.285C33.469 41.1011 33.6831 40.9073 33.8881 40.7041C35.8091 38.8161 37.0069 36.3139 37.2727 33.6335C37.4693 33.8048 37.6769 33.963 37.8942 34.1072C38.2562 34.3474 38.6099 34.5997 38.9547 34.8639C40.0701 35.7205 40.939 36.8569 41.4733 38.1579C41.7356 38.7932 41.9707 39.4225 42.1721 40.0267C42.2432 40.2398 42.396 40.416 42.597 40.5165C42.7979 40.6169 43.0306 40.6334 43.2437 40.5624C43.4569 40.4913 43.633 40.3384 43.7335 40.1375C43.8339 39.9365 43.8504 39.7039 43.7794 39.4907C43.5554 38.8229 43.3087 38.1629 43.0395 37.512C42.391 35.9344 41.3367 34.5565 39.9835 33.5181C39.597 33.2216 39.2084 32.9463 38.829 32.6943C37.9044 32.0872 37.2581 31.1385 37.0315 30.056C37.0217 30.01 37.0103 29.9685 37.0002 29.9234L36.9915 29.8859C36.8843 29.387 36.7269 28.9002 36.5218 28.433C36.0535 27.2622 35.4068 26.1709 34.6049 25.1979C36.4763 25.0631 38.3566 25.1151 40.2177 25.3531C41.502 25.5115 42.7634 25.8193 43.9763 26.2702C55.0309 30.417 57.8382 40.6999 58.5315 44.9288H58.5322ZM44.3715 6.94883C44.6599 7.04049 44.9056 7.23323 45.0632 7.49158C45.2209 7.74993 45.2799 8.05652 45.2295 8.35495C45.1439 8.8704 45.0262 9.37998 44.8769 9.88072C44.0971 9.68338 43.3034 9.54527 42.5026 9.46756C42.7806 8.53224 42.9804 7.57544 43.1 6.60705C43.5274 6.70735 43.9514 6.82134 44.3715 6.94883ZM34.888 5.98594C34.8775 5.83052 34.9241 5.67662 35.019 5.55313C35.114 5.42964 35.2508 5.34506 35.4037 5.31528L36.5747 5.08594C36.7388 5.05327 36.9091 5.08609 37.0493 5.17739C37.1895 5.26869 37.2883 5.41121 37.3248 5.57448C37.6234 6.93355 37.753 8.32428 37.7108 9.71512C36.6547 9.95132 35.6252 10.294 34.6381 10.7379C34.9156 9.17014 34.9996 7.5742 34.888 5.98594ZM38.1992 11.3394C38.2559 11.3258 43.9278 10.0364 48.8029 13.526C48.8783 13.5794 48.9322 13.658 48.955 13.7475C48.9778 13.8371 48.9679 13.9318 48.9272 14.0148L48.14 15.6187C48.1014 15.6959 48.0383 15.7582 47.9606 15.7957C47.8828 15.8333 47.7948 15.844 47.7104 15.8262C45.6457 15.3938 38.7104 14.5084 36.1304 21.2669C36.0908 21.3708 36.072 21.4816 36.0751 21.5928C36.0783 21.704 36.1033 21.8134 36.1487 21.915C36.1942 22.0165 36.2592 22.1081 36.34 22.1845C36.4209 22.2609 36.516 22.3207 36.6199 22.3603C36.7239 22.4 36.8346 22.4188 36.9458 22.4156C37.057 22.4125 37.1665 22.3875 37.268 22.342C37.3696 22.2966 37.4612 22.2316 37.5376 22.1507C37.614 22.0699 37.6737 21.9748 37.7134 21.8708C39.3495 17.5828 43.1276 17.0521 45.7088 17.2493L45.3606 19.3246C45.3403 19.4511 45.2761 19.5664 45.1793 19.6504C45.0826 19.7344 44.9593 19.7818 44.8312 19.7841C42.2083 19.8144 40.4369 21.1987 39.8704 23.6079C37.3032 23.3288 33.7798 23.2465 30.5951 24.2064C29.6881 24.4814 28.8666 24.984 28.2087 25.6663C28.3582 24.2619 28.5077 23.0881 28.6553 22.1618C28.869 20.8286 28.9937 19.4826 29.0285 18.1328C29.0338 18.1245 29.0408 18.1177 29.0458 18.109C31.1842 14.4822 34.2589 12.2055 38.1992 11.3394ZM23.2024 24.8387C23.9599 20.9422 23.9224 16.7563 23.833 14.6077C23.8297 14.5325 23.8417 14.4574 23.8684 14.3869C23.8951 14.3165 23.9359 14.2523 23.9883 14.1982C24.0408 14.1429 24.1041 14.099 24.1743 14.0691C24.2444 14.0392 24.3199 14.0239 24.3961 14.0241H26.6156C26.753 14.0239 26.8858 14.0739 26.9888 14.1648C27.0919 14.2557 27.1582 14.3812 27.1751 14.5175C27.4466 16.9742 27.3815 19.4564 26.9818 21.8954C26.7308 23.4697 26.4765 25.7194 26.2258 28.5817C25.1516 30.1151 23.9156 31.5285 22.5392 32.7975C22.5527 30.5511 22.6162 27.8492 23.2024 24.8387ZM12.0996 38.1587C12.0369 38.1663 11.9737 38.1494 11.9231 38.1116C11.8725 38.0739 11.8383 38.0181 11.8277 37.9558L11.5424 36.2175C11.537 36.1855 11.5381 36.1527 11.5456 36.1211C11.553 36.0896 11.5668 36.0598 11.5861 36.0337C11.6047 36.0077 11.6285 35.9859 11.6559 35.9695C11.6834 35.953 11.7138 35.9424 11.7455 35.9382C14.9656 35.4723 18.5131 34.2402 20.8425 33.326V33.5082C20.8425 33.761 20.8406 34.0062 20.8389 34.2478C20.146 34.7914 19.428 35.3021 18.6872 35.7783C18.0775 36.1706 17.5352 36.6586 17.0809 37.2236C15.4424 37.6425 13.7785 37.9548 12.0996 38.1585V38.1587ZM23.454 63.6368C23.4575 63.7303 23.4288 63.8223 23.3727 63.8973C23.3166 63.9722 23.2364 64.0257 23.1457 64.0486L20.9522 64.5971C20.8954 64.6113 20.8362 64.6131 20.7787 64.6024C20.7212 64.5917 20.6666 64.5687 20.6187 64.535C20.5709 64.5014 20.5308 64.4578 20.5013 64.4072C20.4717 64.3567 20.4534 64.3004 20.4476 64.2422C20.1904 61.5622 20.1966 58.8634 20.466 56.1846C21.3837 57.3237 22.3945 58.3847 23.4879 59.3566C23.4334 60.9391 23.421 62.3785 23.454 63.6366V63.6368Z" fill="#3C3C4F"/>
<path d="M25.884 56.343L26.0788 56.6183C26.2092 56.8013 26.4069 56.925 26.6284 56.9622C26.85 56.9994 27.0773 56.9471 27.2602 56.8167C27.4432 56.6864 27.5669 56.4887 27.6041 56.2671C27.6414 56.0455 27.589 55.8183 27.4587 55.6353L27.2681 55.3676C27.2049 55.2747 27.1238 55.1953 27.0295 55.134C26.9353 55.0727 26.8298 55.0308 26.7192 55.0107C26.6086 54.9906 26.4952 54.9927 26.3854 55.0169C26.2756 55.0411 26.1718 55.0869 26.0799 55.1517C25.988 55.2164 25.9099 55.2988 25.8502 55.394C25.7905 55.4892 25.7503 55.5954 25.732 55.7063C25.7137 55.8172 25.7177 55.9306 25.7437 56.04C25.7696 56.1493 25.8171 56.2524 25.8834 56.3432L25.884 56.343Z" fill="#3C3C4F"/>
</svg>
