<svg width="72" height="72" viewBox="0 0 72 72" fill="none" xmlns="http://www.w3.org/2000/svg">
<path d="M14.9106 48.6764C14.9106 48.6764 17.3832 54.0654 22.7089 54.0654C30.38 54.0654 33.8036 48.6764 33.8036 48.6764L47.6886 54.9696L56.5645 53.368L60.3052 39.1666L59.6711 18.9431C59.6711 18.9431 59.2264 14.8855 58.4666 14.8222C57.7068 14.7589 15.2276 18.1181 14.9106 18.1181C14.5936 18.1181 14.3401 44.9364 14.9106 48.6764Z" fill="#FF65A7"/>
<path d="M16.7367 40.093C16.7367 40.093 18.805 41.5294 18.9748 45.3416C19.0511 46.7234 18.6339 48.0874 17.7978 49.1902C16.8794 50.3727 15.2582 51.5471 12.4203 51.5103C7.05968 51.4406 6.64187 46.289 6.64187 46.289C6.64187 46.289 6.15481 42.7383 8.03422 41.0675C8.03422 41.0675 5.59766 39.3967 5.59766 35.8462C5.59766 35.8462 5.80646 33.4791 7.33815 32.3653C7.33815 32.3653 3.71697 27.9794 7.75575 25.0554C7.75575 25.0554 5.52799 21.2961 8.17356 19.0681C8.17356 19.0681 5.60359 12.8187 11.0563 10.1105C11.7841 9.73211 12.592 9.53364 13.4123 9.53169C14.2326 9.52974 15.0414 9.72436 15.771 10.0993C16.5473 10.5171 17.1942 11.1397 17.6416 11.8993C17.6416 11.8993 23.4208 9.461 26.135 15.7265C26.135 15.7265 31.426 12.5242 34.5588 16.2135C34.5588 16.2135 38.8752 9.73905 45.6976 13.2895L46.6506 11.8561C47.6986 10.5893 49.6271 9.00634 52.5194 9.4466C52.5194 9.4466 53.9171 3.5011 60.7473 4.71006C62.2134 4.94779 63.5632 5.65353 64.5951 6.72183C66.062 8.2874 67.235 11.0734 64.6328 15.5168C64.6328 15.5168 68.4619 23.2446 62.6846 29.3709C62.6846 29.3709 67.1403 35.1491 63.1716 41.206C63.1716 41.206 65.8028 42.2375 66.3189 46.124C66.6512 48.6483 65.9774 51.202 64.4428 53.2336C63.4727 54.5154 62.0579 55.7638 60.1084 56.1043C60.1084 56.1043 59.4818 61.4649 52.6592 61.4649C52.6592 61.4649 49.1087 61.5346 46.5328 59.0283C46.5328 59.0283 44.4442 62.2307 39.4317 60.2117V65.5723C39.4318 65.8191 39.3832 66.0636 39.2887 66.2917C39.1943 66.5197 39.0558 66.727 38.8813 66.9015C38.7067 67.0761 38.4995 67.2146 38.2715 67.309C38.0434 67.4035 37.799 67.4521 37.5521 67.4521H31.455C31.0726 67.4516 30.6995 67.3347 30.3851 67.1171C30.0707 66.8995 29.83 66.5915 29.6948 66.2338C29.1218 64.7274 28.6228 61.9255 30.5906 58.4017C30.5906 58.4017 30.533 58.305 30.4423 58.1264C27.906 53.1603 31.2292 47.1513 36.7866 46.6924C39.5029 46.4682 42.9277 47.1646 45.6978 50.882C45.6978 50.882 49.3876 47.7493 53.0078 49.629C52.7092 48.1974 52.7622 46.7148 53.1623 45.3083C53.5625 43.9018 54.2978 42.6133 55.3052 41.5533C55.3052 41.5533 51.3369 35.7052 55.4443 30.9015C55.4443 30.9015 51.0585 26.0979 54.5392 20.1803C54.5392 20.1803 49.6661 25.0537 43.8875 23.5222C43.8875 23.5222 38.9447 27.5599 32.122 23.8701C32.122 23.8701 26.2045 26.0284 22.3756 21.7817C22.3756 21.7817 20.0781 24.2183 16.458 23.9398C17.0294 25.2909 17.2523 26.7638 17.1063 28.2234C16.9603 29.6831 16.4502 31.0827 15.6226 32.2939C15.6226 32.2939 19.1733 35.9151 16.7367 40.093Z" fill="#FFB4E6"/>
<path d="M66.3213 46.1408C66.227 45.3692 66.0172 44.6162 65.6989 43.9069C66.0378 50.9115 61.0365 52.8832 61.0365 52.8832C60.6895 52.9587 60.3662 53.1178 60.0946 53.3466C59.823 53.5754 59.6113 53.867 59.4779 54.1962C59.0406 55.2686 58.3803 56.2358 57.5409 57.0338C56.6488 57.9076 55.5502 58.5418 54.3474 58.8774C53.1445 59.2131 51.8764 59.2392 50.6607 58.9535C49.346 58.6235 48.145 57.9443 47.1848 56.9876C46.9869 56.7931 46.7208 56.6837 46.4433 56.6826C46.1659 56.6816 45.899 56.7891 45.6997 56.9821C43.5458 59.064 40.323 58.8033 38.5035 58.4321C38.0495 58.3414 37.6197 58.1561 37.2421 57.8882C36.8645 57.6203 36.5475 57.2759 36.3119 56.8773C36.2944 56.8474 36.2783 56.8192 36.2636 56.7926C36.2112 56.6939 36.1253 56.617 36.0214 56.5757C35.9175 56.5344 35.8023 56.5314 35.6964 56.5672C35.5904 56.6029 35.5006 56.6752 35.443 56.771C35.3854 56.8668 35.3637 56.98 35.3819 57.0904C35.5765 58.3288 36.032 59.5118 36.7183 60.561C37.0929 61.1177 37.3116 61.7646 37.3515 62.4344L37.4029 63.4253C37.4367 64.0733 37.2472 64.7133 36.8659 65.2384C36.4846 65.7635 35.9346 66.1418 35.3079 66.3102L31.147 67.4264C31.2487 67.4438 31.3517 67.4528 31.4549 67.4531H37.5524C38.0509 67.4531 38.529 67.255 38.8815 66.9025C39.234 66.55 39.4321 66.0719 39.4321 65.5734V60.2132C44.4445 62.2322 46.5332 59.0299 46.5332 59.0299C49.1091 61.5361 52.6595 61.4665 52.6595 61.4665C59.4822 61.4665 60.1088 56.1059 60.1088 56.1059C62.1063 55.7571 63.5423 54.4541 64.5135 53.1412C65.9971 51.1285 66.6449 48.6202 66.3213 46.1408ZM51.7322 18.0613C49.3604 19.8119 47.1746 19.9731 45.8282 19.8316C44.8713 19.7349 43.9056 19.8861 43.024 20.2706C40.1377 21.5137 37.8409 20.8669 36.5017 20.1859C36.0503 19.9604 35.5573 19.8304 35.0535 19.8041C34.5496 19.7777 34.0458 19.8556 33.5734 20.0328C29.7038 21.4601 27.0216 20.5489 25.3855 19.4299C24.753 18.9998 24.0095 18.7622 23.2449 18.7455C22.4802 18.7289 21.7271 18.9341 21.0765 19.3363C16.6553 22.0664 11.7191 20.8079 11.7191 20.8079C14.2909 25.1372 13.6497 28.4864 12.8397 30.3536C12.6318 30.8325 12.5577 31.3589 12.6256 31.8766C12.6934 32.3943 12.9006 32.8839 13.2249 33.2931C15.5077 36.1782 14.1484 39.9042 14.1484 39.9042C14.1484 39.9042 17.3884 45.6398 12.8662 47.9341C10.4576 49.1564 8.31324 48.3102 6.83301 47.2526C7.24955 48.747 8.53898 51.4606 12.4202 51.511C15.2579 51.5478 16.8795 50.3732 17.799 49.1905C18.6348 48.0875 19.0518 46.7236 18.9756 45.3419C18.8062 41.5301 16.7375 40.0937 16.7375 40.0937C19.174 35.9166 15.6236 32.2963 15.6236 32.2963C16.4511 31.0851 16.9613 29.6855 17.1072 28.2258C17.2532 26.7662 17.0302 25.2932 16.4588 23.9422C20.0799 24.2207 22.3765 21.7841 22.3765 21.7841C26.2055 26.0308 32.123 23.8725 32.123 23.8725C38.9456 27.5623 43.8884 23.5246 43.8884 23.5246C49.6669 25.0561 54.5402 20.1827 54.5402 20.1827C51.6208 25.1459 54.2342 29.3236 55.1543 30.5429L55.447 30.3898C54.5004 21.8201 59.2937 16.624 59.2937 16.624C58.6891 17.0063 58.015 17.2656 57.3101 17.3872C56.6052 17.5087 55.8832 17.4901 55.1855 17.3324C54.5911 17.2019 53.9758 17.1995 53.3804 17.3251C52.785 17.4508 52.2231 17.7017 51.7322 18.0613Z" fill="#FF65A7"/>
<path d="M20.2133 28.6895C20.367 28.8523 20.5789 28.9476 20.8026 28.9547C21.0264 28.9617 21.2439 28.8799 21.4075 28.727C21.5711 28.5742 21.6675 28.3628 21.6757 28.1391C21.6839 27.9154 21.6032 27.6975 21.4513 27.5331C21.364 27.4395 21.3168 27.3946 21.3168 27.3946C21.1551 27.2402 20.9389 27.156 20.7154 27.1603C20.4918 27.1647 20.2791 27.2572 20.1235 27.4178C19.9679 27.5783 19.8821 27.7939 19.8848 28.0174C19.8875 28.241 19.9785 28.4544 20.1379 28.6112C20.1445 28.6175 20.1701 28.6433 20.2133 28.6895Z" fill="#3C3C4F"/>
<path d="M4.75084 35.8467C4.72136 37.8181 5.4727 39.7212 6.84095 41.1408C5.43378 43.1185 5.75757 46.0501 5.79949 46.3794C5.97505 48.4336 7.57641 52.2947 12.4095 52.3576C13.6247 52.3941 14.8331 52.1635 15.9494 51.682C17.3386 53.2355 19.5665 54.9125 22.728 54.9125C23.638 54.9067 24.5457 54.8183 25.4398 54.6484L26.5986 54.4367C26.7086 54.4172 26.8136 54.3762 26.9077 54.316C27.0017 54.2558 27.0829 54.1776 27.1467 54.0859C27.2104 53.9942 27.2554 53.8908 27.279 53.7817C27.3026 53.6726 27.3044 53.5598 27.2843 53.45C27.2642 53.3401 27.2225 53.2353 27.1618 53.1416C27.101 53.048 27.0223 52.9672 26.9302 52.904C26.8382 52.8409 26.7345 52.7965 26.6252 52.7736C26.5159 52.7506 26.4032 52.7495 26.2934 52.7703L25.1345 52.982C24.3349 53.1343 23.5231 53.2134 22.7091 53.2184C20.3312 53.2184 18.5761 51.9931 17.4192 50.7778C17.8079 50.4628 18.1595 50.1045 18.467 49.7099C19.4266 48.4483 19.9069 46.8869 19.8223 45.3041C19.6915 42.3731 18.5153 40.6832 17.7894 39.9107C19.2544 36.7706 17.9126 33.7752 16.6766 32.2132C17.3321 31.1056 17.7569 29.8769 17.9255 28.6009C18.0941 27.3249 18.0029 26.028 17.6575 24.7881C19.3638 24.6452 20.9906 24.0046 22.3362 22.9458C23.5705 24.085 25.1102 24.8397 26.7667 25.1176C26.297 27.4259 26.0141 33.0419 33.2241 36.1866C33.4297 36.275 33.6621 36.2785 33.8703 36.1962C34.0785 36.1139 34.2456 35.9525 34.3352 35.7473C34.4247 35.5421 34.4294 35.3098 34.3482 35.1012C34.267 34.8925 34.1064 34.7245 33.9017 34.6339C27.4914 31.8386 28.0399 26.9598 28.4524 25.2754C29.6663 25.2892 30.8757 25.1251 32.042 24.7883C38.1474 27.9144 42.7785 25.3211 44.069 24.4406C44.7857 24.598 45.5178 24.6744 46.2516 24.6685C45.3359 25.686 44.6871 26.9149 44.3631 28.245C43.8394 30.5263 44.4307 32.925 46.1208 35.3768C46.2491 35.5598 46.4445 35.6847 46.6645 35.7242C46.8845 35.7637 47.1112 35.7147 47.2952 35.5879C47.4792 35.461 47.6056 35.2665 47.6468 35.0469C47.6881 34.8272 47.6409 34.6002 47.5154 34.4152C46.11 32.3765 45.6041 30.4325 46.0119 28.6372C46.5932 26.0748 48.8794 24.5022 49.383 24.1829C50.5142 23.8305 51.5965 23.3371 52.6044 22.7143C51.7088 26.557 53.491 29.6602 54.3694 30.8975C53.8175 31.6431 53.3952 32.4764 53.12 33.3623C52.2991 33.0891 51.5988 32.5388 51.1392 31.8058C50.2735 30.3342 50.7713 28.5001 50.7819 28.4625C50.8434 28.247 50.817 28.016 50.7085 27.8199C50.6 27.6239 50.4183 27.4788 50.2031 27.4165C49.9878 27.3541 49.7567 27.3796 49.5602 27.4873C49.3638 27.595 49.2179 27.7761 49.1547 27.9911C49.1246 28.0938 48.4347 30.5322 49.6693 32.6484C50.3226 33.7689 51.3706 34.5723 52.7884 35.0456C52.5279 37.8534 53.6706 40.3681 54.2652 41.4585C52.6574 43.3815 51.8395 45.8432 51.9769 48.3461C49.3805 47.7239 46.9987 48.9649 45.8569 49.72C45.0616 48.7609 44.1149 47.9383 43.0542 47.2847C43.0739 46.4523 43.4212 44.4816 46.1386 43.5507C46.3489 43.4762 46.5213 43.3217 46.6184 43.1208C46.7155 42.9199 46.7294 42.6889 46.6571 42.4778C46.5848 42.2667 46.4322 42.0926 46.2323 41.9934C46.0324 41.8943 45.8015 41.878 45.5897 41.9481C42.7493 42.9209 41.6917 44.9128 41.4253 46.4841C39.9238 45.9217 38.3149 45.7046 36.718 45.8488C35.9266 45.9152 35.1482 46.0904 34.4047 46.3695C34.2174 45.8363 33.9361 45.341 33.5741 44.907C34.1334 44.2453 34.7126 43.1132 34.5457 41.3452C35.88 41.1754 37.1371 40.6249 38.1669 39.7597C39.0172 39.0448 39.6715 38.1252 40.0683 37.0876C40.6635 37.9789 41.4647 38.7136 42.4041 39.2296C41.3085 39.6762 40.3548 40.4119 39.6446 41.3581C38.3371 43.1737 37.2578 42.7744 37.2125 42.7557L37.2336 42.7659L36.5124 44.2986C36.8436 44.4361 37.1997 44.5038 37.5583 44.4975C38.4337 44.4975 39.7394 44.1225 41.0183 42.3479C42.324 40.5343 44.9995 40.1991 45.7093 40.1413C45.9507 40.158 46.1976 40.1692 46.4562 40.1692H46.4973L46.536 40.1669C46.6934 40.1586 48.2725 40.0966 49.185 40.9462C49.6373 41.3674 49.8574 41.9561 49.8574 42.74C49.8546 42.9459 49.7726 44.7637 47.8386 45.2291C47.6368 45.2775 47.4598 45.3982 47.3411 45.5684C47.2224 45.7386 47.1703 45.9464 47.1947 46.1525C47.2191 46.3585 47.3183 46.5485 47.4734 46.6863C47.6286 46.824 47.8289 46.9001 48.0364 46.9C48.1034 46.9 48.1702 46.8919 48.2352 46.876C50.8584 46.2445 51.5515 43.8984 51.5515 42.7466C51.5515 41.4733 51.1404 40.4475 50.3296 39.6972C50.1366 39.5199 49.9263 39.3624 49.7019 39.2271C50.2673 38.9065 50.7512 38.4599 51.1161 37.922C51.2365 37.7342 51.278 37.5066 51.2315 37.2884C51.1851 37.0703 51.0545 36.8792 50.8681 36.7568C50.6817 36.6343 50.4545 36.5903 50.2358 36.6343C50.0172 36.6784 49.8247 36.8069 49.7002 36.9919C48.9771 38.0931 47.1237 38.4334 46.439 38.4743H46.4312C46.3058 38.4743 46.1858 38.469 46.0659 38.4637C45.9925 38.4441 45.9168 38.4346 45.8408 38.4353C45.8266 38.4353 45.7832 38.4372 45.7186 38.4408C41.2557 38.0624 40.5969 34.2887 40.5367 33.858C40.5315 33.7091 40.5179 33.5607 40.4961 33.4133C40.2858 30.2451 41.92 28.3784 41.9954 28.2943C42.0703 28.2121 42.1284 28.1159 42.1662 28.0113C42.204 27.9067 42.2208 27.7956 42.2157 27.6845C42.2105 27.5734 42.1836 27.4643 42.1363 27.3636C42.0891 27.2629 42.0224 27.1725 41.9402 27.0975C41.858 27.0226 41.7618 26.9645 41.6572 26.9267C41.5526 26.8889 41.4415 26.8721 41.3304 26.8772C41.2193 26.8824 41.1102 26.9093 41.0095 26.9566C40.9088 27.0038 40.8184 27.0705 40.7434 27.1527C39.9842 28.0689 39.4339 29.1396 39.1308 30.2902C38.3992 29.3218 37.2885 28.2979 35.5992 27.4038C35.5009 27.3518 35.3933 27.3197 35.2825 27.3093C35.1718 27.2989 35.0601 27.3104 34.9538 27.3431C34.8475 27.3759 34.7487 27.4293 34.663 27.5002C34.5773 27.5712 34.5064 27.6583 34.4544 27.7566C34.4024 27.855 34.3703 27.9626 34.3599 28.0733C34.3495 28.1841 34.361 28.2958 34.3937 28.4021C34.4265 28.5084 34.4799 28.6072 34.5508 28.6929C34.6218 28.7786 34.7089 28.8494 34.8072 28.9014C38.0049 30.5928 38.6686 32.7117 38.8068 33.5446C38.8166 33.6869 38.828 33.8307 38.845 33.977C38.9422 35.8749 38.345 37.3864 37.0695 38.4679C36.4625 38.9677 35.7554 39.3317 34.9959 39.5353C34.2364 39.7389 33.4421 39.7773 32.6665 39.6481C30.3782 39.3008 28.8054 38.3351 27.7536 37.3422C27.7171 37.2984 27.6762 37.2585 27.6316 37.2232C27.246 36.8446 26.8984 36.4292 26.5939 35.9828C26.5834 35.9636 26.5759 35.9435 26.5637 35.9246C26.5184 35.8562 26.4718 35.7888 26.4237 35.7224C26.2003 35.3749 26.0131 35.0054 25.865 34.6197C25.855 34.5909 25.8434 34.5626 25.8303 34.535C25.1464 33.0596 24.3665 31.6306 23.4954 30.2574C23.3729 30.071 23.1819 29.9405 22.9638 29.8941C22.7457 29.8477 22.518 29.8892 22.3303 30.0095C22.1426 30.1299 22.0099 30.3195 21.9611 30.537C21.9122 30.7546 21.9511 30.9827 22.0694 31.1718C22.5776 31.9644 23.0744 32.8297 23.5553 33.7553C22.4411 33.4812 21.2718 33.5299 20.1842 33.8957C19.9728 33.9715 19.8001 34.1282 19.7041 34.3314C19.6082 34.5346 19.5969 34.7675 19.6727 34.979C19.7486 35.1905 19.9053 35.3632 20.1084 35.4591C20.3116 35.555 20.5445 35.5663 20.756 35.4905C20.8704 35.4505 23.5223 34.5543 25.0648 36.7382C25.3873 37.2384 25.7539 37.7088 26.1602 38.1437C26.0048 38.6989 25.6571 39.1808 25.1791 39.5032C24.6001 39.8352 23.9305 39.9746 23.2671 39.9013C23.0997 39.8688 22.9306 39.8456 22.7606 39.8317C21.7653 39.7561 21.4017 39.5564 21.3348 39.514C21.1845 39.3602 20.9813 39.2692 20.7664 39.2597C20.5516 39.2501 20.3411 39.3226 20.1778 39.4625C20.0144 39.6025 19.9104 39.7993 19.8868 40.0131C19.8632 40.2268 19.9219 40.4416 20.0508 40.6137C20.2592 40.892 20.8655 41.3761 22.5708 41.5158C22.6555 41.5328 22.8188 41.5605 23.0395 41.5817C23.4803 41.671 23.8909 41.872 24.2317 42.1656C24.5726 42.4591 24.8323 42.8353 24.986 43.258C25.0059 43.3152 25.0246 43.3745 25.0426 43.4353C25.1077 43.6486 25.2543 43.8277 25.4506 43.9336C25.647 44.0394 25.8771 44.0636 26.0912 44.0008C26.3052 43.938 26.4859 43.7933 26.5939 43.5982C26.7019 43.403 26.7285 43.1731 26.6681 42.9584C26.6431 42.8731 26.6162 42.7883 26.5874 42.7043C26.3884 42.1316 26.0669 41.6092 25.6452 41.1736C25.7943 41.1053 25.9388 41.0275 26.0779 40.9407C26.6907 40.5492 27.1826 39.9952 27.4988 39.3404C28.9464 40.3997 30.6347 41.0823 32.4118 41.3267C32.5545 41.3479 32.697 41.3617 32.8395 41.3752C33.0089 42.8459 32.4871 43.6261 32.142 43.9674C29.0464 42.8783 26.6731 45.1686 25.9944 45.9303C25.7922 46.1629 25.5686 46.3762 25.3267 46.5673C23.8753 47.686 22.6797 47.47 22.6096 47.4567C22.3906 47.4064 22.1605 47.4452 21.9701 47.5645C21.7796 47.6838 21.6444 47.8739 21.5941 48.0929C21.5438 48.312 21.5826 48.542 21.7019 48.7325C21.8212 48.9229 22.0113 49.0582 22.2303 49.1084C22.4588 49.1545 22.6916 49.1758 22.9247 49.172C23.6841 49.172 24.9765 48.9772 26.3606 47.9105C26.6867 47.6546 26.9879 47.3685 27.2604 47.056C27.9247 46.3106 29.7082 44.6862 31.9222 45.7007C31.9499 45.7134 31.9372 45.7105 31.951 45.7147C32.0458 45.7679 32.5392 46.0893 32.8738 47.1229C31.0319 48.2668 29.6803 50.0539 29.0811 52.1377C28.482 54.2215 28.678 56.4536 29.6311 58.4011C27.7241 62.1017 28.3452 65.0696 28.9032 66.5371C29.1013 67.0541 29.4509 67.4991 29.9063 67.814C30.3617 68.1288 30.9016 68.2987 31.4552 68.3013H37.5528C38.2757 68.3005 38.9688 68.013 39.48 67.5018C39.9911 66.9906 40.2787 66.2976 40.2794 65.5746V63.6925C40.2794 63.4678 40.1902 63.2524 40.0313 63.0935C39.8725 62.9347 39.657 62.8454 39.4324 62.8454C39.2077 62.8454 38.9923 62.9347 38.8334 63.0935C38.6746 63.2524 38.5853 63.4678 38.5853 63.6925V65.5746C38.5851 65.8484 38.4762 66.1109 38.2826 66.3045C38.089 66.498 37.8265 66.6069 37.5528 66.6072H31.455C31.2442 66.6077 31.0384 66.5435 30.8652 66.4233C30.692 66.3031 30.5599 66.1327 30.4866 65.9351C29.9076 64.4133 29.5845 61.9431 31.3301 58.817C31.402 58.6877 31.439 58.5419 31.4372 58.394C31.4355 58.246 31.3951 58.1011 31.3201 57.9736C31.3138 57.963 31.2674 57.8825 31.1966 57.7444C30.3632 56.0926 30.2097 54.1802 30.7688 52.4165C31.328 50.6529 32.5554 49.1783 34.1882 48.3084C34.1954 48.3052 34.2016 48.301 34.2084 48.2978C35.0316 47.8719 35.9315 47.6142 36.8554 47.5397C40.1628 47.2665 42.9091 48.5625 45.0177 51.3915C45.0869 51.4844 45.1744 51.5622 45.2748 51.6199C45.3753 51.6777 45.4865 51.7142 45.6016 51.7273C45.7167 51.7403 45.8333 51.7296 45.9441 51.6958C46.055 51.6621 46.1577 51.6059 46.2459 51.5308C46.2773 51.5044 49.3038 48.9818 52.2789 50.2272C52.5085 50.9992 52.8623 51.7288 53.3263 52.3872C53.4543 52.5718 53.6505 52.698 53.8716 52.7381C54.0927 52.7781 54.3206 52.7286 54.5053 52.6006C54.6899 52.4725 54.8161 52.2763 54.8561 52.0552C54.8961 51.8341 54.8467 51.6062 54.7186 51.4216C54.3021 50.8452 54.0048 50.1916 53.844 49.4989C53.8423 49.4884 53.8379 49.4788 53.8358 49.4682C53.8322 49.4494 53.8301 49.4305 53.8252 49.4117C53.7828 49.2527 52.8261 45.4807 55.9265 42.1323C56.0561 41.9919 56.1345 41.8119 56.1491 41.6214C56.1637 41.4309 56.1137 41.2411 56.007 41.0826C55.896 40.9176 53.9239 37.9205 54.5416 34.6331C54.5416 34.6305 54.5433 34.6282 54.5439 34.6257C54.5446 34.6231 54.5439 34.6178 54.5456 34.6138C54.7716 33.4433 55.3037 32.3536 56.0879 31.4557C56.2215 31.2989 56.2934 31.0988 56.2904 30.8927C56.2874 30.6867 56.2095 30.4888 56.0714 30.3359C55.913 30.1606 52.2988 26.0534 55.1112 20.8999C60.0602 19.3879 61.0938 14.3483 61.1362 14.1294C61.1759 13.9103 61.1277 13.6843 61.0021 13.5005C60.8765 13.3166 60.6835 13.1896 60.465 13.1469C60.2465 13.1043 60.0199 13.1494 59.8344 13.2725C59.6488 13.3956 59.5192 13.5868 59.4736 13.8047C59.4374 13.9864 58.5365 18.2668 54.3254 19.3629C54.3074 19.3676 54.2915 19.376 54.2741 19.382C54.2427 19.3914 54.2119 19.4028 54.1818 19.4161C54.1587 19.4269 54.1375 19.44 54.1159 19.4527C54.0914 19.4663 54.0675 19.4812 54.0444 19.4972C54.0232 19.5129 54.0028 19.5297 53.9834 19.5476C53.9694 19.5596 53.9542 19.5688 53.941 19.5827C53.8953 19.628 49.3309 24.0901 44.1043 22.7056C43.975 22.6713 43.8393 22.6682 43.7085 22.6965C43.5777 22.7248 43.4554 22.7836 43.3517 22.8683C43.3094 22.9021 39.4292 25.9829 33.9005 23.7704C34.3205 23.4689 34.7049 23.1208 35.0465 22.7327C35.1188 22.6482 35.1738 22.5502 35.2082 22.4445C35.2427 22.3387 35.256 22.2272 35.2473 22.1163C35.2386 22.0054 35.2082 21.8972 35.1578 21.7981C35.1074 21.6989 35.0379 21.6107 34.9534 21.5384C34.8688 21.4661 34.7709 21.4111 34.6651 21.3767C34.5593 21.3422 34.4478 21.329 34.3369 21.3376C34.226 21.3463 34.1179 21.3767 34.0187 21.4271C33.9196 21.4775 33.8313 21.547 33.759 21.6316C33.0998 22.4022 32.0014 22.9826 31.7911 23.0898C30.5731 23.4798 29.2934 23.6406 28.0168 23.5641C27.9398 23.5467 27.8607 23.5403 27.7819 23.5451C25.9489 23.4128 24.2376 22.5784 23.0045 21.2156C22.9262 21.1293 22.831 21.06 22.7248 21.0121C22.6185 20.9641 22.5036 20.9386 22.387 20.937C22.2705 20.9369 22.1552 20.96 22.0478 21.0051C21.9404 21.0501 21.843 21.1162 21.7615 21.1993C21.7403 21.2205 19.6862 23.3269 16.5476 23.0978C13.1886 22.6302 12.6628 20.3735 12.6384 20.2602C12.5961 20.0395 12.4678 19.8448 12.2818 19.7187C12.0958 19.5927 11.8674 19.5457 11.6467 19.588C11.4261 19.6304 11.2313 19.7587 11.1053 19.9447C10.9792 20.1306 10.9322 20.3591 10.9746 20.5797C11.0009 20.7199 11.6476 23.9044 15.8547 24.7004C16.2735 25.877 16.4071 27.1362 16.2445 28.3745C16.0819 29.6128 15.6277 30.7948 14.9194 31.8234C14.8114 31.985 14.7621 32.1788 14.7797 32.3724C14.7973 32.566 14.8806 32.7477 15.0159 32.8873C15.1347 33.0099 17.7498 35.7698 16.3098 39.0638C15.544 38.8721 14.7474 38.837 13.9677 38.9605C13.8584 38.9819 13.7543 39.0247 13.6616 39.0864C13.5688 39.1481 13.4891 39.2274 13.4271 39.32C13.365 39.4125 13.3219 39.5163 13.3 39.6256C13.2782 39.7348 13.2781 39.8473 13.2998 39.9566C13.3214 40.0658 13.3645 40.1698 13.4264 40.2624C13.4883 40.355 13.5678 40.4345 13.6605 40.4963C13.7532 40.5582 13.8571 40.6011 13.9664 40.6227C14.0757 40.6443 14.1882 40.6441 14.2974 40.6222C14.9768 40.5263 15.6694 40.6003 16.3132 40.8376C16.6308 41.1025 17.9959 42.4046 18.1284 45.3793C18.1956 46.5601 17.8414 47.7265 17.1289 48.6705C16.101 49.9938 14.561 50.6643 12.5501 50.6643H12.4311C7.92731 50.6058 7.50166 46.3977 7.4862 46.2217C7.48484 46.2065 7.48315 46.1914 7.48112 46.1764C7.36528 45.3105 7.34008 42.8188 8.59691 41.7018C8.69211 41.6163 8.76681 41.5105 8.81542 41.3921C8.86404 41.2738 8.88533 41.146 8.87769 41.0183C8.87006 40.8906 8.83371 40.7663 8.77134 40.6546C8.70897 40.5429 8.6222 40.4467 8.51749 40.3732C8.43279 40.3136 6.46338 38.8921 6.44495 35.8916C6.47608 35.6294 6.7266 33.8586 7.83625 33.0514C7.84069 33.0482 7.84408 33.0438 7.84853 33.0404C7.85298 33.037 7.85954 33.0338 7.86462 33.0298L8.80316 32.2848C8.89296 32.2166 8.96823 32.1312 9.02457 32.0335C9.08091 31.9358 9.11719 31.8279 9.13127 31.716C9.14535 31.6042 9.13695 31.4906 9.10657 31.382C9.07619 31.2734 9.02444 31.172 8.95434 31.0837C8.88425 30.9954 8.79723 30.9219 8.69838 30.8677C8.59954 30.8134 8.49085 30.7794 8.37871 30.7678C8.26656 30.7561 8.15321 30.7669 8.04529 30.7996C7.93738 30.8322 7.83708 30.8861 7.75027 30.9581L7.52516 31.1366C7.10164 30.4223 6.56629 29.2496 6.72046 28.0711C6.83841 27.1656 7.33966 26.4041 8.25321 25.7417C8.42362 25.6177 8.54184 25.4348 8.5849 25.2285C8.62795 25.0222 8.59275 24.8073 8.48615 24.6255C8.41077 24.4967 6.66159 21.449 8.71909 19.7161C8.85568 19.6004 8.95225 19.4445 8.99503 19.2706C9.03781 19.0968 9.02461 18.9139 8.95733 18.748C8.86542 18.5222 6.76387 13.1883 11.4326 10.8686C12.0393 10.5511 12.7132 10.3833 13.3979 10.3792C14.0827 10.3751 14.7585 10.5347 15.3689 10.8449C15.7288 11.0388 16.0562 11.2876 16.3392 11.5825C15.4787 12.044 14.7468 12.7129 14.2099 13.5286C14.1514 13.6237 14.1122 13.7294 14.0946 13.8397C14.077 13.9501 14.0815 14.0627 14.1077 14.1713C14.1338 14.2799 14.1812 14.3823 14.2471 14.4725C14.313 14.5627 14.396 14.6389 14.4915 14.6969C14.587 14.7549 14.693 14.7934 14.8034 14.8102C14.9138 14.8271 15.0265 14.8219 15.1349 14.7951C15.2433 14.7682 15.3453 14.7202 15.4351 14.6537C15.5249 14.5872 15.6006 14.5037 15.658 14.4078C16.3428 13.28 17.9069 12.7027 17.9273 12.6953C17.934 12.693 17.9398 12.6887 17.9465 12.6862C17.9533 12.6837 17.9607 12.6826 17.9677 12.6796C18.1727 12.5949 23.0174 10.6645 25.3583 16.0641C25.4065 16.1747 25.4778 16.2738 25.5673 16.3547C25.6569 16.4356 25.7626 16.4964 25.8776 16.5332C25.9925 16.57 26.114 16.5818 26.2339 16.5679C26.3537 16.554 26.4693 16.5147 26.5728 16.4526C26.7634 16.3374 31.2907 13.673 33.9136 16.7625C33.9985 16.8621 34.1053 16.9408 34.2257 16.9923C34.346 17.0438 34.4767 17.0668 34.6074 17.0594C34.7381 17.0519 34.8654 17.0143 34.9791 16.9495C35.0929 16.8847 35.1901 16.7944 35.2632 16.6858C35.423 16.4478 39.2573 10.8934 45.3072 14.0417C45.3154 14.0459 45.3245 14.0478 45.333 14.0519C45.3415 14.0559 45.3489 14.062 45.3578 14.0658C46.0302 14.4033 46.6383 14.856 47.1544 15.4033C47.3105 15.559 47.5212 15.6477 47.7417 15.6505C47.9621 15.6533 48.175 15.57 48.335 15.4184C48.4951 15.2667 48.5897 15.0587 48.5988 14.8384C48.6079 14.6181 48.5307 14.4029 48.3837 14.2386C47.9282 13.7598 47.4179 13.3364 46.8632 12.9772C47.611 11.8648 49.4146 9.83033 52.3939 10.2848C52.6038 10.3163 52.8179 10.268 52.994 10.1495C53.17 10.0309 53.2953 9.85074 53.3451 9.6444C53.3964 9.43264 54.6714 4.49534 60.6017 5.54506C61.8885 5.74836 63.0741 6.36538 63.9789 7.30271C65.8106 9.25772 65.7852 11.8781 63.9039 15.0908C63.8333 15.2119 63.7938 15.3485 63.7888 15.4886C63.7838 15.6287 63.8135 15.7678 63.8753 15.8936C64.02 16.1886 67.3616 23.1806 62.0694 28.7917C61.9311 28.9384 61.8496 29.1295 61.8396 29.3309C61.8296 29.5322 61.8917 29.7305 62.0148 29.8902C62.0556 29.9431 66.0595 35.2546 62.4643 40.7437C62.3969 40.8488 62.3533 40.9674 62.3366 41.0912C62.32 41.2149 62.3307 41.3408 62.3681 41.46C62.4054 41.5791 62.4684 41.6886 62.5527 41.7808C62.637 41.8729 62.7405 41.9454 62.8559 41.9932C62.945 42.0302 65.0424 42.937 65.4807 46.2369C65.779 48.5399 65.1645 50.8682 63.7686 52.7241C62.9372 53.8228 61.9944 54.5809 60.9568 54.99V54.2209C60.9568 53.9962 60.8675 53.7808 60.7087 53.6219C60.5498 53.4631 60.3344 53.3738 60.1097 53.3738C59.8851 53.3738 59.6696 53.4631 59.5108 53.6219C59.3519 53.7808 59.2627 53.9962 59.2627 54.2209V56.0446C59.1875 56.5276 58.3794 60.6187 52.6461 60.6187C52.6249 60.6187 49.405 60.6399 47.125 58.4219C47.0354 58.336 46.9281 58.2708 46.8107 58.2307C46.6933 58.1906 46.5685 58.1766 46.4451 58.1897C46.3218 58.2028 46.2027 58.2426 46.0963 58.3065C45.99 58.3703 45.8988 58.4566 45.8292 58.5593C45.7572 58.6652 44.0251 61.1193 39.8038 59.4474C37.2366 57.9617 36.3944 54.5557 36.3857 54.5214C36.3333 54.3034 36.1967 54.1152 36.0058 53.9978C35.8149 53.8804 35.5852 53.8434 35.3671 53.895C35.149 53.9466 34.9602 54.0826 34.8421 54.2731C34.7241 54.4636 34.6863 54.6931 34.7371 54.9114C34.7774 55.0819 35.7583 59.1088 39.0163 60.9497C39.05 60.9687 39.0849 60.9854 39.1209 60.9997C42.8056 62.482 45.3527 61.3872 46.6129 60.2231C49.307 62.3512 52.5302 62.3196 52.6605 62.3126C58.7102 62.3126 60.3912 58.3664 60.8177 56.8169C62.4561 56.3872 63.9007 55.3557 65.1194 53.7463C66.7833 51.5342 67.5157 48.759 67.16 46.0139C66.7731 43.102 65.3014 41.5993 64.3397 40.9117C67.1299 35.8602 64.7582 31.0858 63.7533 29.4503C65.9722 26.8469 66.9796 23.6196 66.6708 20.0744C66.5345 18.5257 66.1677 17.0059 65.5824 15.5656C68.1659 10.8796 66.8258 7.86304 65.2152 6.14393C64.0605 4.93907 62.5444 4.14357 60.8969 3.87805C54.876 2.81203 52.6118 6.84276 51.9392 8.53793C48.678 8.3645 46.416 10.5198 45.3497 12.186C39.8777 9.80492 35.9556 13.2918 34.4887 14.9508C31.9984 12.8512 28.5926 13.5885 26.5158 14.5662C23.9914 9.83033 19.6489 10.4514 17.9866 10.8995C17.4995 10.2605 16.881 9.73331 16.1728 9.35365C15.3237 8.91506 14.382 8.68605 13.4263 8.68575C12.4706 8.68546 11.5288 8.91389 10.6794 9.35196C6.15039 11.6017 6.3414 16.2578 7.18825 18.8413C5.49413 20.6886 5.98225 23.2537 6.68848 24.8296C5.78393 25.6035 5.19644 26.6837 5.03841 27.8636C4.80717 29.6748 5.65253 31.3541 6.21688 32.2441C4.95667 33.6418 4.76269 35.6747 4.75401 35.7721C4.75179 35.7969 4.75073 35.8218 4.75084 35.8467Z" fill="#3C3C4F"/>
</svg>
