<svg width="72" height="72" viewBox="0 0 72 72" fill="none" xmlns="http://www.w3.org/2000/svg">
<path d="M46.3373 26.0938C46.2331 26.0938 44.1511 25.1681 43.422 22.7339C41.8875 17.6109 46.7553 12.5281 51.9984 13.5785C52.4851 13.6771 52.964 13.8109 53.4314 13.9787C54.1597 14.2302 54.7924 14.7007 55.2429 15.3257C55.7848 16.0959 56.1746 17.2807 55.5626 18.9401L48.5043 27.8167L46.3373 26.0938Z" fill="#FFE27D"/>
<path d="M55.5789 15.9189C53.9723 15.9987 52.4002 16.4139 50.9637 17.1379C49.5273 17.862 48.2584 18.8788 47.2387 20.1229C47.0028 20.4069 46.7101 20.6384 46.3795 20.8027C46.0489 20.9669 45.6876 21.0603 45.3187 21.0768C44.9499 21.0934 44.5817 21.0327 44.2377 20.8986C43.8937 20.7646 43.5815 20.5602 43.3211 20.2985C43.2707 20.2478 43.2199 20.1926 43.1693 20.1386C43.0831 21.0117 43.1685 21.8932 43.4208 22.7335C44.1499 25.1688 46.232 26.0934 46.3362 26.0934L48.5036 27.8163L55.5619 18.9398C56.0344 17.6588 55.9092 16.6618 55.5789 15.9189Z" fill="#F49F42"/>
<path d="M47.4482 27.2609C47.4482 27.2609 47.4482 18.0914 56.4516 17.9241C65.455 17.7569 67.2889 26.8718 67.2889 26.8718C67.2889 26.8718 71.2347 45.7678 58.3412 47.6574C51.4339 48.6696 49.1997 44.6419 48.6142 40.6833C48.0737 36.8712 49.0065 32.9964 51.2227 29.848L51.2829 29.7618L47.4482 27.2609Z" fill="#FF65A7"/>
<path d="M17.7158 22.2593C17.7158 22.2593 19.8297 12.6431 28.72 14.0897V24.6501L23.6262 26.8737L17.7158 22.2593Z" fill="#FFE27D"/>
<path d="M25.7421 14.0194C25.965 16.1602 25.8107 21.4865 19.2451 23.4538L23.6253 26.8721L28.719 24.6485V14.0895C27.7355 13.9206 26.7325 13.897 25.7421 14.0194Z" fill="#F49F42"/>
<path d="M20.8488 20.7996C21.6479 21.4463 22.3064 22.2495 22.7838 23.1599C23.2613 24.0703 23.5476 25.0687 23.6253 26.0937L18.8235 36.4179L19.48 37.3558C19.48 37.3558 23.6259 36.8975 23.31 42.2052C23.31 42.2052 22.0428 51.5464 13.5802 49.7229C9.81569 48.912 7.48479 46.0494 6.06385 43.1863C3.94155 38.9087 3.60738 33.9841 4.87924 29.3822C5.82922 25.9455 7.76115 22.0975 11.6769 19.9481C13.1173 19.1626 14.759 18.8241 16.3927 18.9758C18.0263 19.1274 19.5777 19.7624 20.8488 20.7996Z" fill="#FF65A7"/>
<path d="M19.4796 37.3558L18.8231 36.4179L22.7687 27.9346C22.1989 27.9346 21.6993 27.9346 21.597 27.9449C21.3355 27.9687 14.1543 30.1795 14.1543 30.1795C14.1543 30.1795 13.8848 31.6045 14.8807 32.5301C15.236 32.845 15.6759 33.0488 16.1459 33.1162C16.6159 33.1835 17.0953 33.1116 17.5248 32.9091L20.1473 31.7249L16.5335 36.4179C16.5335 36.4179 15.8442 37.7638 17.4846 38.6202C17.4846 38.6202 19.2572 39.5799 20.887 37.5258C20.4326 37.3819 19.9552 37.3242 19.4796 37.3558Z" fill="#B83677"/>
<path d="M34.2478 19.7071C33.7252 11.5166 33.6322 3.42108 33.6322 3.42108C31.5195 3.2002 29.3844 3.34665 27.3216 3.85392C27.2638 8.46764 27.5969 16.0054 27.7409 18.9951C27.8101 20.1509 27.5272 21.3005 26.9297 22.2923C26.3287 23.2436 25.4833 24.016 24.4817 24.5287C21.4375 26.1523 17.1518 28.0017 15.1397 28.8487C14.8233 28.9767 14.5569 29.2037 14.3803 29.4957C14.2037 29.7877 14.1264 30.1291 14.16 30.4687C14.1889 30.7094 14.2743 30.9398 14.4093 31.1411C14.5443 31.3424 14.7251 31.5089 14.9368 31.6269C15.1485 31.7449 15.3852 31.8111 15.6274 31.82C15.8697 31.829 16.1106 31.7804 16.3304 31.6783C17.8399 30.9767 20.0295 29.9054 22.087 28.702C22.087 28.702 18.1821 32.4263 16.5991 36.1798C16.5454 36.2961 16.5198 36.4235 16.5244 36.5515C16.5289 36.6796 16.5635 36.8048 16.6254 36.917C17.2876 37.3801 18.1463 37.6306 19.3108 37.5495C20.4088 36.3482 21.1053 34.4497 23.9398 31.6584C25.8295 29.797 27.3384 28.3972 28.1867 27.6743C28.7405 42.9271 28.6145 66.5716 28.6145 66.5716L32.3587 62.395L34.2474 60.4434C35.0663 51.3767 34.6995 26.7847 34.2478 19.7071Z" fill="#A0CEFF"/>
<path d="M34.2472 60.4434C34.9206 52.9834 34.7916 35.0128 34.4732 24.9358C34.7332 22.7849 34.5551 20.4067 34.2091 19.0936C33.6864 10.903 33.6316 3.42131 33.6316 3.42131C32.8803 3.34909 32.1254 3.32017 31.3708 3.3347C31.4767 8.48863 32.1024 39.1846 32.1776 52.4171C31.5814 55.6049 30.3756 58.6476 28.6265 61.3786C28.6262 63.1096 28.6221 64.8406 28.6143 66.5717L32.3585 62.395L34.2472 60.4434Z" fill="#718AF0"/>
<path d="M43.7891 51.801C43.7891 51.801 44.3748 38.1129 44.3969 24.5892C43.9543 24.0405 43.623 23.4107 43.4215 22.7352C43.132 21.7536 43.0641 20.72 43.2227 19.709C43.3813 18.698 43.7625 17.7348 44.3386 16.889C44.2482 11.9617 44.0441 7.44429 43.6629 4.10095C41.4009 3.60265 39.0925 3.34491 36.7763 3.33203C36.7763 3.33203 37.6609 8.27081 37.6609 20.4003L37.3066 38.208C37.2149 43.6725 36.3165 49.0935 34.6407 54.2955C33.2047 58.7053 31.0324 63.4679 27.8047 66.8375C29.6693 68.0387 31.8415 68.675 34.0596 68.6697C34.0596 68.6697 37.2185 64.8156 38.6085 60.4564C38.6085 60.4564 39.493 65.8266 41.6412 68.6697H47.8959C47.8959 68.6697 43.4734 65.0686 43.7891 51.801Z" fill="#FFB4E6"/>
<path d="M43.4219 22.7341C43.1324 21.7525 43.0646 20.7189 43.2232 19.7079C43.3818 18.6969 43.7629 17.7337 44.3391 16.8879C44.3327 16.5385 44.3257 16.1914 44.3179 15.8467C42.217 17.3066 39.6339 20.1618 40.6438 25.0614C41.1004 27.2765 42.5355 28.7673 44.3632 29.7666C44.3823 28.0572 44.3944 26.3214 44.3971 24.5881C43.9546 24.0394 43.6234 23.4096 43.4219 22.7341Z" fill="#FF65A7"/>
<path d="M49.3389 33.5118C50.2348 33.7611 51.667 33.8892 52.9211 32.795C53.3075 32.4462 53.5485 31.9647 53.5959 31.4463C53.6434 30.9279 53.4938 30.4107 53.1771 29.9976C52.5634 29.1506 51.8111 28.4132 50.9521 27.8164L50.3344 29.1425L51.2835 29.7615L51.2234 29.8477C50.4353 30.98 49.8016 32.2122 49.3389 33.5118Z" fill="#B83677"/>
<path d="M44.3385 31.7245C44.3597 30.244 44.376 28.7348 44.3861 27.2158L37.5546 25.748L37.4727 29.8717C38.7018 30.3526 39.9792 30.6997 41.2827 30.9071C42.3251 31.0811 43.3484 31.3548 44.3385 31.7245Z" fill="#FF65A7"/>
<path d="M52.0994 28.7466C49.5921 26.5536 46.6666 25.0486 41.49 23.6204C37.0531 22.3964 34.9583 20.1149 34.21 19.0938C34.2224 19.2982 34.2351 19.5029 34.2481 19.7079C34.3281 20.9617 34.4054 22.767 34.474 24.9363C35.3461 25.6204 36.2947 26.2009 37.3007 26.6662C38.6174 27.2795 39.9971 27.7474 41.4153 28.0616C45.6294 29.0293 48.5545 30.4653 50.1823 31.4286C51.1484 31.0648 52.4395 30.6464 52.6271 30.4134C52.7017 30.114 52.6919 29.7997 52.5987 29.5055C52.5056 29.2113 52.3328 28.9486 52.0994 28.7466Z" fill="#A0CEFF"/>
<path d="M37.3003 26.6656C38.617 27.2789 39.9967 27.7468 41.4149 28.0609C45.629 29.0287 48.5541 30.4647 50.1819 31.428C50.3807 31.5458 50.602 31.6206 50.8315 31.6476C51.0611 31.6746 51.2937 31.6532 51.5144 31.5847C51.7351 31.5163 51.939 31.4023 52.113 31.2501C52.2869 31.098 52.427 30.9111 52.5243 30.7014C52.5667 30.6084 52.6003 30.5116 52.6246 30.4124C51.649 30.8893 50.4064 30.0928 50.4064 30.0928C46.7981 27.6677 42.6871 26.6029 42.6871 26.6029C37.885 25.6453 34.6238 23.0859 34.3178 20.959C33.8909 22.3526 34.4448 24.026 34.4736 24.9357C35.3457 25.6198 36.2943 26.2003 37.3003 26.6656ZM27.2368 25.9079C25.4715 27.4822 21.6441 31.147 19.2046 35.3298C18.9648 35.7555 18.6461 36.1316 18.2656 36.4381C17.8302 36.7782 17.2411 37.0781 16.627 36.9163C17.0685 37.7316 18.8266 38.0795 19.3111 37.5495C20.4091 36.3481 21.1056 34.4499 23.94 31.6584C25.8298 29.797 27.3386 28.3972 28.187 27.6743V26.3353C28.1867 26.2253 28.1548 26.1178 28.095 26.0255C28.0352 25.9332 27.95 25.8602 27.8497 25.8151C27.7495 25.77 27.6383 25.7548 27.5296 25.7712C27.4209 25.7877 27.3192 25.8352 27.2368 25.9079Z" fill="#718AF0"/>
<path d="M45.3281 68.669C41.9434 65.4193 40.2544 60.1457 39.4715 56.7206C39.4287 56.534 39.3273 56.366 39.1823 56.2411C39.0372 56.1161 38.856 56.0408 38.6652 56.0261C38.4743 56.0114 38.2837 56.0581 38.1212 56.1593C37.9587 56.2606 37.8328 56.4111 37.7619 56.5889C35.2182 62.9487 31.6184 66.4311 29.8252 67.869C31.1756 68.3942 32.6115 68.6654 34.0605 68.669C34.0605 68.669 37.2194 64.8149 38.6094 60.4558C38.6094 60.4558 39.4939 65.8259 41.6421 68.669H45.3281Z" fill="#FF65A7"/>
<path d="M23.31 42.205C23.4358 40.0933 22.8543 38.8964 22.1093 38.2182C20.8372 41.1638 18.8845 42.7986 17.1614 43.7029C15.9942 44.3251 14.6955 44.66 13.373 44.6797C12.0505 44.6995 10.7423 44.4035 9.55714 43.8164C6.05307 42.0401 4.6461 38.2118 4.13914 34.5354C4.08219 37.5317 4.74209 40.4984 6.06387 43.1881C7.48481 46.0511 9.8157 48.9138 13.5802 49.7246C22.0428 51.5456 23.31 42.205 23.31 42.205ZM58.3416 47.6573C65.8226 46.561 67.6342 39.7399 67.8373 34.2061C66.3685 38.0057 63.602 42.1775 58.4902 42.6466C51.2115 43.3143 49.2465 38.263 48.7215 35.7776C48.4122 37.3954 48.3764 39.0536 48.6157 40.6833C49.2003 44.6418 51.4345 48.6696 58.3416 47.6573Z" fill="#B83677"/>
<path d="M5.30487 43.5625C7.21075 47.4039 10.0109 49.8201 13.4017 50.5507C14.1488 50.7163 14.9114 50.8021 15.6767 50.8065C17.2568 50.833 18.8052 50.3618 20.1026 49.4595C23.4654 47.0994 24.1227 42.5121 24.1492 42.3181C24.1519 42.297 24.154 42.2758 24.1553 42.2546C24.2803 40.1581 23.8046 38.5987 22.7416 37.6212C22.245 37.17 21.6382 36.8576 20.9824 36.7157C21.04 36.6287 21.0968 36.5437 21.1565 36.4531C22.1154 34.9291 23.2489 33.5224 24.5342 32.2614C25.5828 31.2287 26.5779 30.2764 27.4021 29.5138C27.7244 39.5887 27.7864 52.0004 27.7795 60.8732C27.7795 61.0978 27.8687 61.3133 28.0276 61.4721C28.1864 61.631 28.4019 61.7202 28.6265 61.7202C28.8512 61.7202 29.0666 61.631 29.2255 61.4721C29.3843 61.3133 29.4736 61.0978 29.4736 60.8732C29.481 51.4471 29.41 38.0305 29.0335 27.642C29.0277 27.483 28.9772 27.3288 28.8879 27.1972C28.7985 27.0655 28.6739 26.9617 28.5282 26.8976C28.3826 26.8335 28.2218 26.8117 28.0644 26.8348C27.9069 26.8578 27.7592 26.9247 27.638 27.0279C26.6923 27.8326 25.0875 29.3376 23.3455 31.0533C21.976 32.3984 20.7667 33.8974 19.7415 35.5203C19.436 36.0143 19.0964 36.4863 18.725 36.933C18.4165 36.9779 18.1015 36.9357 17.8157 36.811C17.6446 36.7571 17.492 36.6563 17.3752 36.52C17.3765 36.5166 17.378 36.5122 17.3801 36.5075C18.8743 32.9641 22.6344 29.3499 22.6721 29.3132C22.8224 29.1699 22.9148 28.9764 22.9318 28.7694C22.9488 28.5624 22.8891 28.3564 22.7642 28.1906C22.6392 28.0247 22.4577 27.9105 22.254 27.8697C22.0504 27.8288 21.8389 27.8643 21.6597 27.9692C19.6197 29.1625 17.4417 30.2264 15.9736 30.9087C15.875 30.9544 15.767 30.976 15.6585 30.972C15.5499 30.9679 15.4439 30.9381 15.3491 30.8851C15.2542 30.8322 15.1733 30.7575 15.1129 30.6672C15.0525 30.5769 15.0143 30.4736 15.0016 30.3657C14.9895 30.2088 15.0285 30.0521 15.1127 29.9191C15.1969 29.7861 15.3219 29.6839 15.4689 29.6277C17.6884 28.6926 21.8625 26.8837 24.8806 25.274C26.0137 24.6903 26.97 23.8141 27.6503 22.7363C28.3401 21.5997 28.6673 20.28 28.5884 18.9529C28.4433 15.9426 28.1124 8.4468 28.17 3.86357C28.1713 3.75234 28.1508 3.64191 28.1095 3.53861C28.0682 3.43531 28.007 3.34115 27.9293 3.26151C27.8517 3.18187 27.7591 3.11831 27.6568 3.07446C27.5546 3.0306 27.4447 3.00732 27.3335 3.00593C27.1088 3.00312 26.8923 3.08967 26.7314 3.24654C26.6518 3.32421 26.5882 3.41681 26.5444 3.51905C26.5005 3.62128 26.4772 3.73116 26.4758 3.8424C26.4176 8.47157 26.7511 16.0087 26.8958 19.0342C26.9581 20.0188 26.7191 20.999 26.2107 21.8445C25.6871 22.6676 24.9529 23.3357 24.0842 23.7796C24.0552 23.7951 24.0244 23.8107 23.9952 23.8262C23.4832 22.3818 22.5808 21.1075 21.3884 20.1449C20.9264 19.7653 20.4271 19.4336 19.8982 19.1547C20.8166 17.5832 22.3399 15.7908 24.7182 15.0954C24.8269 15.0658 24.9285 15.0149 25.0173 14.9457C25.1061 14.8764 25.1801 14.7901 25.2352 14.6918C25.2902 14.5936 25.3251 14.4853 25.3378 14.3735C25.3505 14.2616 25.3407 14.1483 25.3091 14.0402C25.2775 13.9321 25.2247 13.8314 25.1537 13.744C25.0827 13.6566 24.995 13.5842 24.8957 13.5311C24.7964 13.4779 24.6875 13.4451 24.5754 13.4346C24.4633 13.4241 24.3502 13.436 24.2428 13.4696C21.2323 14.3495 19.3847 16.6048 18.3178 18.5033C17.1553 18.1452 15.933 18.0228 14.7226 18.1433C13.5122 18.2638 12.3381 18.6248 11.269 19.2051C7.83249 21.0911 5.3396 24.532 4.06244 29.1561C2.69995 34.086 3.14127 39.2022 5.30487 43.5625ZM5.69557 29.6072C6.86536 25.3744 9.01477 22.3743 12.0841 20.69C13.3767 19.988 14.8487 19.6857 16.3133 19.8214C17.778 19.9572 19.1693 20.5248 20.3109 21.4523C21.3236 22.2697 22.0732 23.3671 22.4665 24.6076C19.7616 25.9468 16.6264 27.3021 14.8112 28.0668C14.3257 28.2669 13.918 28.6188 13.6492 29.07C13.3804 29.5211 13.265 30.0472 13.3202 30.5694C13.365 30.9429 13.4976 31.3004 13.7072 31.6128C13.9167 31.9251 14.1973 32.1834 14.5259 32.3664C14.8545 32.5494 15.2218 32.6521 15.5977 32.6658C15.9736 32.6796 16.3474 32.6042 16.6885 32.4457C17.2477 32.1858 17.804 31.9199 18.3574 31.648C17.3429 32.9397 16.4905 34.3508 15.819 35.8498C15.4647 36.6899 15.7809 37.5553 16.6449 38.1083C16.7795 38.1938 16.9204 38.269 17.0665 38.3331C16.5313 38.9065 16.0887 39.5598 15.7546 40.2695C15.7069 40.3701 15.6795 40.4792 15.6739 40.5904C15.6684 40.7016 15.6848 40.8128 15.7223 40.9177C15.7598 41.0226 15.8176 41.119 15.8924 41.2015C15.9672 41.284 16.0576 41.3509 16.1582 41.3985C16.2589 41.446 16.368 41.4733 16.4793 41.4786C16.5905 41.484 16.7017 41.4673 16.8065 41.4297C16.9113 41.392 17.0076 41.334 17.09 41.2591C17.1724 41.1841 17.2391 41.0937 17.2865 40.9929C17.6415 40.2356 18.1551 39.5635 18.7926 39.022C19.1466 38.7213 19.5809 38.5309 20.0419 38.4742C20.5029 38.4176 20.9704 38.4971 21.3867 38.7031C21.4646 38.7563 21.5385 38.8151 21.6078 38.8791C22.2643 39.4932 22.5527 40.5819 22.4669 42.1165C22.41 42.4782 21.7571 46.2351 19.1225 48.0777C17.6923 49.0783 15.8876 49.353 13.7591 48.8945C10.8493 48.2677 8.51564 46.2203 6.82301 42.8094C4.84449 38.8232 4.44426 34.1349 5.69663 29.6074L5.69557 29.6072ZM40.9654 69.1796C41.1017 69.3565 41.3022 69.4725 41.5235 69.5022C41.7448 69.532 41.9689 69.4732 42.1471 69.3386C42.3252 69.204 42.443 69.0045 42.4749 68.7836C42.5067 68.5626 42.45 68.3379 42.3171 68.1585C40.39 65.6076 39.5133 60.7171 39.4485 60.3414L39.1209 57.1332C39.0981 56.9097 38.9874 56.7044 38.8132 56.5625C38.6391 56.4206 38.4156 56.3537 38.1921 56.3766C37.9686 56.3994 37.7634 56.5101 37.6215 56.6843C37.4796 56.8584 37.4127 57.0819 37.4355 57.3054L37.7474 60.3611C36.3989 64.4427 33.4346 68.0954 33.4044 68.1329C33.262 68.3067 33.1945 68.5299 33.2167 68.7535C33.2389 68.9771 33.349 69.1826 33.5228 69.325C33.6966 69.4674 33.9199 69.5349 34.1434 69.5127C34.367 69.4905 34.5726 69.3803 34.715 69.2065C36.154 67.384 37.3852 65.4066 38.3857 63.311C38.8882 65.15 39.7215 67.5334 40.9654 69.1796Z" fill="#3C3C4F"/>
<path d="M47.7771 40.8074C48.5348 45.929 51.545 48.659 56.3383 48.6586C57.0501 48.6559 57.7609 48.6015 58.4648 48.4958C61.6714 48.0256 64.1776 46.5264 65.9147 44.0398C70.3484 37.6924 68.2119 27.1448 68.12 26.705C67.7058 24.9636 66.9665 23.3161 65.9408 21.8492C64.4061 19.6619 61.5665 17.0775 56.7095 17.0767C56.6681 16.2727 56.4 15.4968 55.9364 14.8387C55.3865 14.0688 54.6105 13.4893 53.716 13.1808C53.2102 12.9996 52.692 12.8551 52.1655 12.7484C50.8757 12.4882 49.5415 12.5533 48.2832 12.9379C47.0249 13.3224 45.8822 14.0142 44.9583 14.951C44.8793 10.1918 44.7279 6.52272 44.5068 4.02559C44.4985 3.9136 44.4681 3.80437 44.4173 3.70425C44.3664 3.60413 44.2962 3.51512 44.2106 3.44239C44.1251 3.36967 44.0259 3.31467 43.9189 3.28062C43.8119 3.24656 43.6992 3.23412 43.5874 3.24402C43.4755 3.25391 43.3667 3.28595 43.2674 3.33827C43.168 3.39058 43.0801 3.46213 43.0086 3.54875C42.9371 3.63537 42.8836 3.73533 42.8511 3.84282C42.8187 3.95031 42.8079 4.06319 42.8194 4.17488C43.0691 6.9958 43.229 11.3567 43.2944 17.1372C43.2953 17.1905 43.3012 17.2436 43.312 17.2958C42.4964 19.0456 42.3538 21.0344 42.9116 22.8826C42.998 23.1702 43.1016 23.4524 43.2216 23.7278C42.671 23.5679 42.0929 23.4052 41.4851 23.2373C40.4352 22.9522 39.4248 22.538 38.4768 22.0042L38.5088 20.4007C38.5088 8.33373 37.6475 3.38691 37.6109 3.18213C37.5697 2.96257 37.4435 2.76816 37.2596 2.64123C37.0758 2.5143 36.8493 2.46513 36.6294 2.50442C36.4094 2.54371 36.214 2.66828 36.0855 2.85101C35.9569 3.03375 35.9058 3.25984 35.9432 3.48008C35.9519 3.529 36.8146 8.51881 36.8149 20.3838L36.8055 20.8497C36.6529 20.7233 36.5039 20.5925 36.3587 20.4577C35.5136 19.6547 35.0122 18.5557 34.9596 17.3911C34.5608 10.1428 34.4804 3.47818 34.4795 3.41232C34.4769 3.18936 34.3866 2.9764 34.228 2.81965C34.0694 2.66289 33.8554 2.57499 33.6325 2.575H33.6225C33.5113 2.57627 33.4014 2.59945 33.2991 2.64319C33.1968 2.68694 33.1041 2.75041 33.0264 2.82997C32.9486 2.90953 32.8873 3.00363 32.8459 3.1069C32.8045 3.21016 32.7839 3.32056 32.7852 3.4318C32.7852 3.49851 32.8667 10.1979 33.2676 17.4843C33.3434 19.0843 34.0358 20.5929 35.1995 21.6935C36.8554 23.2135 38.8588 24.3041 41.0341 24.87C46.3269 26.3312 49.2493 27.3782 51.5425 29.3838C51.678 29.4985 51.7723 29.6544 51.811 29.8277C51.8497 30.001 51.8306 30.1822 51.7568 30.3437C51.7098 30.4465 51.6415 30.5381 51.5565 30.6126C51.4715 30.687 51.3716 30.7425 51.2636 30.7755C51.1567 30.8096 51.0438 30.8205 50.9324 30.8075C50.821 30.7945 50.7136 30.7579 50.6175 30.7001C48.8583 29.6599 45.8667 28.2142 41.6045 27.2354C40.2462 26.9366 38.9248 26.4892 37.6642 25.9013C36.7218 25.4509 35.8278 24.9056 34.996 24.2737C34.9807 24.262 34.9651 24.2506 34.9492 24.2396L33.5909 23.3193C33.405 23.1932 33.1765 23.1462 32.9559 23.1886C32.7353 23.231 32.5405 23.3593 32.4145 23.5453C32.2885 23.7313 32.2415 23.9597 32.2839 24.1804C32.3263 24.401 32.4546 24.5958 32.6405 24.7218L33.6405 25.3994C33.8878 33.5352 33.9977 45.9129 33.7324 54.2672C33.7324 54.2884 33.7358 54.3079 33.7366 54.3286C32.0213 59.4967 29.8209 63.5092 27.1931 66.2522C27.0414 66.4151 26.9598 66.6312 26.9662 66.8538C26.9725 67.0763 27.0662 67.2874 27.227 67.4414C27.3878 67.5954 27.6027 67.6799 27.8253 67.6766C28.0479 67.6733 28.2603 67.5826 28.4165 67.4239C31.2717 64.4433 33.6369 60.1147 35.4471 54.5584C37.1493 49.2767 38.0615 43.7724 38.1541 38.2239L38.3152 30.1292C38.3196 29.9046 38.2347 29.6874 38.079 29.5255C37.9233 29.3635 37.7097 29.2701 37.4851 29.2656H37.4679C37.2462 29.2656 37.0333 29.3525 36.8749 29.5077C36.7165 29.6629 36.6253 29.874 36.6209 30.0957L36.4597 38.1907C36.4024 41.2129 36.1016 44.2256 35.5601 47.1996C35.6218 40.3185 35.5316 32.5211 35.3696 26.579C35.877 26.8893 36.4 27.1735 36.9366 27.4303C38.3084 28.0714 39.7465 28.5597 41.2251 28.8861C41.9599 29.0555 42.6532 29.2381 43.3078 29.4306C43.2284 40.9546 42.9454 51.6688 42.9427 51.7802C42.6206 65.3073 47.1676 69.1682 47.3612 69.326C47.447 69.3994 47.5466 69.455 47.6542 69.4893C47.7618 69.5237 47.8752 69.5362 47.9877 69.5261C48.1002 69.516 48.2096 69.4835 48.3093 69.4305C48.4091 69.3775 48.4972 69.3051 48.5686 69.2175C48.6399 69.13 48.6931 69.029 48.7248 68.9206C48.7566 68.8122 48.7663 68.6985 48.7535 68.5863C48.7407 68.4741 48.7056 68.3655 48.6502 68.2671C48.5948 68.1686 48.5203 68.0823 48.431 68.0131C48.3899 67.9796 44.3338 64.5268 44.6362 51.8234C44.6391 51.7161 44.9136 41.3138 44.9979 29.9778C46.4202 30.4732 47.8002 31.0827 49.1245 31.8002C47.7967 34.604 47.3279 37.7378 47.7771 40.8074ZM44.5347 22.396C44.2348 21.353 44.2073 20.2505 44.4548 19.1939C44.7024 18.1372 45.2168 17.1617 45.9488 16.3605C46.6809 15.5593 47.6062 14.9593 48.6363 14.6176C49.6663 14.276 50.7668 14.2042 51.8326 14.4091C52.2791 14.5 52.7185 14.6228 53.1474 14.7765C53.7103 14.9707 54.2001 15.3328 54.5508 15.8141C54.8349 16.2157 54.9977 16.6903 55.0201 17.1817C49.3157 17.9167 47.4874 22.3574 46.9067 24.9094C46.5164 24.7668 46.1087 24.6256 45.6838 24.4859C45.1529 23.8814 44.7607 23.1681 44.5347 22.396ZM51.7659 32.3934C52.0996 32.2894 52.4078 32.1169 52.6709 31.8867C52.9339 31.6566 53.1459 31.374 53.2933 31.0571C53.4766 30.6592 53.551 30.2199 53.5091 29.7838C54.4097 30.5835 54.9559 31.708 55.0277 32.9103C55.0385 33.1272 55.1323 33.3317 55.2897 33.4815C55.447 33.6312 55.6558 33.7148 55.873 33.715C55.8872 33.715 55.9012 33.715 55.9154 33.7139C56.0265 33.7085 56.1355 33.6812 56.2361 33.6337C56.3367 33.5861 56.4269 33.5192 56.5017 33.4368C56.5764 33.3544 56.6341 33.258 56.6716 33.1532C56.7091 33.0485 56.7256 32.9374 56.7201 32.8262C56.4558 27.4707 49.9466 25.9559 48.986 25.7613C48.8279 25.6876 48.6667 25.6148 48.5024 25.5428C49.0284 22.9148 50.7653 18.876 56.4681 18.7703C56.5439 18.7691 56.6191 18.7682 56.6938 18.7682C64.6721 18.7682 66.3897 26.699 66.4604 27.044C66.4816 27.1463 68.5389 37.3286 64.5234 43.0725C63.0648 45.1588 60.9446 46.4184 58.2192 46.8186C53.0555 47.5765 50.1882 45.5279 49.4521 40.559C49.0504 37.8038 49.4769 34.9914 50.6772 32.4791C50.7927 32.4957 50.9093 32.5042 51.026 32.5046C51.2769 32.5049 51.5262 32.4675 51.7659 32.3934Z" fill="#3C3C4F"/>
</svg>
