<svg width="72" height="72" viewBox="0 0 72 72" fill="none" xmlns="http://www.w3.org/2000/svg">
<path d="M14.4814 60.3056C17.0103 58.7132 19.9344 57.8604 22.9228 57.8436C22.9228 57.8436 29.1836 57.5621 27.847 50.2461C27.8472 50.2461 17.2952 53.9744 14.4814 60.3056Z" fill="#7DD49D"/>
<path d="M62.176 24.9922C62.176 24.9922 59.783 26.9616 57.3924 31.5342C57.3924 31.5342 50.7096 43.6338 42.5494 41.1013L42.0566 37.0916C42.0566 37.0916 58.0254 25.2734 62.176 24.9922Z" fill="#B83677"/>
<path d="M40.9878 39.3253C40.9878 39.3253 39.8964 46.1246 32.034 49.1427C27.9185 50.7223 24.2167 53.0635 21.6228 54.9364C19.9052 56.1747 18.2943 57.5545 16.8068 59.0614C15.5803 60.3053 13.3703 62.2624 10.9153 63.0917C10.5527 63.2113 10.1678 63.2483 9.789 63.2C9.41018 63.1516 9.04697 63.0192 8.72597 62.8123C8.40498 62.6054 8.13433 62.3293 7.93385 62.0043C7.73337 61.6792 7.60813 61.3135 7.56732 60.9338C7.3991 59.3755 7.33289 57.8078 7.36911 56.2409C7.40719 54.5356 7.12022 52.8388 6.52353 51.2409C6.01288 49.8829 5.72831 48.4504 5.68113 47.0003C5.45941 39.9591 6.3556 19.3178 23.7745 12.7692C23.7745 12.7692 34.8922 8.79836 41.0084 17.9313C41.0084 17.9313 49.0296 12.928 58.9567 16.899C60.7127 17.606 62.5447 18.1076 64.416 18.3938C64.7838 18.4402 65.1339 18.5789 65.4336 18.797C65.7334 19.0151 65.973 19.3056 66.1303 19.6413C66.2875 19.977 66.3572 20.3471 66.3329 20.717C66.3085 21.0869 66.1909 21.4447 65.9911 21.7569C64.0738 24.6835 61.4285 27.0613 58.3148 28.657C56.9932 29.3406 55.8692 29.7849 54.7784 30.7958C52.1694 33.2133 46.798 37.5365 40.9878 39.3253Z" fill="#FF65A7"/>
<path d="M62.3796 24.2915C59.617 25.0815 57.1308 26.6293 55.2027 28.7597C53.3585 30.8086 50.7741 33.1166 47.8581 34.0803C42.083 35.9892 42.4269 25.5394 42.4269 25.5394L39.3885 19.7324C39.3885 19.7324 41.1591 36.1311 30.3885 42.6221C19.618 49.1131 12.7833 56.2879 12.7833 56.2879C12.7833 56.2879 10.6675 58.8111 7.36761 56.4126C7.33939 57.9222 7.4063 59.432 7.56794 60.9332C7.60875 61.3129 7.73399 61.6786 7.93447 62.0037C8.13495 62.3287 8.4056 62.6048 8.72659 62.8117C9.04759 63.0186 9.4108 63.151 9.78962 63.1994C10.1684 63.2477 10.5533 63.2107 10.9159 63.091C13.3709 62.2616 15.5809 60.3046 16.8074 59.0607C18.295 57.5538 19.9059 56.174 21.6234 54.9356C24.2171 53.0629 27.9192 50.7214 32.0346 49.1421C39.8968 46.1232 41.009 39.7702 41.009 39.7702C46.7846 37.9931 52.0167 33.6926 54.6411 31.2653C55.7386 30.2372 56.9698 29.3618 58.3015 28.663C60.8198 27.3721 63.0399 25.5681 64.8187 23.3672C64.0328 23.7426 63.217 24.0518 62.3796 24.2915Z" fill="#B83677"/>
<path d="M22.1621 11.9207V13.0378C22.1621 13.0378 31.7648 10.1747 36.8867 15.6346C37.6689 16.459 38.2585 17.4466 38.6131 18.5263C39.0231 19.5709 39.2453 20.6798 39.2695 21.8019L39.6842 39.6985C39.6842 39.6985 39.4593 43.7458 40.5642 47.0376C40.6828 47.3956 40.9098 47.7077 41.2139 47.9306C41.518 48.1535 41.884 48.2762 42.2611 48.2815C42.6381 48.2867 43.0074 48.1744 43.3176 47.9601C43.6278 47.7458 43.8636 47.4402 43.9921 47.0857C44.0399 46.9553 44.0848 46.819 44.1268 46.6768C44.4813 45.4345 44.363 44.1048 43.7945 42.9447C43.2128 41.741 42.4267 39.3957 42.4267 35.5083V22.0918C42.4267 19.7679 43.7185 17.3349 45.7817 16.2634C47.0148 15.6226 48.5463 15.1088 50.8306 15.0495L51.0911 14.695C51.1427 14.4345 51.136 14.1658 51.0713 13.9082C51.0067 13.6506 50.8857 13.4106 50.7172 13.2053C50.5487 13 50.3368 12.8347 50.0967 12.7211C49.8566 12.6076 49.5943 12.5486 49.3288 12.5486C47.3696 12.5511 45.4181 12.7933 43.5177 13.2699C42.7627 13.4634 41.9728 13.4771 41.2115 13.31C40.4502 13.1429 39.7387 12.7996 39.1342 12.3076C36.5295 10.194 31.2487 7.25955 23.7717 9.69653C23.3032 9.85017 22.8952 10.148 22.6061 10.5475C22.317 10.947 22.1616 11.4276 22.1621 11.9207Z" fill="white"/>
<path d="M36.8495 15.7281C37.6086 16.5411 38.2069 17.4905 38.6128 18.5261C35.5749 9.25822 25.4743 10.5913 22.2542 11.2751C22.1936 11.4848 22.1626 11.702 22.1621 11.9203V13.4349C22.1621 13.4349 31.7269 10.2681 36.8495 15.7281ZM51.0911 14.6949C51.1508 14.393 51.1316 14.0809 51.0354 13.7887C41.9295 14.0138 42.4278 22.0914 42.4278 22.0914C42.4232 20.9501 42.7317 19.8294 43.3196 18.8512C43.9076 17.873 44.7525 17.0747 45.7624 16.5431C46.9955 15.9023 48.6757 15.4259 50.96 15.3666L51.0911 14.6949ZM43.2255 48.0215C40.6962 47.3369 40.5539 42.2351 40.5539 42.2351L39.3883 26.9389L39.6848 39.6981C39.6848 39.6981 39.4599 43.7454 40.5649 47.0373C40.6504 47.296 40.7931 47.5322 40.9824 47.7282C41.1717 47.9243 41.4027 48.0751 41.6583 48.1697C41.9139 48.2643 42.1875 48.3 42.4588 48.2744C42.7301 48.2487 42.9922 48.1623 43.2255 48.0215Z" fill="#E8D3CE"/>
<path d="M45.2331 36.9628L45.1273 37.0176C45.0286 37.0691 44.9411 37.1395 44.8696 37.2247C44.7982 37.31 44.7443 37.4085 44.7109 37.5147C44.6775 37.6208 44.6654 37.7324 44.6752 37.8433C44.6849 37.9541 44.7165 38.0619 44.7679 38.1605C44.8193 38.2592 44.8897 38.3467 44.975 38.4182C45.0603 38.4896 45.1588 38.5435 45.2649 38.5769C45.3711 38.6103 45.4827 38.6224 45.5935 38.6126C45.7043 38.6029 45.8122 38.5713 45.9108 38.5199L46.0243 38.4606C46.1239 38.4094 46.2123 38.3389 46.2845 38.2532C46.3567 38.1675 46.4111 38.0684 46.4448 37.9616C46.4784 37.8547 46.4904 37.7423 46.4803 37.6307C46.4702 37.5192 46.438 37.4107 46.3857 37.3117C46.3334 37.2127 46.2619 37.125 46.1755 37.0538C46.089 36.9825 45.9893 36.9291 45.8821 36.8967C45.7749 36.8642 45.6623 36.8534 45.5509 36.8647C45.4395 36.8761 45.3314 36.9094 45.2329 36.9628H45.2331Z" fill="#3C3C4F"/>
<path d="M64.5312 17.5535C62.7288 17.275 60.9642 16.7912 59.2718 16.1113C56.9435 15.1739 54.472 14.6416 51.9642 14.5373C51.9909 14.1754 51.9426 13.8119 51.8226 13.4694C51.7025 13.1269 51.5132 12.8129 51.2664 12.5468C51.0196 12.2808 50.7206 12.0684 50.3882 11.923C50.0557 11.7775 49.6968 11.7022 49.3339 11.7015H49.3267C47.2973 11.7056 45.2758 11.9568 43.3071 12.4495C42.6799 12.6082 42.0243 12.6186 41.3924 12.4798C40.7605 12.341 40.1696 12.0569 39.6666 11.6499C37.0321 9.51105 31.4301 6.30938 23.509 8.89122C22.8697 9.09896 22.3129 9.50421 21.9186 10.0486C21.5244 10.5931 21.313 11.2485 21.3151 11.9207V13.4353C21.3151 13.5693 21.3468 13.7014 21.4078 13.8208C21.4687 13.9402 21.5571 14.0434 21.6658 14.122C21.7744 14.2005 21.9001 14.2522 22.0325 14.2727C22.165 14.2932 22.3004 14.282 22.4277 14.24C22.5184 14.2105 31.5455 11.3138 36.2318 16.3083C37.6164 17.8135 38.3966 19.7769 38.4227 21.822L38.8367 39.6867C38.7982 40.6735 38.8172 41.6618 38.8935 42.6465C37.7828 44.4607 35.6607 46.8426 31.731 48.351C27.4334 50.0007 23.5926 52.4688 21.1273 54.2487C19.3719 55.5152 17.7252 56.9257 16.2042 58.4658C15.1305 59.5546 12.9807 61.4993 10.6447 62.2885C10.406 62.3691 10.1522 62.3949 9.90224 62.3638C9.65224 62.3328 9.41244 62.2458 9.20069 62.1094C8.9819 61.9709 8.79714 61.7848 8.66017 61.5651C8.5232 61.3453 8.43753 61.0975 8.40954 60.8401C8.24551 59.3185 8.18099 57.7879 8.21641 56.2579C8.25847 54.445 7.95326 52.6408 7.31725 50.9426C6.83853 49.6714 6.57196 48.3303 6.52822 46.9726C6.31497 40.2006 7.16055 23.6051 19.5863 15.777C19.7737 15.656 19.9059 15.4661 19.9542 15.2483C20.0024 15.0305 19.9628 14.8025 19.8439 14.6137C19.725 14.425 19.5365 14.2907 19.3192 14.2401C19.102 14.1895 18.8735 14.2267 18.6835 14.3435C5.51683 22.6381 4.61259 39.9624 4.83495 47.0258C4.8845 48.5683 5.18727 50.0921 5.73114 51.5364C6.29128 53.0335 6.5599 54.6239 6.5225 56.2219C6.48542 57.826 6.55326 59.4308 6.72558 61.026C6.81718 61.8602 7.21246 62.6316 7.83613 63.1931C8.45979 63.7547 9.26824 64.0672 10.1075 64.0712C10.4748 64.0711 10.8396 64.0108 11.1875 63.8929C13.6173 63.0721 15.7828 61.2735 17.2264 59.8391C19.0343 59.0957 20.9681 58.7059 22.9228 58.6909H22.9609C23.0717 58.6858 25.6967 58.5454 27.4292 56.5266C28.5189 55.256 28.9981 53.5619 28.8577 51.4885C29.9909 50.9113 31.1528 50.3921 32.3387 49.9329C35.6393 48.6661 37.8052 46.8265 39.2073 45.1203C39.3409 45.8616 39.5263 46.5927 39.7619 47.3081C39.9331 47.8343 40.2654 48.2933 40.7119 48.6202C41.1584 48.9471 41.6964 49.1251 42.2497 49.1293H42.2891C42.8358 49.1326 43.3699 48.9658 43.8176 48.6522C44.2653 48.3385 44.6044 47.8935 44.788 47.3786C44.8434 47.2278 44.8938 47.0718 44.9404 46.915C45.3558 45.4716 45.2195 43.9253 44.558 42.5768C44.5167 42.4921 44.4733 42.393 44.4269 42.2888C44.5662 42.2956 44.7052 42.3003 44.8432 42.3003C52.3219 42.3003 57.8839 32.3986 58.1437 31.9276C58.7525 30.7583 59.4405 29.6321 60.2029 28.5567C62.8044 26.942 65.0223 24.7791 66.702 22.219C66.9806 21.7941 67.1466 21.3053 67.1844 20.7986C67.2221 20.2919 67.1304 19.7838 66.9178 19.3223C66.7026 18.8493 66.3707 18.4388 65.9532 18.1293C65.5357 17.8199 65.0464 17.6217 64.5312 17.5535ZM26.1531 55.4106C24.96 56.8129 23.0668 56.984 22.8968 56.9967C21.9265 57 20.9584 57.091 20.0045 57.2687C20.6885 56.6965 21.3933 56.1476 22.1188 55.622C23.7442 54.4464 25.4349 53.3638 27.1827 52.3794C27.1484 53.6276 26.8047 54.6447 26.1531 55.4106ZM43.3134 46.439C43.2786 46.5585 43.2397 46.6768 43.1968 46.7937C43.1288 46.9835 43.0032 47.1473 42.8375 47.2622C42.6719 47.3771 42.4744 47.4374 42.2729 47.4346C42.0713 47.4318 41.8756 47.3661 41.7132 47.2466C41.5508 47.1271 41.4298 46.9599 41.3671 46.7683C40.3295 43.675 40.5277 39.7841 40.5298 39.7449C40.5313 39.7229 40.5313 39.7008 40.5298 39.6788L40.1152 21.7824C40.0797 19.3203 39.1363 16.9581 37.466 15.1489C34.885 12.398 31.3339 11.6628 28.2726 11.6628C26.4981 11.674 24.731 11.8944 23.008 12.3193V11.9207C23.0065 11.6063 23.1049 11.2996 23.2888 11.0447C23.4728 10.7897 23.7328 10.5997 24.0316 10.5019C31.1903 8.16867 36.2305 11.044 38.5977 12.9651C39.3062 13.5384 40.1386 13.9386 41.0288 14.1339C41.919 14.3293 42.8425 14.3145 43.726 14.0907C45.5588 13.6325 47.4406 13.3991 49.3299 13.3957H49.3329C49.4717 13.395 49.609 13.4255 49.7345 13.4849C49.86 13.5443 49.9706 13.6311 50.0581 13.7389C50.1483 13.8479 50.2131 13.9756 50.2478 14.1127C50.2825 14.2499 50.2862 14.393 50.2587 14.5318L50.2549 14.5506C48.3651 14.6715 46.7243 15.0881 45.3697 15.7922C44.2201 16.3927 43.2582 17.2982 42.5895 18.4095C41.9208 19.5208 41.5712 20.7948 41.5791 22.0918V35.5083C41.5791 39.4762 42.3688 41.9428 43.0312 43.3134C43.5099 44.2841 43.6104 45.3982 43.3134 46.439ZM65.2819 21.293C63.4415 24.0945 60.9073 26.3718 57.9258 27.9035C56.5388 28.6265 55.2559 29.5337 54.112 30.6005C52.1219 32.451 49.9764 34.1271 47.6993 35.6102C47.6042 35.6696 47.5218 35.7474 47.4569 35.8389C47.3921 35.9304 47.346 36.0339 47.3215 36.1434C47.297 36.2528 47.2944 36.3661 47.314 36.4765C47.3336 36.587 47.375 36.6925 47.4356 36.7868C47.4963 36.8811 47.5751 36.9625 47.6675 37.0261C47.7599 37.0898 47.864 37.1344 47.9737 37.1575C48.0835 37.1806 48.1968 37.1817 48.307 37.1606C48.4172 37.1396 48.5221 37.0969 48.6156 37.035C50.9762 35.498 53.2004 33.761 55.2635 31.8431C55.8204 31.3267 56.4129 30.8501 57.0366 30.4167C56.9066 30.6511 56.7762 30.8853 56.651 31.1246C56.5919 31.2318 50.787 41.5572 43.8357 40.527C43.4409 38.8838 43.2522 37.1979 43.2738 35.5081V22.0918C43.2667 21.105 43.5315 20.1354 44.0393 19.2892C44.547 18.4431 45.278 17.7532 46.1521 17.2953C47.4369 16.6276 49.0616 16.2638 50.9804 16.214H50.9829C53.6019 16.203 56.1981 16.7003 58.6276 17.6784C60.4517 18.4161 62.3559 18.9375 64.3012 19.2321C64.533 19.2625 64.7532 19.3514 64.9411 19.4903C65.1291 19.6292 65.2786 19.8136 65.3757 20.0262C65.4703 20.2276 65.5114 20.45 65.495 20.6719C65.4786 20.8938 65.4053 21.1077 65.2821 21.293H65.2819Z" fill="#3C3C4F"/>
</svg>
