<svg width="72" height="72" viewBox="0 0 72 72" fill="none" xmlns="http://www.w3.org/2000/svg">
<path d="M31.6098 8.95312H35.4125V26.8019C35.3974 28.5006 35.9429 30.1568 36.9645 31.5141C37.4542 32.1668 38.0689 32.7155 38.7728 33.1282L39.1459 38.3514C37.1068 37.1517 35.385 35.4806 34.1249 33.4782C34.1249 33.4782 32.9306 37.0712 30.2266 38.2796L28.4014 34.1728C28.4014 34.1728 31.6098 32.4575 31.6837 28.0545C31.7576 23.6515 31.6098 8.95312 31.6098 8.95312Z" fill="#FFB4E6"/>
<path d="M41.1465 62.9738C41.1465 62.9738 43.3243 68.795 50.937 69.4034C59.4557 70.0842 63.9629 69.3987 63.9629 69.3987L63.0773 64.4621C63.0773 64.4621 46.4726 56.1596 41.1465 62.9738ZM33.2805 49.0947C33.2805 49.0947 34.7218 58.6639 31.4471 64.1338C30.4355 65.7882 28.8351 66.9982 26.9676 67.5204C25.2021 68.0286 22.0432 68.8384 19.2674 69.0137C17.4659 69.1115 15.6804 69.4046 13.9422 69.8879C12.9871 70.158 12.0522 70.4951 11.1445 70.8965L13.248 61.8355L33.2805 49.0947Z" fill="#B83677"/>
<path d="M29.7088 32.1589C31.1363 34.9697 33.3607 40.7119 33.2811 49.094C33.2657 51.2893 32.7225 53.4487 31.6971 55.3899C31.4985 55.7635 31.2736 56.1523 31.0218 56.5504C29.0935 59.5558 26.3295 61.9325 23.0692 63.3887C20.8103 64.4132 17.7405 65.5936 15.6845 65.5381C15.6845 65.5381 14.1916 69.8747 11.1451 70.8958C10.6023 71.0716 10.0207 71.0887 9.46849 70.9451C8.91633 70.8015 8.41668 70.5031 8.02836 70.0851C6.34059 68.2826 3.90191 63.3654 5.16149 50.2398C6.84142 32.7311 12.2133 23.4092 19.747 17.4639C20.4973 16.8654 21.438 16.557 22.3971 16.5949C23.3561 16.6329 24.2695 17.0147 24.9702 17.6706C26.8093 19.4211 28.8383 22.5624 28.722 27.8582C28.6919 29.3512 29.0309 30.8284 29.7088 32.1589ZM40.9239 18.8817C39.3511 20.7103 37.718 24.1292 38.4532 30.2111C38.52 30.7549 38.5313 31.304 38.4871 31.85C38.1743 35.6279 37.1721 51.4594 41.1471 62.9728C41.1471 62.9728 43.8884 59.2917 51.0153 64.226C51.0153 64.226 58.5313 69.086 63.9628 69.3978C64.6876 69.4393 65.4007 69.2014 65.9554 68.7332C66.5101 68.265 66.8643 67.6019 66.9451 66.8805C67.4904 62.0523 67.8161 49.678 60.2533 33.7105C59.9124 32.9905 59.583 32.2654 59.2653 31.5351C57.9913 28.5945 53.4127 19.2783 45.8182 17.3449C44.9402 17.12 44.0169 17.1446 43.1521 17.4161C42.2874 17.6877 41.5157 18.1952 40.9239 18.8817Z" fill="#FF65A7"/>
<path d="M28.8457 27.7806C28.9238 24.2196 27.9078 21.7119 26.756 19.8672C26.3255 20.9251 26.0361 22.035 25.8949 23.1684C25.7467 24.4957 25.9885 25.9747 26.7481 27.0733C27.3877 27.9983 28.1521 29.4874 29.3069 31.2413C28.9001 30.1638 28.8209 28.9379 28.8457 27.7806ZM40.559 21.8815C39.8068 22.2573 39.1613 22.8165 38.6821 23.5074C38.2724 25.2661 38.121 27.4674 38.4528 30.2115C38.4727 30.3754 38.486 30.5399 38.4951 30.7047C38.5042 30.8694 42.4924 29.4059 42.7395 23.273C42.7475 23.0124 42.6876 22.7541 42.5658 22.5236C42.444 22.2931 42.2644 22.0981 42.0446 21.9578C41.8247 21.8176 41.5723 21.7368 41.3119 21.7234C41.0515 21.71 40.792 21.7645 40.559 21.8815ZM60.392 51.7119C59.4093 51.3508 58.4199 51.0082 57.4244 50.6842C52.6067 48.3409 50.3938 44.9454 50.3419 44.8628C49.3458 43.2266 48.2327 41.6645 47.0115 40.1888C47.8177 40.1812 48.6125 39.9982 49.3409 39.6526C49.693 39.589 51.4858 39.4078 52.8632 41.9041C54.714 45.259 57.3909 45.4952 58.1075 45.4952C58.2071 45.4952 58.2689 45.4907 58.2852 45.4892C58.5068 45.4702 58.7119 45.3643 58.8558 45.1946C58.9996 45.0249 59.0705 44.8053 59.053 44.5835C59.0356 44.3607 58.9313 44.1537 58.7626 44.0071C58.594 43.8605 58.3744 43.7861 58.1514 43.8C58.0804 43.8032 56.7512 43.8654 55.4312 42.5531C56.5244 42.4442 57.5461 41.96 58.3225 41.1828C58.4672 41.0456 58.5597 40.8624 58.5842 40.6646C58.6088 40.4667 58.5638 40.2665 58.4569 40.0981C58.3885 39.9935 58.2979 39.9053 58.1915 39.8398C58.085 39.7744 57.9654 39.7332 57.8412 39.7193C57.717 39.7054 57.5913 39.7192 57.4731 39.7596C57.3548 39.7999 57.2469 39.8659 57.1571 39.9529L57.1215 39.987C56.87 40.2213 56.5735 40.4022 56.2501 40.5188C55.9267 40.6355 55.583 40.6854 55.2398 40.6656C54.8965 40.6458 54.5609 40.5567 54.253 40.4037C53.9452 40.2507 53.6715 40.0369 53.4485 39.7752C52.8323 39.0221 52.0155 38.4588 51.0926 38.1505C51.2373 37.9466 51.3675 37.7329 51.4822 37.5108C51.4987 37.4819 51.5135 37.452 51.5265 37.4214C51.9036 36.6287 52.1445 35.778 52.2391 34.9052C52.291 34.4999 52.4394 34.1129 52.6718 33.7766C52.9041 33.4404 53.2137 33.1648 53.5745 32.9729C54.3794 32.5379 55.04 31.8778 55.4757 31.0734C55.5744 30.8715 55.5888 30.6387 55.5159 30.4262C55.4429 30.2137 55.2885 30.0389 55.0867 29.9402C54.8848 29.8415 54.6521 29.8271 54.4396 29.9C54.227 29.973 54.0522 30.1274 53.9535 30.3292C53.5799 30.9803 52.9752 31.4672 52.2594 31.6934C52.2192 31.2404 52.1646 30.7722 52.0917 30.2847C52.0585 30.0626 51.9383 29.8627 51.7577 29.7291C51.5771 29.5955 51.3508 29.5391 51.1286 29.5724C50.9064 29.6056 50.7065 29.7258 50.5729 29.9064C50.4394 30.087 50.383 30.3133 50.4162 30.5355C50.6212 31.7791 50.6825 33.0422 50.599 34.2998C50.1986 33.7994 49.7503 33.3393 49.2604 32.9261C48.9217 32.6427 48.6083 32.3303 48.3238 31.9924C48.125 31.7412 47.9898 31.4457 47.9297 31.131C47.8696 30.8163 47.8865 30.4918 47.9788 30.185C48.0546 29.9765 48.0456 29.7465 47.9536 29.5446C47.8617 29.3427 47.6942 29.1849 47.4872 29.1052C47.2802 29.0254 47.0501 29.0301 46.8465 29.1181C46.6428 29.2062 46.4819 29.3707 46.3982 29.5762C46.2022 30.155 46.153 30.7734 46.2552 31.3759C46.3573 31.9784 46.6075 32.5461 46.9833 33.0279C47.3296 33.4492 47.7139 33.8377 48.1313 34.1886C48.7318 34.7257 49.278 35.2142 49.6052 35.8969C49.75 36.2075 49.7878 36.5573 49.7126 36.8916C49.6374 37.2259 49.4534 37.5258 49.1895 37.7444L49.1812 37.7514C48.8121 38.0539 48.3783 38.2673 47.9134 38.375C47.2932 38.5169 46.6475 38.5016 46.0347 38.3305C45.422 38.1595 44.8617 37.8381 44.4046 37.3956C43.76 36.7821 43.0813 36.2054 42.3717 35.6682C42.215 35.5471 42.0212 35.4837 41.8232 35.489C41.6252 35.4942 41.435 35.5677 41.2849 35.697C41.1906 35.7803 41.116 35.8836 41.0666 35.9994C41.0173 36.1151 40.9943 36.2404 40.9994 36.3661C41.0044 36.4919 41.0375 36.6149 41.0961 36.7263C41.1547 36.8376 41.2373 36.9345 41.3381 37.01C42.8628 38.1535 45.8754 40.8075 48.9008 45.7522C49.3409 46.4721 49.5808 47.2964 49.5956 48.14C49.6105 48.9836 49.3999 49.8159 48.9855 50.5508C48.0145 52.2963 46.6645 53.8019 45.0349 54.9568C44.8705 55.0668 44.7487 55.2297 44.6898 55.4185C44.6309 55.6072 44.6383 55.8105 44.7109 55.9945C44.7596 56.1117 44.8341 56.2165 44.9288 56.3011C45.0234 56.3857 45.1359 56.448 45.2578 56.4833C45.3798 56.5187 45.5081 56.5262 45.6333 56.5054C45.7586 56.4846 45.8775 56.4359 45.9814 56.3629C46.4934 56.0023 46.9819 55.6094 47.4439 55.1866C47.6158 55.974 47.9146 56.7282 48.3286 57.4196C48.3897 57.5209 48.4714 57.6083 48.5683 57.6761C48.6652 57.744 48.7752 57.7907 48.8913 57.8135C49.0074 57.8362 49.1269 57.8344 49.2423 57.8081C49.3576 57.7818 49.4661 57.7316 49.5609 57.6608C49.7295 57.5272 49.8429 57.3362 49.8795 57.1242C49.9162 56.9123 49.8734 56.6943 49.7595 56.5118C49.2456 55.6241 48.9681 54.6193 48.9536 53.5937C49.5186 52.9011 50.0233 52.1615 50.4622 51.3829C50.6454 51.0558 50.7996 50.7132 50.923 50.3592C51.1284 51.3089 51.2349 52.2774 51.2406 53.2491C51.2383 53.4622 51.3144 53.6688 51.4545 53.8294C51.5945 53.99 51.7888 54.0935 52.0002 54.1201C52.1182 54.1324 52.2375 54.1197 52.3502 54.0829C52.463 54.0462 52.5668 53.9861 52.6549 53.9067C52.743 53.8273 52.8134 53.7302 52.8616 53.6218C52.9099 53.5134 52.9348 53.3961 52.9347 53.2775C52.9302 52.0191 52.7771 50.7656 52.4788 49.543C53.6133 50.4566 54.8359 51.255 56.1284 51.9267C55.9235 53.1805 55.8696 54.4544 55.9676 55.7211C55.9808 55.9362 56.0755 56.1382 56.2324 56.286C56.3893 56.4338 56.5966 56.5162 56.8122 56.5165C56.8295 56.5165 56.8471 56.5165 56.8647 56.5148C57.0889 56.501 57.2984 56.3988 57.4473 56.2306C57.5961 56.0624 57.672 55.8419 57.6584 55.6177C57.584 54.6021 57.6113 53.5815 57.7399 52.5713C58.2987 52.7598 59.0588 53.0226 59.8442 53.3125C59.9529 53.3527 60.0688 53.3703 60.1846 53.3639C60.3004 53.3576 60.4136 53.3276 60.5173 53.2757C60.621 53.2238 60.713 53.1512 60.7875 53.0624C60.862 52.9735 60.9175 52.8703 60.9505 52.7591C61.0059 52.5463 60.9792 52.3205 60.8758 52.1265C60.7723 51.9324 60.5996 51.7845 60.392 51.7119Z" fill="#B83677"/>
<path d="M60.0421 31.199C58.7736 28.2705 54.0134 18.5581 46.026 16.5247C44.9955 16.2571 43.9106 16.2844 42.8949 16.6035C41.8791 16.9226 40.9735 17.5207 40.2813 18.3296C38.6342 20.2448 36.834 23.8778 37.613 30.3134C37.642 30.5537 37.659 30.7936 37.6647 31.0317C37.6558 31.0202 37.6463 31.0105 37.6374 30.9984C36.7315 29.7882 36.2479 28.314 36.2609 26.8023V8.9535C36.2609 8.72885 36.1717 8.5134 36.0128 8.35454C35.854 8.19569 35.6385 8.10645 35.4139 8.10645C35.1892 8.10645 34.9737 8.19569 34.8149 8.35454C34.656 8.5134 34.5668 8.72885 34.5668 8.9535V12.6092C33.8848 12.7655 33.1773 12.7745 32.4915 12.6357C32.4735 10.4816 32.4585 8.9912 32.458 8.94482C32.4558 8.72168 32.3655 8.50845 32.2069 8.35147C32.0483 8.19448 31.8341 8.10643 31.611 8.10645H31.6021C31.4909 8.10758 31.3809 8.13061 31.2786 8.17423C31.1763 8.21785 31.0835 8.28121 31.0057 8.36067C30.9278 8.44013 30.8664 8.53415 30.8249 8.63736C30.7833 8.74057 30.7626 8.85095 30.7637 8.96219C30.7637 9.01216 30.7817 10.741 30.8014 13.1695C30.7931 13.2399 30.7937 13.3111 30.8031 13.3813C30.841 18.0825 30.8861 25.2225 30.8385 28.0409C30.8331 29.0754 30.5942 30.0954 30.1396 31.0247L30.0863 30.9076C29.7248 29.9397 29.5494 28.9123 29.5696 27.8793C29.6928 22.2115 27.4538 18.8656 25.5539 17.0582C24.7038 16.2651 23.5975 15.8029 22.4359 15.7555C21.2742 15.7081 20.134 16.0786 19.2221 16.7998C12.4971 22.1056 8.27282 29.4115 5.92392 39.8112L5.25941 43.13L5.25813 43.1363V43.1393L5.25559 43.1531C4.86933 45.347 4.55402 47.7043 4.31853 50.1595C3.08098 63.056 5.31679 68.4289 7.4103 70.6649C7.77097 71.0512 8.20695 71.3594 8.69135 71.5707C9.17576 71.7819 9.69831 71.8917 10.2268 71.8931C10.6303 71.8938 11.0312 71.8288 11.4139 71.7009C11.6566 71.6193 11.8931 71.5202 12.1214 71.4044C12.7938 71.1362 13.4794 70.9022 14.1755 70.7034C15.8548 70.235 17.5803 69.9517 19.3212 69.8585C22.2112 69.6758 25.4997 68.8245 27.2025 68.3338C29.2777 67.7556 31.0552 66.4094 32.1741 64.5684C35.4592 59.081 34.2616 49.9666 34.1278 49.0327C34.1831 45.079 33.6704 41.1378 32.6054 37.3298C33.2038 36.6973 33.7572 36.0238 34.2616 35.3142C35.0905 36.5001 36.2751 37.4858 37.3161 38.2075C37.1651 45.0232 37.5421 55.1275 40.3459 63.2498C40.3475 63.2542 40.3499 63.2582 40.3516 63.2629C40.3533 63.2675 40.3516 63.2675 40.3535 63.2701C40.45 63.5282 42.8127 69.6031 50.8699 70.2473C53.7368 70.4764 56.1494 70.5531 58.097 70.5531C61.6108 70.5531 63.6029 70.3036 64.0129 70.2467C64.0514 70.2467 64.09 70.2501 64.1283 70.2501C65.0337 70.2486 65.9069 69.9142 66.5816 69.3104C67.2563 68.7067 67.6853 67.8758 67.787 66.9762C68.3164 62.2811 68.7187 49.6058 61.0185 33.348C60.6814 32.637 60.3559 31.9205 60.0421 31.199ZM34.5655 22.2424C33.9149 22.4649 33.2124 22.4871 32.5491 22.3059C32.5456 21.1571 32.5407 20.0082 32.5343 18.8594C32.7937 18.8976 33.0556 18.9165 33.3178 18.916C33.7366 18.9135 34.1543 18.873 34.5657 18.7951L34.5655 22.2424ZM32.5521 24.0403C32.8345 24.0917 33.121 24.1174 33.408 24.1171C33.7972 24.1154 34.1852 24.0728 34.5655 23.9901V26.8027C34.5655 26.9573 34.571 27.1113 34.5789 27.265C33.9218 27.4922 33.2113 27.5148 32.5411 27.3298C32.5497 26.4431 32.5529 25.3096 32.5521 24.0403ZM33.4574 14.4247C33.8286 14.424 34.1992 14.3933 34.5655 14.333V17.0635C33.8994 17.2437 33.2006 17.267 32.5239 17.1316C32.5175 16.169 32.5108 15.2313 32.5042 14.3544C32.8197 14.4014 33.1383 14.4249 33.4574 14.4247ZM20.0586 50.2764C24.6496 50.2764 28.3022 49.6022 30.9147 48.2719C31.1114 48.1679 31.2592 47.9908 31.3264 47.7788C31.3936 47.5667 31.3747 47.3368 31.2737 47.1386C31.1728 46.9403 30.9979 46.7898 30.7869 46.7194C30.5759 46.649 30.3457 46.6645 30.146 46.7624C28.5154 47.5925 25.4412 48.5823 20.0586 48.5823C10.7318 48.5823 7.60258 44.2265 6.97978 43.1671L7.58098 40.1642C9.83543 30.184 13.8679 23.1824 20.2714 18.1301C20.8624 17.6594 21.6025 17.4163 22.3575 17.4448C23.1124 17.4732 23.8322 17.7715 24.386 18.2853C25.934 19.7586 27.7399 22.4264 27.8716 26.9063C27.5156 26.3579 27.1321 25.8278 26.7226 25.318C26.5782 25.1481 26.3726 25.042 26.1504 25.0227C25.9282 25.0035 25.7074 25.0726 25.5359 25.2151C25.3643 25.3576 25.2559 25.562 25.2342 25.7839C25.2124 26.0059 25.279 26.2275 25.4196 26.4006C26.6577 28.0036 27.7036 29.7461 28.5359 31.5926C28.6586 31.9161 28.7979 32.2331 28.9533 32.5422C30.2875 35.1681 32.5125 40.8095 32.4337 49.0857C32.4182 51.1448 31.9091 53.1701 30.949 54.9918C30.7485 55.3682 30.5339 55.7369 30.3057 56.0972C28.4677 58.9648 25.8303 61.2314 22.719 62.6172C19.8195 63.9321 17.4164 64.6571 15.9169 64.6893C8.97736 60.493 6.4851 49.6886 6.20981 48.3974C6.32279 47.4142 6.45191 46.4329 6.59712 45.4539C8.38188 47.4187 12.3103 50.2762 20.0586 50.2762V50.2764ZM8.64637 69.5072C7.24195 68.0075 5.11625 63.9183 5.78416 53.0995C7.18181 57.1105 9.8871 62.7943 14.6306 65.8826C14.1681 66.9247 13.0771 68.9956 11.4055 69.8657C11.2199 69.9414 11.0385 70.0186 10.861 70.0974C10.4739 70.2192 10.0601 70.2285 9.66796 70.124C9.27581 70.0195 8.92149 69.8055 8.64637 69.5072ZM30.7203 63.6983C29.8214 65.1706 28.3959 66.2457 26.7332 66.7053C25.0967 67.1774 21.9435 67.9948 19.2143 68.1665C17.7856 68.2487 16.3656 68.4439 14.9678 68.7503C15.4782 68.0022 15.9132 67.2053 16.2665 66.3714C18.0182 66.2615 20.4196 65.5192 23.4187 64.1589C24.477 63.6793 25.4916 63.1086 26.4509 62.4531C27.6143 62.12 28.8239 61.977 30.0329 62.0296C30.1442 62.0361 30.2557 62.0205 30.361 61.9839C30.4663 61.9472 30.5633 61.8901 30.6465 61.8158C30.7297 61.7415 30.7974 61.6516 30.8457 61.5511C30.894 61.4506 30.922 61.3416 30.9281 61.2302C30.9342 61.1189 30.9183 61.0074 30.8812 60.9023C30.8441 60.7971 30.7866 60.7003 30.7121 60.6174C30.6375 60.5345 30.5473 60.4672 30.4466 60.4192C30.346 60.3713 30.2368 60.3437 30.1255 60.338C29.7628 60.3187 29.3994 60.317 29.0366 60.3329C30.0626 59.3317 30.9689 58.2147 31.7372 57.0044C31.9881 56.6082 32.224 56.2027 32.4445 55.7889C32.5423 55.6053 32.6351 55.4185 32.724 55.2304C32.6234 58.0547 32.1457 61.3166 30.7203 63.6983ZM35.1163 33.3676C35.0585 33.2189 34.9598 33.0895 34.8317 32.9944C34.7035 32.8992 34.5511 32.8423 34.392 32.83C34.2329 32.8177 34.0735 32.8506 33.9323 32.9249C33.7911 32.9993 33.6737 33.112 33.5937 33.2501C33.1234 34.0236 32.5945 34.7598 32.0116 35.4525C31.71 34.5814 31.37 33.7242 30.9926 32.8831C31.7988 31.7503 32.3046 30.4316 32.4625 29.0502C32.7737 29.1133 33.0905 29.1447 33.408 29.144C33.8874 29.1412 34.3645 29.0778 34.8279 28.9553C35.0994 30.0706 35.5982 31.1178 36.2931 32.0314C36.653 32.503 37.0682 32.9296 37.53 33.302C37.4771 34.1056 37.4241 35.0609 37.3805 36.1396C36.4843 35.4065 35.532 34.4364 35.1163 33.3676ZM51.0046 68.5587C45.2361 68.0975 42.8568 64.4996 42.1666 63.1646C43.0103 62.5315 45.5053 61.4423 50.5336 64.9223L50.5548 64.9373C52.9957 66.4766 55.5731 67.7881 58.2544 68.855C56.3169 68.8605 53.892 68.7895 51.0046 68.5587ZM66.1034 66.786C66.047 67.2922 65.7987 67.7575 65.4095 68.0862C65.0204 68.4148 64.5201 68.5818 64.0116 68.5528C58.9566 68.2624 51.7975 63.7214 51.4853 63.5217C46.2355 59.8922 43.0842 60.6383 41.5686 61.5374C38.0539 50.1538 39.081 34.9413 39.3309 31.9202C39.3491 31.7004 39.3559 31.4779 39.3571 31.2544C40.4695 30.6492 42.6003 28.8086 43.0713 23.4848C43.0831 23.3729 43.0726 23.2598 43.0403 23.152C43.0079 23.0442 42.9544 22.9439 42.8829 22.8571C42.8114 22.7702 42.7233 22.6984 42.6237 22.646C42.5242 22.5935 42.4152 22.5614 42.3031 22.5516C42.191 22.5417 42.078 22.5543 41.9709 22.5886C41.8637 22.6229 41.7644 22.6782 41.6788 22.7513C41.5933 22.8244 41.5231 22.9138 41.4725 23.0142C41.4218 23.1147 41.3917 23.2243 41.3839 23.3366C41.0722 26.8578 40.0019 28.5151 39.2076 29.2751C38.7432 23.981 40.2108 21.0108 41.5658 19.4354C42.0531 18.8665 42.6904 18.446 43.405 18.2216C44.1197 17.9973 44.883 17.9783 45.608 18.1668C52.8476 20.0091 57.2974 29.1239 58.4877 31.8732C58.8088 32.6124 59.1421 33.3462 59.4875 34.0743C67.0022 49.9378 66.6176 62.235 66.1036 66.786H66.1034Z" fill="#3C3C4F"/>
</svg>
