<svg width="72" height="72" viewBox="0 0 72 72" fill="none" xmlns="http://www.w3.org/2000/svg">
<path d="M37.4663 14.9651C37.4663 14.9651 39.1545 13.9565 41.1684 15.6377C41.1684 15.6377 40.2906 19.9181 40.1561 22.4514L36.2559 21.8915C36.2559 21.8915 36.4577 18.193 37.4663 14.9651Z" fill="#FF65A7"/>
<path d="M27.7212 10.1897C27.7562 10.1838 27.7917 10.1778 27.8271 10.1726C28.1923 10.1212 28.5643 10.192 28.885 10.3741C29.2057 10.5562 29.4572 10.8393 29.6002 11.1793C30.3988 13.0428 31.9991 17.1487 32.747 21.6892L28.4906 22.4515C28.4906 22.4515 27.4889 16.7396 26.367 12.272C26.3098 12.0458 26.3001 11.8103 26.3383 11.5802C26.3765 11.3501 26.4619 11.1304 26.5891 10.9349C26.7162 10.7394 26.8824 10.5722 27.0773 10.444C27.2721 10.3158 27.4913 10.2292 27.7212 10.1897Z" fill="#A0CEFF"/>
<path d="M23.4518 30.7802L26.4521 19.1848C26.4521 19.1848 25.7588 18.918 24.1991 17.8657C23.2475 17.2133 22.1755 16.757 21.0456 16.5231C19.9158 16.2893 18.7507 16.2828 17.6183 16.5039C14.9077 17.0585 11.784 19.0717 9.82917 24.7796C9.82917 24.7796 0.990751 33.456 7.55885 45.7812C7.55885 45.7812 5.0452 60.9435 19.9651 61.8363C19.9651 61.8363 26.6145 62.1607 29.9392 58.7549C29.9392 58.7549 43.1563 59.4849 47.2916 44.5648C47.2916 44.5648 49.0673 45.6471 53.7701 45.1607L53.6975 33.6072C53.6975 33.6072 49.308 32.6556 43.8049 34.1047L23.4518 30.7802Z" fill="#FF82B1"/>
<path d="M40.0884 34.8027C40.0884 34.8027 40.6405 46.7651 47.4866 52.4677C47.7556 52.6881 47.9346 52.9994 47.9897 53.3428C48.0447 53.6862 47.9721 54.0378 47.7854 54.3312L46.7622 55.9227C46.6608 56.0816 46.5287 56.2185 46.3735 56.3255C46.2183 56.4325 46.0433 56.5073 45.8587 56.5454C45.6742 56.5836 45.4838 56.5844 45.299 56.5478C45.1141 56.5112 44.9384 56.4379 44.7824 56.3322C43.7384 55.615 42.7636 54.0178 40.8647 50.8206C40.8647 50.8206 36.3575 44.5537 36.575 35.4082L40.0884 34.8027Z" fill="#FF65A7"/>
<path d="M33.5865 19.7521C33.5865 19.7521 25.9642 18.2926 21.6667 30.6177C21.6667 30.6177 20.3357 31.6452 18.714 30.4289C18.714 30.4289 18.7462 32.9808 16.557 35.8998C16.557 35.8998 14.8853 39.4452 16.5883 44.7158C16.5883 44.7158 18.1582 45.8457 20.0232 49.3322C20.0232 49.3322 32.1126 52.2288 34.7885 43.4714L36.9921 36.8981C36.9921 36.8981 42.2627 36.699 43.8033 34.1042C43.8033 34.1042 64.3182 33.4296 66.8321 19.6983C66.8321 19.6983 67.3996 15.2496 63.1831 16.3249C63.1831 16.3249 57.7196 18.5927 52.2364 19.5897C45.1018 20.8874 33.5865 19.7521 33.5865 19.7521Z" fill="#FFE27D"/>
<path d="M37.8024 34.8816C36.5426 34.7571 35.2706 34.8676 34.0512 35.2073C32.2467 35.7355 30.0948 36.9305 28.9226 39.615C28.8922 39.6863 28.8858 39.7656 28.9045 39.8409C28.9231 39.9162 28.9657 39.9833 29.0259 40.0322C29.0861 40.0811 29.1606 40.1091 29.2381 40.1119C29.3156 40.1147 29.3919 40.0922 29.4554 40.0479C29.7192 39.8601 29.9932 39.687 30.276 39.5295C30.3761 39.4751 30.4882 39.4465 30.6021 39.4462C30.716 39.4459 30.8282 39.474 30.9286 39.5279C31.0289 39.5818 31.1143 39.6598 31.177 39.7549C31.2398 39.85 31.2778 39.9592 31.2878 40.0726C31.3302 40.5436 31.3778 41.0438 31.4672 41.616C31.6141 42.5227 31.4424 43.4524 30.9813 44.2469C30.5202 45.0414 29.7983 45.6517 28.9381 45.9741C26.62 46.7802 24.1346 46.9818 21.7169 46.5598C21.2152 45.3822 20.4008 44.3643 19.3621 43.6163C17.6942 40.4769 18.9206 37.141 18.9206 37.141C20.196 36.1107 20.4415 33.8052 20.4415 33.8052C29.2225 32.7252 28.4898 22.8168 28.4898 22.8168C28.4898 22.8168 27.636 22.5646 26.6919 22.3018C24.918 23.9101 23.1057 26.4903 21.6663 30.6182C21.1126 30.7703 20.5311 30.7909 19.968 30.6781C19.405 30.5654 18.8762 30.3225 18.4238 29.9689C18.4238 29.9689 18.4238 32.7259 16.2343 35.6442C16.2343 35.6442 14.5315 39.6987 16.2343 44.9693C16.2343 44.9693 18.0994 46.1045 19.9644 49.5912C19.9644 49.5912 32.2891 52.5102 34.9654 43.7529L35.2318 42.8518L34.9855 42.3317L36.9926 36.8974C36.9926 36.8974 42.2632 36.6984 43.8038 34.1036C41.8757 34.7629 39.8348 35.0275 37.8024 34.8816Z" fill="#F49F42"/>
<path d="M26.4518 19.184C26.4518 19.184 29.7835 19.7372 27.9297 25.5046C27.9297 25.5046 26.8031 30.5804 21.6676 30.6172C21.6676 30.6172 20.3771 27.9763 21.9563 23.9255C23.9331 18.8545 26.4518 19.184 26.4518 19.184ZM53.6968 33.6067C53.6968 33.6067 51.2054 34.2246 50.9994 39.3741C50.9994 39.3741 50.7101 42.0303 52.2674 44.3353C52.4497 44.6036 52.698 44.8204 52.9885 44.9646C53.279 45.1089 53.6017 45.1758 53.9256 45.1589C54.2495 45.1421 54.5636 45.0419 54.8375 44.8683C55.1114 44.6946 55.3358 44.4532 55.4892 44.1674C56.0034 43.2066 56.4548 41.7078 56.5609 39.3741C56.5609 39.3741 56.4944 34.1556 53.6968 33.6067Z" fill="#FF65A7"/>
<path d="M25.5637 22.0141C25.5637 22.0141 27.3524 22.3105 26.3571 25.4076C26.1403 26.2352 25.6633 26.9712 24.9966 27.5072C24.7766 27.6665 24.5155 27.7593 24.2444 27.7748C23.9733 27.7903 23.7034 27.7278 23.4667 27.5947C23.23 27.4615 23.0364 27.2634 22.9088 27.0236C22.7812 26.7839 22.725 26.5126 22.7468 26.2419C22.7994 25.6648 22.935 25.0982 23.1491 24.5597C24.2113 21.8372 25.5637 22.0141 25.5637 22.0141Z" fill="#B83677"/>
<path d="M37.7979 52.6721C37.7979 52.6721 35.9041 55.8765 30.3785 55.6088C29.8364 55.5827 29.2999 55.729 28.8462 56.0269C26.8293 57.3521 20.6659 60.6977 14.4549 56.9544C6.88109 52.3898 7.5581 45.7812 7.5581 45.7812C7.5581 45.7812 5.04446 60.9445 19.9643 61.8358C19.9643 61.8358 26.6138 62.1602 29.9385 58.7546C33.008 58.7646 36.0257 57.964 38.6867 56.4339L37.7979 52.6721Z" fill="#FF65A7"/>
<path d="M53.7395 36.1797C53.7395 36.1797 52.7088 36.5225 52.6237 39.3784C52.5728 40.3245 52.7528 41.2688 53.1482 42.1299C53.476 42.7804 54.2047 42.7289 54.4811 42.0367C54.6928 41.5039 54.8804 40.6727 54.9243 39.3784C54.9243 39.3784 54.8967 36.4844 53.7395 36.1797Z" fill="#B83677"/>
<path d="M32.748 38.222C32.748 38.222 33.8916 36.7938 36.9929 36.898C36.9929 36.898 37.0386 45.4861 42.7639 54.0173C42.9758 54.3289 43.073 54.7043 43.039 55.0796C43.0051 55.4549 42.8419 55.8067 42.5775 56.0752C42.7494 57.3259 43.1861 58.5255 43.8587 59.5939C44.0197 59.8478 44.0761 60.1541 44.0161 60.4487C43.956 60.7433 43.7842 61.0031 43.5366 61.1737C43.1341 61.4463 42.6837 61.6403 42.2091 61.7454C41.9318 61.8042 41.6426 61.7584 41.3971 61.617C41.1515 61.4755 40.9668 61.2483 40.8785 60.979L39.5232 56.9271L39.2037 59.0823C39.1717 59.2978 39.0951 59.5043 38.9786 59.6885C38.8622 59.8727 38.7086 60.0306 38.5276 60.1519C38.3466 60.2732 38.1422 60.3554 37.9276 60.3932C37.713 60.4309 37.4928 60.4234 37.2813 60.3711C36.9377 60.2865 36.6331 60.0878 36.4171 59.8075C36.2012 59.5272 36.0868 59.1819 36.0927 58.8282C36.1102 57.8117 36.1651 56.212 36.3237 54.177C36.4636 52.3983 36.2203 50.6103 35.61 48.9337C34.5815 46.1113 33.0581 41.5079 32.748 38.222Z" fill="#A0CEFF"/>
<path d="M53.2144 26.1046C54.8803 25.0189 56.0752 23.3446 56.5603 21.4162C57.2087 18.7056 58.7641 17.9354 59.2275 17.7622C57.8876 18.2018 56.3081 18.674 54.6483 19.0751C54.5251 19.5991 54.4792 20.1383 54.5119 20.6756C54.5587 21.7855 54.2947 22.8863 53.7495 23.8542C53.4259 24.4412 53.0667 25.0079 52.674 25.5511C52.6202 25.6261 52.5945 25.7176 52.6015 25.8097C52.6085 25.9017 52.6476 25.9884 52.7121 26.0544C52.7766 26.1205 52.8623 26.1617 52.9541 26.1709C53.046 26.1801 53.1381 26.1566 53.2144 26.1046ZM35.4706 34.9155C36.5779 34.7504 37.6226 34.2982 38.5008 33.6038C39.3789 32.9094 40.0598 31.997 40.4757 30.9576C40.5046 30.8906 40.5561 30.8359 40.6213 30.8031C40.6864 30.7703 40.7611 30.7615 40.8321 30.7782C40.9031 30.7949 40.966 30.836 41.0097 30.8944C41.0534 30.9528 41.0752 31.0248 41.0712 31.0976C41.0013 32.4106 40.6155 34.1403 39.2464 35.3619L35.4706 34.9155ZM17.8069 38.0856C17.9935 37.8012 18.4554 37.7987 18.8446 37.6886C19.2637 37.57 21.2424 37.005 22.6159 36.0963C22.688 36.05 22.7736 36.0294 22.8589 36.0378C22.9442 36.0461 23.0242 36.083 23.086 36.1424C23.1478 36.2018 23.1877 36.2802 23.1994 36.3651C23.2111 36.45 23.1938 36.5364 23.1504 36.6103C22.4882 37.7495 21.4534 38.6253 20.2204 39.09C17.0526 40.3636 17.4973 43.0268 17.4973 43.0268C17.4973 43.0268 15.8382 41.0872 17.8069 38.0856ZM38.4843 23.4741C38.5798 23.4083 38.6508 23.3126 38.6861 23.202C38.7214 23.0915 38.719 22.9724 38.6793 22.8634C38.6396 22.7544 38.5648 22.6616 38.4667 22.5997C38.3686 22.5377 38.2527 22.5101 38.1372 22.5212C36.6781 22.6815 34.797 23.4724 33.7261 26.2213C33.2133 27.6322 32.2947 28.86 31.0858 29.7502C30.988 29.8212 30.9178 29.9239 30.8869 30.0407C30.856 30.1576 30.8664 30.2816 30.9163 30.3917C30.9663 30.5018 31.0527 30.5913 31.161 30.6451C31.2692 30.6988 31.3928 30.7136 31.5106 30.6868C32.7726 30.3903 34.2829 29.5174 35.3715 27.2338C35.6918 26.5394 36.0937 25.8858 36.5689 25.2868C37.1194 24.5959 37.7641 23.9857 38.4843 23.4741Z" fill="#F49F42"/>
<path d="M9.5583 57.9372C11.8515 60.8117 15.3357 62.4072 19.9231 62.6824C19.967 62.6846 20.1607 62.693 20.471 62.693C22.1496 62.693 27.2282 62.4451 30.2771 59.6078C31.1518 59.5981 32.0244 59.5194 32.8867 59.3723C32.997 59.3548 33.1028 59.3156 33.1979 59.257C33.2931 59.1984 33.3756 59.1216 33.4409 59.031C33.5063 58.9403 33.553 58.8377 33.5785 58.7289C33.6039 58.6201 33.6076 58.5074 33.5893 58.3972C33.5711 58.287 33.5312 58.1815 33.4719 58.0868C33.4127 57.992 33.3354 57.91 33.2443 57.8453C33.1532 57.7806 33.0502 57.7345 32.9413 57.7098C32.8324 57.685 32.7196 57.6821 32.6095 57.7011C31.7435 57.855 30.8646 57.9247 29.9851 57.9093C29.8644 57.9024 29.7437 57.9215 29.6311 57.9653C29.5184 58.0092 29.4165 58.0767 29.3322 58.1634C26.318 61.2511 20.0682 60.993 20.0146 60.9909C15.9407 60.7473 12.8703 59.3675 10.889 56.8896C7.36865 52.4868 8.383 45.9837 8.39359 45.9202C8.4239 45.7364 8.39295 45.5478 8.3055 45.3834C5.71392 40.52 5.27409 35.6882 6.9987 31.0223C7.75761 28.9362 8.92083 27.0203 10.4217 25.3845C10.5158 25.2923 10.587 25.1793 10.6296 25.0546C12.1588 20.5898 14.567 17.9923 17.7885 17.3335C18.8106 17.1367 19.8616 17.1445 20.8807 17.3563C21.8997 17.5682 22.8667 17.9799 23.7258 18.5676C24.472 19.1004 25.2651 19.5642 26.0952 19.9534C26.1599 19.9832 26.2281 20.0046 26.2983 20.0169C26.5061 20.0762 26.7 20.1763 26.8686 20.3115C27.0372 20.4466 27.1771 20.6141 27.28 20.8041C27.6538 21.4457 27.9304 22.7373 27.124 25.2458C27.1165 25.2698 27.1098 25.294 27.1041 25.3185C27.0649 25.4906 26.1348 29.3524 22.253 29.7393C22.02 28.9068 21.7379 27.1055 22.5943 24.6459C22.6309 24.5408 22.6464 24.4296 22.64 24.3186C22.6336 24.2075 22.6054 24.0988 22.557 23.9987C22.5086 23.8985 22.4409 23.8089 22.3579 23.7349C22.2748 23.6609 22.178 23.604 22.073 23.5674C21.9679 23.5308 21.8567 23.5153 21.7456 23.5217C21.6346 23.5281 21.5259 23.5563 21.4257 23.6047C21.3256 23.6531 21.2359 23.7208 21.1619 23.8038C21.0879 23.8869 21.031 23.9837 20.9944 24.0887C20.0889 26.6896 20.2785 28.7279 20.5497 29.8962C19.9626 29.8596 19.3997 29.6489 18.9329 29.291C18.9304 29.2891 18.9272 29.2876 18.9244 29.2855C18.9217 29.2833 18.9219 29.2829 18.9202 29.2816C16.8805 27.8105 16.7602 26.3481 16.7545 26.2623C16.7467 26.0429 16.6541 25.835 16.4961 25.6825C16.338 25.5301 16.127 25.445 15.9074 25.4451H15.8892C15.6646 25.4498 15.4511 25.5436 15.2956 25.7057C15.1401 25.8679 15.0554 26.0851 15.0602 26.3097C15.0621 26.3997 15.1353 28.4333 17.5448 30.3627C17.3544 31.7929 16.8532 33.164 16.0764 34.3799C15.5058 35.2737 15.1072 36.2661 14.9009 37.3063C14.5158 39.3681 14.5423 41.4858 14.9791 43.5374C14.5767 43.4019 14.1575 43.3231 13.7334 43.3032H13.7273C13.5019 43.3046 13.2862 43.3951 13.1272 43.5549C12.9682 43.7148 12.8789 43.931 12.8788 44.1564C12.8787 44.3792 12.9671 44.5929 13.1245 44.7506C13.2819 44.9082 13.4954 44.997 13.7182 44.9973H13.7246C13.732 44.9973 14.4761 45.0274 15.8123 45.7057C16.0241 45.8488 17.6164 46.9975 19.2171 49.991C19.2188 49.9941 19.2213 49.9967 19.223 49.9996C19.2247 50.0026 19.2254 50.0058 19.2271 50.0087C19.2347 50.0225 19.9945 51.4316 19.9945 53.8434C19.9945 54.068 20.0837 54.2835 20.2426 54.4423C20.4014 54.6012 20.6169 54.6904 20.8415 54.6904C21.0662 54.6904 21.2817 54.6012 21.4405 54.4423C21.5994 54.2835 21.6886 54.068 21.6886 53.8434C21.6944 52.7779 21.5561 51.7165 21.2776 50.6881C22.3475 50.84 23.4267 50.9172 24.5074 50.9191C27.6532 50.9191 31.6373 50.2203 34.1003 47.1938C34.3302 47.8733 34.5681 48.55 34.814 49.2239C35.3849 50.7862 35.6117 52.4534 35.4787 54.1115C35.3174 56.1878 35.2627 57.8148 35.2458 58.8127C35.2371 59.3396 35.4013 59.8549 35.7133 60.2797C36.0253 60.7045 36.4679 61.0153 36.9734 61.1646C37.4788 61.3138 38.0193 61.2934 38.512 61.1063C39.0047 60.9191 39.4226 60.5757 39.7015 60.1286L40.0751 61.2465C40.227 61.7165 40.549 62.1129 40.9779 62.3579C41.4068 62.603 41.9118 62.679 42.3939 62.5711C42.9723 62.4428 43.5212 62.2064 44.0118 61.8743C44.4408 61.5816 44.7397 61.1339 44.8454 60.6254C44.9512 60.1169 44.8557 59.5872 44.5789 59.1477C44.0419 58.2783 43.6664 57.3192 43.4703 56.3164L43.4788 56.3026C43.7261 56.5743 44.0025 56.818 44.303 57.0294C44.6735 57.2853 45.1132 57.4224 45.5636 57.4224C45.944 57.4224 46.3183 57.3269 46.6523 57.1447C46.9863 56.9626 47.2692 56.6995 47.4752 56.3797L48.4982 54.7883C48.7952 54.3206 48.9114 53.7607 48.825 53.2135C48.7386 52.6663 48.4556 52.1694 48.029 51.8159C47.325 51.2253 46.681 50.5666 46.1063 49.8495C46.64 48.8515 47.1 47.8158 47.4828 46.7507C47.4849 46.7448 47.4881 46.7393 47.49 46.733L47.4991 46.7046C47.6203 46.3687 47.7347 46.0303 47.8422 45.6898C48.8764 45.9977 50.7696 46.3154 53.8031 46.0075C53.8097 46.0075 53.8158 46.0087 53.8222 46.0087C53.8702 46.0087 53.9186 46.0075 53.9673 46.0049C54.4379 45.9831 54.8947 45.839 55.2927 45.5868C55.6907 45.3347 56.0161 44.9831 56.2367 44.5668C56.9161 43.2977 57.31 41.5634 57.4078 39.4123V39.3631C57.4048 39.1355 57.3036 34.069 54.4029 32.9354C54.4863 32.9073 54.5695 32.8797 54.653 32.8507C62.0802 30.2784 66.58 25.7831 67.6659 19.8507C67.6687 19.8357 67.6712 19.8206 67.6731 19.8052C67.7051 19.5534 67.9463 17.3063 66.5321 16.0569C65.6815 15.305 64.485 15.118 62.9745 15.5038C62.9352 15.5139 62.8966 15.5267 62.8591 15.5421C62.8053 15.5646 57.418 17.7868 52.0855 18.7557C48.9372 19.3274 44.8758 19.4147 41.3683 19.3374C41.5529 18.1561 41.7628 16.9789 41.9979 15.8066C42.0286 15.6567 42.0182 15.5013 41.9677 15.3568C41.9171 15.2124 41.8284 15.0843 41.711 14.9863C39.2636 12.9436 37.1216 14.1828 37.031 14.2368C36.8523 14.3437 36.7192 14.5126 36.657 14.7114C36.2285 16.139 35.9104 17.5974 35.7055 19.0737C35.0358 19.0275 34.3665 18.9737 33.698 18.9124C33.4794 18.8795 33.2589 18.8606 33.0379 18.8558C32.3746 16.1171 31.4853 13.4382 30.3792 10.8465C30.1629 10.3342 29.7829 9.90805 29.2987 9.63464C28.8145 9.36123 28.2533 9.25597 27.7029 9.33531C27.6606 9.34166 27.6182 9.34844 27.5759 9.35649C27.2313 9.41587 26.9026 9.54579 26.6106 9.73812C26.3185 9.93045 26.0693 10.181 25.8786 10.4742C25.688 10.7673 25.5599 11.0967 25.5024 11.4416C25.445 11.7865 25.4594 12.1396 25.5448 12.4787C25.871 13.7775 26.2191 15.3103 26.5793 17.0349C26.6003 17.1454 26.6431 17.2507 26.7052 17.3445C26.7673 17.4384 26.8475 17.5189 26.9411 17.5814C27.0347 17.6439 27.1398 17.6871 27.2503 17.7085C27.3608 17.7299 27.4744 17.7291 27.5846 17.7061C27.6947 17.6831 27.7992 17.6384 27.8919 17.5746C27.9846 17.5108 28.0636 17.4291 28.1244 17.3344C28.1852 17.2397 28.2265 17.1339 28.2459 17.023C28.2653 16.9122 28.2624 16.7986 28.2374 16.6888C27.8726 14.942 27.5195 13.3868 27.1881 12.0664C27.1595 11.9535 27.1545 11.8358 27.1734 11.7209C27.1924 11.6059 27.235 11.4961 27.2985 11.3984C27.3619 11.3006 27.4449 11.2171 27.5422 11.153C27.6395 11.0889 27.749 11.0456 27.8639 11.0258L27.9535 11.0114C28.1334 10.9872 28.3164 11.0235 28.4735 11.1145C28.6307 11.2056 28.7531 11.3462 28.8217 11.5144C29.855 13.9366 30.693 16.4376 31.3275 18.9935C30.4141 19.1635 29.5298 19.4635 28.7016 19.8846C28.2619 19.1409 27.548 18.5994 26.7134 18.3764C26.0017 18.0274 25.319 17.6222 24.6719 17.1645C23.6259 16.4512 22.4489 15.9523 21.2089 15.6965C19.9689 15.4408 18.6905 15.4334 17.4476 15.6747C14.8257 16.2111 11.2596 18.1507 9.08945 24.3257C7.49933 26.0875 6.25963 28.1363 5.43672 30.3623C4.12526 33.8663 3.28985 39.3957 6.68084 45.934C6.50147 47.3454 5.97608 53.447 9.5583 57.9372ZM43.0614 60.4725C42.7467 60.6852 42.3946 60.8365 42.0237 60.9184C41.9511 60.9312 41.8762 60.917 41.8132 60.8786C41.7502 60.8403 41.7033 60.7803 41.6813 60.7099L40.326 56.6582C40.2697 56.4897 40.1619 56.3432 40.0178 56.2394C39.8737 56.1356 39.7006 56.0797 39.523 56.0796C39.4981 56.0791 39.4732 56.0802 39.4485 56.083C39.2587 56.0997 39.0802 56.1798 38.9416 56.3104C38.803 56.4411 38.7125 56.6146 38.6846 56.803L38.3644 58.9586C38.3377 59.1385 38.2437 59.3015 38.1013 59.4146C37.9589 59.5278 37.7788 59.5826 37.5975 59.568C37.4163 59.5534 37.2473 59.4704 37.1249 59.3359C37.0025 59.2014 36.9357 59.0254 36.9382 58.8436C36.9551 57.8678 37.0085 56.2776 37.1669 54.2434C37.3191 52.3439 37.059 50.4339 36.4046 48.6441C35.5238 46.2279 34.0281 41.7942 33.6349 38.555C33.715 38.4951 33.7981 38.4393 33.8839 38.3879C34.1801 38.2715 34.4717 38.1438 34.7581 38.0051C35.0902 37.9037 35.4308 37.8328 35.7758 37.7933C36.2527 45.4639 39.7026 50.6362 40.1356 51.2575C40.7183 52.3691 41.3605 53.4484 42.0595 54.4907C42.1615 54.6402 42.2088 54.8203 42.1933 55.0005C42.1779 55.1808 42.1007 55.3502 41.9748 55.4801C41.8882 55.5676 41.8216 55.6728 41.7797 55.7885C41.7378 55.9043 41.7216 56.0277 41.7321 56.1503C41.9156 57.5331 42.3946 58.8602 43.1368 60.0413C43.1819 60.1091 43.1992 60.1917 43.1852 60.2719C43.1712 60.3522 43.1268 60.424 43.0614 60.4725ZM55.7133 39.3619C55.6254 41.2466 55.2986 42.7289 54.7423 43.7678C54.6578 43.925 54.5343 44.0578 54.3836 44.1533C54.2329 44.2489 54.0602 44.304 53.882 44.3134C53.7038 44.3228 53.5262 44.2862 53.3663 44.207C53.2064 44.1278 53.0696 44.0088 52.969 43.8614C51.6137 41.8558 51.8392 39.4872 51.8414 39.466C51.8435 39.4449 51.8447 39.4275 51.8456 39.4082C51.9885 35.8358 53.2922 34.7706 53.7589 34.5023C55.2868 35.0774 55.6917 38.2194 55.7133 39.3619ZM50.1538 39.3159C50.034 41.1014 50.4431 42.8827 51.3299 44.437C49.5344 44.4211 48.4836 44.1325 48.0194 43.9629C48.0296 43.1046 47.8826 42.2516 47.5857 41.4463C46.9185 39.6579 45.8774 39.0188 45.761 38.9517C45.5655 38.8389 45.3334 38.808 45.1152 38.8656C44.8971 38.9232 44.7105 39.0648 44.5962 39.2594C44.5401 39.3549 44.5035 39.4605 44.4884 39.5703C44.4734 39.68 44.4802 39.7916 44.5085 39.8987C44.5368 40.0058 44.586 40.1063 44.6533 40.1942C44.7206 40.2822 44.8046 40.356 44.9006 40.4114C44.9268 40.4281 45.5477 40.8323 45.9977 42.0386C46.4187 43.2094 46.4369 44.4872 46.0494 45.6695L45.8956 46.1527C45.6332 46.8837 45.3328 47.6005 44.9954 48.3C43.1359 45.3777 42.1118 41.9526 41.5515 39.2153C41.5302 39.1055 41.4873 39.0009 41.4253 38.9077C41.3633 38.8145 41.2835 38.7346 41.1904 38.6724C41.0973 38.6103 40.9929 38.5672 40.883 38.5456C40.7732 38.5241 40.6602 38.5245 40.5506 38.5469C40.4409 38.5693 40.3368 38.6132 40.2442 38.676C40.1516 38.7389 40.0724 38.8195 40.0111 38.9131C39.9499 39.0068 39.9078 39.1117 39.8873 39.2217C39.8668 39.3317 39.8683 39.4447 39.8917 39.5541C40.7572 43.7833 42.6834 49.5693 46.9434 53.1183C47.0542 53.206 47.1286 53.3316 47.1523 53.4709C47.1759 53.6102 47.1472 53.7533 47.0716 53.8726L46.0487 55.464C46.0074 55.5291 45.9532 55.585 45.8895 55.6285C45.8258 55.672 45.754 55.7022 45.6784 55.7171C45.6067 55.7321 45.5328 55.7325 45.461 55.7181C45.3893 55.7038 45.3211 55.675 45.2608 55.6336C44.3733 55.0235 43.4004 53.4313 41.6256 50.4431C39.5545 46.4723 38.282 42.134 37.8799 37.6737C39.4485 37.4998 42.7452 36.9058 44.265 34.9279C46.932 34.7429 49.575 34.3024 52.1577 33.6124C51.2867 34.4542 50.2866 36.1106 50.1538 39.3159ZM38.1626 15.5883C38.5518 15.472 39.3072 15.3888 40.2333 15.9957C40.0211 17.089 39.8305 18.1863 39.6615 19.287C38.9079 19.2586 38.1547 19.2233 37.4018 19.1811C37.5767 17.9682 37.8309 16.768 38.1626 15.5883ZM33.5038 20.5951C33.9788 20.6419 45.2182 21.7267 52.3886 20.4231C53.7599 20.1739 55.1229 19.8488 56.4011 19.5C56.1238 20.0386 55.9038 20.6048 55.7446 21.1893C55.013 23.8185 53.0707 24.3943 52.9959 24.4157C52.8868 24.4425 52.7842 24.4908 52.6939 24.5576C52.6037 24.6245 52.5276 24.7086 52.4702 24.8051C52.4128 24.9016 52.3751 25.0086 52.3594 25.1198C52.3437 25.231 52.3503 25.3443 52.3787 25.4529C52.4072 25.5616 52.457 25.6635 52.5252 25.7527C52.5934 25.8419 52.6787 25.9167 52.776 25.9727C52.8734 26.0286 52.981 26.0647 53.0924 26.0787C53.2038 26.0927 53.3169 26.0844 53.4251 26.0543C53.5452 26.023 56.375 25.2435 57.3767 21.6435C58.027 19.3069 59.248 18.6748 59.539 18.5545C61.6249 17.8686 63.1229 17.2655 63.4492 17.1319C64.3516 16.9108 65.0099 16.9756 65.4068 17.3241C66.0351 17.8747 66.0453 19.1165 65.9949 19.5722C65.0049 24.9208 61.0148 28.8456 54.136 31.2375C50.788 32.3678 47.3043 33.0472 43.7769 33.2577C43.6348 33.2624 43.4962 33.3029 43.3738 33.3753C43.2514 33.4476 43.1492 33.5497 43.0766 33.6719C42.166 35.2055 39.3307 35.8163 37.6868 35.995C39.3286 34.4392 39.9262 32.9181 39.9635 32.8198C40.0432 32.6098 40.0362 32.3766 39.944 32.1718C39.8518 31.9669 39.682 31.807 39.472 31.7273C39.2619 31.6476 39.0288 31.6546 38.8239 31.7468C38.619 31.839 38.4592 32.0088 38.3795 32.2188C38.3687 32.2472 37.3562 34.8235 34.1186 36.4315C33.7771 36.5449 33.4471 36.6904 33.133 36.866C30.1111 38.1021 29.2232 41.4482 29.1863 41.5913C29.1311 41.8087 29.1642 42.0391 29.2786 42.232C29.3929 42.4249 29.5791 42.5646 29.7964 42.6205C30.0136 42.6763 30.2441 42.6437 30.4373 42.5299C30.6305 42.416 30.7707 42.2302 30.8271 42.0131C31.0875 41.1594 31.5168 40.3666 32.0894 39.6818C32.4219 41.5344 32.8741 43.3635 33.4432 45.1576C30.4404 50.377 22.3283 49.1812 20.5201 48.8411C19.0377 46.1879 17.5619 44.8984 16.9582 44.4434C16.6257 43.3505 16.4223 42.2226 16.3519 41.0824C16.4044 40.7752 16.7869 39.1518 19.0752 38.504C19.6128 38.3548 20.1373 38.1618 20.6433 37.9269C20.8465 37.8311 21.0033 37.6584 21.0791 37.447C21.155 37.2355 21.1438 37.0026 21.0479 36.7994C20.952 36.5962 20.7794 36.4395 20.5679 36.3636C20.3565 36.2877 20.1235 36.2989 19.9204 36.3948C19.4988 36.5899 19.0619 36.7501 18.6142 36.874C17.8574 37.0772 17.146 37.4222 16.5177 37.8905C16.5332 37.7995 16.5489 37.7101 16.5654 37.6243C16.7322 36.7909 17.0532 35.9959 17.512 35.2803C18.2822 34.0638 18.8242 32.717 19.1114 31.3061C19.9716 31.6286 20.9094 31.6824 21.8008 31.4603C26.2765 31.3597 28.2942 27.7023 28.7482 25.7278C29.2753 24.076 29.447 22.6617 29.2691 21.4989C31.5551 20.273 33.353 20.5703 33.4284 20.5838C33.4532 20.5889 33.4786 20.5925 33.504 20.5951H33.5038Z" fill="#3C3C4F"/>
<path d="M22.8038 22.0349C22.8955 22.0979 22.9987 22.1422 23.1075 22.1653C23.2163 22.1884 23.3286 22.1899 23.438 22.1696C23.5474 22.1493 23.6517 22.1077 23.745 22.0471C23.8382 21.9865 23.9187 21.9081 23.9817 21.8164C24.04 21.7317 24.0981 21.6506 24.1562 21.5731C24.2229 21.4841 24.2715 21.3828 24.2991 21.2751C24.3267 21.1673 24.3328 21.0552 24.3171 20.945C24.3013 20.8349 24.2641 20.729 24.2074 20.6333C24.1507 20.5375 24.0757 20.4539 23.9867 20.3872C23.8978 20.3204 23.7965 20.2719 23.6887 20.2443C23.581 20.2167 23.4688 20.2106 23.3587 20.2263C23.2486 20.242 23.1427 20.2793 23.0469 20.336C22.9512 20.3926 22.8676 20.4676 22.8009 20.5566C22.7296 20.6519 22.6581 20.7516 22.5863 20.8558C22.5231 20.9475 22.4786 21.0507 22.4553 21.1596C22.432 21.2685 22.4304 21.381 22.4506 21.4905C22.4708 21.6 22.5124 21.7045 22.573 21.7979C22.6336 21.8913 22.712 21.9719 22.8038 22.0349Z" fill="#3C3C4F"/>
</svg>
