<svg width="30" height="30" viewBox="0 0 30 30" fill="none" xmlns="http://www.w3.org/2000/svg">
<path d="M12.7344 30C11.9832 29.9995 11.2628 29.6848 10.7317 29.1251C10.2005 28.5654 9.90194 27.8064 9.90161 27.0149V15.6134L0.73663 4.99172C0.367506 4.56393 0.124269 4.03238 0.0364825 3.46169C-0.0513038 2.89099 0.0201402 2.30571 0.242131 1.77699C0.464123 1.24827 0.827102 0.798866 1.28695 0.483404C1.74681 0.167942 2.28373 3.81238e-06 2.83247 0H27.1675C27.7163 -6.46233e-07 28.2532 0.167926 28.713 0.483373C29.1729 0.798819 29.5358 1.2482 29.7578 1.7769C29.9798 2.30561 30.0513 2.89087 29.9635 3.46155C29.8758 4.03224 29.6326 4.56378 29.2635 4.99157L20.0984 15.6134V23.8318C20.0989 24.3232 19.984 24.8071 19.7639 25.2404C19.5438 25.6736 19.2253 26.0428 18.8369 26.3149L14.3052 29.4979C13.8402 29.8252 13.2936 29.9999 12.7344 30ZM4.11302 3.58106L12.5639 13.3752C13.0385 13.9241 13.3012 14.6401 13.3005 15.3826V25.8996L16.6995 23.5124V15.3826C16.6989 14.6399 16.9617 13.9238 17.4365 13.3748L25.887 3.58106H4.11302Z" fill="#292828"/>
</svg>
