<svg width="65" height="65" viewBox="0 0 65 65" fill="none" xmlns="http://www.w3.org/2000/svg">
<g clip-path="url(#clip0_429_255)">
<path d="M42.9502 51.0509C42.9502 46.4757 45.4736 42.5115 49.1755 40.3707C46.8591 39.6298 44.3646 39.0429 41.7427 38.634C47.3763 35.5093 51.1937 29.5077 51.1937 22.6065C51.1937 12.4868 42.9911 4.28418 32.8714 4.28418C22.7517 4.28418 14.5491 12.4868 14.5491 22.6065C14.5491 29.5053 18.3666 35.5093 24.0001 38.634C10.1592 40.7917 0.000976562 47.8613 0.000976562 56.2611H44.1409C43.3977 54.6687 42.9502 52.9199 42.9502 51.0509Z" fill="#136371"/>
<path d="M55.336 41.3882C50.0007 41.3882 45.6709 45.7108 45.6709 51.0533C45.6709 56.391 50.0007 60.716 55.336 60.716C60.6737 60.716 65.0011 56.391 65.0011 51.0533C64.9963 45.7084 60.6737 41.3882 55.336 41.3882ZM61.6455 52.766H57.0535V57.3604H53.6209V52.766H49.0265V49.3286H53.6209V44.7318H57.0535V49.3286H61.6455V52.766Z" fill="#136371"/>
</g>
<defs>
<clipPath id="clip0_429_255">
<rect width="65" height="65" fill="white"/>
</clipPath>
</defs>
</svg>
