<svg width="45" height="45" viewBox="0 0 45 45" fill="none" xmlns="http://www.w3.org/2000/svg">
<path d="M16.875 9.375H13.125C11.0539 9.375 9.375 11.0539 9.375 13.125V35.625C9.375 37.6961 11.0539 39.375 13.125 39.375H16.875M28.125 9.375H31.875C33.9461 9.375 35.625 11.0539 35.625 13.125V16.875" stroke="black" stroke-width="3" stroke-linecap="round" stroke-linejoin="round"/>
<path d="M27.9409 38.1268L23.8408 38.9468L24.6608 34.8469C24.7335 34.4839 24.9118 34.1505 25.1736 33.8887L32.8121 26.25L36.5621 22.5L40.2876 26.2254L36.5376 29.9754L28.899 37.614C28.6373 37.8758 28.3039 38.0542 27.9409 38.1268Z" stroke="black" stroke-width="3" stroke-linecap="round" stroke-linejoin="round"/>
<path d="M16.875 9.375C16.875 7.30393 18.5539 5.625 20.625 5.625H24.375C26.4461 5.625 28.125 7.30393 28.125 9.375V13.125H16.875V9.375Z" stroke="black" stroke-width="3" stroke-linecap="round" stroke-linejoin="round"/>
</svg>
