<svg width="30" height="30" viewBox="0 0 30 30" fill="none" xmlns="http://www.w3.org/2000/svg">
<path d="M18.3879 5.71582C15.5872 6.61283 13.7498 8.81793 12.8758 12.3311C11.5648 17.6009 9.94 18.2729 4.65039 16.3985C6.55011 19.9074 10.4005 21.3143 12.8758 21.3143C15.3511 21.3143 21.7619 17.8679 21.0273 11.317C20.3897 9.40906 19.5099 7.54199 18.3879 5.71582Z" fill="#A54949"/>
<mask id="mask0_643_266" style="mask-type:luminance" maskUnits="userSpaceOnUse" x="4" y="5" width="18" height="17">
<path d="M18.3879 5.71582C15.5872 6.61283 13.7498 8.81793 12.8758 12.3311C11.5648 17.6009 9.94 18.2729 4.65039 16.3985C6.55011 19.9074 10.4005 21.3143 12.8758 21.3143C15.3511 21.3143 21.7619 17.8679 21.0273 11.317C20.3897 9.40906 19.5099 7.54199 18.3879 5.71582Z" fill="#FFA0A0"/>
</mask>
<g mask="url(#mask0_643_266)">
<path d="M30 0H0V30H30V0Z" fill="#A54949"/>
</g>
<path d="M20.2239 18.4627L27.1376 25.3877C27.6208 25.8709 27.6208 26.6544 27.1376 27.1376C26.6544 27.6208 25.8709 27.6208 25.3877 27.1376L18.4754 20.214C16.7982 21.52 14.6894 22.2979 12.399 22.2979C6.93192 22.2979 2.5 17.866 2.5 12.399C2.5 6.93192 6.93192 2.5 12.399 2.5C17.866 2.5 22.2979 6.93192 22.2979 12.399C22.2979 14.6836 21.524 16.7875 20.2239 18.4627ZM12.399 19.8232C16.4992 19.8232 19.8232 16.4992 19.8232 12.399C19.8232 8.29868 16.4992 4.97474 12.399 4.97474C8.29868 4.97474 4.97474 8.29868 4.97474 12.399C4.97474 16.4992 8.29868 19.8232 12.399 19.8232Z" fill="#136371"/>
<mask id="mask1_643_266" style="mask-type:luminance" maskUnits="userSpaceOnUse" x="2" y="2" width="26" height="26">
<path d="M20.2239 18.4627L27.1376 25.3877C27.6208 25.8709 27.6208 26.6544 27.1376 27.1376C26.6544 27.6208 25.8709 27.6208 25.3877 27.1376L18.4754 20.214C16.7982 21.52 14.6894 22.2979 12.399 22.2979C6.93192 22.2979 2.5 17.866 2.5 12.399C2.5 6.93192 6.93192 2.5 12.399 2.5C17.866 2.5 22.2979 6.93192 22.2979 12.399C22.2979 14.6836 21.524 16.7875 20.2239 18.4627ZM12.399 19.8232C16.4992 19.8232 19.8232 16.4992 19.8232 12.399C19.8232 8.29868 16.4992 4.97474 12.399 4.97474C8.29868 4.97474 4.97474 8.29868 4.97474 12.399C4.97474 16.4992 8.29868 19.8232 12.399 19.8232Z" fill="#7600FF"/>
</mask>
<g mask="url(#mask1_643_266)">
<path d="M30 0H0V30H30V0Z" fill="#136371"/>
</g>
</svg>
