<svg width="45" height="25" viewBox="0 0 45 25" fill="none" xmlns="http://www.w3.org/2000/svg">
<path d="M37.2414 12.0536C37.2414 12.6929 36.9961 13.3061 36.5596 13.7582C36.1231 14.2103 35.5311 14.4643 34.9138 14.4643H10.0862C9.46889 14.4643 8.87686 14.2103 8.44035 13.7582C8.00385 13.3061 7.75862 12.6929 7.75862 12.0536C7.75862 11.4142 8.00385 10.801 8.44035 10.3489C8.87686 9.89684 9.46889 9.64286 10.0862 9.64286H34.9138C35.5311 9.64287 36.1231 9.89686 36.5596 10.349C36.9961 10.801 37.2414 11.4142 37.2414 12.0536ZM42.6724 0H2.32759C1.71027 0 1.11824 0.253985 0.681734 0.706082C0.245227 1.15818 0 1.77135 0 2.41071C0 3.05008 0.245227 3.66325 0.681734 4.11535C1.11824 4.56744 1.71027 4.82143 2.32759 4.82143H42.6724C43.2897 4.82143 43.8818 4.56744 44.3183 4.11535C44.7548 3.66325 45 3.05008 45 2.41071C45 1.77135 44.7548 1.15818 44.3183 0.706082C43.8818 0.253985 43.2897 0 42.6724 0ZM27.1552 19.2857H17.8448C17.2275 19.2857 16.6355 19.5397 16.199 19.9918C15.7625 20.4439 15.5172 21.0571 15.5172 21.6964C15.5172 22.3358 15.7625 22.949 16.199 23.4011C16.6355 23.8532 17.2275 24.1071 17.8448 24.1071H27.1552C27.7725 24.1071 28.3645 23.8532 28.801 23.4011C29.2375 22.949 29.4828 22.3358 29.4828 21.6964C29.4828 21.0571 29.2375 20.4439 28.801 19.9918C28.3645 19.5397 27.7725 19.2857 27.1552 19.2857Z" fill="#292828"/>
</svg>
